<svg height="512" viewBox="0 0 34 58" width="512" xmlns="http://www.w3.org/2000/svg"><g id="Page-1" fill="none" fill-rule="evenodd"><g id="001---Mobile-Spanner" transform="translate(-1)"><path id="Path" d="m28 0h4c1.6568542 0 3 1.34314575 3 3v49c0 1.6568542-1.3431458 3-3 3h-28c-1.65685425 0-3-1.3431458-3-3v-49c0-1.65685425 1.34314575-3 3-3z" fill="#90bae1"/><path id="Path" d="m35 50v5c0 1.6568542-1.3431458 3-3 3h-28c-1.65685425 0-3-1.3431458-3-3v-5c0 1.6568542 1.34314575 3 3 3h28c1.6568542 0 3-1.3431458 3-3z" fill="#547580"/><path id="Path" d="m35 3v1s-33.14 1.95-33.98 46.26c-.01658959-.0856164-.02330014-.1728536-.02-.26v-47c0-1.65685425 1.34314575-3 3-3h4l2.86 3.05c.5663757.60708315 1.3597411.95123705 2.19.95h9.9c.8302589.00123705 1.6236243-.34291685 2.19-.95l2.86-3.05h4c1.6568542 0 3 1.34314575 3 3z" fill="#b0d3f0"/><path id="Path" d="m28 0-2.86 3.05c-.5663757.60708315-1.3597411.95123705-2.19.95h-9.9c-.8302589.00123705-1.6236243-.34291685-2.19-.95l-2.86-3.05z" fill="#547580"/><path id="Path" d="m28 16c-.0020476 3.9743517-2.3574458 7.5702596-6 9.16v19.84c0 2.209139-1.790861 4-4 4s-4-1.790861-4-4v-19.841c-3.1712212-1.3814692-5.40201683-4.3052632-5.89687478-7.7287434-.49485794-3.4234802.81666542-6.85931 3.46687478-9.0822566.446747-.36325478 1.0628085-.43659294 1.5823482-.1883684.5195398.24822454.8495591.7735791.8476518 1.3493684v3.991c.0020295.6290338.2979907 1.2209561.8 1.6l2 1.5c.7088429.5400952 1.6911571.5400952 2.4 0l2-1.5c.5020093-.3790439.7979705-.9709662.8-1.6v-3.99c-.0022419-.57135669.3220086-1.09381768.8349928-1.34541406.5129841-.25159639 1.1246024-.18813825 1.5750072.16341406 2.2760544 1.8977372 3.5913494 4.708585 3.59 7.672z" fill="#4482c3"/><path id="Path" d="m18 44c-.5522847 0-1-.4477153-1-1v-15c0-.5522847.4477153-1 1-1s1 .4477153 1 1v15c0 .5522847-.4477153 1-1 1z" fill="#285680"/></g></g></svg>