<svg height="512" viewBox="0 0 58 58" width="512" xmlns="http://www.w3.org/2000/svg"><g id="Page-1" fill="none" fill-rule="evenodd"><g id="002---Computer-Doctor" transform="translate(-1)"><path id="Path" d="m59 2.18v41.82h-58v-41.82c-.04521019-1.152631.84774936-2.12595691 2-2.18h54c1.1522506.05404309 2.0452102 1.027369 2 2.18z" fill="#90bae1"/><path id="Path" d="m57.39.04c-9.36.38-56.39 4.14-56.39 41.96v-39.82c-.04521019-1.152631.84774936-2.12595691 2-2.18h54c.1311216-.00207169.2620289.01135469.39.04z" fill="#b0d3f0"/><path id="Path" d="m41 54-11 2-11-2 3-6 8-2 8 2z" fill="#3f5c6c"/><path id="Path" d="m59 42v3.82c.0452102 1.152631-.8477494 2.1259569-2 2.18h-54c-1.15225064-.0540431-2.04521019-1.027369-2-2.18v-3.82z" fill="#547580"/><path id="Path" d="m47 56c-.0032948 1.1032019-.8967981 1.9967052-2 2h-30c-1.1011688-.0081672-1.9918328-.8988312-2-2 .0032948-1.1032019.8967981-1.9967052 2-2h30c1.1011688.0081672 1.9918328.8988312 2 2z" fill="#547580"/><path id="Path" d="m35 39h-7c-2.8456462-.0064006-5.4755956-1.5176515-6.914-3.973-1.5010252-2.635773-1.4493015-5.8794261.135-8.466l1.741.983c-1.2237951 1.9705415-1.2808572 4.4502512-.149 6.475 1.0791296 1.8420807 3.0521097 2.9759642 5.187 2.981h7c3.3123376-.0033074 5.9966926-2.6876624 6-6v-9h2v9c-.0049599 4.4162219-3.5837781 7.9950401-8 8z" fill="#c03a2b"/><path id="Path" d="m13 17h-2v-9c0-1.65685425 1.3431458-3 3-3h3v2h-3c-.5522847 0-1 .44771525-1 1z" fill="#547580"/><path id="Path" d="m16 4h1c1.1045695 0 2 .8954305 2 2s-.8954305 2-2 2h-1c-.5522847 0-1-.44771525-1-1v-2c0-.55228475.4477153-1 1-1z" fill="#f0c419"/><path id="Path" d="m31 18h-2v-10c0-.55228475-.4477153-1-1-1h-2v-2h2c1.6568542 0 3 1.34314575 3 3z" fill="#547580"/><path id="Path" d="m24 4h1c1.1045695 0 2 .8954305 2 2s-.8954305 2-2 2h-1c-.5522847 0-1-.44771525-1-1v-2c0-.55228475.4477153-1 1-1z" fill="#f0c419" transform="matrix(-1 0 0 -1 50 12)"/><circle id="Oval" cx="42" cy="18" fill="#ecf0f1" r="6"/><circle id="Oval" cx="42" cy="18" fill="#bdc3c7" r="2"/><path id="Path" d="m32 16c-.0047941 5.3027254-3.7868261 9.8495684-9 10.82v2.18c0 1.1045695-.8954305 2-2 2s-2-.8954305-2-2v-2.18c-5.2131739-.9704316-8.9952059-5.5172746-9-10.82 0-1.1045695.8954305-2 2-2s2 .8954305 2 2c0 3.8659932 3.1340068 7 7 7s7-3.1340068 7-7c0-1.1045695.8954305-2 2-2s2 .8954305 2 2z" fill="#e64c3c"/></g></g></svg>