<svg height="512" viewBox="0 0 58 58" width="512" xmlns="http://www.w3.org/2000/svg"><g id="Page-1" fill="none" fill-rule="evenodd"><g id="003---Laptop-Error"><path id="Path" d="m54.64 9c-.4823848-.42786186-1.0628652-.73012384-1.69-.88-.3101127-.08108067-.6294661-.12142005-.95-.12h-46c-2.209139 0-4 1.790861-4 4v38h54.0000006l-.0000006-38c.0006309-1.1493597-.4951491-2.24299206-1.36-3z" fill="#90bae1"/><path id="Path" d="m52 58h-46c-3.3137085 0-6-2.6862915-6-6v-3c0-.5522847.44771525-1 1-1h56c.5522847 0 1 .4477153 1 1v3c0 3.3137085-2.6862915 6-6 6z" fill="#547580"/><path id="Path" d="m19 48h20v2c0 1.6568542-1.3431458 3-3 3h-14c-1.6568542 0-3-1.3431458-3-3z" fill="#3f5c6c"/><path id="Path" d="m52.95 8.12c-11.41.71-50.95 5.65-50.95 39.88v-36c0-2.209139 1.790861-4 4-4h46c.3205339-.00142005.6398873.03891933.95.12z" fill="#90bae1"/><path id="Path" d="m52.95 8.12c-11.41.71-50.95 5.65-50.95 39.88v-36c0-2.209139 1.790861-4 4-4h46c.3205339-.00142005.6398873.03891933.95.12z" fill="#b0d3f0"/><path id="Path" d="m15 53h-3c-.5522847 0-1-.4477153-1-1s.4477153-1 1-1h3c.5522847 0 1 .4477153 1 1s-.4477153 1-1 1z" fill="#3f5c6c"/><circle id="Oval" cx="4" cy="52" fill="#65ddb9" r="1"/><circle id="Oval" cx="8" cy="52" fill="#65ddb9" r="1"/><path id="Path" d="m47 36h-36c-1.85290586.0084353-3.55677981-1.0141797-4.42088144-2.653283-.86410164-1.6391033-.74505411-3.6227252.30888144-5.146717l17.988-26.045c.9391944-1.3498634 2.4795495-2.15464467 4.124-2.15464467s3.1848056.80478127 4.124 2.15464467l17.984 26.045c1.0535173 1.5234003 1.1729063 3.5061258.3098002 5.1449348-.863106 1.638809-2.5656126 2.6620028-4.4178002 2.6550652z" fill="#e64c3c"/><g fill="#fff"><path id="Path" d="m31.842 8.84v.16l-.722 13c-.0645502 1.122228-.9934171 1.999202-2.1175 1.999202s-2.0529498-.876974-2.1175-1.999202l-.723-13c-.0546319-1.03070329.4538443-2.01000368 1.3283252-2.55828929s1.9774822-.57935607 2.8814413-.08116736c.903959.49818871 1.4667571 1.44731236 1.4702335 2.47945665z"/><circle id="Oval" cx="29" cy="30" r="2"/></g></g></g></svg>