<svg height="512" viewBox="0 0 40 58" width="512" xmlns="http://www.w3.org/2000/svg"><g id="Page-1" fill="none" fill-rule="evenodd"><g id="004---Mobile-Plasters"><path id="Path" d="m30 0h4c1.6568542 0 3 1.34314575 3 3v49c0 1.6568542-1.3431458 3-3 3h-28c-1.65685425 0-3-1.3431458-3-3v-49c0-1.65685425 1.34314575-3 3-3z" fill="#90bae1"/><path id="Path" d="m37 50v5c0 1.6568542-1.3431458 3-3 3h-28c-1.65685425 0-3-1.3431458-3-3v-5c0 1.6568542 1.34314575 3 3 3h28c1.6568542 0 3-1.3431458 3-3z" fill="#547580"/><path id="Path" d="m37 3v1s-33.14 1.95-33.98 46.26c-.01658959-.0856164-.02330015-.1728536-.02-.26v-47c0-1.65685425 1.34314575-3 3-3h4l2.86 3.05c.5663757.60708315 1.3597411.95123705 2.19.95h9.9c.8302589.00123705 1.6236243-.34291685 2.19-.95l2.86-3.05h4c1.6568542 0 3 1.34314575 3 3z" fill="#b0d3f0"/><path id="Path" d="m30 0-2.86 3.05c-.5663757.60708315-1.3597411.95123705-2.19.95h-9.9c-.8302589.00123705-1.6236243-.34291685-2.19-.95l-2.86-3.05z" fill="#547580"/><path id="Path" d="m20 39.72-5.86 5.85c-3.2336272 3.2336271-8.47637271 3.233627-11.70999988-.0000001-3.23362716-3.2336272-3.23362721-8.4763727-.00000012-11.7099999l5.85-5.86z" fill="#e57e25"/><path id="Path" d="m37.57 45.57c-3.2351751 3.2298882-8.4748249 3.2298882-11.71 0l-5.86-5.85-11.72-11.72-5.85-5.86c-3.23362721-3.2336272-3.23362721-8.4763728 0-11.71 3.23362721-3.23362721 8.4763728-3.23362721 11.71 0l23.43 23.43c3.2298882 3.2351751 3.2298882 8.4748249 0 11.71z" fill="#f29c1f"/><path id="Path" d="m40 16.28c-.0021123 2.1980372-.8760198 4.3054849-2.43 5.86l-5.86 5.86-11.71-11.71v-.01l5.86-5.85c2.3687297-2.36600572 5.9286596-3.07383503 9.0223147-1.79392823 3.0936551 1.27990681 5.1129375 4.29596753 5.1176853 7.64392823z" fill="#e57e25"/><path id="Path" d="m27.318 32.39-2.93 2.931c-.8095939.8078969-2.1204061.8078969-2.93 0l-8.78-8.781c-.8078969-.8095939-.8078969-2.1204061 0-2.93l2.93-2.931c.8095939-.8078969 2.1204061-.8078969 2.93 0l8.78 8.781c.8078969.8095939.8078969 2.1204061 0 2.93z" fill="#f9eab0"/><g fill="#d25627"><circle id="Oval" cx="30.605" cy="13.149" r="1"/><circle id="Oval" cx="9.392" cy="13.149" r="1"/><circle id="Oval" cx="9.393" cy="42.851" r="1"/><circle id="Oval" cx="30.607" cy="42.851" r="1"/><circle id="Oval" cx="26.362" cy="17.392" r="1"/><circle id="Oval" cx="30.605" cy="21.635" r="1"/><circle id="Oval" cx="34.847" cy="17.392" r="1"/><circle id="Oval" cx="30.605" cy="17.392" r="1"/><circle id="Oval" cx="5.149" cy="38.608" r="1"/><circle id="Oval" cx="9.392" cy="34.365" r="1"/><circle id="Oval" cx="13.634" cy="38.608" r="1"/><circle id="Oval" cx="9.392" cy="38.608" r="1"/><circle id="Oval" cx="9.392" cy="21.635" r="1"/><circle id="Oval" cx="13.634" cy="17.392" r="1"/><circle id="Oval" cx="5.149" cy="17.392" r="1"/><circle id="Oval" cx="9.392" cy="17.392" r="1"/><circle id="Oval" cx="34.847" cy="38.608" r="1"/><circle id="Oval" cx="26.362" cy="38.608" r="1"/><circle id="Oval" cx="30.605" cy="34.365" r="1"/><circle id="Oval" cx="30.605" cy="38.608" r="1"/></g></g></g></svg>