<svg height="512" viewBox="0 0 58 58" width="512" xmlns="http://www.w3.org/2000/svg"><g id="Page-1" fill="none" fill-rule="evenodd"><g id="005---Restart-Computer" transform="translate(-1)"><path id="Path" d="m59 2.18v41.82h-58v-41.82c-.04521019-1.152631.84774936-2.12595691 2-2.18h54c1.1522506.05404309 2.0452102 1.027369 2 2.18z" fill="#90bae1"/><path id="Path" d="m57.39.04c-9.36.38-56.39 4.14-56.39 41.96v-39.82c-.04521019-1.152631.84774936-2.12595691 2-2.18h54c.1311216-.00207169.2620289.01135469.39.04z" fill="#b0d3f0"/><path id="Path" d="m41 54-11 2-11-2 3-6 8-2 8 2z" fill="#3f5c6c"/><path id="Path" d="m59 42v3.82c.0452102 1.152631-.8477494 2.1259569-2 2.18h-54c-1.15225064-.0540431-2.04521019-1.027369-2-2.18v-3.82z" fill="#547580"/><path id="Path" d="m47 56c-.0032948 1.1032019-.8967981 1.9967052-2 2h-30c-1.1011688-.0081672-1.9918328-.8988312-2-2 .0032948-1.1032019.8967981-1.9967052 2-2h30c1.1011688.0081672 1.9918328.8988312 2 2z" fill="#547580"/><path id="Path" d="m30 3c-4.9159732.00359372-9.6152006 2.02390002-13 5.589v-1.589c0-.55228475-.4477153-1-1-1s-1 .44771525-1 1v4c0 .5522847.4477153 1 1 1h4c.5522847 0 1-.4477153 1-1s-.4477153-1-1-1h-1.587c5.2855949-5.54398348 13.7622806-6.55629054 20.2047656-2.41290378 6.442485 4.14338678 9.0375471 12.27632088 6.1855097 19.38541008-2.8520373 7.1090893-10.3484749 11.1934972-17.8682767 9.7354683-7.5198018-1.4580288-12.9465372-8.0481356-12.9349986-15.7079746-.0003364-1.2684683.14903-2.532544.445-3.766.092353-.3504135-.0120931-.7233703-.2730062-.974852-.2609131-.2514818-.6374609-.3421322-.9842384-.2369463-.3467776.1051858-.6095149.3897466-.6867554.7437983-1.8043145 7.4554545 1.3143635 15.2352721 7.7688353 19.3800455s14.8265035 3.7437761 20.8552905-.9989109c6.0287869-4.7426871 8.3896304-12.7849587 5.881019-20.0338359-2.5086115-7.24887724-9.3354636-12.11157246-17.0061448-12.1132987z" fill="#e64c3c"/><g fill="#4482c3"><path id="Path" d="m36.328 13c-.4517689-.3178398-1.0756601-.2092689-1.3935.2425-.3178398.4517689-.2092689 1.0756601.2425 1.3935 3.2103625 2.2575528 4.5876584 6.3351258 3.4037276 10.0769542-1.1839308 3.7418285-4.6560655 6.2850205-8.5807276 6.2850205s-7.3967968-2.543192-8.5807276-6.2850205c-1.1839308-3.7418284.1933651-7.8194014 3.4037276-10.0769542.4517689-.3178399.5603398-.9417311.2425-1.3935-.3178399-.4517689-.9417311-.5603398-1.3935-.2425-3.9235036 2.7594014-5.6065834 7.7430287-4.1594535 12.3162105 1.4471299 4.5731817 5.6907696 7.6813678 10.4874535 7.6813678s9.0403236-3.1081861 10.4874535-7.6813678c1.4471299-4.5731818-.2359499-9.5568091-4.1594535-12.3162105z"/><path id="Path" d="m30 21c.5522847 0 1-.4477153 1-1v-10c0-.55228475-.4477153-1-1-1s-1 .44771525-1 1v10c0 .5522847.4477153 1 1 1z"/></g></g></g></svg>