<svg height="512" viewBox="0 0 58 58" width="512" xmlns="http://www.w3.org/2000/svg"><g id="Page-1" fill="none" fill-rule="evenodd"><g id="008---Repair-Computer" transform="translate(-1)"><path id="Path" d="m59 2.18v41.82h-58v-41.82c-.04521019-1.152631.84774936-2.12595691 2-2.18h54c1.1522506.05404309 2.0452102 1.027369 2 2.18z" fill="#90bae1"/><path id="Path" d="m57.39.04c-9.36.38-56.39 4.14-56.39 41.96v-39.82c-.04521019-1.152631.84774936-2.12595691 2-2.18h54c.1311216-.00207169.2620289.01135469.39.04z" fill="#b0d3f0"/><path id="Path" d="m41 54-11 2-11-2 3-6 8-2 8 2z" fill="#3f5c6c"/><path id="Path" d="m59 42v3.82c.0452102 1.152631-.8477494 2.1259569-2 2.18h-54c-1.15225064-.0540431-2.04521019-1.027369-2-2.18v-3.82z" fill="#547580"/><path id="Path" d="m47 56c-.0032948 1.1032019-.8967981 1.9967052-2 2h-30c-1.1011688-.0081672-1.9918328-.8988312-2-2 .0032948-1.1032019.8967981-1.9967052 2-2h30c1.1011688.0081672 1.9918328.8988312 2 2z" fill="#547580"/><path id="Path" d="m33.535 17.465 12.005 12.005c1.9523266 1.955088 1.950088 5.1226734-.005 7.075s-5.1226734 1.950088-7.075-.005l-9.21-9.21" fill="#e64c3c"/><path id="Path" d="m42 34c-.2651948-.0000566-.5195073-.1054506-.707-.293l-9.21-9.21c-.3904653-.3912937-.3897937-1.0250347.0015-1.4155s1.0250347-.3897937 1.4155.0015l9.21 9.21c.2862967.2863801.3716214.7171518.2161071 1.0910431-.1555142.3738913-.521165.6170868-.9261071.6159569z" fill="#c03a2b"/><path id="Path" d="m25.6 19.82-6.93-7.02-2.8-1.4c-.4679506-.237283-.8390601-.6295987-1.05-1.11l-1.73-4.04c-.1820754-.41520613-.0907571-.89959016.23-1.22l.71-.71c.3204098-.32075709.8047939-.41207539 1.22-.23l4.04 1.73c.4804013.21093992.872717.58204938 1.11 1.05l1.41 2.81 7.7 7.8" fill="#ecf0f1"/><path id="Path" d="m44.121 20.812c-2.7675164 2.7738873-6.917151 3.6412096-10.564 2.208l-13.826 13.827c-1.5403222 1.5403222-4.0376778 1.5403222-5.578 0s-1.5403222-4.0376778 0-5.578l13.826-13.827c-1.2460892-3.1719239-.7626033-6.7627444 1.2780667-9.49212258 2.0406699-2.72937822 5.348076-4.20884277 8.7429333-3.91087742.5633354.05603251 1.0437836.43204105 1.2335517.96540259.189768.53336155.0547918 1.12833578-.3465517 1.52759741l-2.779 2.789c-.4376906.43680725-.6456626 1.0533221-.562 1.666l.345 2.444c.1213321.8702575.8056702 1.5541873 1.676 1.675l2.444.345c.6124679.0846133 1.2290952-.1235215 1.665-.562l2.789-2.779c.3953268-.3995829.9846275-.5373419 1.5161247-.3544199s.9111977.6541761.9768753 1.2124199c.2698085 2.9067048-.7702569 5.7823738-2.837 7.844z" fill="#4482c3"/><path id="Path" d="m18.337 33.665c-.4043959-.0000863-.7689341-.2437275-.923678-.6173454-.1547439-.373618-.0692299-.8036603.216678-1.0896546l10.452-10.458c.2533013-.2533013.622496-.3522267.968512-.259512s.6162853.362984.709.709-.0062107.7152107-.259512.968512l-10.456 10.454c-.1874927.1875494-.4418052.2929434-.707.293z" fill="#285680"/></g></g></svg>