<svg height="512" viewBox="0 0 42 58" width="512" xmlns="http://www.w3.org/2000/svg"><g id="Page-1" fill="none" fill-rule="evenodd"><g id="009---Hard-Drive-Error"><rect id="Rectangle" fill="#bdc3c7" height="58" rx="3" width="42"/><path id="Path" d="m15.34 36.96c1.8062874.6931007 3.7253088 1.0457124 5.66 1.04 7.9022056-.0004463 14.6205896-5.7698098 15.8152079-13.5811951 1.1946183-7.8113854-3.4923597-15.32500472-11.0332384-17.68720768-7.5408786-2.36220296-15.6768965 1.13457429-19.15234601 8.23148238-3.47544951 7.0969081-1.24930986 15.6681706 5.24037651 20.1769204z" fill="#3b97d3"/><g fill="#7f8c8d"><circle id="Oval" cx="6" cy="6" r="2"/><circle id="Oval" cx="36" cy="6" r="2"/><circle id="Oval" cx="6" cy="52" r="2"/><circle id="Oval" cx="36" cy="52" r="2"/></g><path id="Path" d="m15.978 34.1c-.657 3.159-1.979 8.773-3.5 11.078-1.2336378 1.8420171-3.70305142 2.3787501-5.59 1.215-.90319026-.5313131-1.54901219-1.4097348-1.78676241-2.4302842-.23775021-1.0205495-.04663003-2.0939477.52876241-2.9697158 1.509-2.312 6.191-5.872 8.869-7.8.3054608-.2331437.7228573-.2544121 1.0504341-.0535249.3275769.2008872.4978702.5825577.4285659.9605249z" fill="#ecf0f1"/><rect id="Rectangle" fill="#7f8c8d" height="6" rx="1" width="12" x="20" y="42"/><path id="Path" d="m23.526 12.524v.143l-.642 11.555c-.0563822.998167-.8822419 1.7786938-1.882 1.7786938s-1.8256178-.7805268-1.882-1.7786938l-.642-11.555c-.0517134-.9178416.3992977-1.791313 1.1775709-2.2805965.7782731-.48928355 1.7609168-.51711993 2.5656405-.0726796.8047238.4444402 1.3044595 1.2909789 1.3047886 2.2102761z" fill="#fff"/><circle id="Oval" cx="21" cy="32" fill="#fff" r="2"/></g></g></svg>