<svg height="512" viewBox="0 0 58 58" width="512" xmlns="http://www.w3.org/2000/svg"><g id="Page-1" fill="none" fill-rule="evenodd"><g id="010---Technology-Repair"><g fill="#f0c419"><path id="Rectangle" d="m28 39h2v16h-2z"/><path id="Path" d="m20 54h-8v-2h8c.5522847 0 1-.4477153 1-1v-13h2v13c0 1.6568542-1.3431458 3-3 3z"/><path id="Path" d="m9 45h-2v-8c0-1.6568542 1.34314575-3 3-3h13v2h-13c-.55228475 0-1 .4477153-1 1z"/><path id="Path" d="m51 45h-2v-8c0-.5522847-.4477153-1-1-1h-14v-2h14c1.6568542 0 3 1.3431458 3 3z"/><path id="Path" d="m46 54h-8c-1.6568542 0-3-1.3431458-3-3v-13h2v13c0 .5522847.4477153 1 1 1h8z"/><path id="Rectangle" d="m3 28h19v2h-19z"/><path id="Rectangle" d="m35 28h20v2h-20z"/></g><path id="Path" d="m20 7v6l-4.8.01c-.7015039.0075624-1.3488494.3785557-1.71.98-.1482719.2499116-.3119202.4903744-.49.72-.2983817.400053-.6331422.7716371-1 1.11-1.1723097 1.1372841-2.67357959 1.8756709-4.29 2.11-2.82161086.3297649-5.61824602-.7919003-7.43-2.98-.29261598-.3565214-.35221472-.8502708-.152836-1.2661791.19937873-.4159083.6216331-.6786663 1.082836-.6738209l2.86-.01c.50616216.0090823.98595032-.2252329 1.29-.63l1.31-1.41c.44012998-.5643303.44012998-1.35566969 0-1.92l-1.3-1.42c-.31242465-.39994312-.79249933-.6325947-1.3-.63l-2.85-.01c-.46020631.01302-.88589277-.2430294-1.0900645-.65567121-.20417173-.41264182-.14947445-.90638108.1400645-1.26432879 1.56035166-1.88092521 3.85694178-2.99641184 6.3-3.06 2.84530794.05791889 5.4602446 1.57700059 6.92 4.02.3611506.60144426 1.0084961.97243761 1.71.98z" fill="#bdc3c7"/><path id="Path" d="m57.72 14.95c-1.811754 2.1880997-4.6083891 3.3097649-7.43 2.98-2.4221375-.3817304-4.5443787-1.8320509-5.78-3.95-.362406-.6001614-1.0089683-.9707058-1.71-.98h-2.8v-6.01h2.79c.7096993.00341988 1.3680574-.36952283 1.73-.98 1.4579666-2.43857231 4.069372-3.95401884 6.91-4.01 2.4430582.06358816 4.7396483 1.17907479 6.3 3.06.289539.35794771.3442362.85168697.1400645 1.26432879-.2041717.41264181-.6298582.66869121-1.0900645.65567121l-2.85.01c-.5075007-.0025947-.9875754.23005688-1.3.63l-1.3 1.42c-.44013.56433031-.44013 1.3556697 0 1.92l1.31 1.4c.2999238.4109103.7813683.6497665 1.29.64l2.86.01c.4612029-.0048454.8834573.2579126 1.082836.6738209s.13978.9096577-.152836 1.2661791z" fill="#bdc3c7"/><circle id="Oval" cx="29" cy="55" fill="#4482c3" r="3"/><circle id="Oval" cx="13" cy="53" fill="#4482c3" r="3"/><circle id="Oval" cx="3" cy="29" fill="#4482c3" r="3"/><circle id="Oval" cx="8" cy="44" fill="#4482c3" r="3"/><circle id="Oval" cx="50" cy="44" fill="#4482c3" r="3"/><circle id="Oval" cx="45" cy="53" fill="#4482c3" r="3"/><circle id="Oval" cx="55" cy="29" fill="#4482c3" r="3"/><path id="Path" d="m42 6.3v11.82c-.0031564.5821534-.0872964 1.1610366-.25 1.72l-2.5 8.32c-.1627036.5589634-.2468436 1.1378466-.25 1.72v9.12c0 1.6568542-1.3431458 3-3 3h-14c-1.6568542 0-3-1.3431458-3-3v-8.89c-.0007345-.7148923-.2559751-1.4061688-.72-1.95l-4.56-5.32c-.4640249-.5438312-.7192655-1.2351077-.72-1.95v-6.18c.1780798-.2296256.3417281-.4700884.49-.72.3611506-.6014443 1.0084961-.9724376 1.71-.98h.8l2-.01v-9c.0365087-1.64149405 1.358506-2.96349129 3-3 .3415766-.00212561.6806042.05889936 1 .18 1.201836.41463004 2.0061167 1.54866591 2 2.82v-1c.0167185-.96591621.4949844-1.86541147 1.2864123-2.41941101.7914279-.55399955 1.800293-.69549596 2.7135877-.38058899.1717016.06164398.3360389.14213574.49.24.9608023.63101705 1.530845 1.71070065 1.51 2.86v.7c.0095065-.90456964.4233475-1.7574105 1.1280337-2.32464415.7046862-.56723364 1.6262498-.7893202 2.5119663-.60535585.1226204.02746718.242969.06424035.36.11 1.2206082.48188411 2.0165366 1.66781735 2 2.98v1.84c.0106354-1.06398821.5855442-2.04227612 1.5098972-2.56930141.9243529-.52702529 2.0590577-.52348368 2.9801028.00930141.9608023.63101705 1.530845 1.71070065 1.51 2.86z" fill="#fdd7ad"/><path id="Path" d="m30 3.3v8.7c0 .5522847-.4477153 1-1 1s-1-.4477153-1-1v-11.8c.1717016.06164398.3360389.14213574.49.24.9608023.63101705 1.530845 1.71070065 1.51 2.86z" fill="#f9c795"/><path id="Path" d="m24 4v8c0 .5522847-.4477153 1-1 1s-1-.4477153-1-1v-10.82c1.201836.41463004 2.0061167 1.54866591 2 2.82z" fill="#f9c795"/><path id="Path" d="m36 4.16v8.84c0 .5522847-.4477153 1-1 1s-1-.4477153-1-1v-11.82c1.2206082.48188411 2.0165366 1.66781735 2 2.98z" fill="#f9c795"/><path id="Path" d="m18 13v3c0 .5522847-.4477153 1-1 1s-1-.4477153-1-1v-2.99z" fill="#f9c795"/></g></g></svg>