<svg height="512" viewBox="0 0 34 58" width="512" xmlns="http://www.w3.org/2000/svg"><g id="Page-1" fill="none" fill-rule="evenodd"><g id="011---Cracked-Mobile" transform="translate(-1)"><path id="Path" d="m35 50v5c0 1.6568542-1.3431458 3-3 3h-28c-1.65685425 0-3-1.3431458-3-3v-5z" fill="#547580"/><path id="Path" d="m34 43c.5522847 0 1 .4477153 1 1v6c0 1.6568542-1.3431458 3-3 3h-28c-1.65685425 0-3-1.3431458-3-3v-25.91c.00094669-.6601501.38820221-1.2586359.99-1.53h.01v-11.56c-.55228475 0-1-.4477153-1-1v-7c0-1.65685425 1.34314575-3 3-3h28c1.6568542 0 3 1.34314575 3 3v30.39c-.0005877.6880681-.3868774 1.3177202-1 1.63z" fill="#90bae1"/><path id="Path" d="m28 0-2.86 3.05c-.5663757.60708315-1.3597411.95123705-2.19.95h-9.9c-.8302589.00123705-1.6236243-.34291685-2.19-.95l-2.86-3.05z" fill="#547580"/><path id="Path" d="m25.62 17.46-9.28 5.71c-.7870402.4899657-1.8084721.369553-2.46-.29l-2.91-2.91c-.5875432-.5836783-1.47327138-.7465252-2.23-.41l-6.74 3v-11.56h8.04c.6061296.0035404 1.1786998.2788145 1.56.75l2.8 3.5c.3799324.4729114.9533767.7486057 1.56.75h9.25c.3534554-.0009134.6641627.233928.7597245.5742212s-.0474663.7025535-.3497245.8857788z" fill="#285680"/><path id="Path" d="m34 35.02v7.9800085l-4.18-.0000085c-.5303401.0015621-1.0388166-.2112047-1.41-.59l-1.84-1.83c-.3749829-.3719209-.881855-.5804215-1.41-.58h-6.33c-.3686621-.001126-.6922859-.2455733-.7941772-.5998772-.1018913-.3543038.0424344-.7333248.3541772-.9301228l6.44-4.09c.5581836-.3435115 1.2795701-.2564476 1.74.21l2.07 2.06c.4163988.4133785 1.0439415.5285604 1.58.29z" fill="#285680"/><g fill="#b0d3f0"><path id="Path" d="m9.62 19.4c-4.75 6.83-8.33 16.67-8.6 30.86-.01658959-.0856164-.02330014-.1728536-.02-.26v-25.91c.00094669-.6601501.38820221-1.2586359.99-1.53h.01l6.74-3c.27536792-.1259885.57790766-.1809958.88-.16z"/><path id="Path" d="m35 3v1c-8.0669273.95657889-15.5663929 4.63576169-21.26 10.43l-2.14-2.68c-.3813002-.4711855-.9538704-.7464596-1.56-.75h-8.04c-.55228475 0-1-.4477153-1-1v-7c0-1.65685425 1.34314575-3 3-3h4l2.86 3.05c.5663757.60708315 1.3597411.95123705 2.19.95h9.9c.8302589.00123705 1.6236243-.34291685 2.19-.95l2.86-3.05h4c1.6568542 0 3 1.34314575 3 3z"/></g></g></g></svg>