<svg height="512" viewBox="0 0 58 58" width="512" xmlns="http://www.w3.org/2000/svg"><g id="Page-1" fill="none" fill-rule="evenodd"><g id="012---CPU-Error"><g fill="#f0c419"><path id="Path" d="m11 51v5c0 1.1045695.8954305 2 2 2s2-.8954305 2-2v-5"/><path id="Path" d="m19 51v5c0 1.1045695.8954305 2 2 2s2-.8954305 2-2v-5"/><path id="Path" d="m27 51v5c0 1.1045695.8954305 2 2 2s2-.8954305 2-2v-5"/><path id="Path" d="m35 51v5c0 1.1045695.8954305 2 2 2s2-.8954305 2-2v-5"/><path id="Path" d="m43 51v5c0 1.1045695.8954305 2 2 2s2-.8954305 2-2v-5"/><path id="Path" d="m11 7v-5c0-1.1045695.8954305-2 2-2s2 .8954305 2 2v5"/><path id="Path" d="m19 7v-5c0-1.1045695.8954305-2 2-2s2 .8954305 2 2v5"/><path id="Path" d="m27 7v-5c0-1.1045695.8954305-2 2-2s2 .8954305 2 2v5"/><path id="Path" d="m35 7v-5c0-1.1045695.8954305-2 2-2s2 .8954305 2 2v5"/><path id="Path" d="m43 7v-5c0-1.1045695.8954305-2 2-2s2 .8954305 2 2v5"/><path id="Path" d="m51 47h5c1.1045695 0 2-.8954305 2-2s-.8954305-2-2-2h-5"/><path id="Path" d="m51 39h5c1.1045695 0 2-.8954305 2-2s-.8954305-2-2-2h-5"/><path id="Path" d="m51 31h5c1.1045695 0 2-.8954305 2-2s-.8954305-2-2-2h-5"/><path id="Path" d="m51 23h5c1.1045695 0 2-.8954305 2-2s-.8954305-2-2-2h-5"/><path id="Path" d="m51 15h5c1.1045695 0 2-.8954305 2-2s-.8954305-2-2-2h-5"/><path id="Path" d="m7 47h-5c-1.1045695 0-2-.8954305-2-2s.8954305-2 2-2h5"/><path id="Path" d="m7 39h-5c-1.1045695 0-2-.8954305-2-2s.8954305-2 2-2h5"/><path id="Path" d="m7 31h-5c-1.1045695 0-2-.8954305-2-2s.8954305-2 2-2h5"/><path id="Path" d="m7 23h-5c-1.1045695 0-2-.8954305-2-2s.8954305-2 2-2h5"/><path id="Path" d="m7 15h-5c-1.1045695 0-2-.8954305-2-2s.8954305-2 2-2h5"/></g><rect id="Rectangle" fill="#24ae5f" height="46" rx="2" width="46" x="6" y="6"/><path id="Path" d="m22.24 48c-.7950535-.0023371-1.5570029-.3186179-2.12-.88l-1.241-1.241c-.5627232-.5628932-1.326069-.8790953-2.122-.879h-3.757c-1.6568542 0-3-1.3431458-3-3v-26c0-1.6568542 1.3431458-3 3-3h3.757c.795931.0000953 1.5592768-.3161068 2.122-.879l1.241-1.241c.5629971-.5613821 1.3249465-.8776629 2.12-.88h13.52c.7950535.0023371 1.5570029.3186179 2.12.88l1.241 1.241c.5627232.5628932 1.326069.8790953 2.122.879h3.757c1.6568542 0 3 1.3431458 3 3v26c0 1.6568542-1.3431458 3-3 3h-3.757c-.795931-.0000953-1.5592768.3161068-2.122.879l-1.241 1.241c-.5629971.5613821-1.3249465.8776629-2.12.88z" fill="#bdc3c7"/><path id="Path" d="m31.842 18.84v.16l-.722 13c-.0645502 1.122228-.9934171 1.999202-2.1175 1.999202s-2.0529498-.876974-2.1175-1.999202l-.723-13c-.0546319-1.0307033.4538443-2.0100037 1.3283252-2.5582893s1.9774822-.5793561 2.8814413-.0811673c.903959.4981887 1.4667571 1.4473123 1.4702335 2.4794566z" fill="#fff"/><circle id="Oval" cx="29" cy="40" fill="#fff" r="2"/></g></g></svg>