<svg height="512" viewBox="0 0 58 58" width="512" xmlns="http://www.w3.org/2000/svg"><g id="Page-1" fill="none" fill-rule="evenodd"><g id="013---Laptop-Fire"><path id="Path" d="m52 58h-46c-3.3137085 0-6-2.6862915-6-6v-3c0-.5522847.44771525-1 1-1h56c.5522847 0 1 .4477153 1 1v3c0 3.3137085-2.6862915 6-6 6z" fill="#547580"/><path id="Path" d="m19 48h20v2c0 1.6568542-1.3431458 3-3 3h-14c-1.6568542 0-3-1.3431458-3-3z" fill="#3f5c6c"/><path id="Path" d="m35.43 8h16.57c2.209139 0 4 1.790861 4 4v36h-54v-36c0-2.209139 1.790861-4 4-4z" fill="#90bae1"/><path id="Path" d="m52.95 8.12c-11.41.71-50.95 5.65-50.95 39.88v-36c0-2.209139 1.790861-4 4-4h46c.3205339-.00142005.6398873.03891933.95.12z" fill="#b0d3f0"/><path id="Path" d="m15 53h-3c-.5522847 0-1-.4477153-1-1s.4477153-1 1-1h3c.5522847 0 1 .4477153 1 1s-.4477153 1-1 1z" fill="#3f5c6c"/><circle id="Oval" cx="4" cy="52" fill="#65ddb9" r="1"/><circle id="Oval" cx="8" cy="52" fill="#65ddb9" r="1"/><path id="Path" d="m47 30.089c-.0259252 9.9159863-8.084007 17.9342254-18 17.911-9.94 0-18-7.02-18-16.921 0-9.381 8.22-8.861 6.61-17.981-.0566507-.3572073.0937832-.7156996.3883736-.9255158s.6825637-.2347937 1.0016264-.0644842c2.3694418 1.0935235 3.9178932 3.4316851 4 6.04 2.76-8.231-.54-13.881-2.86-16.591-.2587086-.3041729-.2980484-.73822233-.0982434-1.08395234.199805-.34573.5955295-.52834618.9882434-.45604766 6.21 1.07 20.54 5.75 18.97 26.092 1.410711-1.1183875 2.3753702-2.7040459 2.72-4.471.0925561-.380503.4075923-.6662256.7952986-.7212975.3877064-.055072.7698469.1316199.9647014.4712975 1.5577357 2.6425267 2.4244216 5.6350005 2.52 8.701z" fill="#f0c419"/><path id="Path" d="m20 40c0 5.091 4 8 9 8 6 0 9.1-4.459 9-9.4-.17-7.712-5.265-12.4-8.113-14.429-.3060121-.216588-.7120809-.2284939-1.030257-.030207-.3181762.1982868-.486374.5680748-.426743.938207.359 2.383.54 6.294-1.426 8.916-.0232926-1.4909954-.5577481-2.9288007-1.514-4.073-.2501488-.2467813-.6180312-.3315002-.9509215-.2189859-.3328903.1125144-.5739403.4030478-.6230785.7509859-.592 4.585-3.916 4.988-3.916 9.546z" fill="#f29c1f"/></g></g></svg>