<svg height="512" viewBox="0 0 58 58" width="512" xmlns="http://www.w3.org/2000/svg"><g id="Page-1" fill="none" fill-rule="evenodd"><g id="014---Update-Computer" transform="translate(-1)"><path id="Path" d="m59 2.18v41.82h-58v-41.82c-.04521019-1.152631.84774936-2.12595691 2-2.18h54c1.1522506.05404309 2.0452102 1.027369 2 2.18z" fill="#90bae1"/><path id="Path" d="m57.39.04c-9.36.38-56.39 4.14-56.39 41.96v-39.82c-.04521019-1.152631.84774936-2.12595691 2-2.18h54c.1311216-.00207169.2620289.01135469.39.04z" fill="#b0d3f0"/><path id="Path" d="m41 54-11 2-11-2 3-6 8-2 8 2z" fill="#3f5c6c"/><path id="Path" d="m59 42v3.82c.0452102 1.152631-.8477494 2.1259569-2 2.18h-54c-1.15225064-.0540431-2.04521019-1.027369-2-2.18v-3.82z" fill="#547580"/><path id="Path" d="m47 56c-.0032948 1.1032019-.8967981 1.9967052-2 2h-30c-1.1011688-.0081672-1.9918328-.8988312-2-2 .0032948-1.1032019.8967981-1.9967052 2-2h30c1.1011688.0081672 1.9918328.8988312 2 2z" fill="#547580"/><path id="Path" d="m46.408 13.588c-.2275413-.5034075-.8200924-.7270412-1.3235-.4994999-.5034075.2275413-.7270413.8200924-.4995 1.3234999 3.1109203 6.866668 1.0029674 14.9734397-5.0587618 19.4550013s-14.4302831 4.1202879-20.0832382-.8670013h1.557c.5522847 0 1-.4477153 1-1s-.4477153-1-1-1h-4c-.5522847 0-1 .4477153-1 1v4c0 .5522847.4477153 1 1 1s1-.4477153 1-1v-1.612c6.3335448 5.6745494 15.7750328 6.1402511 22.6362699 1.1165348 6.8612372-5.0237162 9.2686002-14.165006 5.7717301-21.9165348z" fill="#e64c3c"/><path id="Path" d="m14 21c-.0075403-6.2866902 3.6714719-11.99375303 9.4004533-14.58244061 5.7289813-2.58868757 12.4434602-1.57800965 17.1565467 2.58244061h-1.557c-.5522847 0-1 .44771525-1 1 0 .5522847.4477153 1 1 1h4c.5522847 0 1-.4477153 1-1v-4c0-.55228475-.4477153-1-1-1s-1 .44771525-1 1v1.612c-6.3335448-5.67454938-15.7750328-6.14025112-22.6362699-1.11653484-6.8612372 5.02371624-9.2686002 14.16500604-5.7717301 21.91653484.1471934.3256476.4569367.5480316.8125525.5833822.3556158.0353505.7030776-.121703.9115-.412.2084223-.2902971.2461409-.6697346.0989475-.9953822-.9378037-2.0693963-1.4203457-4.3160299-1.415-6.588z" fill="#e64c3c"/><path id="Path" d="m27 28c-.2651948-.0000566-.5195073-.1054506-.707-.293l-3-3c-.3789722-.3923789-.3735524-1.0160848.0121814-1.4018186s1.0094397-.3911536 1.4018186-.0121814l2.185 2.185 8.308-11.078c.2143593-.2858125.5649147-.4355548.9196153-.3928204.3547005.0427344.6596588.2714531.8.6s.0947441.7070079-.1196153.9928204l-9 12c-.1734159.2328327-.4394571.3788086-.729.4z" fill="#4482c3"/></g></g></svg>