<svg height="512" viewBox="0 0 58 58" width="512" xmlns="http://www.w3.org/2000/svg"><g id="Page-1" fill="none" fill-rule="evenodd"><g id="015---Switch-Broken-Device"><path id="Path" d="m58 51v4c0 1.6568542-1.3431458 3-3 3h-18c-1.6568542 0-3-1.3431458-3-3v-4z" fill="#547580"/><rect id="Rectangle" fill="#90bae1" height="39" rx="3" width="24" x="34" y="15"/><path id="Path" d="m58 18v1s-22.81 1.39-23.95 32.54c-.0315123-.1783155-.0482359-.35893-.05-.54v-33c0-1.6568542 1.3431458-3 3-3h18c1.6568542 0 3 1.3431458 3 3z" fill="#b0d3f0"/><path id="Path" d="m50.59 11.23-3.6 3.39c-.5614001.5101996-1.4185999.5101996-1.98 0l-3.6-3.39c-.3908547-.3794492-.5036812-.962345-.2826458-1.46023287.2210355-.49788792.7290502-.80516358 1.2726458-.76976713h.6c0-2.76142375-2.2385763-5-5-5h-5c-1.0945461-.02383166-1.9761683-.90545386-2-2 .0032948-1.10320187.8967981-1.9967052 2-2h7c4.9705627 0 9 4.02943725 9 9h.6c.5435956-.03539645 1.0516103.27187921 1.2726458.76976713.2210354.49788787.1082089 1.08078367-.2826458 1.46023287z" fill="#e64c3c"/><path id="Path" d="m7.41 46.77 3.6-3.39c.5614001-.5101996 1.4185999-.5101996 1.98 0l3.6 3.39c.3908547.3794492.5036812.962345.2826458 1.4602329-.2210355.4978879-.7290502.8051635-1.2726458.7697671h-.6c0 2.7614237 2.2385763 5 5 5h5c1.0945461.0238317 1.9761683.9054539 2 2-.0032948 1.1032019-.8967981 1.9967052-2 2h-7c-4.9705627 0-9-4.0294373-9-9h-.6c-.54359557.0353964-1.05161032-.2718792-1.27264577-.7697671-.22103544-.4978879-.1082089-1.0807837.28264577-1.4602329z" fill="#e64c3c"/><path id="Path" d="m53 15-1.447 2.894c-.3386882.677781-1.0313083 1.1059743-1.789 1.106h-7.528c-.7576917-.0000257-1.4503118-.428219-1.789-1.106l-1.447-2.894z" fill="#547580"/><path id="Path" d="m1 11c-.55228475 0-1-.4477153-1-1v-7c0-1.65685425 1.34314575-3 3-3h18c1.6568542 0 3 1.34314575 3 3v35c0 1.6568542-1.3431458 3-3 3h-18c-1.65685425 0-3-1.3431458-3-3v-17.89c.00386048-.679316.38552642-1.3000051.99-1.61h.01z" fill="#90bae1"/><path id="Path" d="m5.58 16.24c-3.13 4.81-5.44 11.28-5.57 19.95-.00831522-.0629727-.01165889-.1265024-.01-.19v-15.89c.00386048-.679316.38552642-1.3000051.99-1.61h.01l4.36-2.18c.06916354-.0369757.14324062-.0639128.22-.08z" fill="#b0d3f0"/><path id="Path" d="m24 3c-5.9866328 1.58115993-11.3830891 4.87185155-15.53 9.47l-.88-.88c-.37617334-.3774773-.88708775-.5897587-1.42-.59h-5.17c-.55228475 0-1-.4477153-1-1v-7c0-1.65685425 1.34314575-3 3-3h2l1.45 2.89c.33773001.67965768 1.03105603 1.10959727 1.79 1.11h7.52c.758944-.00040273 1.45227-.43034232 1.79-1.11l1.45-2.89h2c1.6568542 0 3 1.34314575 3 3z" fill="#b0d3f0"/><path id="Path" d="m24 36v4c0 1.6568542-1.3431458 3-3 3h-18c-1.65685425 0-3-1.3431458-3-3v-4c0 1.6568542 1.34314575 3 3 3h18c1.6568542 0 3-1.3431458 3-3z" fill="#547580"/><path id="Path" d="m19 0-1.45 2.89c-.33773.67965768-1.031056 1.10959727-1.79 1.11h-7.52c-.75894397-.00040273-1.45226999-.43034232-1.79-1.11l-1.45-2.89z" fill="#547580"/><path id="Path" d="m16.57 15.62-5.89 3.93c-.3974027.2621051-.92448441.2077237-1.26-.13l-2.91-2.91c-.30298-.3032856-.76556804-.3797132-1.15-.19l-4.36 2.18v-7.5h5.17c.53291225.0002413 1.04382666.2125227 1.42.59l1.82 1.82c.37617334.3774773.8870877.5897587 1.42.59h5.25c.390558-.001627.7357889.2535153.8488625.6273502.1130735.373835-.0328752.777544-.3588625.9926498z" fill="#3b97d3"/></g></g></svg>