<svg height="512" viewBox="0 0 58 46" width="512" xmlns="http://www.w3.org/2000/svg"><g id="Page-1" fill="none" fill-rule="evenodd"><g id="016---Repair-Truck"><path id="Path" d="m57 23v12l-17 1 1-24h5l1 8c.0032948 1.1032019.8967981 1.9967052 2 2z" fill="#e57e25"/><path id="Path" d="m41 3v34h-40v-34c0-1.65685425 1.34314575-3 3-3h34c1.6568542 0 3 1.34314575 3 3z" fill="#f29c1f"/><rect id="Rectangle" fill="#bdc3c7" height="5" rx="1" width="58" y="35"/><path id="Path" d="m57 23h-9c-1.1032019-.0032948-1.9967052-.8967981-2-2v-9h4.07c1.1754709.0036945 2.2413946.6908834 2.73 1.76z" fill="#b0d3f0"/><circle id="Oval" cx="11" cy="40" fill="#547580" r="6"/><circle id="Oval" cx="11" cy="40" fill="#ecf0f1" r="2"/><circle id="Oval" cx="48" cy="40" fill="#547580" r="6"/><circle id="Oval" cx="48" cy="40" fill="#ecf0f1" r="2"/><path id="Path" d="m31.8 16.857c-2.116642 2.1204049-5.2893775 2.783388-8.078 1.688l-10.575 10.573c-1.1815217 1.1553192-3.0727288 1.1447167-4.24122276-.0237772-1.16849393-1.168494-1.17909646-3.0597011-.02377724-4.2412228l10.573-10.574c-.9529655-2.4257068-.583133-5.17178664.977611-7.25895581 1.5607439-2.08716917 4.0902204-3.21830982 6.686389-2.99004419.4304486.04325944.7973998.33076591.9423897.73836294.14499.40759703.0420409.86225582-.2643897 1.16763706l-2.125 2.133c-.3349339.33389579-.4940851.80542748-.43 1.274l.264 1.869c.0918182.6657529.6152471 1.1891818 1.281 1.281l1.869.264c.468287.0642373.939583-.0949594 1.273-.43l2.133-2.127c.3023243-.30573008.7530863-.41119771 1.1596687-.27133504.4065825.13986264.6970693.50031674.7473313.92733504.2075592 2.2236308-.5877158 4.4239283-2.169 6.001z" fill="#f3d55b"/></g></g></svg>