<svg height="512" viewBox="0 0 58 58" width="512" xmlns="http://www.w3.org/2000/svg"><g id="Page-1" fill="none" fill-rule="evenodd"><g id="017---Computer-Plaster" transform="translate(-1)"><path id="Path" d="m59 2.18v41.82h-58v-41.82c-.04521019-1.152631.84774936-2.12595691 2-2.18h54c1.1522506.05404309 2.0452102 1.027369 2 2.18z" fill="#90bae1"/><path id="Path" d="m57.39.04c-9.36.38-56.39 4.14-56.39 41.96v-39.82c-.04521019-1.152631.84774936-2.12595691 2-2.18h54c.1311216-.00207169.2620289.01135469.39.04z" fill="#b0d3f0"/><path id="Path" d="m41 54-11 2-11-2 3-6 8-2 8 2z" fill="#3f5c6c"/><path id="Path" d="m59 42v3.82c.0452102 1.152631-.8477494 2.1259569-2 2.18h-54c-1.15225064-.0540431-2.04521019-1.027369-2-2.18v-3.82z" fill="#547580"/><path id="Path" d="m47 56c-.0032948 1.1032019-.8967981 1.9967052-2 2h-30c-1.1011688-.0081672-1.9918328-.8988312-2-2 .0032948-1.1032019.8967981-1.9967052 2-2h30c1.1011688.0081672 1.9918328.8988312 2 2z" fill="#547580"/><path id="Path" d="m30 40.47-6.74 6.74c-3.7277321 3.6718453-9.7194304 3.6492188-13.41932462-.0506754-3.6998942-3.6998942-3.72252065-9.6915925-.05067538-13.4193246l6.74-6.74z" fill="#e57e25"/><path id="Path" d="m53 13.53c-.0020982 2.5262477-1.0095719 4.9477826-2.8 6.73l-6.73 6.74-13.47-13.47 6.73-6.74c2.7273762-2.72151335 6.8246327-3.53413383 10.3842357-2.05953489 3.5596031 1.47459893 5.8819199 4.94658781 5.8857643 8.79953489z" fill="#e57e25"/><path id="Path" d="m50.2 47.21c-3.7196911 3.7100747-9.7403089 3.7100747-13.46 0l-20.21-20.21-6.74-6.74c-3.67184527-3.7277321-3.64921882-9.7194304.05067538-13.41932462 3.69989422-3.6998942 9.69159252-3.72252065 13.41932462-.05067538l6.74 6.74 13.47 13.47 6.73 6.74c1.7864115 1.7861383 2.7900301 4.2088258 2.7900301 6.735s-1.0036186 4.9488617-2.7900301 6.735z" fill="#f29c1f"/><path id="Path" d="m38.416 32.049-3.37 3.37c-.9309527.9288039-2.4380473.9288039-3.369 0l-10.1-10.1c-.9289189-.9312954-.9289189-2.4387046 0-3.37l3.369-3.37c.9312954-.9289189 2.4387046-.9289189 3.37 0l10.1 10.1c.9289189.9312954.9289189 2.4387046 0 3.37z" fill="#f9eab0"/><g fill="#d25627"><circle id="Oval" cx="17.802" cy="44.078" r="1"/><circle id="Oval" cx="42.198" cy="44.078" r="1"/><circle id="Oval" cx="37.317" cy="14.801" r="1"/><circle id="Oval" cx="42.196" cy="19.681" r="1"/><circle id="Oval" cx="42.196" cy="9.922" r="1"/><circle id="Oval" cx="47.075" cy="14.801" r="1"/><circle id="Oval" cx="42.196" cy="14.801" r="1"/><circle id="Oval" cx="12.921" cy="39.199" r="1"/><circle id="Oval" cx="17.8" cy="34.319" r="1"/><circle id="Oval" cx="22.679" cy="39.199" r="1"/><circle id="Oval" cx="17.8" cy="39.199" r="1"/><circle id="Oval" cx="17.8" cy="19.681" r="1"/><circle id="Oval" cx="22.679" cy="14.801" r="1"/><circle id="Oval" cx="12.921" cy="14.801" r="1"/><circle id="Oval" cx="17.8" cy="9.922" r="1"/><circle id="Oval" cx="17.8" cy="14.801" r="1"/><circle id="Oval" cx="47.075" cy="39.199" r="1"/><circle id="Oval" cx="37.317" cy="39.199" r="1"/><circle id="Oval" cx="42.196" cy="34.319" r="1"/><circle id="Oval" cx="42.196" cy="39.199" r="1"/></g></g></g></svg>