<svg height="512" viewBox="0 0 34 58" width="512" xmlns="http://www.w3.org/2000/svg"><g id="Page-1" fill="none" fill-rule="evenodd"><g id="018---Mobile-Phone-Crack" transform="translate(-1)"><path id="Path" d="m28 0h4c1.6568542 0 3 1.34314575 3 3v49c0 1.6568542-1.3431458 3-3 3h-28c-1.65685425 0-3-1.3431458-3-3v-49c0-1.65685425 1.34314575-3 3-3z" fill="#90bae1"/><path id="Path" d="m35 3v1s-33.14 1.95-33.98 46.26c-.01658959-.0856164-.02330014-.1728536-.02-.26v-47c0-1.65685425 1.34314575-3 3-3h4l2.86 3.05c.5663757.60708315 1.3597411.95123705 2.19.95h9.9c.8302589.00123705 1.6236243-.34291685 2.19-.95l2.86-3.05h4c1.6568542 0 3 1.34314575 3 3z" fill="#b0d3f0"/><path id="Path" d="m12 32-3-3 4-2-2-5 5 2 3-2 1 3 4-2v4l3 1-4 4 2 4-4-1-2 3-2-3-6 2z" fill="#285680"/><path id="Shape" d="m31 27h-3.837l-2.163-.721v-2.979l3.832-5.748c.1982824-.297245.2229246-.6776931.0646441-.9980331-.1582805-.3203401-.4754371-.5319049-.832-.555s-.6983617.1457881-.8966441.4430331l-3.853 5.779-2.731 1.369-.515-1.545 2.85-6.651c.1160546-.2702241.1072762-.5778341-.024-.841l-2-4c-.1596977-.3197527-.4778505-.5300187-.8346134-.5515927-.3567628-.02157411-.6979349.1488213-.895.447-.1970651.2981786-.2200843.67884-.0603866.9985927l1.795 3.585-2.7 6.3-2.315 1.543-4.321-1.729-3.15-3.146 3.293-3.293c.2546158-.2548212.3525017-.6268918.2562494-.9740209-.0962522-.347129-.3717655-.6156631-.7212494-.7029791l-3.242-.811v-3.219c0-.55228475-.44771525-1-1-1s-1 .44771525-1 1v4c.00012679.4589705.31267183.8589292.758.97l2.286.572-2.751 2.751c-.39038194.3904999-.39038194 1.0235001 0 1.414l3.854 3.854 1.582 3.956-2.965 1.483h-3.764c-.55228475 0-1 .4477153-1 1s.44771525 1 1 1h3.586l2.328 2.329-.835 4.178-2.786 2.786c-.26749972.2678905-.36078573.6638722-.241 1.023l1 3c.11289592.3394023.39828503.5927937.74866403.6647242.35037899.0719304.71251696-.0485281.95000002-.316s.31423185-.6413219.20133595-.9807242l-.8-2.414 2.395-2.4 5.052-1.684 1.401 2.114v6.7c.0000566.2651948.1054506.5195073.293.707l3 3c.3923789.3789722 1.0160848.3735524 1.4018186-.0121814s.3911536-1.0094397.0121814-1.4018186l-2.707-2.707v-6.286l1.441-2.162 3.048.762 4.8 4.8c.3923789.3789722 1.0160848.3735524 1.4018186-.0121814s.3911536-1.0094397.0121814-1.4018186l-4.885-4.885-1.601-3.201 3.2-3.2h3.583c.5522847 0 1-.4477153 1-1s-.4477153-1-1-1zm-8.707 4.293c-.3044429.3041447-.3801654.7689521-.188 1.154l1.028 2.053-1.891-.472c-.4097145-.1023168-.8395387.0637699-1.074.415l-1.168 1.757-1.168-1.752c-.1848359-.279212-.4971518-.4473821-.832-.448-.1073623.0002469-.2140111.0174592-.316.051l-4.366 1.455.662-3.31c.0645549-.3267434-.0378014-.6641818-.273-.9l-2.019-2.019 2.759-1.377c.4660821-.2323846.6757746-.7835886.482-1.267l-1.129-2.833 2.834 1.134c.3062969.1212186.6526442.0838161.926-.1l1.911-1.274.586 1.758c.0913039.2762895.2984243.4991063.5673205.6103141.2688961.1112078.5728953.0997754.8326795-.0313141l2.543-1.279v2.382c-.0001037.4306074.2754572.8129281.684.949l1.464.488z" fill="#4482c3" fill-rule="nonzero"/><g fill="#547580"><path id="Path" d="m35 50v5c0 1.6568542-1.3431458 3-3 3h-28c-1.65685425 0-3-1.3431458-3-3v-5c0 1.6568542 1.34314575 3 3 3h28c1.6568542 0 3-1.3431458 3-3z"/><path id="Path" d="m28 0-2.86 3.05c-.5663757.60708315-1.3597411.95123705-2.19.95h-9.9c-.8302589.00123705-1.6236243-.34291685-2.19-.95l-2.86-3.05z"/></g></g></g></svg>