<svg height="512" viewBox="0 0 58 58" width="512" xmlns="http://www.w3.org/2000/svg"><g id="Page-1" fill="none" fill-rule="evenodd"><g id="019---Upgrade-Laptop"><path id="Path" d="m54.64 9c-.4823848-.42786186-1.0628652-.73012384-1.69-.88-.3101127-.08108067-.6294661-.12142005-.95-.12h-46c-2.209139 0-4 1.790861-4 4v38h54.0000006l-.0000006-38c.0006309-1.1493597-.4951491-2.24299206-1.36-3z" fill="#90bae1"/><path id="Path" d="m52 58h-46c-3.3137085 0-6-2.6862915-6-6v-3c0-.5522847.44771525-1 1-1h56c.5522847 0 1 .4477153 1 1v3c0 3.3137085-2.6862915 6-6 6z" fill="#547580"/><path id="Path" d="m19 48h20v2c0 1.6568542-1.3431458 3-3 3h-14c-1.6568542 0-3-1.3431458-3-3z" fill="#3f5c6c"/><path id="Path" d="m52.95 8.12c-11.41.71-50.95 5.65-50.95 39.88v-36c0-2.209139 1.790861-4 4-4h46c.3205339-.00142005.6398873.03891933.95.12z" fill="#90bae1"/><path id="Path" d="m52.95 8.12c-11.41.71-50.95 5.65-50.95 39.88v-36c0-2.209139 1.790861-4 4-4h46c.3205339-.00142005.6398873.03891933.95.12z" fill="#b0d3f0"/><path id="Path" d="m15 53h-3c-.5522847 0-1-.4477153-1-1s.4477153-1 1-1h3c.5522847 0 1 .4477153 1 1s-.4477153 1-1 1z" fill="#3f5c6c"/><circle id="Oval" cx="4" cy="52" fill="#65ddb9" r="1"/><circle id="Oval" cx="8" cy="52" fill="#65ddb9" r="1"/><circle id="Oval" cx="29" cy="22" fill="#e64c3c" r="22"/><g fill="#fff"><path id="Path" d="m35.47 15h-2.47v8c0 .5522847-.4477153 1-1 1h-6c-.5522847 0-1-.4477153-1-1v-8h-2.48c-.9910363.0501134-1.9094024-.5191441-2.3053847-1.4290135s-.1866916-1.969892.5253847-2.6609865l6.48-6.21c1.0044537-.93000217 2.5555463-.93000217 3.56 0l6.47 6.21c.7144252.6902753.9252008 1.7515669.5287726 2.662461-.3964282.910894-1.3167351 1.4799297-2.3087726 1.427539z"/><rect id="Rectangle" height="4" rx="1" width="8" x="25" y="28"/><rect id="Rectangle" height="4" rx="1" width="8" x="25" y="36"/></g></g></g></svg>