<svg height="512" viewBox="0 0 60 60" width="512" xmlns="http://www.w3.org/2000/svg"><g id="Page-1" fill="none" fill-rule="evenodd"><g id="020---Replace-Battery" transform="translate(-1)"><path id="Path" d="m27 7h8c1.1045695 0 2 .8954305 2 2v4h-12v-4c0-1.1045695.8954305-2 2-2z" fill="#bdc3c7"/><rect id="Rectangle" fill="#464f5d" height="38" rx="4" width="28" x="17" y="12"/><g fill="#e64c3c"><path id="Path" d="m57.279 15.517c-.2761212-.4634331-.870056-.6243237-1.3423368-.3636246-.4722808.260699-.6526568.8490091-.4076632 1.3296246 6.5763446 11.923228 3.6216267 26.848889-7.00139 35.3672922-10.6230166 8.5184032-25.8340964 8.159564-36.04361-.8502922h1.516c.5522847 0 1-.4477153 1-1s-.4477153-1-1-1h-4c-.55228475 0-1 .4477153-1 1v4c0 .5522847.44771525 1 1 1 .5522847 0 1-.4477153 1-1v-1.647c10.8996565 9.7529252 27.2438396 10.2242643 38.6874306 1.1156811 11.443591-9.1085831 14.6507825-25.1419359 7.5915694-37.9516811z"/><path id="Path" d="m3 30c.0014759-11.0046435 6.44897136-20.98803732 16.4788643-25.51610835 10.029893-4.52807104 21.7821771-2.76110533 30.0371357 4.51610835h-1.516c-.5522847 0-1 .44771525-1 1 0 .5522847.4477153 1 1 1h4c.5522847 0 1-.4477153 1-1v-4c0-.55228475-.4477153-1-1-1s-1 .44771525-1 1v1.647c-10.8996565-9.75292521-27.2438396-10.22426426-38.6874306-1.11568114-11.44359097 9.10858314-14.65078253 25.14193594-7.5915694 37.95168114.27612122.4634331.87005596.6243237 1.3423368.3636246.47228085-.260699.65265684-.8490091.4076632-1.3296246-2.27831605-4.1408857-3.47233834-8.790727-3.471-13.517z"/><path id="Path" d="m41 39v6c0 .5522847-.4477153 1-1 1h-18c-.5522847 0-1-.4477153-1-1v-6z"/></g><path id="Path" d="m41 17v22h-20v-22c0-.5522847.4477153-1 1-1h18c.5522847 0 1 .4477153 1 1z" fill="#393f4a"/></g></g></svg>