<svg height="512" viewBox="0 0 58 58" width="512" xmlns="http://www.w3.org/2000/svg"><g id="Page-1" fill="none" fill-rule="evenodd"><g id="021---Install-Software"><path id="Path" d="m52 58h-46c-3.3137085 0-6-2.6862915-6-6v-3c0-.5522847.44771525-1 1-1h56c.5522847 0 1 .4477153 1 1v3c0 3.3137085-2.6862915 6-6 6z" fill="#547580"/><path id="Path" d="m19 48h20v2c0 1.6568542-1.3431458 3-3 3h-14c-1.6568542 0-3-1.3431458-3-3z" fill="#3f5c6c"/><path id="Path" d="m35.43 8h16.57c2.209139 0 4 1.790861 4 4v36h-54v-36c0-2.209139 1.790861-4 4-4z" fill="#90bae1"/><path id="Path" d="m52.95 8.12c-11.41.71-50.95 5.65-50.95 39.88v-36c0-2.209139 1.790861-4 4-4h46c.3205339-.00142005.6398873.03891933.95.12z" fill="#b0d3f0"/><path id="Path" d="m15 53h-3c-.5522847 0-1-.4477153-1-1s.4477153-1 1-1h3c.5522847 0 1 .4477153 1 1s-.4477153 1-1 1z" fill="#3f5c6c"/><circle id="Oval" cx="4" cy="52" fill="#65ddb9" r="1"/><circle id="Oval" cx="8" cy="52" fill="#65ddb9" r="1"/><path id="Path" d="m48 19c-.0025618.5946624-.0359399 1.1887925-.1 1.78-.0550608.5148924-.4485637.9288902-.96 1.01l-2.54.41c-.3997381 1.9329313-1.1632928 3.7722497-2.25 5.42l1.49 2.08c.312061.4194482.3079789.9950201-.01 1.41-.37.45-.77.89-1.2 1.32s-.87.82-1.32 1.2c-.4149799.3179789-.9905518.322061-1.41.01l-3.35-2.85c-.2209427-.1909039-.3485576-.4680104-.35-.76v-2.11c.00245-.2839037.1261852-.5532098.34-.74 3.3957098-3.0421906 4.5628331-7.8638084 2.9342988-12.1221701-1.6285344-4.2583617-5.7151576-7.07077809-10.2742988-7.07077809s-8.6457644 2.81241639-10.2742988 7.07077809c-1.6285343 4.2583617-.461411 9.0799795 2.9342988 12.1221701.2138148.1867902.33755.4560963.34.74v2.11c-.0014424.2919896-.1290573.5690961-.35.76l-3.35 2.85c-.4194482.312061-.9950201.3079789-1.41-.01-.45-.38-.89-.77-1.32-1.2s-.83-.87-1.2-1.32c-.3179789-.4149799-.322061-.9905518-.01-1.41l1.49-2.08c-1.0867072-1.6477503-1.8502619-3.4870687-2.25-5.42l-2.54-.41c-.5114363-.0811098-.9049392-.4951076-.96-1.01-.13333333-1.1829213-.13333333-2.3770787 0-3.56.0550608-.5148924.4485637-.9288902.96-1.01l2.54-.41c.3997381-1.9329313 1.1632928-3.7722497 2.25-5.42l-1.49-2.08c-.312061-.41944824-.3079789-.99502013.01-1.41.3732593-.46358752.7739782-.9043784 1.2-1.32.43-.43.87-.83 1.32-1.2.4149799-.31797893.9905518-.322061 1.41-.01l2.08 1.49c1.6477503-1.08670724 3.4870687-1.85026193 5.42-2.25l.42-2.58c.0789621-.50352598.4920767-.88772264 1-.93.58-.05 1.17-.09 1.78-.09s1.2.04 1.78.09c.5079233.04227736.9210379.42647402 1 .93l.42 2.58c1.9329313.39973807 3.7722497 1.16329276 5.42 2.25l2.08-1.49c.4194482-.312061.9950201-.30797893 1.41.01.45.37.89.77 1.32 1.2.4260218.4156216.8267407.85641248 1.2 1.32.3179789.41497987.322061.99055176.01 1.41l-1.49 2.08c1.0867072 1.6477503 1.8502619 3.4870687 2.25 5.42l2.54.41c.5114363.0811098.9049392.4951076.96 1.01.0640601.5912075.0974382 1.1853376.1 1.78z" fill="#7f8c8d"/><g fill="#e64c3c"><path id="Path" d="m33.68 33.83-3.91 3.86c-.4315038.4099064-1.1084962.4099064-1.54 0l-3.91-3.86c-.3102854-.3073968-.4025875-.7725282-.2331934-1.1751142s.5664761-.6618016 1.0031934-.6548858h.91v-14c.0032948-1.1032019.8967981-1.9967052 2-2h2c1.1032019.0032948 1.9967052.8967981 2 2v14h.91c.4367173-.0069158.8337993.2522998 1.0031934.6548858s.077092.8677174-.2331934 1.1751142z"/><path id="Path" d="m45 43h-32c-.5522847 0-1-.4477153-1-1s.4477153-1 1-1h32c.5522847 0 1 .4477153 1 1s-.4477153 1-1 1z"/></g></g></g></svg>