<svg height="512" viewBox="0 0 34 58" width="512" xmlns="http://www.w3.org/2000/svg"><g id="Page-1" fill="none" fill-rule="evenodd"><g id="022---Cracked-Android-Phone"><path id="Path" d="m1 12c-.55228475 0-1-.4477153-1-1v-5l17-2 17 2v40l-17 2-17-2v-20.91c.00094669-.6601501.38820221-1.2586359.99-1.53h.01z" fill="#90bae1"/><path id="Path" d="m34 6s-34 4-34 40v-20.91c.00094669-.6601501.38820221-1.2586359.99-1.53h.01v-11.56c-.55228475 0-1-.4477153-1-1v-5l17-2z" fill="#b0d3f0"/><path id="Path" d="m24.62 18.46-9.28 5.71c-.7870402.4899657-1.8084721.369553-2.46-.29l-2.91-2.91c-.58754321-.5836783-1.47327138-.7465252-2.23-.41l-6.74 3v-11.56h8.04c.60612959.0035404 1.1786998.2788145 1.56.75l2.8 3.5c.3799324.4729114.9533767.7486057 1.56.75h9.25c.3534554-.0009134.6641627.233928.7597245.5742212s-.0474663.7025535-.3497245.8857788z" fill="#285680"/><path id="Path" d="m34 46v7c0 2.7614237-2.2385763 5-5 5h-24c-2.76142375 0-5-2.2385763-5-5v-7z" fill="#547580"/><path id="Path" d="m34 5v1h-34v-1c0-2.76142375 2.23857625-5 5-5h24c1.3260824 0 2.597852.5267842 3.5355339 1.46446609.9376819.9376819 1.4644661 2.20945146 1.4644661 3.53553391z" fill="#547580"/><rect id="Rectangle" fill="#ecf0f1" height="4" rx="1" width="4" x="15" y="50"/><g fill="#3f5c6c"><path id="Path" d="m10 53h-5c-.55228475 0-1-.4477153-1-1s.44771525-1 1-1h5c.5522847 0 1 .4477153 1 1s-.4477153 1-1 1z"/><path id="Path" d="m29 53h-5c-.5522847 0-1-.4477153-1-1s.4477153-1 1-1h5c.5522847 0 1 .4477153 1 1s-.4477153 1-1 1z"/></g></g></g></svg>