<svg height="512" viewBox="0 0 58 58" width="512" xmlns="http://www.w3.org/2000/svg"><g id="Page-1" fill="none" fill-rule="evenodd"><g id="023---Dead-Computer" transform="translate(-1)"><path id="Path" d="m59 2.18v41.82h-58v-41.82c-.04521019-1.152631.84774936-2.12595691 2-2.18h54c1.1522506.05404309 2.0452102 1.027369 2 2.18z" fill="#90bae1"/><path id="Path" d="m57.39.04c-9.36.38-56.39 4.14-56.39 41.96v-39.82c-.04521019-1.152631.84774936-2.12595691 2-2.18h54c.1311216-.00207169.2620289.01135469.39.04z" fill="#b0d3f0"/><path id="Path" d="m13 0v6.43c-.0007977.70338149-.3684987 1.35538737-.97 1.72l-3.56 2.14 1.99 2.66c.4206842.5564061.5193303 1.292458.26 1.94l-1.79 4.48c-.1516273.380721-.52019615.6303967-.93.63-.1267195.0010343-.25241609-.0227462-.37-.07-.50948054-.2085866-.7584163-.7864732-.56-1.3l1.79-4.48-1.99-2.66c-.3444405-.4521799-.47918561-1.0300204-.37028162-1.58791456.108904-.55789414.45107152-1.04263868.94028162-1.33208544l3.56-2.14v-6.43z" fill="#285680"/><path id="Path" d="m50 43c-.5522847 0-1-.4477153-1-1v-6.434c.0021059-.7014497.3697397-1.3510624.97-1.714l3.565-2.139-2-2.663c-.4166166-.5593094-.5142183-1.2943487-.258-1.943l1.792-4.479c.2129352-.5007949.7872344-.7393887 1.2923468-.5369082.5051125.2024804.7555913.7716964.5636532 1.2809082l-1.788 4.478 2 2.663c.3397538.4529972.47156 1.0287841.3627097 1.5844735s-.4481541 1.0391937-.9337097 1.3305265l-3.566 2.138v6.434c0 .5522847-.4477153 1-1 1z" fill="#285680"/><path id="Path" d="m41 54-11 2-11-2 3-6 8-2 8 2z" fill="#3f5c6c"/><path id="Path" d="m59 42v3.82c.0452102 1.152631-.8477494 2.1259569-2 2.18h-54c-1.15225064-.0540431-2.04521019-1.027369-2-2.18v-3.82z" fill="#547580"/><path id="Path" d="m47 56c-.0032948 1.1032019-.8967981 1.9967052-2 2h-30c-1.1011688-.0081672-1.9918328-.8988312-2-2 .0032948-1.1032019.8967981-1.9967052 2-2h30c1.1011688.0081672 1.9918328.8988312 2 2z" fill="#547580"/><path id="Path" d="m23.707 11.293c-.3904999-.3903819-1.0235001-.3903819-1.414 0l-2.293 2.293-2.293-2.293c-.3923789-.3789722-1.0160848-.3735524-1.4018186.0121814s-.3911536 1.0094397-.0121814 1.4018186l2.293 2.293-2.293 2.293c-.2599566.2510745-.3642126.6228779-.2726972.9725073.0915155.3496295.3645604.6226744.7141899.7141899.3496294.0915154.7214328-.0127406.9725073-.2726972l2.293-2.293 2.293 2.293c.3923789.3789722 1.0160848.3735524 1.4018186-.0121814s.3911536-1.0094397.0121814-1.4018186l-2.293-2.293 2.293-2.293c.3903819-.3904999.3903819-1.0235001 0-1.414z" fill="#c03a2b"/><path id="Path" d="m41.414 15 2.293-2.293c.3789722-.3923789.3735524-1.0160848-.0121814-1.4018186s-1.0094397-.3911536-1.4018186-.0121814l-2.293 2.293-2.293-2.293c-.3923789-.3789722-1.0160848-.3735524-1.4018186.0121814s-.3911536 1.0094397-.0121814 1.4018186l2.293 2.293-2.293 2.293c-.2599566.2510745-.3642126.6228779-.2726972.9725073.0915155.3496295.3645604.6226744.7141899.7141899.3496294.0915154.7214328-.0127406.9725073-.2726972l2.293-2.293 2.293 2.293c.3923789.3789722 1.0160848.3735524 1.4018186-.0121814s.3911536-1.0094397.0121814-1.4018186z" fill="#c03a2b"/><path id="Path" d="m40 25.11v3.89c0 2.209139-1.790861 4-4 4s-4-1.790861-4-4v-5.93z" fill="#e64c3c"/><g fill="#c03a2b"><path id="Path" d="m36 29c-.5522847 0-1-.4477153-1-1v-4.32c0-.5522847.4477153-1 1-1s1 .4477153 1 1v4.32c0 .5522847-.4477153 1-1 1z"/><path id="Path" d="m44 29c-.3022227-.0000645-.5882041-.1368062-.778-.372-.053-.064-3.906-4.628-13.222-4.628-9.335 0-13.185 4.582-13.222 4.628-.3460064.430506-.975494.4990064-1.406.153s-.4990064-.975494-.153-1.406c.181-.219 4.42-5.375 14.781-5.375s14.6 5.156 14.781 5.375c.2403397.3001841.2872591.7115903.1206819 1.0581819-.1665772.3465915-.5171385.5669624-.9016819.5668181z"/></g></g></g></svg>