<svg height="512" viewBox="0 0 58 59" width="512" xmlns="http://www.w3.org/2000/svg"><g id="Page-1" fill="none" fill-rule="evenodd"><g id="024---Laptop-Plasters"><path id="Path" d="m52 59h-46c-3.3137085 0-6-2.6862915-6-6v-3c0-.5522847.44771525-1 1-1h56c.5522847 0 1 .4477153 1 1v3c0 3.3137085-2.6862915 6-6 6z" fill="#547580"/><path id="Path" d="m19 49h20v2c0 1.6568542-1.3431458 3-3 3h-14c-1.6568542 0-3-1.3431458-3-3z" fill="#3f5c6c"/><path id="Path" d="m35.43 9h16.57c2.209139 0 4 1.790861 4 4v36h-54v-36c0-2.209139 1.790861-4 4-4z" fill="#90bae1"/><path id="Path" d="m52.95 9.12c-11.41.71-50.95 5.65-50.95 39.88v-36c0-2.209139 1.790861-4 4-4h46c.3205339-.00142005.6398873.03891933.95.12z" fill="#b0d3f0"/><path id="Path" d="m15 54h-3c-.5522847 0-1-.4477153-1-1s.4477153-1 1-1h3c.5522847 0 1 .4477153 1 1s-.4477153 1-1 1z" fill="#3f5c6c"/><circle id="Oval" cx="4" cy="53" fill="#65ddb9" r="1"/><circle id="Oval" cx="8" cy="53" fill="#65ddb9" r="1"/><path id="Path" d="m29 35.887-6.445 6.443c-3.5658091 3.5158266-9.3005473 3.4953663-12.8411785-.0458145-3.54063125-3.5411809-3.56020148-9.2759221-.0438215-12.8411855l6.442-6.443" fill="#e57e25"/><path id="Path" d="m29 10.113 6.441-6.443c2.2966153-2.32854198 5.6650232-3.24764488 8.8260355-2.40826972 3.1610124.83937516 5.6297195 3.30846551 6.4686041 6.46960806.8388845 3.16114256-.0807412 6.52940786-2.4096396 8.82566166l-6.443 6.443" fill="#e57e25"/><path id="Path" d="m48.326 42.329c-3.558648 3.5539283-9.323352 3.5539283-12.882 0l-25.774-25.776c-3.53708683-3.5607086-3.5275171-9.31168234.02140028-12.86059972 3.54891742-3.54891738 9.29989112-3.55848711 12.86059972-.02140028l25.774 25.776c3.5528266 3.5591038 3.5528266 9.3228962 0 12.882z" fill="#f29c1f"/><path id="Path" d="m37.05 27.829-3.223 3.224c-.8909169.8878072-2.3320831.8878072-3.223 0l-9.658-9.659c-.8889068-.8904623-.8889068-2.3325377 0-3.223l3.223-3.224c.8909169-.8878072 2.3320831-.8878072 3.223 0l9.658 9.659c.8889068.8904623.8889068 2.3325377 0 3.223z" fill="#f9eab0"/><g fill="#d25627"><circle id="Oval" cx="17.333" cy="39.336" r="1"/><circle id="Oval" cx="40.667" cy="39.336" r="1"/><circle id="Oval" cx="35.998" cy="11.332" r="1"/><circle id="Oval" cx="40.665" cy="15.999" r="1"/><circle id="Oval" cx="40.665" cy="6.664" r="1"/><circle id="Oval" cx="45.332" cy="11.332" r="1"/><circle id="Oval" cx="40.665" cy="11.332" r="1"/><circle id="Oval" cx="12.664" cy="34.668" r="1"/><circle id="Oval" cx="17.331" cy="30.001" r="1"/><circle id="Oval" cx="21.998" cy="34.668" r="1"/><circle id="Oval" cx="17.331" cy="34.668" r="1"/><circle id="Oval" cx="17.331" cy="15.999" r="1"/><circle id="Oval" cx="21.998" cy="11.332" r="1"/><circle id="Oval" cx="12.664" cy="11.332" r="1"/><circle id="Oval" cx="17.331" cy="6.664" r="1"/><circle id="Oval" cx="17.331" cy="11.332" r="1"/><circle id="Oval" cx="45.332" cy="34.668" r="1"/><circle id="Oval" cx="35.998" cy="34.668" r="1"/><circle id="Oval" cx="40.665" cy="30.001" r="1"/><circle id="Oval" cx="40.665" cy="34.668" r="1"/></g></g></g></svg>