<svg height="512" viewBox="0 0 58 58" width="512" xmlns="http://www.w3.org/2000/svg"><g id="Page-1" fill="none" fill-rule="evenodd"><g id="025---Replace-Mobile-Screen"><path id="Path" d="m28 47.83c-.3212676.113017-.6594336.1705052-1 .17h-24c-1.65685425 0-3-1.3431458-3-3v-42c0-1.65685425 1.34314575-3 3-3h24c1.6568542 0 3 1.34314575 3 3v9.18z" fill="#26b99a"/><path id="Path" d="m28 45.83v4.99c-.3193958.1211006-.6584234.1821256-1 .18h-24c-1.65685425 0-3-1.3431458-3-3v-5c0 1.6568542 1.34314575 3 3 3h24c.3405664.0005052.6787324-.056983 1-.17z" fill="#547580"/><path id="Path" d="m23 0-2.1 2.8c-.5665631.75541753-1.4557281 1.2-2.4 1.2h-7c-.9442719 0-1.83343685-.44458247-2.4-1.2l-2.1-2.8z" fill="#547580"/><path id="Path" d="m58 15v40c0 1.6568542-1.3431458 3-3 3h-24c-1.6568542 0-3-1.3431458-3-3v-40c-.0061167-1.2713341.798164-2.40537 2-2.82.3193958-.1211006.6584234-.1821256 1-.18h3c.6290338.0020295 1.2209561.2979907 1.6.8l1.5 2c.5665631.7554175 1.4557281 1.2 2.4 1.2h7c.9442719 0 1.8334369-.4445825 2.4-1.2l1.5-2c.3790439-.5020093.9709662-.7979705 1.6-.8h3c1.6568542 0 3 1.3431458 3 3z" fill="#90bae1"/><path id="Path" d="m58 15v1s-28.72 2.87-29.95 39.52c-.031975-.1715188-.0487069-.345531-.05-.52v-40c-.0061167-1.2713341.798164-2.40537 2-2.82.3193958-.1211006.6584234-.1821256 1-.18h3c.6290338.0020295 1.2209561.2979907 1.6.8l1.5 2c.5665631.7554175 1.4557281 1.2 2.4 1.2h7c.9442719 0 1.8334369-.4445825 2.4-1.2l1.5-2c.3790439-.5020093.9709662-.7979705 1.6-.8h3c1.6568542 0 3 1.3431458 3 3z" fill="#b0d3f0"/><rect id="Rectangle" fill="#ecf0f1" height="12" rx="2" transform="matrix(-1 0 0 -1 40 70)" width="8" x="16" y="29"/><rect id="Rectangle" fill="#ecf0f1" height="12" rx="2" transform="matrix(0 1 -1 0 31 11)" width="8" x="6" y="15"/><path id="Path" d="m12 42c-.5522847 0-1-.4477153-1-1v-12c0-.5522847.4477153-1 1-1s1 .4477153 1 1v12c0 .5522847-.4477153 1-1 1z" fill="#33907c"/><path id="Path" d="m4 42c-.55228475 0-1-.4477153-1-1v-12c0-.5522847.44771525-1 1-1s1 .4477153 1 1v12c0 .5522847-.44771525 1-1 1z" fill="#33907c"/><path id="Path" d="m24 26c-.5522847 0-1-.4477153-1-1v-8c0-.5522847.4477153-1 1-1s1 .4477153 1 1v8c0 .5522847-.4477153 1-1 1z" fill="#f0c419"/><path id="Path" d="m20 26c-.5522847 0-1-.4477153-1-1v-8c0-.5522847.4477153-1 1-1s1 .4477153 1 1v8c0 .5522847-.4477153 1-1 1z" fill="#f0c419"/><g fill="#33907c"><circle id="Oval" cx="8" cy="29" r="1"/><circle id="Oval" cx="8" cy="33" r="1"/><circle id="Oval" cx="8" cy="37" r="1"/><circle id="Oval" cx="8" cy="41" r="1"/></g><path id="Path" d="m26 9h-22c-.55228475 0-1-.44771525-1-1s.44771525-1 1-1h22c.5522847 0 1 .44771525 1 1s-.4477153 1-1 1z" fill="#f0c419"/><path id="Path" d="m24 13h-20c-.55228475 0-1-.4477153-1-1s.44771525-1 1-1h20c.5522847 0 1 .4477153 1 1s-.4477153 1-1 1z" fill="#f0c419"/></g></g></svg>