<svg height="512" viewBox="0 0 58 58" width="512" xmlns="http://www.w3.org/2000/svg"><g id="Page-1" fill="none" fill-rule="evenodd"><g id="026---Cracked-Computer" transform="translate(-1)"><path id="Path" d="m41 54-11 1-11-1 3-6 8-2 8 2z" fill="#3f5c6c"/><path id="Path" d="m47 56c-.0032948 1.1032019-.8967981 1.9967052-2 2h-30c-1.1011688-.0081672-1.9918328-.8988312-2-2 .0032948-1.1032019.8967981-1.9967052 2-2h30c1.1011688.0081672 1.9918328.8988312 2 2z" fill="#547580"/><path id="Path" d="m58 34c.5522847 0 1 .4477153 1 1v9h-58v-22.91c.00094669-.6601501.38820221-1.2586359.99-1.53h.01v-11.56c-.55228475 0-1-.44771525-1-1v-4.82c-.04521019-1.152631.84774936-2.12595691 2-2.18h54c1.1522506.05404309 2.0452102 1.027369 2 2.18v22.21c-.0005877.6880681-.3868774 1.3177202-1 1.63z" fill="#90bae1"/><path id="Path" d="m10.86 16.88c-5.88 5.99-9.86 14.12-9.86 25.12v-20.91c.00094669-.6601501.38820221-1.2586359.99-1.53h.01l6.74-3c.70820756-.318785 1.5374382-.1936181 2.12.32z" fill="#b0d3f0"/><path id="Path" d="m57.39.04c-5.98.24-27.35 1.86-41.99 12.88-.3923419-.1193466-.7403934-.3525411-1-.67l-2.8-3.5c-.3813002-.47118547-.9538704-.74645959-1.56-.75h-8.04c-.55228475 0-1-.44771525-1-1v-4.82c-.04521019-1.152631.84774936-2.12595691 2-2.18h54c.1311216-.00207169.2620289.01135469.39.04z" fill="#b0d3f0"/><path id="Path" d="m59 42v3.82c.0452102 1.152631-.8477494 2.1259569-2 2.18h-54c-1.15225064-.0540431-2.04521019-1.027369-2-2.18v-3.82z" fill="#547580"/><g fill="#285680"><path id="Path" d="m25.62 14.46-9.28 5.71c-.7870402.4899657-1.8084721.369553-2.46-.29l-2.91-2.91c-.5875432-.5836783-1.47327138-.7465252-2.23-.41l-6.74 3v-11.56h8.04c.6061296.00354041 1.1786998.27881453 1.56.75l2.8 3.5c.3799324.4729114.9533767.7486057 1.56.75h9.25c.3534554-.0009134.6641627.233928.7597245.5742212s-.0474663.7025535-.3497245.8857788z"/><path id="Path" d="m58 26.02v7.9800085l-4.18-.0000085c-.5303401.0015621-1.0388166-.2112047-1.41-.59l-1.84-1.83c-.3749829-.3719209-.881855-.5804215-1.41-.58h-6.33c-.3686621-.001126-.6922859-.2455733-.7941772-.5998772-.1018913-.3543038.0424344-.7333248.3541772-.9301228l6.44-4.09c.5581836-.3435115 1.2795701-.2564476 1.74.21l2.07 2.06c.4163988.4133785 1.0439415.5285604 1.58.29z"/></g></g></g></svg>