<svg height="512" viewBox="0 0 58 58" width="512" xmlns="http://www.w3.org/2000/svg"><g id="Page-1" fill="none" fill-rule="evenodd"><g id="027---Laptop-Problem"><path id="Path" d="m35.43 8h16.57c2.209139 0 4 1.790861 4 4v38h-54v-38c0-2.209139 1.790861-4 4-4z" fill="#90bae1"/><path id="Path" d="m52.95 8.12c-11.41.71-50.95 5.65-50.95 39.88v-36c0-2.209139 1.790861-4 4-4h46c.3205339-.00142005.6398873.03891933.95.12z" fill="#b0d3f0"/><path id="Shape" d="m29 0c-12.1502645 0-22 9.8497355-22 22s9.8497355 22 22 22 22-9.8497355 22-22c0-5.8347628-2.3178505-11.4305489-6.4436508-15.55634919-4.1258003-4.12580032-9.7215864-6.44365081-15.5563492-6.44365081zm-14.77 32.27c-4.98257916-7.1487279-4.1240603-16.8408785 2.0375306-23.00246939 6.1615909-6.16159093 15.8537415-7.02010977 23.0024694-2.03753061.2456654.16978205.4033041.43984224.4303404.73724178.0270364.29739954-.0793187.59145916-.2903404.80275822l-23.64 23.64c-.2112991.2110217-.5053587.3173768-.8027582.2903404-.2973996-.0270363-.5674598-.184675-.7372418-.4303404zm14.77 7.73c-3.673994.0047913-7.2601548-1.1230859-10.27-3.23-.2456654-.169782-.4033041-.4398422-.4303404-.7372418-.0270364-.2973995.0793187-.5914591.2903404-.8027582l23.64-23.64c.2112991-.2110217.5053587-.3173768.8027582-.2903404.2973996.0270363.5674598.184675.7372418.4303404 3.8323109 5.4987374 4.2892224 12.672253 1.1855261 18.612774-3.1036963 5.9405209-9.2530868 9.662495-15.9555261 9.657226z" fill="#e64c3c" fill-rule="nonzero"/><path id="Path" d="m52 58h-46c-3.3137085 0-6-2.6862915-6-6v-3c0-.5522847.44771525-1 1-1h56c.5522847 0 1 .4477153 1 1v3c0 3.3137085-2.6862915 6-6 6z" fill="#547580"/><path id="Path" d="m19 48h20v2c0 1.6568542-1.3431458 3-3 3h-14c-1.6568542 0-3-1.3431458-3-3z" fill="#3f5c6c"/><path id="Path" d="m15 53h-3c-.5522847 0-1-.4477153-1-1s.4477153-1 1-1h3c.5522847 0 1 .4477153 1 1s-.4477153 1-1 1z" fill="#3f5c6c"/><g fill="#65ddb9"><circle id="Oval" cx="4" cy="52" r="1"/><circle id="Oval" cx="8" cy="52" r="1"/></g></g></g></svg>