<svg height="512" viewBox="0 0 58 58" width="512" xmlns="http://www.w3.org/2000/svg"><g id="Page-1" fill="none" fill-rule="evenodd"><g id="028---Repair-Messages" transform="translate(0 -1)"><path id="Path" d="m46 17h8c2.209139 0 4 1.790861 4 4v28c0 2.209139-1.790861 4-4 4h-3v3.82c-.0003663.7888944-.4276833 1.5158021-1.116811 1.899804-.6891278.3840019-1.5321174.3649457-2.203189-.049804l-9.22-5.67h-22.46c-2.209139 0-4-1.790861-4-4v-4.36l7-5.64z" fill="#4482c3"/><path id="Path" d="m46 8v28c0 2.209139-1.790861 4-4 4h-22.46l-7.54 4.64-1.68 1.03c-.67107162.4147497-1.51406124.4338059-2.20318896.049804s-1.11644473-1.1109096-1.11681104-1.899804v-3.82h-3c-2.209139 0-4-1.790861-4-4v-28c0-2.209139 1.790861-4 4-4h38c2.209139 0 4 1.790861 4 4z" fill="#f0c419"/><path id="Path" d="m26.035 13.965 12.505 12.505c1.9523265 1.955088 1.9500879 5.1226734-.0050001 7.0749999-1.9550879 1.9523266-5.1226733 1.9500881-7.0749999-.0049999l-9.21-9.21" fill="#e64c3c"/><path id="Path" d="m35 31c-.2651948-.0000566-.5195073-.1054506-.707-.293l-9.21-9.207c-.3912937-.3912937-.3912937-1.0257063 0-1.417s1.0257063-.3912937 1.417 0l9.21 9.21c.2862967.2863801.3716214.7171518.2161071 1.0910431-.1555142.3738913-.521165.6170868-.9261071.6159569z" fill="#c03a2b"/><path id="Path" d="m18.6 16.821-6.93-7.021-2.8-1.4c-.46795062-.23728303-.83906008-.62959874-1.05-1.11l-1.73-4.039c-.18207539-.41520613-.09075709-.89959016.23-1.22l.71-.709c.32040984-.32075709.80479387-.41207539 1.22-.23l4.04 1.729c.4804013.21093992.872717.58204938 1.11 1.05l1.41 2.81 8.2 8.306" fill="#ecf0f1"/><path id="Path" d="m37.121 17.813c-2.7677759 2.7734079-6.9171051 3.6406665-10.564 2.208l-13.826 13.826c-1.5403222 1.5403221-4.0376778 1.5403221-5.57799994-.0000001-1.54032215-1.5403221-1.54032217-4.0376777-.00000006-5.5779999l13.826-13.826c-1.2460892-3.1719239-.7626033-6.76274436 1.2780667-9.49212258 2.0406699-2.72937822 5.348076-4.20884277 8.7429333-3.91087742.5633096.05649618 1.0435559.43271313 1.2332632.96611791s.0548686 1.12837889-.3462632 1.52788209l-2.778 2.789c-.4377969.43632895-.6458141 1.05260777-.562 1.665l.345 2.444c.1213321.8702575.8056702 1.5541873 1.676 1.675l2.444.345c.6122754.0845506 1.2287379-.1231584 1.665-.561l2.789-2.78c.3953268-.39958289.9846275-.53734195 1.5161247-.35441993s.9111977.65417609.9768753 1.21241993c.2695487 2.906861-.7708918 5.7825536-2.838 7.844z" fill="#4482c3"/><path id="Path" d="m11.337 30.665c-.4043959-.0000863-.7689341-.2437275-.923678-.6173454-.1547439-.373618-.0692299-.8036603.216678-1.0896546l10.452-10.453c.3904653-.3915699 1.0244301-.3924653 1.416-.002s.3924653 1.0244301.002 1.416l-10.456 10.453c-.1874927.1875494-.4418052.2929434-.707.293z" fill="#285680"/></g></g></svg>