<svg height="512" viewBox="0 0 58 58" width="512" xmlns="http://www.w3.org/2000/svg"><g id="Page-1" fill="none" fill-rule="evenodd"><g id="029---Computer-Error" transform="translate(-1)"><path id="Path" d="m59 2.18v41.82h-58v-41.82c-.04521019-1.152631.84774936-2.12595691 2-2.18h54c1.1522506.05404309 2.0452102 1.027369 2 2.18z" fill="#90bae1"/><path id="Path" d="m57.39.04c-9.36.38-56.39 4.14-56.39 41.96v-39.82c-.04521019-1.152631.84774936-2.12595691 2-2.18h54c.1311216-.00207169.2620289.01135469.39.04z" fill="#b0d3f0"/><path id="Path" d="m41 54-11 2-11-2 3-6 8-2 8 2z" fill="#3f5c6c"/><path id="Path" d="m59 42v3.82c.0452102 1.152631-.8477494 2.1259569-2 2.18h-54c-1.15225064-.0540431-2.04521019-1.027369-2-2.18v-3.82z" fill="#547580"/><path id="Path" d="m47 56c-.0032948 1.1032019-.8967981 1.9967052-2 2h-30c-1.1011688-.0081672-1.9918328-.8988312-2-2 .0032948-1.1032019.8967981-1.9967052 2-2h30c1.1011688.0081672 1.9918328.8988312 2 2z" fill="#547580"/><path id="Path" d="m47.214 38h-34.428c-1.7593025.0281358-3.38653514-.9301918-4.21511674-2.4824126-.8285816-1.5522207-.71928527-3.4375144.28311674-4.8835874l17.2-24.6c.9084066-1.27647041 2.3782903-2.03452088 3.945-2.03452088s3.0365934.75805047 3.945 2.03452088l17.2 24.6c1.0021789 1.4457766 1.1116406 3.3306118.2835616 4.8826806-.8280791 1.5520687-2.4546178 2.5106913-4.2135616 2.4833194z" fill="#e64c3c"/><g fill="#fff"><path id="Path" d="m32.526 12.524v.143l-.642 11.555c-.0563822.998167-.8822419 1.7786938-1.882 1.7786938s-1.8256178-.7805268-1.882-1.7786938l-.642-11.555c-.0517134-.9178416.3992977-1.791313 1.1775709-2.2805965.7782731-.48928355 1.7609168-.51711993 2.5656405-.0726796.8047238.4444402 1.3044595 1.2909789 1.3047886 2.2102761z"/><circle id="Oval" cx="30" cy="32" r="2"/></g></g></g></svg>