<svg height="512" viewBox="0 0 46 58" width="512" xmlns="http://www.w3.org/2000/svg"><g id="Page-1" fill="none" fill-rule="evenodd"><g id="030---Mobile-Heart-Rate"><path id="Path" d="m33 0h4c1.6568542 0 3 1.34314575 3 3v49c0 1.6568542-1.3431458 3-3 3h-28c-1.65685425 0-3-1.3431458-3-3v-49c0-1.65685425 1.34314575-3 3-3z" fill="#90bae1"/><path id="Path" d="m40 3v1s-33.14 1.95-33.98 46.26c-.01658959-.0856164-.02330015-.1728536-.02-.26v-47c0-1.65685425 1.34314575-3 3-3h4l2.86 3.05c.5663757.60708315 1.3597411.95123705 2.19.95h9.9c.8302589.00123705 1.6236243-.34291685 2.19-.95l2.86-3.05h4c1.6568542 0 3 1.34314575 3 3z" fill="#b0d3f0"/><path id="Path" d="m40 50v5c0 1.6568542-1.3431458 3-3 3h-28c-1.65685425 0-3-1.3431458-3-3v-5c0 1.6568542 1.34314575 3 3 3h28c1.6568542 0 3-1.3431458 3-3z" fill="#547580"/><path id="Path" d="m33 0-2.86 3.05c-.5663757.60708315-1.3597411.95123705-2.19.95h-9.9c-.8302589.00123705-1.6236243-.34291685-2.19-.95l-2.86-3.05z" fill="#547580"/><path id="Path" d="m23 14.257c2.5063118-3.9201772 6.8471768-6.28198524 11.5-6.257 6.808 0 11.5 5.829 11.5 12.735 0 9.238-8.756 15.457-21.672 26.767-.7608879.6638546-1.8951121.6638546-2.656 0-12.916-11.31-21.672-17.529-21.672-26.767 0-6.906 4.692-12.735 11.5-12.735 4.6528232-.02498524 8.9936882 2.3368228 11.5 6.257z" fill="#ff5364"/><path id="Shape" d="m18.055 33h-.055c-.6348613-.0205304-1.1833746-.4497138-1.356-1.061l-2.836-9.894-1.771 4.073c-.2314478.536199-.7599825.8830499-1.344.882h-3.693c-.55228475 0-1-.4477153-1-1s.44771525-1 1-1h3.343l2.224-5.117c.2440387-.5667512.8170411-.9198294 1.433-.883.6208291.0336461 1.1508828.4598624 1.317 1.059l2.793 9.747 2.49-6.827c.2137012-.5850811.7737921-.9712394 1.3966233-.962911.6228312.0083285 1.1723964.409325 1.3703767.999911l1.67 5 2.519-6.907c.218929-.5993302.8003678-.9882267 1.4378822-.9617302s1.1846769.4623 1.3531178 1.0777302l1.829 6.675.776-1.971c.2202774-.5603206.7609359-.9288251 1.363-.929h4.685c.5522847 0 1 .4477153 1 1s-.4477153 1-1 1h-4.321l-1.233 3.126c-.2327373.5856935-.8137694.9570926-1.4430552.9224093-.6292857-.0346832-1.1659829-.4676863-1.3329448-1.0754093l-1.806-6.6-2.464 6.764c-.2066106.5808307-.7585363.966978-1.375.962h-.025c-.6242704-.0031204-1.1761589-.4062529-1.369-1l-1.67-5-2.528 6.934c-.2088043.5811687-.7604608.9682891-1.378.967z" fill="#fff" fill-rule="nonzero"/></g></g></svg>