<svg height="512" viewBox="0 0 60 60" width="512" xmlns="http://www.w3.org/2000/svg"><g id="Page-1" fill="none" fill-rule="evenodd"><g id="031---Replace-Motherboard" transform="translate(-1)"><path id="Path" d="m57.28 15.517c-.2709675-.4747358-.8729189-.6439282-1.3515383-.3798811-.4786195.2640471-.6565327.8634788-.3994617 1.3458811 6.5763446 11.923228 3.6216267 26.848889-7.00139 35.3672922-10.6230166 8.5184032-25.8340964 8.159564-36.04361-.8502922h1.516c.5522847 0 1-.4477153 1-1s-.4477153-1-1-1h-4c-.55228475 0-1 .4477153-1 1v4c0 .5522847.44771525 1 1 1 .5522847 0 1-.4477153 1-1v-1.646c10.8995005 9.7554733 27.24575 10.2279699 38.690555 1.1183701 11.4448049-9.1095998 14.6512454-25.1452435 7.589445-37.9553701z" fill="#e64c3c"/><path id="Path" d="m3 30c.0014759-11.0046435 6.44897136-20.98803732 16.4788643-25.51610835 10.029893-4.52807104 21.7821771-2.76110533 30.0371357 4.51610835h-1.516c-.5522847 0-1 .44771525-1 1 0 .5522847.4477153 1 1 1h4c.5522847 0 1-.4477153 1-1v-4c0-.55228475-.4477153-1-1-1s-1 .44771525-1 1v1.646c-10.8995005-9.7554733-27.24575-10.22796992-38.690555-1.11837009-11.44480491 9.10959979-14.65124542 25.14524349-7.589445 37.95537009.27096748.4747358.87291885.6439282 1.35153834.3798811s.65653268-.8634788.39946166-1.3458811c-2.27807231-4.1409822-3.47207824-8.7907598-3.471-13.517z" fill="#e64c3c"/><rect id="Rectangle" fill="#26b99a" height="32" rx="2" width="36" x="13" y="14"/><g fill="#33907c"><path id="Path" d="m45 43h-13c-.5522847 0-1-.4477153-1-1s.4477153-1 1-1h13c.5522847 0 1 .4477153 1 1s-.4477153 1-1 1z"/><path id="Path" d="m45 39h-13c-.5522847 0-1-.4477153-1-1s.4477153-1 1-1h13c.5522847 0 1 .4477153 1 1s-.4477153 1-1 1z"/><path id="Path" d="m26 43c-.5522847 0-1-.4477153-1-1v-4c0-.5522847.4477153-1 1-1s1 .4477153 1 1v4c0 .5522847-.4477153 1-1 1z"/><path id="Path" d="m22 43c-.5522847 0-1-.4477153-1-1v-4c0-.5522847.4477153-1 1-1s1 .4477153 1 1v4c0 .5522847-.4477153 1-1 1z"/><path id="Path" d="m18 43c-.5522847 0-1-.4477153-1-1v-4c0-.5522847.4477153-1 1-1s1 .4477153 1 1v4c0 .5522847-.4477153 1-1 1z"/><path id="Path" d="m22 31c-.5522847 0-1-.4477153-1-1v-12c0-.5522847.4477153-1 1-1s1 .4477153 1 1v12c0 .5522847-.4477153 1-1 1z"/><path id="Path" d="m18 31c-.5522847 0-1-.4477153-1-1v-12c0-.5522847.4477153-1 1-1s1 .4477153 1 1v12c0 .5522847-.4477153 1-1 1z"/><path id="Path" d="m19 35h-1c-.5522847 0-1-.4477153-1-1s.4477153-1 1-1h1c.5522847 0 1 .4477153 1 1s-.4477153 1-1 1z"/><path id="Path" d="m24 35h-1c-.5522847 0-1-.4477153-1-1s.4477153-1 1-1h1c.5522847 0 1 .4477153 1 1s-.4477153 1-1 1z"/><path id="Path" d="m29 35h-1c-.5522847 0-1-.4477153-1-1s.4477153-1 1-1h1c.5522847 0 1 .4477153 1 1s-.4477153 1-1 1z"/></g><circle id="Oval" cx="29" cy="20" fill="#f3d55b" r="2"/><circle id="Oval" cx="29" cy="28" fill="#f3d55b" r="2"/><rect id="Rectangle" fill="#bdc3c7" height="10" rx="1" width="10" x="35" y="18"/><path id="Path" d="m36 35c-.5522847 0-1-.4477153-1-1v-2c0-.5522847.4477153-1 1-1s1 .4477153 1 1v2c0 .5522847-.4477153 1-1 1z" fill="#33907c"/><path id="Path" d="m40 35c-.5522847 0-1-.4477153-1-1v-2c0-.5522847.4477153-1 1-1s1 .4477153 1 1v2c0 .5522847-.4477153 1-1 1z" fill="#33907c"/><path id="Path" d="m44 35c-.5522847 0-1-.4477153-1-1v-2c0-.5522847.4477153-1 1-1s1 .4477153 1 1v2c0 .5522847-.4477153 1-1 1z" fill="#33907c"/></g></g></svg>