<svg height="512" viewBox="0 0 58 58" width="512" xmlns="http://www.w3.org/2000/svg"><g id="Page-1" fill="none" fill-rule="evenodd"><g id="032---Laptop-Death"><path id="Path" d="m35.43 8h16.57c2.209139 0 4 1.790861 4 4v38h-54v-38c0-2.209139 1.790861-4 4-4z" fill="#90bae1"/><path id="Path" d="m52.95 8.12c-11.41.71-50.95 5.65-50.95 39.88v-36c0-2.209139 1.790861-4 4-4h46c.3205339-.00142005.6398873.03891933.95.12z" fill="#b0d3f0"/><path id="Path" d="m42 17c0 1.6568542-1.3431458 3-3 3-1.1032019.0032948-1.9967052.8967981-2 2v5.86l-8 3.14-8-3.14v-5.86c-.0032948-1.1032019-.8967981-1.9967052-2-2-1.3066976-.0005787-2.4627218-.8468822-2.8580683-2.092338-.3953465-1.2454557.0609317-2.6035543 1.1280683-3.357662-.1818949-.8377439-.2724239-1.69274-.27-2.55 0-6.627417 5.372583-12 12-12s12 5.372583 12 12c.0024239.85726-.0881051 1.7122561-.27 2.55.7975551.56068 1.2715543 1.4750878 1.27 2.45z" fill="#f9eab0"/><g fill="#7f6e5d"><path id="Path" d="m27 15c0 1.6568542-1.3431458 2.9999999-3 2.9999999s-3-1.3431457-3-2.9999999c0-1.657 1.343-2 3-2s3 .343 3 2z"/><path id="Path" d="m37 15c0 1.6568542-1.3431458 3-3 3s-3-1.3431458-3-3c0-1.657 1.343-2 3-2s3 .343 3 2z"/><path id="Path" d="m31 23c-.2651948-.0000566-.5195073-.1054506-.707-.293l-1.293-1.293-1.293 1.293c-.3923789.3789722-1.0160848.3735524-1.4018186-.0121814s-.3911536-1.0094397-.0121814-1.4018186l2-2c.3904999-.3903819 1.0235001-.3903819 1.414 0l2 2c.2859079.2859943.3714219.7160366.216678 1.0896546-.1547439.3736179-.5192821.6172591-.923678.6173454z"/></g><path id="Path" d="m29 33c-.5522847 0-1-.4477153-1-1v-6c0-.5522847.4477153-1 1-1s1 .4477153 1 1v6c0 .5522847-.4477153 1-1 1z" fill="#b19046"/><path id="Path" d="m25 31c-.5522847 0-1-.4477153-1-1v-4c0-.5522847.4477153-1 1-1s1 .4477153 1 1v4c0 .5522847-.4477153 1-1 1z" fill="#b19046"/><path id="Path" d="m33 31c-.5522847 0-1-.4477153-1-1v-4c0-.5522847.4477153-1 1-1s1 .4477153 1 1v4c0 .5522847-.4477153 1-1 1z" fill="#b19046"/><path id="Path" d="m52 58h-46c-3.3137085 0-6-2.6862915-6-6v-3c0-.5522847.44771525-1 1-1h56c.5522847 0 1 .4477153 1 1v3c0 3.3137085-2.6862915 6-6 6z" fill="#547580"/><path id="Path" d="m19 48h20v2c0 1.6568542-1.3431458 3-3 3h-14c-1.6568542 0-3-1.3431458-3-3z" fill="#3f5c6c"/><path id="Path" d="m15 53h-3c-.5522847 0-1-.4477153-1-1s.4477153-1 1-1h3c.5522847 0 1 .4477153 1 1s-.4477153 1-1 1z" fill="#3f5c6c"/><circle id="Oval" cx="4" cy="52" fill="#65ddb9" r="1"/><circle id="Oval" cx="8" cy="52" fill="#65ddb9" r="1"/><path id="Path" d="m49.16 34.67c-1.5219484-.6404478-3.277192.0465794-3.96 1.55l-10.77-4.22 10.77-4.23c.68041 1.511512 2.4426032 2.2039608 3.97 1.56.731444-.3022072 1.3113439-.8848297 1.6101218-1.6176811.2987779-.7328515.2915308-1.5548492-.0201218-2.2823189-.295294-.6754771-.8345229-1.214706-1.51-1.51.2451406-.6917369.2128853-1.4515284-.09-2.12-.6685816-1.5126225-2.4282716-2.2075887-3.95-1.56-.7316787.2987302-1.3119013.8800043-1.6093062 1.6122227s-.2868388 1.5534529.0293062 2.2777773l-6.63 2.6-8 3.14-8-3.14-6.63-2.6c.316145-.7243244.3267111-1.5455589.0293062-2.2777773s-.8776275-1.3134925-1.6093062-1.6122227c-1.5217284-.6475887-3.28141837.0473775-3.95 1.56-.30288535.6684716-.33514065 1.4282631-.09 2.12-.67547715.295294-1.21470598.8345229-1.51 1.51-.31165264.7274697-.31889968 1.5494674-.02012178 2.2823189.2987779.7328514.87867781 1.3154739 1.61012178 1.6176811 1.5273968.6439608 3.28959-.048488 3.97-1.56l10.77 4.23-10.77 4.22c-.682808-1.5034206-2.4380516-2.1904478-3.96-1.55-.73272166.2979742-1.31496124.8779022-1.61584783 1.6094328-.3008866.7315305-.29517614 1.5532889.01584783 2.2805672.30151903.6770266.84297335 1.218481 1.52 1.52-.25352904.6896321-.22478171 1.4514363.08 2.12.66979086 1.5113633 2.4282492 2.205843 3.95 1.56.7325325-.3008914 1.3135141-.8833992 1.6124828-1.6167186.2989686-.7333193.290868-1.5559914-.0224828-2.2832814l14.62-5.74h.01l14.61 5.74c-.3133508.72729-.3214514 1.5499621-.0224828 2.2832814.2989687.7333194.8799503 1.3158272 1.6124828 1.6167186 1.5217508.645843 3.2802091-.0486367 3.95-1.56.3047817-.6685637.333529-1.4303679.08-2.12.6770266-.301519 1.218481-.8429734 1.52-1.52.311024-.7272783.3167344-1.5490367.0158478-2.2805672-.3008866-.7315306-.8831261-1.3114586-1.6158478-1.6094328z" fill="#f5efca"/></g></g></svg>