<svg height="512" viewBox="0 0 52 58" width="512" xmlns="http://www.w3.org/2000/svg"><g id="Page-1" fill="none" fill-rule="evenodd"><g id="033---Mobile-Error"><path id="Path" d="m36 0h4c1.6568542 0 3 1.34314575 3 3v49c0 1.6568542-1.3431458 3-3 3h-28c-1.6568542 0-3-1.3431458-3-3v-49c0-1.65685425 1.3431458-3 3-3z" fill="#90bae1"/><path id="Path" d="m43 50v5c0 1.6568542-1.3431458 3-3 3h-28c-1.6568542 0-3-1.3431458-3-3v-5c0 1.6568542 1.3431458 3 3 3h28c1.6568542 0 3-1.3431458 3-3z" fill="#547580"/><path id="Path" d="m43 3v1s-33.14 1.95-33.98 46.26c-.01658959-.0856164-.02330015-.1728536-.02-.26v-47c0-1.65685425 1.3431458-3 3-3h4l2.86 3.05c.5663757.60708315 1.3597411.95123705 2.19.95h9.9c.8302589.00123705 1.6236243-.34291685 2.19-.95l2.86-3.05h4c1.6568542 0 3 1.34314575 3 3z" fill="#b0d3f0"/><path id="Path" d="m36 0-2.86 3.05c-.5663757.60708315-1.3597411.95123705-2.19.95h-9.9c-.8302589.00123705-1.6236243-.34291685-2.19-.95l-2.86-3.05z" fill="#547580"/><path id="Path" d="m46.343 49h-40.686c-2.10303887-.004841-4.03026055-1.1745052-5.00535094-3.0378341-.97509038-1.863329-.83749874-4.1135215.35735094-5.8441659l20.329-29.664c1.0547176-1.53623309 2.7985512-2.45425306 4.662-2.45425306s3.6072824.91801997 4.662 2.45425306l20.329 29.664c1.1948497 1.7306444 1.3324413 3.9808369.3573509 5.8441659-.9750904 1.8633289-2.902312 3.0329931-5.0053509 3.0378341z" fill="#e64c3c"/><g fill="#fff"><path id="Path" d="m29.333 18.156v.177l-.847 14.445c-.1456446 1.2613901-1.2137294 2.2132462-2.4835 2.2132462s-2.3378554-.9518561-2.4835-2.2132462l-.847-14.445c.0029319-1.8041745 1.4409202-3.2784829 3.2444604-3.3264076 1.8035403-.0479247 3.3177963 1.3479349 3.4165396 3.1494076z"/><circle id="Oval" cx="26" cy="42" r="3"/></g></g></g></svg>