<svg height="512" viewBox="0 0 58 58" width="512" xmlns="http://www.w3.org/2000/svg"><g id="Page-1" fill="none" fill-rule="evenodd"><g id="034---Computer-Signal-Error" transform="translate(-1)"><path id="Path" d="m59 2.18v41.82h-58v-41.82c-.04521019-1.152631.84774936-2.12595691 2-2.18h54c1.1522506.05404309 2.0452102 1.027369 2 2.18z" fill="#90bae1"/><path id="Path" d="m57.39.04c-9.36.38-56.39 4.14-56.39 41.96v-39.82c-.04521019-1.152631.84774936-2.12595691 2-2.18h54c.1311216-.00207169.2620289.01135469.39.04z" fill="#b0d3f0"/><path id="Path" d="m41 54-11 2-11-2 3-6 8-2 8 2z" fill="#3f5c6c"/><path id="Path" d="m59 42v3.82c.0452102 1.152631-.8477494 2.1259569-2 2.18h-54c-1.15225064-.0540431-2.04521019-1.027369-2-2.18v-3.82z" fill="#547580"/><path id="Path" d="m47 56c-.0032948 1.1032019-.8967981 1.9967052-2 2h-30c-1.1011688-.0081672-1.9918328-.8988312-2-2 .0032948-1.1032019.8967981-1.9967052 2-2h30c1.1011688.0081672 1.9918328.8988312 2 2z" fill="#547580"/><g fill="#3b97d3"><path id="Path" d="m32.84 6.12c5.2697471.34562117 10.3530974 2.08493451 14.73 5.04.9029856.6378889 1.1178889 1.8870144.48 2.79s-1.8870144 1.1178889-2.79.48c-3.7011095-2.4540513-7.9638297-3.9300053-12.39-4.29"/><path id="Path" d="m27.16 6.12c-5.2697471.34562117-10.3530974 2.08493451-14.73 5.04-.5305762.3679454-.8450059.9743454-.84 1.62.0037186.4742722.1695669.9330015.47 1.3.6696105.7899531 1.8299767.9414935 2.68.35 3.7011095-2.4540513 7.9638297-3.9300053 12.39-4.29"/><path id="Path" d="m32.7 14.16c3.6684789.4079748 7.1583418 1.8004646 10.1 4.03.4242438.3354085.6861231.8351755.720452 1.3749006.0343288.5397251-.1621218 1.0686438-.540452 1.4550994-.7163486.7583778-1.8833751.8695232-2.73.26-2.2731758-1.6701786-4.9327034-2.736742-7.73-3.1"/><path id="Path" d="m27.48 18.18c-2.7972966.363258-5.4568242 1.4298214-7.73 3.1-.8466249.6095232-2.0136514.4983778-2.73-.26-.3474-.3634977-.5408774-.8471913-.54-1.35-.0047449-.5788041.261686-1.1264677.72-1.48 2.9416582-2.2295354 6.4315211-3.6220252 10.1-4.03"/><path id="Path" d="m32.35 22.19c1.8333692.2737898 3.5902227.924098 5.16 1.91.4953138.3256503.8206511.8542423.8882311 1.4431538s-.1295609 1.17746-.5382311 1.6068462c-.6461096.6957899-1.6954777.8343065-2.5.33-.9876439-.6125905-2.0788903-1.0396-3.22-1.26"/><path id="Path" d="m27.65 22.19c-1.8333692.2737898-3.5902227.924098-5.16 1.91-.5647657.3624311-.9044492.9889584-.9 1.66.0012529.5161578.1977385 1.0127305.55 1.39.6461096.6957899 1.6954777.8343065 2.5.33.9876439-.6125905 2.0788903-1.0396 3.22-1.26"/></g><circle id="Oval" cx="30" cy="35" fill="#fff" r="3"/><path id="Path" d="m30 4c-.8374839.01789652-1.6313389.37701337-2.197727.99418764-.5663882.61717427-.8561823 1.43887373-.802273 2.27481236l.809 18.551c.028198 1.1963668.9945064 2.1578238 2.191 2.18 1.1953231-.023762 2.1598597-.984772 2.188-2.18l.812-18.551c.0539093-.83593863-.2358848-1.65763809-.802273-2.27481236-.5663881-.61717427-1.3602431-.97629112-2.197727-.99418764z" fill="#fff"/></g></g></svg>