<svg height="512" viewBox="0 0 58 58" width="512" xmlns="http://www.w3.org/2000/svg"><g id="Page-1" fill="none" fill-rule="evenodd"><g id="035---Laptop-Pop-Up-Window"><path id="Path" d="m35.43 8h16.57c2.209139 0 4 1.790861 4 4v38h-54v-38c0-2.209139 1.790861-4 4-4z" fill="#90bae1"/><path id="Path" d="m52.95 8.12c-11.41.71-50.95 5.65-50.95 39.88v-36c0-2.209139 1.790861-4 4-4h46c.3205339-.00142005.6398873.03891933.95.12z" fill="#b0d3f0"/><path id="Path" d="m52 58h-46c-3.3137085 0-6-2.6862915-6-6v-3c0-.5522847.44771525-1 1-1h56c.5522847 0 1 .4477153 1 1v3c0 3.3137085-2.6862915 6-6 6z" fill="#547580"/><path id="Path" d="m19 48h20v2c0 1.6568542-1.3431458 3-3 3h-14c-1.6568542 0-3-1.3431458-3-3z" fill="#3f5c6c"/><path id="Path" d="m15 53h-3c-.5522847 0-1-.4477153-1-1s.4477153-1 1-1h3c.5522847 0 1 .4477153 1 1s-.4477153 1-1 1z" fill="#3f5c6c"/><circle id="Oval" cx="4" cy="52" fill="#65ddb9" r="1"/><circle id="Oval" cx="8" cy="52" fill="#65ddb9" r="1"/><path id="Path" d="m51 6v35c0 1.6568542-1.3431458 3-3 3h-38c-1.65685425 0-3-1.3431458-3-3v-35z" fill="#ecf0f1"/><path id="Path" d="m51 3v5h-44v-5c0-1.65685425 1.34314575-3 3-3h38c1.6568542 0 3 1.34314575 3 3z" fill="#3b97d3"/><circle id="Oval" cx="11" cy="4" fill="#4fba6f" r="1"/><circle id="Oval" cx="15" cy="4" fill="#f3d55b" r="1"/><circle id="Oval" cx="19" cy="4" fill="#ff5364" r="1"/><path id="Path" d="m33 5h-8c-.5522847 0-1-.44771525-1-1s.4477153-1 1-1h8c.5522847 0 1 .44771525 1 1s-.4477153 1-1 1z" fill="#2980ba"/><circle id="Oval" cx="29" cy="26" fill="#e64c3c" r="13"/><path id="Path" d="m34.705 28.853c.1896209.1878054.2963028.4436162.2963028.7105s-.1066819.5226946-.2963028.7105l-1.431 1.431c-.1878054.1896209-.4436162.2963028-.7105.2963028s-.5226946-.1066819-.7105-.2963028l-2.853-2.852-2.853 2.852c-.1878054.1896209-.4436162.2963028-.7105.2963028s-.5226946-.1066819-.7105-.2963028l-1.426-1.431c-.1896209-.1878054-.2963028-.4436162-.2963028-.7105s.1066819-.5226946.2963028-.7105l2.847-2.853-2.847-2.853c-.1896209-.1878054-.2963028-.4436162-.2963028-.7105s.1066819-.5226946.2963028-.7105l1.426-1.426c.1878054-.1896209.4436162-.2963028.7105-.2963028s.5226946.1066819.7105.2963028l2.853 2.847 2.853-2.847c.1878054-.1896209.4436162-.2963028.7105-.2963028s.5226946.1066819.7105.2963028l1.431 1.431c.1896209.1878054.2963028.4436162.2963028.7105s-.1066819.5226946-.2963028.7105l-2.852 2.848z" fill="#fff"/></g></g></svg>