<svg height="512" viewBox="0 0 34 58" width="512" xmlns="http://www.w3.org/2000/svg"><g id="Page-1" fill="none" fill-rule="evenodd"><g id="036---Mobile-Water-Damage" transform="translate(-1)"><path id="Path" d="m28 0h4c1.6568542 0 3 1.34314575 3 3v49c0 1.6568542-1.3431458 3-3 3h-28c-1.65685425 0-3-1.3431458-3-3v-49c0-1.65685425 1.34314575-3 3-3z" fill="#90bae1"/><path id="Path" d="m35 3v1s-33.14 1.95-33.98 46.26c-.01658959-.0856164-.02330014-.1728536-.02-.26v-47c0-1.65685425 1.34314575-3 3-3h4l2.86 3.05c.5663757.60708315 1.3597411.95123705 2.19.95h9.9c.8302589.00123705 1.6236243-.34291685 2.19-.95l2.86-3.05h4c1.6568542 0 3 1.34314575 3 3z" fill="#b0d3f0"/><path id="Path" d="m28 0-2.86 3.05c-.5663757.60708315-1.3597411.95123705-2.19.95h-9.9c-.8302589.00123705-1.6236243-.34291685-2.19-.95l-2.86-3.05z" fill="#547580"/><path id="Path" d="m35 33v19c0 1.6568542-1.3431458 3-3 3h-28c-1.65685425 0-3-1.3431458-3-3v-2c-.00330014.0871464.00341041.1743836.02.26.04709231-5.989785.8808932-11.9474269 2.48-17.72 2.01-.84 2.8-2.54 6-2.54 4.25 0 4.25 3 8.5 3s4.25-3 8.5-3 4.25 3 8.5 3z" fill="#2980ba"/><path id="Path" d="m3.5 32.54c-1.5991068 5.7725731-2.43290769 11.730215-2.48 17.72-.01658959-.0856164-.02330014-.1728536-.02-.26v-17c.85608664.0200541 1.70712066-.1365362 2.5-.46z" fill="#3b97d3"/><path id="Path" d="m35 50v5c0 1.6568542-1.3431458 3-3 3h-28c-1.65685425 0-3-1.3431458-3-3v-5c0 1.6568542 1.34314575 3 3 3h28c1.6568542 0 3-1.3431458 3-3z" fill="#547580"/><path id="Path" d="m25 19.848c.0229564 2.0093777-.8108447 3.9334568-2.2927328 5.290709-1.481888 1.3572521-3.471631 2.0192398-5.4712672 1.820291-3.907-.419-6.584-4.215-6.2-8.2.475-4.936 4.178-6.181 6.339-10.375.1172668-.23349717.35621-.38087946.6175-.38087946s.5002332.14738229.6175.38087946c2.314 4.484 6.39 5.596 6.39 11.464z" fill="#3b97d3"/><path id="Path" d="m18 24c-2.1167636-.0960605-3.8236422-1.7667783-3.965-3.881-.0315894-.2633651.042751-.528491.2066631-.7370382.163912-.2085472.4039651-.3434277.6673369-.3749618.2638568-.0343698.5304413.0389217.7396434.2033485.209202.1644268.3434079.4061451.3723566.6706515.0253812 1.1065903.8767219 2.0181573 1.979 2.119.5522847 0 1 .4477153 1 1s-.4477153 1-1 1z" fill="#fff"/><g fill="#9fc9d3"><path id="Path" d="m15 41c-.2038012-.0001893-.4026793-.062644-.57-.179-.177-.123-.351-.249-.524-.375-2.2512338-1.9281682-5.57176622-1.9281682-7.823 0-.169.123-.337.245-.51.366-.45270716.3022543-1.06401751.1868982-1.37544235-.25955-.31142483-.4464482-.20856112-1.0599842.23144235-1.38045.161-.113.319-.228.477-.343 2.95407113-2.438632 7.2229289-2.438632 10.177 0 .162.117.323.235.489.35.3589732.2496315.5141437.7035338.3831134 1.1206773-.1310302.4171435-.517875.7007917-.9551134.7003227z"/><path id="Path" d="m31 41c-.2038012-.0001893-.4026793-.062644-.57-.179-.177-.123-.351-.249-.524-.375-2.2517137-1.9278949-5.5722863-1.9278949-7.824 0-.168.123-.337.246-.509.366-.4527072.3022543-1.0640175.1868982-1.3754423-.25955-.3114249-.4464482-.2085612-1.0599842.2314423-1.38045.161-.113.319-.228.476-.343 2.9543919-2.4387867 7.2236081-2.4387867 10.178 0 .162.117.323.235.489.35.3589732.2496315.5141437.7035338.3831134 1.1206773-.1310302.4171435-.517875.7007917-.9551134.7003227z"/><path id="Path" d="m23 48c-.2038012-.0001893-.4026793-.062644-.57-.179-.177-.123-.351-.249-.524-.375-2.2517137-1.9278949-5.5722863-1.9278949-7.824 0-.168.123-.337.246-.509.366-.4527072.3022543-1.0640175.1868982-1.3754423-.25955-.3114249-.4464482-.2085612-1.0599842.2314423-1.38045.161-.113.319-.228.476-.343 2.9543919-2.4387867 7.2236081-2.4387867 10.178 0 .162.117.323.235.489.35.3589732.2496315.5141437.7035338.3831134 1.1206773-.1310302.4171435-.517875.7007917-.9551134.7003227z"/></g></g></g></svg>