<svg height="512" viewBox="0 0 58 50" width="512" xmlns="http://www.w3.org/2000/svg"><g id="Page-1" fill="none" fill-rule="evenodd"><g id="037---Cracked-Laptop"><path id="Path" d="m55 33c.5522847 0 1 .4477153 1 1v8h-54v-20.91c.00094669-.6601501.38820221-1.2586359.99-1.53h.01v-11.56c-.55228475 0-1-.44771525-1-1v-3c0-2.209139 1.790861-4 4-4h46c2.209139 0 4 1.790861 4 4v19.39c-.0005877.6880681-.3868774 1.3177202-1 1.63z" fill="#90bae1"/><path id="Path" d="m53.1.16c-6.93.54-24.77 2.82-37.41 12.38-.1064059-.0864104-.2035896-.1835941-.29-.29l-2.8-3.5c-.3813002-.47118547-.9538704-.74645959-1.56-.75h-8.04c-.55228475 0-1-.44771525-1-1v-3c0-2.209139 1.790861-4 4-4h46c.3726743-.00298248.743618.05097297 1.1.16z" fill="#b0d3f0"/><path id="Path" d="m52 50h-46c-3.3137085 0-6-2.6862915-6-6v-3c0-.5522847.44771525-1 1-1h56c.5522847 0 1 .4477153 1 1v3c0 3.3137085-2.6862915 6-6 6z" fill="#547580"/><path id="Path" d="m19 40h20v2c0 1.6568542-1.3431458 3-3 3h-14c-1.6568542 0-3-1.3431458-3-3z" fill="#3f5c6c"/><path id="Path" d="m15 45h-3c-.5522847 0-1-.4477153-1-1s.4477153-1 1-1h3c.5522847 0 1 .4477153 1 1s-.4477153 1-1 1z" fill="#3f5c6c"/><circle id="Oval" cx="4" cy="44" fill="#65ddb9" r="1"/><circle id="Oval" cx="8" cy="44" fill="#65ddb9" r="1"/><path id="Path" d="m26.62 14.46-9.28 5.71c-.7870402.4899657-1.8084721.369553-2.46-.29l-2.91-2.91c-.5875432-.5836783-1.4732714-.7465252-2.23-.41l-6.74 3v-11.56h8.04c.6061296.00354041 1.1786998.27881453 1.56.75l2.8 3.5c.3799324.4729114.9533767.7486057 1.56.75h9.25c.3534554-.0009134.6641627.233928.7597245.5742212s-.0474663.7025535-.3497245.8857788z" fill="#285680"/><path id="Path" d="m11.19 16.5c-5.48 5.66-9.19 13.28-9.19 23.5v-18.91c.00094669-.6601501.38820221-1.2586359.99-1.53h.01l6.74-3c.456921-.2087177.9773974-.2302547 1.45-.06z" fill="#b0d3f0"/><path id="Path" d="m55 25.02v7.9800085l-4.18-.0000085c-.5303401.0015621-1.0388166-.2112047-1.41-.59l-1.84-1.83c-.3749829-.3719209-.881855-.5804215-1.41-.58h-6.33c-.3686621-.001126-.6922859-.2455733-.7941772-.5998772-.1018913-.3543038.0424344-.7333248.3541772-.9301228l6.44-4.09c.5581836-.3435115 1.2795701-.2564476 1.74.21l2.07 2.06c.4163988.4133785 1.0439415.5285604 1.58.29z" fill="#285680"/></g></g></svg>