<svg height="512" viewBox="0 0 58 58" width="512" xmlns="http://www.w3.org/2000/svg"><g id="Page-1" fill="none" fill-rule="evenodd"><g id="038---Computer-Heart-Rate" transform="translate(-1)"><path id="Path" d="m59 2.18v41.82h-58v-41.82c-.04521019-1.152631.84774936-2.12595691 2-2.18h54c1.1522506.05404309 2.0452102 1.027369 2 2.18z" fill="#90bae1"/><path id="Path" d="m57.39.04c-9.36.38-56.39 4.14-56.39 41.96v-39.82c-.04521019-1.152631.84774936-2.12595691 2-2.18h54c.1311216-.00207169.2620289.01135469.39.04z" fill="#b0d3f0"/><path id="Path" d="m41 54-11 2-11-2 3-6 8-2 8 2z" fill="#3f5c6c"/><path id="Path" d="m59 42v3.82c.0452102 1.152631-.8477494 2.1259569-2 2.18h-54c-1.15225064-.0540431-2.04521019-1.027369-2-2.18v-3.82z" fill="#547580"/><path id="Path" d="m47 56c-.0032948 1.1032019-.8967981 1.9967052-2 2h-30c-1.1011688-.0081672-1.9918328-.8988312-2-2 .0032948-1.1032019.8967981-1.9967052 2-2h30c1.1011688.0081672 1.9918328.8988312 2 2z" fill="#547580"/><path id="Path" d="m30 9.318c2.031072-3.29923149 5.6257079-5.31147087 9.5-5.318 5.624 0 9.5 4.955 9.5 10.825 0 7.852-7.233 13.138-17.9 22.752-.6226005.5639857-1.5713995.5639857-2.194 0-10.673-9.614-17.906-14.9-17.906-22.752 0-5.87 3.876-10.825 9.5-10.825 3.8742921.00652913 7.468928 2.01876851 9.5 5.318z" fill="#ff5364"/><path id="Shape" d="m27.056 26h-.056c-.6404161-.0202697-1.1918411-.457915-1.357-1.077l-2.838-9.885-1.771 4.08c-.2291058.5381618-.7591139.8859796-1.344.882h-2.69c-.5522847 0-1-.4477153-1-1s.4477153-1 1-1h2.343l2.22-5.118c.2485085-.5672067.8258302-.9178492 1.4437301-.8768649s1.1438526.4648052 1.3152699 1.0598649l2.794 9.735 2.484-6.822c.1944798-.6011961.7690135-.9963931 1.4-.963.6248446.0020649 1.1775762.4055186 1.37 1l1.678 5 2.518-6.907c.2233208-.5934406.799223-.9792508 1.433-.96.6412752.02149 1.1932446.4594128 1.36 1.079l1.025 3.773h2.616c.5522847 0 1 .4477153 1 1s-.4477153 1-1 1h-2.955c-.7003301-.0017006-1.3136958-.4699031-1.5-1.145l-.679-2.487-2.466 6.764c-.2041825.5839362-.7574164.9731298-1.376.968h-.018c-.6244616-.0066884-1.1762354-.4079784-1.375-1l-1.675-5-2.526 6.932c-.2054723.5820811-.7567227.9704438-1.374.968z" fill="#fff" fill-rule="nonzero"/></g></g></svg>