<svg id="Capa_1" enable-background="new 0 0 512 512" height="512" viewBox="0 0 512 512" width="512" xmlns="http://www.w3.org/2000/svg"><g><g clip-rule="evenodd" fill-rule="evenodd"><path id="Path" d="m344.276 0h35.31c14.626 0 26.483 11.857 26.483 26.483v432.552c0 14.626-11.857 26.483-26.483 26.483h-247.172c-14.626 0-26.483-11.857-26.483-26.483v-432.552c0-14.626 11.857-26.483 26.483-26.483z" fill="#90bae1"/><path id="Path_1_" d="m406.069 26.483v8.828s-292.546 17.214-299.961 408.364c-.146-.756-.206-1.526-.177-2.295v-414.897c0-14.626 11.857-26.483 26.483-26.483h35.31l25.247 26.924c5 5.359 12.003 8.397 19.332 8.386h87.393c7.329.011 14.333-3.027 19.332-8.386l25.248-26.924h35.31c14.626 0 26.483 11.857 26.483 26.483z" fill="#b0d3f0"/><path id="Path_2_" d="m406.069 441.379v44.138c0 14.626-11.857 26.483-26.483 26.483h-247.172c-14.626 0-26.483-11.857-26.483-26.483v-44.138c0 14.626 11.857 26.483 26.483 26.483h247.172c14.626 0 26.483-11.857 26.483-26.483z" fill="#547580"/><path id="Path_3_" d="m344.276 0-25.247 26.924c-5 5.359-12.003 8.397-19.332 8.386h-87.393c-7.329.011-14.333-3.027-19.332-8.386l-25.248-26.924z" fill="#547580"/></g><path id="Shape" d="m511.382 314.527c-.473-3.507-3.208-6.279-6.709-6.797l-8.21-1.324c-2.254-10.439-6.349-20.393-12.094-29.396l4.767-6.709c2.093-2.877 2.057-6.784-.088-9.622-2.518-3.139-5.23-6.117-8.121-8.916-2.82-2.87-5.796-5.581-8.916-8.121-2.838-2.145-6.745-2.181-9.622-.088l-6.709 4.767c-9.002-5.705-18.914-9.825-29.308-12.182l-1.412-8.121c-.493-3.513-3.278-6.262-6.797-6.709-3.972-.353-8.033-.618-12.094-.618s-8.121.265-12.094.618c-3.52.447-6.304 3.196-6.797 6.709l-1.412 8.121c-10.393 2.357-20.306 6.477-29.308 12.182l-6.709-4.767c-2.877-2.093-6.784-2.057-9.622.088-3.12 2.54-6.096 5.252-8.916 8.121-2.891 2.799-5.603 5.777-8.121 8.916-2.145 2.838-2.181 6.745-.088 9.622l4.767 6.709c-5.744 9.003-9.84 18.957-12.094 29.396l-8.21 1.324c-3.501.519-6.236 3.29-6.709 6.797-.353 3.972-.618 8.033-.618 12.094s.265 8.121.618 12.094c.473 3.507 3.208 6.279 6.709 6.797l8.21 1.324c2.27 10.434 6.364 20.385 12.094 29.396l-4.767 6.709c-2.093 2.877-2.057 6.784.088 9.622 5.137 6.196 10.841 11.9 17.037 17.037 2.838 2.145 6.745 2.181 9.622.088l6.709-4.767c8.987 5.714 18.906 9.807 29.308 12.094l1.412 8.21c.501 3.494 3.292 6.212 6.797 6.621 8.035.942 16.153.942 24.188 0 3.506-.409 6.296-3.127 6.797-6.621l1.412-8.21c10.401-2.287 20.321-6.38 29.308-12.094l6.709 4.767c2.877 2.093 6.784 2.057 9.622-.088 6.196-5.137 11.9-10.841 17.037-17.037 2.145-2.838 2.181-6.745.088-9.622l-4.767-6.709c5.729-9.011 9.824-18.962 12.094-29.396l8.21-1.324c3.501-.519 6.236-3.29 6.709-6.797.353-3.972.618-8.033.618-12.094s-.265-8.122-.618-12.094zm-105.313 65.059c-21.423 0-40.736-12.905-48.934-32.697s-3.667-42.573 11.481-57.721 37.929-19.68 57.721-11.481c19.792 8.198 32.697 27.511 32.697 48.934 0 29.252-23.713 52.965-52.965 52.965z" fill="#95a5a5"/><path id="Shape_1_" d="m211.244 314.527c-.473-3.507-3.208-6.279-6.709-6.797l-8.21-1.324c-2.254-10.439-6.349-20.393-12.094-29.396l4.767-6.709c2.093-2.877 2.057-6.784-.088-9.622-2.518-3.139-5.23-6.117-8.121-8.916-2.82-2.87-5.796-5.581-8.916-8.121-2.838-2.145-6.745-2.181-9.622-.088l-6.709 4.767c-9.002-5.705-18.914-9.825-29.308-12.182l-1.412-8.121c-.493-3.513-3.278-6.262-6.797-6.709-3.972-.353-8.033-.618-12.094-.618s-8.121.265-12.094.618c-3.52.447-6.304 3.196-6.797 6.709l-1.412 8.121c-10.393 2.357-20.306 6.477-29.308 12.182l-6.709-4.767c-2.877-2.093-6.784-2.057-9.622.088-3.12 2.54-6.096 5.252-8.916 8.121-2.891 2.799-5.603 5.777-8.121 8.916-2.145 2.838-2.181 6.745-.088 9.622l4.767 6.709c-5.744 9.003-9.84 18.957-12.094 29.396l-8.21 1.324c-3.501.519-6.236 3.29-6.709 6.797-.353 3.972-.618 8.033-.618 12.094s.265 8.121.618 12.094c.473 3.507 3.208 6.279 6.709 6.797l8.21 1.324c2.27 10.434 6.364 20.385 12.094 29.396l-4.767 6.709c-2.093 2.877-2.057 6.784.088 9.622 2.54 3.12 5.252 6.096 8.121 8.916 2.82 2.87 5.796 5.581 8.916 8.121 2.838 2.145 6.745 2.181 9.622.088l6.709-4.767c8.987 5.714 18.907 9.807 29.308 12.094l1.412 8.21c.501 3.494 3.292 6.212 6.797 6.621 8.035.942 16.153.942 24.188 0 3.506-.409 6.296-3.127 6.797-6.621l1.412-8.21c10.401-2.287 20.321-6.38 29.308-12.094l6.709 4.767c2.877 2.093 6.784 2.057 9.622-.088 3.12-2.54 6.096-5.252 8.916-8.121 2.87-2.82 5.581-5.796 8.121-8.916 2.145-2.838 2.181-6.745.088-9.622l-4.767-6.709c5.729-9.011 9.824-18.962 12.094-29.396l8.21-1.324c3.501-.519 6.236-3.29 6.709-6.797.353-3.972.618-8.033.618-12.094s-.265-8.122-.618-12.094zm-105.313 65.059c-29.252 0-52.966-23.713-52.966-52.966 0-29.252 23.713-52.966 52.966-52.966s52.966 23.713 52.966 52.966-23.714 52.966-52.966 52.966z" fill="#95a5a5"/><path id="Shape_2_" d="m343.746 148.833c-.399-2.923-2.652-5.248-5.561-5.738l-6.797-1.059c-1.941-8.678-5.376-16.952-10.152-24.452l3.972-5.65c1.784-2.392 1.748-5.681-.088-8.033-2.03-2.472-4.326-5.032-6.709-7.415-2.372-2.377-4.877-4.616-7.503-6.709-2.319-1.837-5.586-1.873-7.945-.088l-5.65 3.972c-7.501-4.776-15.775-8.211-24.452-10.152l-1.059-6.797c-.49-2.909-2.815-5.162-5.738-5.561-6.69-.706-13.437-.706-20.127 0-2.923.399-5.248 2.652-5.738 5.561l-1.059 6.797c-8.678 1.941-16.952 5.376-24.452 10.152l-5.65-3.972c-2.359-1.785-5.626-1.749-7.945.088-2.626 2.093-5.131 4.332-7.503 6.709-2.383 2.383-4.679 4.943-6.709 7.415-1.836 2.352-1.872 5.641-.088 8.033l3.972 5.65c-4.776 7.501-8.211 15.775-10.152 24.452l-6.797 1.059c-2.909.49-5.162 2.815-5.561 5.738-.265 3.266-.53 6.621-.53 10.063 0 3.443.265 6.797.53 10.063.399 2.923 2.652 5.248 5.561 5.738l6.797 1.059c1.941 8.678 5.376 16.952 10.152 24.452l-3.972 5.65c-1.785 2.359-1.749 5.626.088 7.945 4.193 5.252 8.96 10.019 14.212 14.212 2.319 1.837 5.586 1.873 7.945.088l5.65-3.972c7.501 4.776 15.775 8.211 24.452 10.152l1.059 6.797c.49 2.909 2.815 5.162 5.738 5.561 3.266.265 6.621.53 10.063.53s6.797-.265 10.063-.53c2.923-.399 5.248-2.652 5.738-5.561l1.059-6.797c8.678-1.941 16.952-5.376 24.452-10.152l5.65 3.972c2.359 1.785 5.626 1.749 7.945-.088 5.252-4.193 10.019-8.96 14.212-14.212 1.837-2.319 1.873-5.586.088-7.945l-3.972-5.65c4.776-7.501 8.211-15.775 10.152-24.452l6.797-1.059c2.909-.49 5.162-2.815 5.561-5.738.265-3.266.53-6.621.53-10.063.001-3.442-.264-6.797-.529-10.063zm-87.746 54.201c-24.377 0-44.138-19.761-44.138-44.138s19.761-44.138 44.138-44.138 44.138 19.761 44.138 44.138c0 11.706-4.65 22.933-12.928 31.21s-19.504 12.928-31.21 12.928z" fill="#95a5a5"/><circle id="Oval" clip-rule="evenodd" cx="406.069" cy="326.621" fill="#7f8c8d" fill-rule="evenodd" r="52.966"/><circle id="Oval_2_" clip-rule="evenodd" cx="105.931" cy="326.621" fill="#7f8c8d" fill-rule="evenodd" r="52.966"/><circle id="Oval_4_" clip-rule="evenodd" cx="256" cy="158.897" fill="#7f8c8d" fill-rule="evenodd" r="44.138"/></g></svg>