<svg height="512" viewBox="0 0 58 58" width="512" xmlns="http://www.w3.org/2000/svg"><g id="Page-1" fill="none" fill-rule="evenodd"><g id="040---Laptop-Protection"><path id="Path" d="m52 58h-46c-3.3137085 0-6-2.6862915-6-6v-3c0-.5522847.44771525-1 1-1h56c.5522847 0 1 .4477153 1 1v3c0 3.3137085-2.6862915 6-6 6z" fill="#547580"/><path id="Path" d="m19 48h20v2c0 1.6568542-1.3431458 3-3 3h-14c-1.6568542 0-3-1.3431458-3-3z" fill="#3f5c6c"/><path id="Path" d="m35.43 8h16.57c2.209139 0 4 1.790861 4 4v36h-54v-36c0-2.209139 1.790861-4 4-4z" fill="#90bae1"/><path id="Path" d="m52.95 8.12c-11.41.71-50.95 5.65-50.95 39.88v-36c0-2.209139 1.790861-4 4-4h46c.3205339-.00142005.6398873.03891933.95.12z" fill="#b0d3f0"/><path id="Path" d="m15 53h-3c-.5522847 0-1-.4477153-1-1s.4477153-1 1-1h3c.5522847 0 1 .4477153 1 1s-.4477153 1-1 1z" fill="#3f5c6c"/><circle id="Oval" cx="4" cy="52" fill="#65ddb9" r="1"/><circle id="Oval" cx="8" cy="52" fill="#65ddb9" r="1"/><path id="Path" d="m47 8.884v16.681c-.0000221 3.8531758-1.8503367 7.4719656-4.974 9.728l-11.27 8.139c-1.0483453.756829-2.4636547.756829-3.512 0l-11.27-8.139c-3.1236633-2.2560344-4.9739779-5.8748242-4.974-9.728v-16.681c-.0061025-1.00761825.7429871-1.86028251 1.743-1.984 4.983-.577 6.544-3.616 7.034-5.465.2433795-.85771717 1.0314872-1.44582668 1.923-1.435h14.6c.8919001-.00942119 1.6793106.58041935 1.921 1.439.491 1.846 2.049 4.881 7.019 5.461 1.0038489.12133837 1.7592174.97284472 1.76 1.984z" fill="#ecf0f1"/><path id="Path" d="m29 3.99996614v16.00003386h-14v-8.66c.0037389-.4529247.3114386-.8467804.75-.96 3.1072341-.81864505 5.7033076-2.95100363 7.11-5.84.1704465-.3340371.5150024-.54309346.89-.54z" fill="#3b97d3"/><path id="Path" d="m29 20v19.54c-.2132218-.0004992-.4204266-.0707381-.59-.2l-10.09-7.29c-2.0849972-1.4998533-3.3206358-3.9115816-3.32-6.48l-.0000002-5.57z" fill="#f3d55b"/><path id="Path" d="m43.0000002 20-.0000002 5.57c.0006358 2.5684184-1.2350028 4.9801467-3.32 6.48l-10.09 7.29c-.1695734.1292619-.3767782.1995008-.59.2v-19.54z" fill="#3b97d3"/><path id="Path" d="m43 11.34v8.66h-14v-16.00003386l5.25.00003386c.3749976-.00309346.7195535.2059629.89.54 1.4066924 2.88899637 4.0027659 5.02135495 7.11 5.84.4385614.1132196.7462611.5070753.75.96z" fill="#f3d55b"/></g></g></svg>