<svg height="512" viewBox="0 0 58 58" width="512" xmlns="http://www.w3.org/2000/svg"><g id="Page-1" fill="none" fill-rule="evenodd"><g id="041---Computer-Hacker" transform="translate(-1)"><path id="Path" d="m59 2.18v41.82h-58v-41.82c-.04521019-1.152631.84774936-2.12595691 2-2.18h54c1.1522506.05404309 2.0452102 1.027369 2 2.18z" fill="#90bae1"/><path id="Path" d="m57.39.04c-9.36.38-56.39 4.14-56.39 41.96v-39.82c-.04521019-1.152631.84774936-2.12595691 2-2.18h54c.1311216-.00207169.2620289.01135469.39.04z" fill="#b0d3f0"/><path id="Path" d="m41 54-11 2-11-2 3-6 8-2 8 2z" fill="#3f5c6c"/><path id="Path" d="m59 42v3.82c.0452102 1.152631-.8477494 2.1259569-2 2.18h-54c-1.15225064-.0540431-2.04521019-1.027369-2-2.18v-3.82z" fill="#547580"/><path id="Path" d="m47 56c-.0032948 1.1032019-.8967981 1.9967052-2 2h-30c-1.1011688-.0081672-1.9918328-.8988312-2-2 .0032948-1.1032019.8967981-1.9967052 2-2h30c1.1011688.0081672 1.9918328.8988312 2 2z" fill="#547580"/><path id="Path" d="m43 19c6.32.63 11 1.4 11 2.57 0 1-2.99 1.9-7.75 2.53-5.3928026.6362223-10.8199222.9368012-16.25.9-5.4300778.0368012-10.8571974-.2637777-16.25-.9-4.76-.63-7.75-1.53-7.75-2.53 0-1.17 4.68-1.94 11-2.57z" fill="#a56a43"/><path id="Shape" d="m13.75 24.1c-.5195864 1.3486798-.774235 2.784898-.75 4.23 0 4.34 3.66 8.67 7.56 8.67 3.77 0 6.61-3 9.44-3s5.67 3 9.44 3c3.9 0 7.56-4.33 7.56-8.67.024235-1.445102-.2304136-2.8813202-.75-4.23zm12.03 6.41c-1.0327889 1.4526307-2.6619443 2.3662787-4.44 2.49-1.17 0-2.68-1.43-3.29-3.16-.0958324-.3073848-.033397-.642273.1667626-.8944741s.512121-.3890528.8332374-.3655259c2.17.17 4.49.28 6.02.35.3651053.0178395.6893314.2390105.8391609.572434.1498296.3334235.0999258.7227161-.1291609 1.007566zm16.17-.67c-.61 1.73-2.12 3.16-3.29 3.16-1.7780557-.1237213-3.4072111-1.0373693-4.44-2.49-.2290867-.2848499-.2789905-.6741425-.1291609-1.007566.1498295-.3334235.4740556-.5545945.8391609-.572434 1.53-.07 3.85-.18 6.02-.35.3211164-.0235269.6330778.1133248.8332374.3655259s.262595.5870893.1667626.8944741z" fill="#285680" fill-rule="nonzero"/><path id="Path" d="m13.8 23.97c-.0209839.041547-.0377349.0850996-.05.13" fill="#cb8252"/><path id="Path" d="m46.25 24.1c-.0122651-.0449004-.0290161-.088453-.05-.13" fill="#cb8252"/><path id="Path" d="m42.31 15.48.14-.03c.4 2.06.55 3.55.55 3.55s-2 2-13 2-13-2-13-2 .15-1.49.55-3.55l.14.03z" fill="#cbb292"/><path id="Path" d="m42.45 15.45-.14.03c-2.16.76-5.91 1.52-12.31 1.52s-10.15-.76-12.31-1.52l-.14-.03c.54-2.74 1.54-6.5 3.27-9.04.6303603-.89733944 1.6634859-1.42513182 2.76-1.41.7644085.00505541 1.505899.26159002 2.11.73 1.2506946.90062629 2.7707807 1.34854028 4.31 1.27 1.5392193.07854028 3.0593054-.36937371 4.31-1.27.604101-.46840998 1.3455915-.72494459 2.11-.73 1.0965141-.01513182 2.1296397.51266056 2.76 1.41 1.73 2.54 2.73 6.3 3.27 9.04z" fill="#a56a43"/></g></g></svg>