<svg height="512" viewBox="0 0 58 58" width="512" xmlns="http://www.w3.org/2000/svg"><g id="Page-1" fill="none" fill-rule="evenodd"><g id="042---Repair-Mobile"><path id="Path" d="m27 0h4c1.6568542 0 3 1.34314575 3 3v49c0 1.6568542-1.3431458 3-3 3h-28c-1.65685425 0-3-1.3431458-3-3v-49c0-1.65685425 1.34314575-3 3-3z" fill="#26b99a"/><path id="Path" d="m34 50v5c0 1.6568542-1.3431458 3-3 3h-28c-1.65685425 0-3-1.3431458-3-3v-5c0 1.6568542 1.34314575 3 3 3h28c1.6568542 0 3-1.3431458 3-3z" fill="#547580"/><path id="Path" d="m27 0-2.86 3.05c-.5663757.60708315-1.3597411.95123705-2.19.95h-9.9c-.8302589.00123705-1.6236243-.34291685-2.19-.95l-2.86-3.05z" fill="#547580"/><path id="Path" d="m29 41.28v4.72c-.0032948 1.1032019-.8967981 1.9967052-2 2h-7c-1.1032019-.0032948-1.9967052-.8967981-2-2v-12c.0032948-1.1032019.8967981-1.9967052 2-2h7c1.1032019.0032948 1.9967052.8967981 2 2" fill="#f3d55b"/><rect id="Rectangle" fill="#f3d55b" height="14" rx="2" transform="matrix(0 1 -1 0 36 12)" width="8" x="8" y="17"/><g fill="#33907c"><path id="Path" d="m13 31c-.5522847 0-1 .4477153-1 1v16c0 .5522847.4477153 1 1 1s1-.4477153 1-1v-16c0-.5522847-.4477153-1-1-1z"/><path id="Path" d="m5 31c-.55228475 0-1 .4477153-1 1v16c0 .5522847.44771525 1 1 1s1-.4477153 1-1v-16c0-.5522847-.44771525-1-1-1z"/><path id="Path" d="m28 19c-.5522847 0-1 .4477153-1 1v8c0 .5522847.4477153 1 1 1s1-.4477153 1-1v-8c0-.5522847-.4477153-1-1-1z"/><path id="Path" d="m24 19c-.5522847 0-1 .4477153-1 1v8c0 .5522847.4477153 1 1 1s1-.4477153 1-1v-8c0-.5522847-.4477153-1-1-1z"/><path id="Path" d="m5 9h24c.5522847 0 1-.44771525 1-1s-.4477153-1-1-1h-24c-.55228475 0-1 .44771525-1 1s.44771525 1 1 1z"/><path id="Path" d="m29 11h-24c-.55228475 0-1 .4477153-1 1s.44771525 1 1 1h24c.5522847 0 1-.4477153 1-1s-.4477153-1-1-1z"/><path id="Path" d="m29 15h-24c-.55228475 0-1 .4477153-1 1s.44771525 1 1 1h24c.5522847 0 1-.4477153 1-1s-.4477153-1-1-1z"/><circle id="Oval" cx="9" cy="34" r="1"/><circle id="Oval" cx="9" cy="38" r="1"/><circle id="Oval" cx="9" cy="42" r="1"/><circle id="Oval" cx="9" cy="46" r="1"/></g><path id="Path" d="m56.48 16.88-7.28 7.27c.5723772 1.1926355.3276556 2.6168349-.61 3.55-.4082857.4002-1.0617143.4002-1.47 0l-2.91-2.91-2.99-2.99-2.92-2.92c-.4002-.4082857-.4002-1.0617143 0-1.47.5860533-.5855867 1.3815313-.9131365 2.21-.91.4632824.0003399.9207978.1027687 1.34.3l7.27-7.28c2.0324079-2.03240781 5.3275921-2.03240777 7.3599999.00000008 2.0324079 2.03240782 2.0324079 5.32759202.0000001 7.35999992z" fill="#e64c3c"/><path id="Path" d="m46.385 20.615c-.4043959-.0000863-.7689341-.2437275-.923678-.6173454-.1547439-.373618-.0692299-.8036603.216678-1.0896546l6.422-6.417c.3923789-.3789722 1.0160848-.3735524 1.4018186.0121814s.3911536 1.0094397.0121814 1.4018186l-6.417 6.417c-.1887161.1887792-.4450736.2942746-.712.293z" fill="#c03a2b"/><path id="Path" d="m44.21 24.79-12.77 12.77-1.34 2.69c-.2312214.4451489-.6042066.8005405-1.06 1.01l-3.89 1.66c-.3976738.1642188-.8550692.0735284-1.16-.23l-.68-.68c-.306193-.3039491-.3936427-.7650476-.22-1.16l1.65-3.88c.2061142-.4605295.5621176-.8376816 1.01-1.07l2.7-1.35 12.77-12.75z" fill="#bdc3c7"/></g></g></svg>