<svg height="512" viewBox="0 0 58 58" width="512" xmlns="http://www.w3.org/2000/svg"><g id="Page-1" fill="none" fill-rule="evenodd"><g id="043---Sync-Mobile-With-Laptop"><path id="Path" d="m46 39v11h-44v-30.6c-.03851272-1.8390508 1.4209553-3.3611954 3.26-3.4h30.74v20c0 1.6568542 1.3431458 3 3 3z" fill="#90bae1"/><path id="Path" d="m36 16s-34 0-34 34v-30.6c-.03851272-1.8390508 1.4209553-3.3611954 3.26-3.4z" fill="#b0d3f0"/><rect id="Rectangle" fill="#b0d3f0" height="37" rx="3" width="22" x="36"/><path id="Path" d="m58 32v4c0 1.6568542-1.3431458 3-3 3h-16c-1.6568542 0-3-1.3431458-3-3v-4c0 1.6568542 1.3431458 3 3 3h16c1.6568542 0 3-1.3431458 3-3z" fill="#547580"/><path id="Path" d="m53 0-1.447 2.894c-.3386882.67778095-1.0313083 1.10597427-1.789 1.106h-5.528c-.7576917-.00002573-1.4503118-.42821905-1.789-1.106l-1.447-2.894" fill="#547580"/><path id="Path" d="m48 51v2c0 2.7614237-2.2385763 5-5 5h-38c-1.32608245 0-2.59785201-.5267842-3.53553391-1.4644661-.93768189-.9376819-1.46446609-2.2094515-1.46446609-3.5355339v-2c0-.5522847.44771525-1 1-1h46c.5522847 0 1 .4477153 1 1z" fill="#547580"/><path id="Path" d="m32 50v1c0 1.6568542-1.3431458 3-3 3h-10c-1.6568542 0-3-1.3431458-3-3v-1" fill="#3f5c6c"/><g fill="#e64c3c"><path id="Path" d="m40.664 16c.0926527.0000879.1848681-.0127011.274-.038l2.885-.822c.2554035-.0725973.4714496-.2437885.6005093-.4758335.1290598-.232045.1605365-.5058909.0874907-.7611665-.1402748-.4885141-.6279897-.791174-1.128-.7 1.0417468-.7856053 2.3122451-1.2081681 3.617-1.203 2.3161372.0068497 4.4237371 1.3394995 5.423 3.429.1651155.3476734.5151127.5697271.9.571.1483614-.0008084.29464-.0349857.428-.1.4985912-.2370403.710766-.8332785.474-1.332-1.3321698-2.7829934-4.1396104-4.5579953-7.225-4.568-2.2788885-.00589644-4.4497403.97075-5.957 2.68l-.239-.839c-.1516022-.5312979-.7052021-.8391022-1.2365-.6875s-.8391022.7052021-.6875 1.2365l.822 2.884c.1224392.4297572.5151414.7261208.962.726z"/><path id="Path" d="m55.12 23.61-.82-2.884c-.0726088-.2551775-.2436447-.4710428-.4754581-.6000781-.2318135-.1290353-.5054022-.1606634-.7605419-.0879219l-2.885.822c-.5142212.1386699-.8271797.6586507-.7089722 1.1779577s.6253933.8526021 1.1489722.7550423c-1.0416814.7876474-2.3130648 1.2116761-3.619 1.207-2.3161372-.0068497-4.4237371-1.3394995-5.423-3.429-.1479795-.3313122-.4638193-.5564679-.8252761-.5883223s-.7118076.1345913-.9154519.4349157-.2286244.6873978-.065272 1.0114066c1.3319379 2.7854595 4.1414829 4.5619749 7.229 4.571 2.2788885.0058964 4.4497403-.97075 5.957-2.68l.239.839c.0980694.3436895.3720454.6089523.718724.6958664.3466785.0869142.7133908-.0177246.962-.2745.2486091-.2567753.3413454-.6266769.243276-.9703664z"/><path id="Path" d="m32.931 37.728c-.0723599-.2560408-.2437734-.4726884-.4763066-.6019987-.2325332-.1293102-.5070118-.1606203-.7626934-.0870013l-3.609 1.04c-.3519468.0914092-.6265375.3666588-.717103.7188237-.0905655.3521648.0171693.7257362.2813531.9755945.2641838.2498582.6431755.3366201.9897499.2265818l.85-.245c-1.4598551 1.444945-3.4329819 2.2522477-5.487 2.245-3.0207704.0094481-5.7801014-1.7118304-7.1-4.429-.1479795-.3313122-.4638193-.5564679-.8252761-.5883223s-.7118076.1345913-.9154519.4349157-.2286244.6873978-.065272 1.0114066c1.6527666 3.4129564 5.1139215 5.5780243 8.906 5.571 2.9517626.0111239 5.7492196-1.3173556 7.606-3.612l.432 1.524c.121698.4305501.5145809.727867.962.728.092.0001503.1835637-.0126417.272-.038.2553207-.0721943.4714835-.2428984.6008967-.4745294.1294132-.2316309.1614667-.5051978.0891033-.7604706z"/><path id="Path" d="m15.514 30.874c.2326178.1293932.5072242.1607048.763.087l3.609-1.04c.3519468-.0914092.6265375-.3666588.717103-.7188237.0905655-.3521648-.0171693-.7257362-.2813531-.9755945-.2641838-.2498582-.6431755-.3366201-.9897499-.2265818l-.85.245c1.4598551-1.444945 3.4329819-2.2522477 5.487-2.245 3.0210454-.0104145 5.7808485 1.7111584 7.1 4.429.2369302.4989893.8335107.7114302 1.3325.4745s.7114302-.8335107.4745-1.3325c-1.6527365-3.4134498-5.1144918-5.57865-8.907-5.571-2.9516976-.010833-5.7490353 1.3175898-7.606 3.612l-.432-1.524c-.0924595-.349365-.366225-.6216612-.7160825-.7122392-.3498574-.0905781-.7213657.0146568-.971746.2752607-.2503803.2606038-.340671.6360241-.2361715.9819785l1.031 3.639c.0722863.2559878.2435828.4726274.476.602z"/></g><path id="Path" d="m12 55h-3c-.55228475 0-1-.4477153-1-1s.44771525-1 1-1h3c.5522847 0 1 .4477153 1 1s-.4477153 1-1 1z" fill="#3f5c6c"/><ellipse id="Oval" cx="5.015" cy="54" fill="#65ddb9" rx="1" ry="1"/></g></g></svg>