<svg height="512" viewBox="0 0 58 54" width="512" xmlns="http://www.w3.org/2000/svg"><g id="Page-1" fill="none" fill-rule="evenodd"><g id="044---Cracked-Monitor"><path id="Path" d="m22 50 2-5 5-2 5 2 2 5-7 2z" fill="#3f5c6c"/><path id="Path" d="m54 30h3c.5522847 0 1 .4477153 1 1v11c0 1.6568542-1.3431458 3-3 3h-52c-1.65685425 0-3-1.3431458-3-3v-18.91c.00094669-.6601501.38820221-1.2586359.99-1.53h.01l3-1.34z" fill="#547580"/><path id="Path" d="m4 13.46-3-3.46c-.55228475 0-1-.44771525-1-1v-6c0-1.65685425 1.34314575-3 3-3h52c1.6568542 0 3 1.34314575 3 3v17.39c-.0005877.6880681-.3868774 1.3177202-1 1.63l-3 4.98z" fill="#547580"/><path id="Path" d="m41.83 27h6.33c.528145-.0004215 1.0350171.2080791 1.41.58l1.84 1.83c.3711834.3787953.8796599.5915621 1.41.59h1.18v6c0 .5522847-.4477153 1-1 1h-48c-.55228475 0-1-.4477153-1-1v-15.78l3.74-1.66c.75672862-.3365252 1.64245679-.1736783 2.23.41l2.91 2.91c.6515279.659553 1.6729598.7799657 2.46.29l9.28-5.71c.3022582-.1832253.4452863-.5454856.3497245-.8857788s-.4062691-.5751346-.7597245-.5742212h-9.25c-.6066233-.0013943-1.1800676-.2770886-1.56-.75l-2.8-3.5c-.3813002-.4711855-.95387041-.7464596-1.56-.75h-5.04v-4c0-.55228475.44771525-1 1-1h48c.5522847 0 1 .44771525 1 1v17.54l-.78.4c-.5360585.2385604-1.1636012.1233785-1.58-.29l-2.07-2.06c-.4604299-.4664476-1.1818164-.5535115-1.74-.21l-6.44 4.09c-.3117428.196798-.4560685.575819-.3541772.9301228.1018913.3543039.4255151.5987512.7941772.5998772z" fill="#90bae1"/><g fill="#65ddb9"><circle id="Oval" cx="5" cy="41" r="1"/><circle id="Oval" cx="9" cy="41" r="1"/><circle id="Oval" cx="13" cy="41" r="1"/></g><rect id="Rectangle" fill="#547580" height="4" rx="2" width="26" x="16" y="50"/><path id="Path" d="m24.62 16.46-9.28 5.71c-.7870402.4899657-1.8084721.369553-2.46-.29l-2.91-2.91c-.58754321-.5836783-1.47327138-.7465252-2.23-.41l-3.74 1.66-3 1.34v-11.56h8.04c.60612959.0035404 1.1786998.2788145 1.56.75l2.8 3.5c.3799324.4729114.9533767.7486057 1.56.75h9.25c.3534554-.0009134.6641627.233928.7597245.5742212s-.0474663.7025535-.3497245.8857788z" fill="#285680"/><path id="Path" d="m57 22.02v7.9800085l-4.18-.0000085c-.5303401.0015621-1.0388166-.2112047-1.41-.59l-1.84-1.83c-.3749829-.3719209-.881855-.5804215-1.41-.58h-6.33c-.3686621-.001126-.6922859-.2455733-.7941772-.5998772-.1018913-.3543038.0424344-.7333248.3541772-.9301228l6.44-4.09c.5581836-.3435115 1.2795701-.2564476 1.74.21l2.07 2.06c.4163988.4133785 1.0439415.5285604 1.58.29l.78-.4z" fill="#285680"/><path id="Path" d="m10.67 19.67c-4.21941889 4.4758188-6.59430942 10.3791181-6.65 16.53-.01210728-.06601-.01879624-.1328996-.02-.2v-15.78l3.74-1.66c.75672862-.3365252 1.64245679-.1736783 2.23.41z" fill="#b0d3f0"/><path id="Path" d="m53.18 5.02c-4.22.1-23.84 1.1-36.99 9.98h-1.23c-.6066233-.0013943-1.1800676-.2770886-1.56-.75l-2.8-3.5c-.3813002-.4711855-.95387041-.7464596-1.56-.75h-5.04v-4c0-.55228475.44771525-1 1-1h48c.0604477.00170764.1206517.00839697.18.02z" fill="#b0d3f0"/></g></g></svg>