<svg height="512" viewBox="0 0 58 58" width="512" xmlns="http://www.w3.org/2000/svg"><g id="Page-1" fill="none" fill-rule="evenodd"><g id="045---Laptop-Help"><path id="Path" d="m35.43 8h16.57c2.209139 0 4 1.790861 4 4v38h-54v-38c0-2.209139 1.790861-4 4-4z" fill="#90bae1"/><path id="Path" d="m52.95 8.12c-11.41.71-50.95 5.65-50.95 39.88v-36c0-2.209139 1.790861-4 4-4h46c.3205339-.00142005.6398873.03891933.95.12z" fill="#b0d3f0"/><path id="Path" d="m50 15.42v-7.42c0-3.86599325-3.1340068-7-7-7h-28c-3.8659932 0-7 3.13400675-7 7v28c0 3.8659932 3.1340068 7 7 7h28c3.8659932 0 7-3.1340068 7-7z" fill="#3b97d3"/><path id="Path" d="m52 58h-46c-3.3137085 0-6-2.6862915-6-6v-3c0-.5522847.44771525-1 1-1h56c.5522847 0 1 .4477153 1 1v3c0 3.3137085-2.6862915 6-6 6z" fill="#547580"/><path id="Path" d="m19 48h20v2c0 1.6568542-1.3431458 3-3 3h-14c-1.6568542 0-3-1.3431458-3-3z" fill="#3f5c6c"/><path id="Path" d="m15 53h-3c-.5522847 0-1-.4477153-1-1s.4477153-1 1-1h3c.5522847 0 1 .4477153 1 1s-.4477153 1-1 1z" fill="#3f5c6c"/><circle id="Oval" cx="4" cy="52" fill="#65ddb9" r="1"/><circle id="Oval" cx="8" cy="52" fill="#65ddb9" r="1"/><path id="Path" d="m24.45 9.82c-3.5204799 1.3304642-6.2995358 4.1095201-7.63 7.63l-8.71-2.35c2.185086-6.61545123 7.3745488-11.80491402 13.99-13.99z" fill="#ecf0f1"/><path id="Path" d="m35.9 1.11-2.35 8.71c-2.9348055-1.09337591-6.1651945-1.09337591-9.1 0l-2.35-8.71c4.4809457-1.48006702 9.3190543-1.48006702 13.8 0z" fill="#f29c1f"/><path id="Path" d="m49.89 15.1-8.71 2.35c-1.3304642-3.5204799-4.1095201-6.2995358-7.63-7.63l2.35-8.71c6.6154512 2.18508598 11.804914 7.37454877 13.99 13.99z" fill="#ecf0f1"/><path id="Path" d="m51 22c.0021891 2.344625-.3725933 4.6743534-1.11 6.9l-8.71-2.35c1.0933759-2.9348055 1.0933759-6.1651945 0-9.1l8.71-2.35c.7374067 2.2256466 1.1121891 4.555375 1.11 6.9z" fill="#f29c1f"/><path id="Path" d="m49.89 28.9c-2.185086 6.6154512-7.3745488 11.804914-13.99 13.99l-2.35-8.71c3.5204799-1.3304642 6.2995358-4.1095201 7.63-7.63z" fill="#ecf0f1"/><path id="Path" d="m35.9 42.89c-4.4809457 1.480067-9.3190543 1.480067-13.8 0l2.35-8.71c2.9348055 1.0933759 6.1651945 1.0933759 9.1 0z" fill="#f29c1f"/><path id="Path" d="m24.45 34.18-2.35 8.71c-6.6154512-2.185086-11.804914-7.3745488-13.99-13.99l8.71-2.35c1.3304642 3.5204799 4.1095201 6.2995358 7.63 7.63z" fill="#ecf0f1"/><path id="Path" d="m16 22c-.0012836 1.5535286.2764587 3.0946596.82 4.55l-8.71 2.35c-1.48006702-4.4809457-1.48006702-9.3190543 0-13.8l8.71 2.35c-.5435413 1.4553404-.8212836 2.9964714-.82 4.55z" fill="#f29c1f"/><path id="Path" d="m42 22c.0012836 1.5535286-.2764587 3.0946596-.82 4.55-1.3304642 3.5204799-4.1095201 6.2995358-7.63 7.63-2.9348055 1.0933759-6.1651945 1.0933759-9.1 0-3.5204799-1.3304642-6.2995358-4.1095201-7.63-7.63-1.0933759-2.9348055-1.0933759-6.1651945 0-9.1 1.3304642-3.5204799 4.1095201-6.2995358 7.63-7.63 2.9348055-1.09337591 6.1651945-1.09337591 9.1 0 3.5204799 1.3304642 6.2995358 4.1095201 7.63 7.63.5435413 1.4553404.8212836 2.9964714.82 4.55z" fill="#ecf0f1"/><path id="Path" d="m42 22c.0012836 1.5535286-.2764587 3.0946596-.82 4.55-1.3304642 3.5204799-4.1095201 6.2995358-7.63 7.63-2.9348055 1.0933759-6.1651945 1.0933759-9.1 0-3.5204799-1.3304642-6.2995358-4.1095201-7.63-7.63-1.0933759-2.9348055-1.0933759-6.1651945 0-9.1 1.3304642-3.5204799 4.1095201-6.2995358 7.63-7.63 2.9348055-1.09337591 6.1651945-1.09337591 9.1 0 3.5204799 1.3304642 6.2995358 4.1095201 7.63 7.63.5435413 1.4553404.8212836 2.9964714.82 4.55z" fill="#3b97d3"/></g></g></svg>