<svg height="512" viewBox="0 0 58 59" width="512" xmlns="http://www.w3.org/2000/svg"><g id="Page-1" fill="none" fill-rule="evenodd"><g id="046---Mobile-Diagnostics"><path id="Path" d="m38 54h-13c-2.7600532-.0033061-4.9966939-2.2399468-5-5v-9h2v9c0 1.6568542 1.3431458 3 3 3h13c1.6568542 0 3-1.3431458 3-3v-5h2v5c-.0033061 2.7600532-2.2399468 4.9966939-5 5z" fill="#3b97d3"/><path id="Path" d="m43 59h-27c-4.4162219-.0049599-7.99504012-3.5837781-8-8v-11h2v11c.0033074 3.3123376 2.6876624 5.9966926 6 6h27c3.3123376-.0033074 5.9966926-2.6876624 6-6v-7h2v7c-.0049599 4.4162219-3.5837781 7.9950401-8 8z" fill="#e64c3c"/><path id="Path" d="m53 0h2c1.6568542 0 3 1.34314575 3 3v35c0 1.6568542-1.3431458 3-3 3h-18c-1.6568542 0-3-1.3431458-3-3v-35c0-1.65685425 1.3431458-3 3-3z" fill="#b0d3f0"/><path id="Path" d="m58 36v4c0 1.6568542-1.3431458 3-3 3h-18c-1.6568542 0-3-1.3431458-3-3v-4c0 1.6568542 1.3431458 3 3 3h18c1.6568542 0 3-1.3431458 3-3z" fill="#547580"/><path id="Path" d="m53 0-1.45 2.89c-.33773.67965768-1.031056 1.10959727-1.79 1.11h-7.52c-.758944-.00040273-1.45227-.43034232-1.79-1.11l-1.45-2.89z" fill="#547580"/><rect id="Rectangle" fill="#f0c419" height="43" rx="3" width="30"/><rect id="Rectangle" fill="#fff" height="14" rx="2" width="22" x="4" y="4"/><circle id="Oval" cx="15" cy="31" fill="#7f8c8d" r="8"/><path id="Path" d="m12 35c-.4043959-.0000863-.7689341-.2437275-.923678-.6173454-.1547439-.373618-.0692299-.8036603.216678-1.0896546l6-6c.3923789-.3789722 1.0160848-.3735524 1.4018186.0121814s.3911536 1.0094397.0121814 1.4018186l-6 6c-.1874927.1875494-.4418052.2929434-.707.293z" fill="#bdc3c7"/><g fill="#ff5364"><path id="Path" d="m15 13c-.424813.0001993-.8033866-.2680233-.9440546-.6688708-.1406679-.4008474-.0127245-.8468203.3190546-1.1121292l5-4c.4322164-.32745869 1.0466634-.25077578 1.3851426.17286561.3384791.4236414.2776429 1.03985919-.1371426 1.38913439l-5 4c-.1764416.1422228-.3963754.219535-.623.219z"/><circle id="Oval" cx="8" cy="14" r="1"/><circle id="Oval" cx="22" cy="14" r="1"/></g><path id="Path" d="m40 43h12v2c0 1.1045695-.8954305 2-2 2h-8c-1.1045695 0-2-.8954305-2-2z" fill="#3f5c6c"/><path id="Path" d="m48.842 10.84v.16l-.722 13c-.0645502 1.122228-.9934171 1.999202-2.1175 1.999202s-2.0529498-.876974-2.1175-1.999202l-.723-13c-.0546319-1.03070329.4538443-2.01000368 1.3283252-2.55828929s1.9774822-.57935607 2.8814413-.08116736c.903959.49818871 1.4667571 1.44731236 1.4702335 2.47945665z" fill="#e64c3c"/><circle id="Oval" cx="46" cy="32" fill="#e64c3c" r="2"/><circle id="Oval" cx="15" cy="12" fill="#464f5d" r="2"/></g></g></svg>