<svg height="512" viewBox="0 0 58 58" width="512" xmlns="http://www.w3.org/2000/svg"><g id="Page-1" fill="none" fill-rule="evenodd"><g id="047---Computer-Bug" transform="translate(-1)"><path id="Path" d="m59 2.18v41.82h-58v-41.82c-.04521019-1.152631.84774936-2.12595691 2-2.18h54c1.1522506.05404309 2.0452102 1.027369 2 2.18z" fill="#90bae1"/><path id="Path" d="m57.39.04c-9.36.38-56.39 4.14-56.39 41.96v-39.82c-.04521019-1.152631.84774936-2.12595691 2-2.18h54c.1311216-.00207169.2620289.01135469.39.04z" fill="#b0d3f0"/><path id="Path" d="m41 54-11 2-11-2 3-6 8-2 8 2z" fill="#3f5c6c"/><path id="Path" d="m59 42v3.82c.0452102 1.152631-.8477494 2.1259569-2 2.18h-54c-1.15225064-.0540431-2.04521019-1.027369-2-2.18v-3.82z" fill="#547580"/><path id="Path" d="m47 56c-.0032948 1.1032019-.8967981 1.9967052-2 2h-30c-1.1011688-.0081672-1.9918328-.8988312-2-2 .0032948-1.1032019.8967981-1.9967052 2-2h30c1.1011688.0081672 1.9918328.8988312 2 2z" fill="#547580"/><g fill="#802f34"><path id="Path" d="m14 39c-.5522847 0-1-.4477153-1-1v-4.02c-.0009105-1.6019968.9540732-3.0500149 2.427-3.68l8.919-3.824c.3301856-.1524925.7171307-.1136938 1.0104668.1013187.2933361.2150126.4468072.5723338.4007738.9331072-.0460334.3607733-.2843123.6681086-.6222406.8025741l-8.92 3.826c-.7373854.3146756-1.2155996 1.0392783-1.215 1.841v4.02c0 .5522847-.4477153 1-1 1z"/><path id="Path" d="m22.567 19.681c-.1354135-.0005263-.2693612-.0280638-.394-.081l-6.747-2.9c-1.4725351-.6302911-2.4270816-2.0782431-2.426-3.68v-4.02c0-.55228475.4477153-1 1-1s1 .44771525 1 1v4.02c-.0003697.8011183.4773408 1.5251606 1.214 1.84l6.748 2.9c.4363908.1872144.6809442.6555068.5852091 1.12061-.0957352.4651032-.5053554.7987429-.9802091.79839z"/><path id="Path" d="m22 25h-11c-.5522847 0-1-.4477153-1-1s.4477153-1 1-1h11c.5522847 0 1 .4477153 1 1s-.4477153 1-1 1z"/><path id="Path" d="m46 39c-.5522847 0-1-.4477153-1-1v-4.02c.0003697-.8011183-.4773408-1.5251606-1.214-1.84l-7.714-3.309c-.3283271-.1409413-.5565225-.4463368-.5986273-.801147-.0421049-.3548102.1082777-.7051311.3945-.919.2862222-.213869.6648002-.2587943.9931273-.117853l7.713 3.307c1.4725351.6302911 2.4270816 2.0782431 2.426 3.68v4.02c0 .5522847-.4477153 1-1 1z"/><path id="Path" d="m36.589 20.044c-.4748537.0003529-.8844739-.3332868-.9802091-.79839-.0957351-.4651032.1488183-.9333956.5852091-1.12061l7.591-3.264c.7373854-.3146756 1.2155996-1.0392783 1.215-1.841v-4.02c0-.55228475.4477153-1 1-1s1 .44771525 1 1v4.02c.0009105 1.6019968-.9540732 3.0500149-2.427 3.68l-7.59 3.263c-.1244914.0534077-.258536.0809651-.394.081z"/><path id="Path" d="m49 25h-12c-.5522847 0-1-.4477153-1-1s.4477153-1 1-1h12c.5522847 0 1 .4477153 1 1s-.4477153 1-1 1z"/><path id="Path" d="m36.282 3.581c-.5296158-.15550816-1.0850708.14750804-1.241.677-.3088252 1.26785262-1.2389988 2.29288809-2.471 2.723-1.4625508-1.3079924-3.6744492-1.3079924-5.137 0-1.2337894-.42831296-2.1656055-1.4539133-2.474-2.723-.1672903-.51480486-.7138407-.80303941-1.2331578-.65033096-.5193171.15270846-.8228474.69091465-.6848422 1.21433096.4490743 1.69277189 1.6269698 3.09855262 3.215 3.837-.1642492.42826263-.2509353.88234868-.256 1.341-.0006641.3586688.0498448.7155981.15 1.06h7.7c.1001552-.3444019.1506641-.7013312.15-1.06-.005021-.45856339-.0913589-.91259928-.255-1.341 1.5876477-.73868133 2.7651468-2.14442615 3.214-3.837.1555082-.52961576-.147508-1.08507085-.677-1.241z"/></g><path id="Path" d="m39.43 16.25c.3715117.5077491.5712077 1.1208509.57 1.75v8c-.0027198 5.1345804-3.8914355 9.4337716-9 9.95-.33.03-.66.05-1 .05s-.67-.02-1-.05c-5.1085645-.5162284-8.9972802-4.8154196-9-9.95v-8c-.0012077-.6291491.1984883-1.2422509.57-1.75z" fill="#e64c3c"/><path id="Path" d="m39.43 16.25c-.93 1.48-3.36 3.75-9.43 3.75s-8.5-2.27-9.43-3.75c.5576954-.788001 1.4646248-1.2545285 2.43-1.25h14c.9653752-.0045285 1.8723046.461999 2.43 1.25z" fill="#c03a2b"/><path id="Path" d="m31 28v7.95c-.33.03-.66.05-1 .05s-.67-.02-1-.05v-7.95c0-.5522847.4477153-1 1-1s1 .4477153 1 1z" fill="#802f34"/><path id="Path" d="m23 15c1.0254882-2.9910072 3.8380781-5 7-5s5.9745118 2.0089928 7 5z" fill="#e64c3c"/></g></g></svg>