<svg height="512" viewBox="0 0 58 58" width="512" xmlns="http://www.w3.org/2000/svg"><g id="Page-1" fill="none" fill-rule="evenodd"><g id="048---Laptop-Virus"><path id="Path" d="m35.43 8h16.57c2.209139 0 4 1.790861 4 4v38h-54v-38c0-2.209139 1.790861-4 4-4z" fill="#90bae1"/><path id="Path" d="m52.95 8.12c-11.41.71-50.95 5.65-50.95 39.88v-36c0-2.209139 1.790861-4 4-4h46c.3205339-.00142005.6398873.03891933.95.12z" fill="#b0d3f0"/><path id="Path" d="m52 58h-46c-3.3137085 0-6-2.6862915-6-6v-3c0-.5522847.44771525-1 1-1h56c.5522847 0 1 .4477153 1 1v3c0 3.3137085-2.6862915 6-6 6z" fill="#547580"/><path id="Path" d="m19 48h20v2c0 1.6568542-1.3431458 3-3 3h-14c-1.6568542 0-3-1.3431458-3-3z" fill="#3f5c6c"/><path id="Path" d="m15 53h-3c-.5522847 0-1-.4477153-1-1s.4477153-1 1-1h3c.5522847 0 1 .4477153 1 1s-.4477153 1-1 1z" fill="#3f5c6c"/><circle id="Oval" cx="4" cy="52" fill="#65ddb9" r="1"/><circle id="Oval" cx="8" cy="52" fill="#65ddb9" r="1"/><circle id="Oval" cx="29" cy="22" fill="#ff5364" r="22"/><path id="Rectangle" d="m28 6.625h2v6.75h-2z" fill="#f0c419"/><path id="Rectangle" d="m19.515 9.292h2v8.444h-2z" fill="#f0c419" transform="matrix(.707 -.707 .707 .707 -3.547 18.465)"/><path id="Rectangle" d="m13 21h8v2h-8z" fill="#f0c419"/><path id="Rectangle" d="m16.293 29.485h8.444v2h-8.444z" fill="#f0c419" transform="matrix(.707 -.707 .707 .707 -15.547 23.435)"/><path id="Rectangle" d="m28 30h2v8h-2z" fill="#f0c419"/><path id="Rectangle" d="m36.486 26.971h2v7.03h-2z" fill="#f0c419" transform="matrix(.707 -.707 .707 .707 -10.577 35.436)"/><path id="Rectangle" d="m37.625 21h6.75v2h-6.75z" fill="#f0c419"/><path id="Rectangle" d="m33.264 12.515h8.444v2h-8.444z" fill="#f0c419" transform="matrix(.707 -.707 .707 .707 1.423 30.465)"/><g fill="#f3d55b"><circle id="Oval" cx="29" cy="22" r="10"/><circle id="Oval" cx="29" cy="6" r="2"/><circle id="Oval" cx="17.686" cy="10.686" r="2"/><circle id="Oval" cx="13" cy="22" r="2"/><circle id="Oval" cx="17.686" cy="33.314" r="2"/><circle id="Oval" cx="29" cy="38" r="2"/><circle id="Oval" cx="40.314" cy="33.314" r="2"/><circle id="Oval" cx="45" cy="22" r="2"/><circle id="Oval" cx="40.314" cy="10.686" r="2"/></g><circle id="Oval" cx="27" cy="18" fill="#f29c1f" r="1"/><circle id="Oval" cx="33" cy="22" fill="#f29c1f" r="1"/><circle id="Oval" cx="26" cy="25" fill="#f29c1f" r="1"/></g></g></svg>