<svg height="512" viewBox="0 0 52 58" width="512" xmlns="http://www.w3.org/2000/svg"><g id="Page-1" fill="none" fill-rule="evenodd"><g id="049---Drop-Damage-Mobile"><path id="Path" d="m41.03 45.06 6.26 6.479c.2871614.2848091.3744903.714552.2212679 1.0888524s-.5168238.6194518-.9212679.6211476l-5.59-.249-1.65 4.369c-.1954908.4902862-.7383718.7442144-1.24.58l-5.11-1.949-5.11 1.95c-.5016282.1642144-1.0445092-.0897138-1.24-.58l-1.65-4.37-5.59.25c-.4044441-.0016958-.7680455-.2468472-.9212679-.6211476s-.0658935-.8040433.2212679-1.0888524l6.32-6.529z" fill="#f0c419"/><path id="Path" d="m48.33 28.35 2.94 2.94c.9726272.9756744.9726272 2.5543256 0 3.53l-10.24 10.24-6.21 6.21c-.9756744.9726272-2.5543256.9726272-3.53 0l-2.94-2.94z" fill="#547580"/><path id="Path" d="m15.12 2.79 2.06-2.06c.9756744-.97262722 2.5543256-.97262722 3.53 0l27.62 27.62c.9726272.9756744.9726272 2.5543256 0 3.53l-16.45 16.45c-.9756744.9726272-2.5543256.9726272-3.53 0l-27.62-27.62c-.97262722-.9756744-.97262722-2.5543256 0-3.53l2.06-2.06z" fill="#b0d3f0"/><path id="Path" d="m15.7 6.82c.0256749.72879605-.2533279 1.43536149-.77 1.95l-6.16 6.16c-.51463851.5166721-1.22120395.7956749-1.95.77l-4.03-.58 12.33-12.33z" fill="#547580"/><path id="Path" d="m33 25v2c0 .5522847-.4477153 1-1 1h-4v4c0 .5522847-.4477153 1-1 1h-2c-.5522847 0-1-.4477153-1-1v-4h-4c-.5522847 0-1-.4477153-1-1v-2c0-.5522847.4477153-1 1-1h4v-4c0-.5522847.4477153-1 1-1h2c.5522847 0 1 .4477153 1 1v4h4c.5522847 0 1 .4477153 1 1z" fill="#e64c3c"/></g></g></svg>