<svg height="512" viewBox="0 0 58 58" width="512" xmlns="http://www.w3.org/2000/svg"><g id="Page-1" fill="none" fill-rule="evenodd"><g id="050---Code-Repair-Computer" transform="translate(-1)"><path id="Path" d="m59 2.18v41.82h-58v-41.82c-.04521019-1.152631.84774936-2.12595691 2-2.18h54c1.1522506.05404309 2.0452102 1.027369 2 2.18z" fill="#90bae1"/><path id="Path" d="m57.39.04c-9.36.38-56.39 4.14-56.39 41.96v-39.82c-.04521019-1.152631.84774936-2.12595691 2-2.18h54c.1311216-.00207169.2620289.01135469.39.04z" fill="#b0d3f0"/><path id="Path" d="m41 54-11 2-11-2 3-6 8-2 8 2z" fill="#3f5c6c"/><path id="Path" d="m59 42v3.82c.0452102 1.152631-.8477494 2.1259569-2 2.18h-54c-1.15225064-.0540431-2.04521019-1.027369-2-2.18v-3.82z" fill="#547580"/><path id="Path" d="m47 56c-.0032948 1.1032019-.8967981 1.9967052-2 2h-30c-1.1011688-.0081672-1.9918328-.8988312-2-2 .0032948-1.1032019.8967981-1.9967052 2-2h30c1.1011688.0081672 1.9918328.8988312 2 2z" fill="#547580"/><g fill="#4482c3"><path id="Path" d="m38 10.02c-.0015993 3.2531208-1.9808827 6.1785016-5 7.39v17.59c0 1.6568542-1.3431458 3-3 3s-3-1.3431458-3-3v-17.59c-2.4519349-.9846193-4.2563034-3.1206814-4.8171788-5.7027114-.5608754-2.58202991.1946984-5.27416942 2.0171788-7.1872886.4631965-.47608161 1.1688332-.62370628 1.7840306-.37323305s1.0170433.84900151 1.0159694 1.51323305v4.02c.0017306.3345191.1706148.6460165.45.83l2 1.33c.3305929.2300179.7694071.2300179 1.1 0l2-1.33c.2793852-.1839835.4482694-.4954809.45-.83v-4.03c-.0048873-.65338164.3825128-1.24598108.9829691-1.50363142.6004563-.25765033 1.2968647-.13010325 1.7670309.32363142 1.4438661 1.48657675 2.2510556 3.47764422 2.25 5.55z"/><path id="Path" d="m10 37h-1v-7c-.00008635-.4043959-.2437275-.7689341-.61734544-.923678s-.80366031-.0692299-1.08965456.216678l-2 2c-.37897221.3923789-.37355237 1.0160848.01218142 1.4018186.3857338.3857338 1.00943969.3911536 1.40181858.0121814l.293-.293v4.586h-1c-.55228475 0-1 .4477153-1 1s.44771525 1 1 1h4c.5522847 0 1-.4477153 1-1s-.4477153-1-1-1z"/><path id="Path" d="m46 37h-1v-7c-.0000863-.4043959-.2437275-.7689341-.6173454-.923678-.373618-.1547439-.8036603-.0692299-1.0896546.216678l-2 2c-.3789722.3923789-.3735524 1.0160848.0121814 1.4018186s1.0094397.3911536 1.4018186.0121814l.293-.293v4.586h-1c-.5522847 0-1 .4477153-1 1s.4477153 1 1 1h4c.5522847 0 1-.4477153 1-1s-.4477153-1-1-1z"/><path id="Shape" d="m16 5c-1.6568542 0-3 1.34314575-3 3v4c0 1.6568542 1.3431458 3 3 3s3-1.3431458 3-3v-4c0-1.65685425-1.3431458-3-3-3zm1 7c0 .5522847-.4477153 1-1 1s-1-.4477153-1-1v-4c0-.55228475.4477153-1 1-1s1 .44771525 1 1z" fill-rule="nonzero"/><path id="Path" d="m10 13h-1v-7c-.00008635-.4043959-.2437275-.76893405-.61734544-.92367798s-.80366031-.06922994-1.08965456.21667798l-2 2c-.37897221.39237889-.37355237 1.01608478.01218142 1.40181858.3857338.38573379 1.00943969.39115363 1.40181858.01218142l.293-.293v4.586h-1c-.55228475 0-1 .4477153-1 1s.44771525 1 1 1h4c.5522847 0 1-.4477153 1-1s-.4477153-1-1-1z"/><path id="Shape" d="m52 5c-1.6568542 0-3 1.34314575-3 3v4c0 1.6568542 1.3431458 3 3 3s3-1.3431458 3-3v-4c0-1.65685425-1.3431458-3-3-3zm1 7c0 .5522847-.4477153 1-1 1s-1-.4477153-1-1v-4c0-.55228475.4477153-1 1-1s1 .44771525 1 1z" fill-rule="nonzero"/><path id="Path" d="m46 13h-1v-7c-.0000863-.4043959-.2437275-.76893405-.6173454-.92367798-.373618-.15474393-.8036603-.06922994-1.0896546.21667798l-2 2c-.3789722.39237889-.3735524 1.01608478.0121814 1.40181858.3857338.38573379 1.0094397.39115363 1.4018186.01218142l.293-.293v4.586h-1c-.5522847 0-1 .4477153-1 1s.4477153 1 1 1h4c.5522847 0 1-.4477153 1-1s-.4477153-1-1-1z"/><path id="Shape" d="m16 29c-1.6568542 0-3 1.3431458-3 3v4c0 1.6568542 1.3431458 3 3 3s3-1.3431458 3-3v-4c0-1.6568542-1.3431458-3-3-3zm1 7c0 .5522847-.4477153 1-1 1s-1-.4477153-1-1v-4c0-.5522847.4477153-1 1-1s1 .4477153 1 1z" fill-rule="nonzero"/><path id="Shape" d="m52 29c-1.6568542 0-3 1.3431458-3 3v4c0 1.6568542 1.3431458 3 3 3s3-1.3431458 3-3v-4c0-1.6568542-1.3431458-3-3-3zm1 7c0 .5522847-.4477153 1-1 1s-1-.4477153-1-1v-4c0-.5522847.4477153-1 1-1s1 .4477153 1 1z" fill-rule="nonzero"/><path id="Shape" d="m8 17c-1.65685425 0-3 1.3431458-3 3v4c0 1.6568542 1.34314575 3 3 3s3-1.3431458 3-3v-4c0-1.6568542-1.34314575-3-3-3zm1 7c0 .5522847-.44771525 1-1 1s-1-.4477153-1-1v-4c0-.5522847.44771525-1 1-1s1 .4477153 1 1z" fill-rule="nonzero"/><path id="Shape" d="m16 17c-1.6568542 0-3 1.3431458-3 3v4c0 1.6568542 1.3431458 3 3 3s3-1.3431458 3-3v-4c0-1.6568542-1.3431458-3-3-3zm1 7c0 .5522847-.4477153 1-1 1s-1-.4477153-1-1v-4c0-.5522847.4477153-1 1-1s1 .4477153 1 1z" fill-rule="nonzero"/><path id="Path" d="m54 25h-1v-7c-.0000863-.4043959-.2437275-.7689341-.6173454-.923678-.373618-.1547439-.8036603-.0692299-1.0896546.216678l-2 2c-.3789722.3923789-.3735524 1.0160848.0121814 1.4018186s1.0094397.3911536 1.4018186.0121814l.293-.293v4.586h-1c-.5522847 0-1 .4477153-1 1s.4477153 1 1 1h4c.5522847 0 1-.4477153 1-1s-.4477153-1-1-1z"/><path id="Path" d="m46 25h-1v-7c-.0000863-.4043959-.2437275-.7689341-.6173454-.923678-.373618-.1547439-.8036603-.0692299-1.0896546.216678l-2 2c-.3789722.3923789-.3735524 1.0160848.0121814 1.4018186s1.0094397.3911536 1.4018186.0121814l.293-.293v4.586h-1c-.5522847 0-1 .4477153-1 1s.4477153 1 1 1h4c.5522847 0 1-.4477153 1-1s-.4477153-1-1-1z"/></g></g></g></svg>