<svg height="512" viewBox="0 0 58 58" width="512" xmlns="http://www.w3.org/2000/svg"><g id="Page-1" fill="none" fill-rule="evenodd"><g id="052---Battery-Health"><path id="Path" d="m51 4v26c-.0002779 1.8352995-1.2494815 3.4349399-3.03 3.88-.39-5.45-4.15-9.88-9.47-9.88-3.8745377.0075364-7.4689986 2.0204345-9.5 5.32-2.0310014-3.2995655-5.6254623-5.3124636-9.5-5.32-5.36 0-9.13 4.5-9.47 10h-6.03c-2.209139 0-4-1.790861-4-4v-26c0-2.209139 1.790861-4 4-4h43c2.209139 0 4 1.790861 4 4z" fill="#464f5d"/><path id="Path" d="m47 6v22c-.0008794.4063238-.1227226.8031843-.35 1.14l-6.64.16-7.01.17-2 .05-5 .12-2 .05-12 .28-1.06.03h-4.94c-1.10320187-.0032948-1.9967052-.8967981-2-2v-22c.0032948-1.10320187.89679813-1.9967052 2-2h39c1.1032019.0032948 1.9967052.89679813 2 2z" fill="#4fba6f"/><path id="Path" d="m48.5 13.5h12c1.1045695 0 2 .8954305 2 2v5h-16v-5c0-1.1045695.8954305-2 2-2z" fill="#bdc3c7" transform="matrix(0 1 -1 0 71.5 -37.5)"/><g fill="#24ae5f"><path id="Path" d="m12 4v25.97l-1.06.03h-.94v-26z"/><path id="Rectangle" d="m17 4h2v23h-2z"/><path id="Path" d="m26 4v25.64l-2 .05v-25.69z"/><path id="Path" d="m33 4v25.47l-2 .05v-25.52z"/><path id="Rectangle" d="m38 4h2v25h-2z"/></g><path id="Path" d="m48 34.82c0 7.86-7.23 13.14-17.9 22.76-.6263414.5602168-1.5736586.5602168-2.2 0-10.67-9.62-17.9-14.9-17.9-22.76 0-.28.01-.55.03-.82.34-5.5 4.11-10 9.47-10 3.8745377.0075364 7.4689986 2.0204345 9.5 5.32 2.0310014-3.2995655 5.6254623-5.3124636 9.5-5.32 5.32 0 9.08 4.43 9.47 9.88.02.31.03.62.03.94z" fill="#ff5364"/><path id="Shape" d="m26.056 46h-.056c-.640435-.0208075-1.1918691-.4581377-1.358-1.077l-2.838-9.886-1.769 4.08c-.2297977.5381723-.7598278.88614-1.345.883h-2.69c-.5522847 0-1-.4477153-1-1s.4477153-1 1-1h2.342l2.22-5.118c.2528117-.5692582.834593-.9196855 1.456-.877.613892.0428652 1.134431.4673047 1.3 1.06l2.798 9.735 2.485-6.82c.2060184-.5814185.7581818-.9681337 1.375-.963h.024c.6244756.0024964 1.1766909.4058677 1.369 1l1.677 5 2.519-6.908c.2131622-.601288.7958614-.991245 1.433-.959.6416953.0218305 1.1939329.46005 1.361 1.08l1.025 3.77h2.616c.5522847 0 1 .4477153 1 1s-.4477153 1-1 1h-2.955c-.7007795-.0022904-1.3141458-.4713112-1.5-1.147l-.677-2.486-2.468 6.766c-.2039254.5841304-.7573205.9734374-1.376.968h-.016c-.6246311-.0068678-1.176603-.4080101-1.376-1l-1.675-5-2.527 6.932c-.2060628.5814951-.7570776.9692908-1.374.967z" fill="#fff" fill-rule="nonzero"/></g></g></svg>