<svg height="512" viewBox="0 0 42 58" width="512" xmlns="http://www.w3.org/2000/svg"><g id="Page-1" fill="none" fill-rule="evenodd"><g id="053---Sound-Error-Mobile"><path id="Path" d="m31 0h4c1.6568542 0 3 1.34314575 3 3v49c0 1.6568542-1.3431458 3-3 3h-28c-1.65685425 0-3-1.3431458-3-3v-49c0-1.65685425 1.34314575-3 3-3z" fill="#90bae1"/><path id="Path" d="m38 50v5c0 1.6568542-1.3431458 3-3 3h-28c-1.65685425 0-3-1.3431458-3-3v-5c0 1.6568542 1.34314575 3 3 3h28c1.6568542 0 3-1.3431458 3-3z" fill="#547580"/><path id="Path" d="m38 3v1s-33.14 1.95-33.98 46.26c-.01658959-.0856164-.02330015-.1728536-.02-.26v-47c0-1.65685425 1.34314575-3 3-3h4l2.86 3.05c.5663757.60708315 1.3597411.95123705 2.19.95h9.9c.8302589.00123705 1.6236243-.34291685 2.19-.95l2.86-3.05h4c1.6568542 0 3 1.34314575 3 3z" fill="#b0d3f0"/><path id="Path" d="m31 0-2.86 3.05c-.5663757.60708315-1.3597411.95123705-2.19.95h-9.9c-.8302589.00123705-1.6236243-.34291685-2.19-.95l-2.86-3.05z" fill="#547580"/><circle id="Oval" cx="21" cy="28" fill="#f3d55b" r="20"/><path id="Path" d="m11 24h4v8h-4c-1.1045695 0-2-.8954305-2-2v-4c0-1.1045695.8954305-2 2-2z" fill="#2980ba"/><path id="Path" d="m24 39-9-7v-8l9-7z" fill="#3b97d3"/><rect id="Rectangle" fill="#ecf0f1" height="26" rx="2" width="4" x="24" y="15"/><path id="Path" d="m28 23c2.209139 0 4 1.790861 4 4s-1.790861 4-4 4z" fill="#95a5a5"/><path id="Shape" d="m21 7c-11.59797975 0-21 9.4020203-21 21s9.40202025 21 21 21c11.5979797 0 21-9.4020203 21-21-.0132259-11.592497-9.407503-20.98677409-21-21zm0 2c4.6908613.00219708 9.2132881 1.7487207 12.688 4.9l-26.788 26.788c-5.03286981-5.5659747-6.31105771-13.5758524-3.26042838-20.4317632s9.85644968-11.26870081 17.36042838-11.2562368zm0 38c-4.6908613-.0021971-9.2132881-1.7487207-12.688-4.9l26.788-26.788c5.0328698 5.5659747 6.3110577 13.5758524 3.2604284 20.4317632-3.0506294 6.8559108-9.8564497 11.2687008-17.3604284 11.2562368z" fill="#e64c3c" fill-rule="nonzero"/></g></g></svg>