<svg height="512" viewBox="0 0 58 58" width="512" xmlns="http://www.w3.org/2000/svg"><g id="Page-1" fill="none" fill-rule="evenodd"><g id="054---Biometrics-Error"><path id="Path" d="m18.41 45.54c-9.52718463-1.9455379-16.80004452-9.674548-18.16315203-19.3023361-1.36310751-9.627788 3.47836499-19.07195193 12.09103463-23.58574035 8.6126697-4.51378841 19.1336953-3.12091038 26.2750816 3.47855671 7.1413863 6.59946704 9.3585172 16.97811914 5.5370358 25.91951974z" fill="#46b29d"/><g fill="#65ddb9"><path id="Path" d="m23 4c-10.4886126.0115735-18.9884265 8.5113874-19 19 0 .5522847.44771525 1 1 1s1-.4477153 1-1c.00000014-9.3888406 7.6111594-16.99999975 17-16.99999975s16.9999999 7.61115915 17 16.99999975c0 .5522847.4477153 1 1 1s1-.4477153 1-1c-.0115735-10.4886126-8.5113874-18.9884265-19-19z"/><path id="Path" d="m23 12c-.189 0-.378 0-.56.011-5.9305812.4744109-10.4872633 5.4496618-10.44 11.399-.0055069 3.637273-2.95272696 6.5844931-6.59 6.59-.55228475 0-1 .4477153-1 1s.44771525 1 1 1c4.7418416-.0055106 8.5844894-3.8481584 8.59-8.59-.0563117-4.8900218 3.6746332-8.9928391 8.548-9.4.152-.01.296-.01.452-.01 4.9673661.007709 8.992291 4.0326339 9 9v6c0 .5522847.4477153 1 1 1s1-.4477153 1-1v-6c-.0060635-6.0726189-4.9273811-10.9939365-11-11z"/><path id="Path" d="m22.246 8.019c-8.0927105.50809881-14.36169242 7.2791801-14.246 15.387-.00329911 1.4312579-1.16274212 2.5907009-2.594 2.594h-.406c-.55228475 0-1 .4477153-1 1s.44771525 1 1 1h.406c2.53582572-.0033054 4.59069455-2.0581743 4.594-4.594-.11559253-7.04123 5.3165826-12.9332741 12.344-13.389 3.555902-.17534681 7.028407 1.1136436 9.6086417 3.5667181 2.5802346 2.4530746 4.0429255 5.8560619 4.0473583 9.4162819v6c0 .5522847.4477153 1 1 1s1-.4477153 1-1v-6c-.0043232-4.1077303-1.6913667-8.0343345-4.6680832-10.8649927-2.9767165-2.83065824-6.9831626-4.31818169-11.0859168-4.1160073z"/><path id="Path" d="m25.784 35.238c-1.8811128 2.380532-4.7499445 3.7670357-7.784 3.762h-3c-.5522847 0-1 .4477153-1 1s.4477153 1 1 1h3c3.6443212.0075403 7.0905115-1.6578665 9.349-4.518.2345504-.2784251.2992599-.6623197.1689393-1.0022476s-.4350792-.5821769-.7956443-.6324483c-.3605651-.0502713-.7199638.0993784-.938295.3906959z"/><path id="Path" d="m22.79 16c-3.8374381.2131185-6.8285249 3.4068416-6.79 7.25v3.75c-.0044086 3.8641657-3.1358343 6.9955914-7 7-.55228475 0-1 .4477153-1 1s.44771525 1 1 1c4.9682782-.0055111 8.9944889-4.0317218 9-9v-3.75c-.0465627-2.7647023 2.0893099-5.0772062 4.849-5.25 1.3541995-.0545438 2.670152.4561891 3.633 1.41.9742994.9396514 1.522626 2.2364185 1.518 3.59v6c-.0236118 1.4647517-.3351964 2.9105449-.917 4.255-.1999271.5150055.0554945 1.0945729.5705 1.2945s1.0945729-.0554945 1.2945-.5705c.6707614-1.5755746 1.0280864-3.2667546 1.052-4.979v-6c.0008523-1.8934797-.7654025-3.7065369-2.1239332-5.0254988-1.3585308-1.3189618-3.1934392-2.0313058-5.0860668-1.9745012z"/><path id="Path" d="m25 31c.5522847 0 1-.4477153 1-1v-6c.0005772-.8834054-.3882336-1.7221593-1.0627595-2.2926155s-1.5661909-.814619-2.4372405-.6673845c-1.4657775.2825585-2.5187574 1.5743543-2.5 3.067v6.77c.0023979 1.9652957-1.3357397 3.6789206-3.243 4.153-.4897554.1227443-.8111846.5913178-.7493732 1.0924224s.4874708.8775246.9923732.8775776c.0822423-.0001749.1641648-.0102473.244-.03 2.7971384-.6967518 4.7592042-3.2103908 4.756-6.093v-6.77c-.0189842-.5136567.3257053-.9699002.825-1.092.2913421-.051784.5906586.028122.8174271.2182215.2267685.1900996.3577006.4708701.3575729.7667785v6c0 .5522847.4477153 1 1 1z"/></g><path id="Path" d="m53.21 58h-34.42c-1.759915.0271236-3.3874808-.9313581-4.2173045-2.4835916-.8298236-1.5522336-.7228047-3.4380238.2773045-4.8864084l3.56-5.09 13.65-19.5c.9042972-1.2792629 2.37339-2.0398564 3.94-2.0398564s3.0357028.7605935 3.94 2.0398564l4.21 6.01 13 18.58c1.0001092 1.4483846 1.1071281 3.3341748.2773045 4.8864084-.8298237 1.5522335-2.4573895 2.5107152-4.2173045 2.4835916z" fill="#e64c3c"/><path id="Path" d="m38.526 32.524v.143l-.642 11.555c-.0563822.998167-.8822419 1.7786938-1.882 1.7786938s-1.8256178-.7805268-1.882-1.7786938l-.642-11.555c-.0517134-.9178416.3992977-1.791313 1.1775709-2.2805965.7782731-.4892835 1.7609168-.5171199 2.5656405-.0726796.8047238.4444402 1.3044595 1.2909789 1.3047886 2.2102761z" fill="#fff"/><circle id="Oval" cx="36" cy="52" fill="#fff" r="2"/></g></g></svg>