<svg height="512" viewBox="0 0 58 58" width="512" xmlns="http://www.w3.org/2000/svg"><g id="Page-1" fill="none" fill-rule="evenodd"><g id="055---Laptop-Water-Damage" transform="translate(0 -1)"><path id="Path" d="m35.43 9h16.57c2.209139 0 4 1.790861 4 4v38h-54v-38c0-2.209139 1.790861-4 4-4z" fill="#90bae1"/><path id="Path" d="m52.95 9.12c-11.41.71-50.95 5.65-50.95 39.88v-36c0-2.209139 1.790861-4 4-4h46c.3205339-.00142005.6398873.03891933.95.12z" fill="#b0d3f0"/><path id="Path" d="m39 17.837c.0234783 2.8632802-1.1726097 5.6012685-3.2893063 7.529615-2.1166966 1.9283464-4.9539843 2.8648318-7.8026937 2.575385-5.58-.595-9.405-5.989-8.856-11.659.679-7.013 5.969-8.783 9.057-14.743.1682172-.33231904.5090312-.54179181.8815-.54179181s.7132828.20947277.8815.54179181c3.305 6.377 9.128 7.96 9.128 16.297z" fill="#3b97d3"/><path id="Path" d="m28.333 24.965c-.0357506-.000004-.0714731-.0020071-.107-.006-3.4336817-.5293566-6.0218752-3.40002-6.194-6.87-.044536-.5473788.3606956-1.0282464.9077036-1.0771256.5470081-.0488793 1.031077.3525227 1.0842964.8991256.1137099 2.5083188 1.9434347 4.6063037 4.413 5.06.5261816.0577032.9162474.5154564.8897343 1.0441281s-.4604197.9451023-.9897343.9498719z" fill="#fff"/><path id="Path" d="m56 32v19h-54v-2c-.09254028-5.5664784 1.14148042-11.0750098 3.6-16.07 1.51.88 2.56 2.07 5.4 2.07 4.49 0 4.49-3 8.99-3s4.5 3 9 3 4.5-3 9-3 4.5 3 9.01 3 4.5-3 9-3z" fill="#2980ba"/><path id="Path" d="m5.6 32.93c-2.45851958 4.9949902-3.69254028 10.5035216-3.6 16.07v-17c1.26399857-.0384388 2.51277313.2841613 3.6.93z" fill="#3b97d3"/><path id="Path" d="m52 59h-46c-3.3137085 0-6-2.6862915-6-6v-3c0-.5522847.44771525-1 1-1h56c.5522847 0 1 .4477153 1 1v3c0 3.3137085-2.6862915 6-6 6z" fill="#547580"/><path id="Path" d="m19 49h20v2c0 1.6568542-1.3431458 3-3 3h-14c-1.6568542 0-3-1.3431458-3-3z" fill="#3f5c6c"/><path id="Path" d="m15 54h-3c-.5522847 0-1-.4477153-1-1s.4477153-1 1-1h3c.5522847 0 1 .4477153 1 1s-.4477153 1-1 1z" fill="#3f5c6c"/><circle id="Oval" cx="4" cy="53" fill="#65ddb9" r="1"/><circle id="Oval" cx="8" cy="53" fill="#65ddb9" r="1"/><g fill="#9fc9d3"><path id="Path" d="m22 43c-.2040178.000228-.4031138-.0626444-.57-.18-.177-.123-.35-.248-.523-.374-2.2513777-1.9267536-5.5706223-1.9267536-7.822 0-.169.123-.339.247-.512.368-.453056.3069344-1.0686766.1926965-1.3814488-.2563492s-.2065113-1.0660932.2384488-1.3846508c.161-.113.32-.229.479-.344 1.418578-1.2029386 3.2241958-1.8525206 5.084-1.829 1.8617396-.0242495 3.6694901.6253332 5.09 1.829.162.117.323.235.488.351.357903.249817.5124374.7028986.3817814 1.1193504-.1306561.4164517-.5163153.700055-.9527814.7006496z"/><path id="Path" d="m46 43c-.2040178.000228-.4031138-.0626444-.57-.18-.177-.123-.35-.248-.523-.374-2.2513777-1.9267536-5.5706223-1.9267536-7.822 0-.169.123-.339.247-.512.368-.453056.3069344-1.0686766.1926965-1.3814488-.2563492s-.2065113-1.0660932.2384488-1.3846508c.161-.113.32-.229.479-.344 2.9538559-2.4371362 7.2211441-2.4371362 10.175 0 .161.117.323.235.488.351.3580535.2499228.5125497.7032648.3816303 1.1198267-.1309195.4165619-.5169797.7000146-.9536303.7001733z"/></g></g></g></svg>