<svg height="512" viewBox="0 0 34 58" width="512" xmlns="http://www.w3.org/2000/svg"><g id="Page-1" fill="none" fill-rule="evenodd"><g id="056---Mobile-Fire" transform="translate(-1)"><path id="Path" d="m28 0h4c1.6568542 0 3 1.34314575 3 3v49c0 1.6568542-1.3431458 3-3 3h-28c-1.65685425 0-3-1.3431458-3-3v-49c0-1.65685425 1.34314575-3 3-3z" fill="#90bae1"/><path id="Path" d="m35 50v5c0 1.6568542-1.3431458 3-3 3h-28c-1.65685425 0-3-1.3431458-3-3v-5c0 1.6568542 1.34314575 3 3 3h28c1.6568542 0 3-1.3431458 3-3z" fill="#547580"/><path id="Path" d="m35 3v1s-33.14 1.95-33.98 46.26c-.01658959-.0856164-.02330014-.1728536-.02-.26v-47c0-1.65685425 1.34314575-3 3-3h4l2.86 3.05c.5663757.60708315 1.3597411.95123705 2.19.95h9.9c.8302589.00123705 1.6236243-.34291685 2.19-.95l2.86-3.05h4c1.6568542 0 3 1.34314575 3 3z" fill="#b0d3f0"/><path id="Path" d="m28 0-2.86 3.05c-.5663757.60708315-1.3597411.95123705-2.19.95h-9.9c-.8302589.00123705-1.6236243-.34291685-2.19-.95l-2.86-3.05z" fill="#547580"/><path id="Path" d="m31 32.313c-.0878312 7.0926697-5.9072961 12.7720197-13 12.687-7.179 0-13-4.973-13-11.986 0-6.644 5.937-6.276 4.774-12.736-.03503026-.2548531.07546798-.5078845.2862148-.6554074.2107469-.1475228.4863161-.1647385.7137852-.0445926 1.7028413.7555518 2.8246991 2.417175 2.889 4.279 1.5647061-3.9964623.7688553-8.532002-2.063-11.757-.1851364-.2174861-.2120464-.5284262-.0670272-.7744853.1450193-.2460591.4300808-.3731333.7100272-.3165147 4.485.758 14.834 4.073 13.7 18.482 1.0136978-.7857713 1.7111116-1.9097965 1.965-3.167.0750331-.2680991.3018069-.4662496.5775469-.5046493s.5480243.0902518.6934531.3276493c1.1237503 1.8660335 1.7506821 3.9888571 1.821 6.166z" fill="#f0c419"/><path id="Path" d="m11 39c0 3.818 3.111 6 7 6 1.8983688.1172761 3.755216-.589124 5.0956171-1.9385249 1.340401-1.3494009 2.0343598-3.2109336 1.9043829-5.1084751-.132-5.784-4.095-9.3-6.311-10.822-.23385-.1659951-.5437735-.1778536-.7896241-.0302132-.2458505.1476404-.3810164.4267881-.3443759.7112132.279 1.788.421 4.721-1.109 6.688-.019746-1.125578-.4366223-2.2079689-1.177-3.056-.1947023-.1862701-.4760897-.2503252-.7322343-.1666862-.2561445.0836391-.4455075.3014086-.4927657.5666862-.459 3.435-3.044 3.737-3.044 7.156z" fill="#e57e25"/></g></g></svg>