<svg height="512" viewBox="0 0 50 58" width="512" xmlns="http://www.w3.org/2000/svg"><g id="Page-1" fill="none" fill-rule="evenodd"><g id="057---Smartwatch-Repair"><path id="Path" d="m40 50-2.513 6.7c-.2920345.7816093-1.0386157 1.2997916-1.873 1.3h-21.228c-.8343843-.0002084-1.5809655-.5183907-1.873-1.3l-2.513-6.7 15-2z" fill="#4482c3"/><path id="Path" d="m40 8-2.513-6.7c-.2920345-.78160928-1.0386157-1.29979164-1.873-1.3h-21.228c-.8343843.00020836-1.5809655.51839072-1.873 1.3l-2.513 6.7 15 2z" fill="#4482c3"/><g fill="#bdc3c7"><path id="Path" d="m2 33h5v10h-5c-1.1045695 0-2-.8954305-2-2v-6c0-1.1045695.8954305-2 2-2z"/><path id="Path" d="m2 15h5v10h-5c-1.1045695 0-2-.8954305-2-2v-6c0-1.1045695.8954305-2 2-2z"/><path id="Path" d="m46 33h4v10h-4c-1.1045695 0-2-.8954305-2-2v-6c0-1.1045695.8954305-2 2-2z" transform="matrix(-1 0 0 -1 94 76)"/><path id="Path" d="m46 15h4v10h-4c-1.1045695 0-2-.8954305-2-2v-6c0-1.1045695.8954305-2 2-2z" transform="matrix(-1 0 0 -1 94 40)"/></g><rect id="Rectangle" fill="#35495e" height="42" rx="5" width="42" x="4" y="8"/><rect id="Rectangle" fill="#3f5c6c" height="34" rx="2" transform="matrix(0 1 -1 0 54 4)" width="34" x="8" y="12"/><path id="Path" d="m40.52 12.07c-6.41.46-31.53 4.07-32.49 32.24-.02036247-.102067-.03041299-.2059225-.03-.31v-30c.0032948-1.1032019.89679813-1.9967052 2-2h30c.1758519-.0026897.3511192.0209039.52.07z" fill="#547580"/><path id="Path" d="m35.8 28.857c-2.116642 2.1204049-5.2893775 2.783388-8.078 1.688l-10.575 10.573c-.75896.7761732-1.8764919 1.0845862-2.9261161.8075407-1.0496241-.2770456-1.869379-1.0968005-2.1464246-2.1464246-.2770455-1.0496242.0313675-2.1671561.8075407-2.9261161l10.573-10.574c-.9529655-2.4257068-.583133-5.1717866.977611-7.2589558 1.5607439-2.0871692 4.0902204-3.2183098 6.686389-2.9900442.4304486.0432594.7973998.3307659.9423897.7383629.14499.4075971.0420409.8622559-.2643897 1.1676371l-2.125 2.133c-.3349339.3338958-.4940851.8054275-.43 1.274l.264 1.869c.0918182.6657529.6152471 1.1891818 1.281 1.281l1.869.264c.468287.0642373.939583-.0949594 1.273-.43l2.133-2.127c.3023243-.3057301.7530863-.4111977 1.1596687-.271335.4065825.1398626.6970693.5003167.7473313.927335.2075592 2.2236308-.5877158 4.4239283-2.169 6.001z" fill="#bdc3c7"/></g></g></svg>