<svg height="512" viewBox="0 0 58 58" width="512" xmlns="http://www.w3.org/2000/svg"><g id="Page-1" fill="none" fill-rule="evenodd"><g id="058---Mobile-Hacker"><path id="Path" d="m39 0h4c1.6568542 0 3 1.34314575 3 3v49c0 1.6568542-1.3431458 3-3 3h-28c-1.6568542 0-3-1.3431458-3-3v-49c0-1.65685425 1.3431458-3 3-3z" fill="#90bae1"/><path id="Path" d="m46 50v5c0 1.6568542-1.3431458 3-3 3h-28c-1.6568542 0-3-1.3431458-3-3v-5c0 1.6568542 1.3431458 3 3 3h28c1.6568542 0 3-1.3431458 3-3z" fill="#547580"/><path id="Path" d="m46 3v1s-33.14 1.95-33.98 46.26c-.0165896-.0856164-.0233001-.1728536-.02-.26v-47c0-1.65685425 1.3431458-3 3-3h4l2.86 3.05c.5663757.60708315 1.3597411.95123705 2.19.95h9.9c.8302589.00123705 1.6236243-.34291685 2.19-.95l2.86-3.05h4c1.6568542 0 3 1.34314575 3 3z" fill="#b0d3f0"/><path id="Path" d="m39 0-2.86 3.05c-.5663757.60708315-1.3597411.95123705-2.19.95h-9.9c-.8302589.00123705-1.6236243-.34291685-2.19-.95l-2.86-3.05z" fill="#547580"/><g fill="#285680"><path id="Shape" d="m9.89 31.84c-.61752442 1.7045061-.91912205 3.5073144-.89 5.32 0 5.42 4.31 10.84 8.89 10.84 4.44 0 7.78-3.75 11.11-3.75s6.67 3.75 11.11 3.75c4.58 0 8.89-5.42 8.89-10.84.029122-1.8126856-.2724756-3.6154939-.89-5.32zm14.78 7.95c-1.37 1.64-3.64 3.6-6.66 3.6-1.75 0-4.02-2.06-4.93-4.56-.1419653-.4549658-.0455312-.9508278.2565992-1.3194269s.7694205-.5604807 1.2434008-.5105731c3.25.24 6.74.41 9.03.51.5379852.0029764 1.025944.3161363 1.2527506.8039844.2268065.487848.1517282 1.0627708-.1927506 1.4760156zm20.25-.96c-.91 2.5-3.18 4.56-4.93 4.56-3.02 0-5.29-1.96-6.66-3.6-.3444788-.4132448-.4195571-.9881676-.1927506-1.4760156.2268066-.4878481.7147654-.801008 1.2527506-.8039844 2.29-.1 5.78-.27 9.03-.51.4739803-.0499076.9412704.141974 1.2434008.5105731s.3985645.8644611.2565992 1.3194269z" fill-rule="nonzero"/><path id="Path" d="m9.94 31.71c-.02.04-.03.09-.05.13"/><path id="Path" d="m48.11 31.84c-.02-.04-.03-.09-.05-.13"/></g><path id="Path" d="m58.425 13.712c-.0250792.0523265-.0451681.1069015-.06.163" fill="#cb8252"/><path id="Path" d="m46 25c6.98.82 12 1.84 12 3.34 0 1.4-3.83 2.65-9.89 3.5-6.3363032.8197984-12.7210592 1.2073608-19.11 1.16-6.3889408.0473608-12.7736968-.3402016-19.11-1.16-6.06-.85-9.89-2.1-9.89-3.5 0-1.5 5.02-2.52 12-3.34z" fill="#a56a43"/><path id="Path" d="m45.23 20.73c.56 2.49.77 4.27.77 4.27s-2.72 3-17 3-17-3-17-3 .21-1.78.77-4.27z" fill="#cbb292"/><path id="Path" d="m45.23 20.73c-3.31 1.23-8.42 2.27-16.23 2.27s-12.92-1.04-16.23-2.27c.74-3.29 2.08-7.8 4.32-10.97.8378036-1.13191819 2.1720306-1.787851 3.58-1.76.984251.00143547 1.9417379.32059778 2.73.91 1.6422173 1.1288704 3.6095913 1.6874641 5.6 1.59 1.9904087.0974641 3.9577827-.4611296 5.6-1.59.7882621-.58940222 1.745749-.90856453 2.73-.91 1.4079694-.027851 2.7421964.62808181 3.58 1.76 2.24 3.17 3.58 7.68 4.32 10.97z" fill="#a56a43"/></g></g></svg>