<svg height="512" viewBox="0 0 58 58" width="512" xmlns="http://www.w3.org/2000/svg"><g id="Page-1" fill="none" fill-rule="evenodd"><g id="059---Repair-Shop"><path id="Path" d="m51 2v5h-44v-5c.0032948-1.10320187.89679813-1.9967052 2-2h40c1.1032019.0032948 1.9967052.89679813 2 2z" fill="#3b97d3"/><path id="Path" d="m53.98 8 .02.033v47.967h-50v-47.967l.02-.033z" fill="#b0d3f0"/><path id="Path" d="m13.0000027 10-.0000027 1.5c.0015293 1.5528579-.6543971 3.0337842-1.8054006 4.0761665-1.1510034 1.0423823-2.68949059 1.5487808-4.2345994 1.3938335-1.08872346-.0979842-2.11820212-.5391894-2.94-1.26-1.28560956-1.1168411-2.02272095-2.7370265-2.02-4.44.00116418-.438516.0966581-.8716492.28-1.27z" fill="#f3d55b"/><path id="Path" d="m16 5-3 5h-10.72c.15136373-.33456061.3613352-.63935791.62-.9l4.1-4.1z" fill="#f0c419"/><path id="Path" d="m56 11.27c.0096914 1.7044713-.7286815 3.3274296-2.02 4.44-.8217979.7208106-1.8512765 1.1620158-2.94 1.26-1.5451088.1549473-3.083596-.3514512-4.2345994-1.3938335-1.1510035-1.0423823-1.8069299-2.5233086-1.8054006-4.0761665l-.0000027-1.5h10.7200027c.1833419.3983508.2788358.831484.28 1.27z" fill="#f3d55b"/><path id="Path" d="m55.72 10h-10.72l-3-5h9l4.1 4.1c.2586648.26064209.4686363.56543939.62.9z" fill="#f0c419"/><path id="Path" d="m25 5-1 5h-11l3-5z" fill="#df4d60"/><path id="Path" d="m45 10h-11l-1-5h9z" fill="#df4d60"/><rect id="Rectangle" fill="#bdc3c7" height="4" rx="1" width="58" y="54"/><path id="Path" d="m24 10v1.5c0 3.0375661-2.4624339 5.5-5.5 5.5s-5.5-2.4624339-5.5-5.5v-1.5z" fill="#ff5364"/><path id="Path" d="m34 10h-10l1-5h8z" fill="#f0c419"/><path id="Path" d="m34 10v1.78c.0426688 2.6298059-1.9005861 4.8703658-4.51 5.2-1.4046722.1358253-2.8014559-.3273101-3.8467101-1.2754642-1.0452542-.948154-1.6419512-2.2933127-1.6432899-3.7045358v-2z" fill="#f3d55b"/><path id="Path" d="m45 10v1.5c-.0000001 3.0375661-2.4624339 5.4999998-5.5 5.4999998s-5.4999999-2.4624337-5.5-5.4999998v-1.5z" fill="#ff5364"/><path id="Path" d="m44.54 52.54c-1.9572931 1.9497573-5.1227069 1.9497573-7.08 0l-9.21-9.21 4.31-4.31c1.8874407.7446882 3.9596483.8844662 5.93.4l6.05 6.05c1.9519097 1.9524993 1.9519097 5.1175007 0 7.07z" fill="#e64c3c"/><path id="Path" d="m41 50c-.2651948-.0000566-.5195073-.1054506-.707-.293l-9.211-9.207c-.3907414-.3915699-.3900698-1.0257585.0015-1.4165.3915699-.3907414 1.0257585-.3900699 1.4165.0015l9.211 9.21c.2849953.2866948.3693477.7167796.2137591 1.089886-.1555887.3731065-.520512.6158393-.9247591.615114z" fill="#c03a2b"/><path id="Path" d="m26.98 33.44-2.38 2.38-6.93-7.02-2.8-1.4c-.4679506-.237283-.8390601-.6295987-1.05-1.11l-1.73-4.04c-.1820754-.4152061-.0907571-.8995902.23-1.22l.71-.71c.3204098-.3207571.8047939-.4120754 1.22-.23l4.04 1.73c.4804013.2109399.872717.5820494 1.11 1.05l1.41 2.81 5.61 5.68c.1111689.7114872.2989263 1.4088718.56 2.08z" fill="#ecf0f1"/><path id="Path" d="m43.12 36.81c-2.7655395 2.7743702-6.9140312 3.6425678-10.56 2.21l-13.83 13.83c-1.5466661 1.5063412-4.0167555 1.4900291-5.5433923-.0366077s-1.5429489-3.9967262-.0366077-5.5433923l13.83-13.83c-.2610737-.6711282-.4488311-1.3685128-.56-2.08-.4702062-2.9896431.462763-6.0292384 2.5292573-8.2402701 2.0664943-2.2110318 5.0361784-3.3470543 8.0507427-3.0797299.5616637.0574988 1.0403004.4326411 1.2303309.9642994s.0576313 1.125203-.3403309 1.5257006l-2.78 2.79c-.4358733.4394998-.6427967 1.0565749-.56 1.67l.34 2.44c.1222644.8721993.8078007 1.5577356 1.68 1.68l2.44.34c.6134251.0827967 1.2305002-.1241267 1.67-.56l2.79-2.78c.3954991-.3986475.9843785-.5355387 1.5151628-.3522156s.9096621.6544598.9748372 1.2122156c.2690863 2.9059906-.7722023 5.7805337-2.84 7.84z" fill="#4482c3"/><path id="Path" d="m17.337 49.666c-.4043959-.0000863-.7689341-.2437275-.923678-.6173454-.1547439-.373618-.0692299-.8036603.216678-1.0896546l10.452-10.453c.3904653-.3915699 1.0244301-.3924653 1.416-.002s.3924653 1.0244301.002 1.416l-10.456 10.453c-.1874927.1875494-.4418052.2929434-.707.293z" fill="#285680"/></g></g></svg>