<svg height="512" viewBox="0 0 34 58" width="512" xmlns="http://www.w3.org/2000/svg"><g id="Page-1" fill="none" fill-rule="evenodd"><g id="060---Dead-Mobile" transform="translate(-1)"><rect id="Rectangle" fill="#90bae1" height="55" rx="3" width="34" x="1"/><path id="Path" d="m35 50v5c0 1.6568542-1.3431458 3-3 3h-28c-1.65685425 0-3-1.3431458-3-3v-5c0 1.6568542 1.34314575 3 3 3h28c1.6568542 0 3-1.3431458 3-3z" fill="#547580"/><path id="Path" d="m35 3v1c-5.7841375.65668136-11.3120196 2.75026357-16.08 6.09-.63.44-1.26.9-1.89 1.4-7.95 6.26-15.61 17.75-16.01 38.77-.01658959-.0856164-.02330014-.1728536-.02-.26v-47c0-1.65685425 1.34314575-3 3-3h4l2.86 3.05c.5663757.60708315 1.3597411.95123705 2.19.95h9.9c.8302589.00123705 1.6236243-.34291685 2.19-.95l2.86-3.05h4c1.6568542 0 3 1.34314575 3 3z" fill="#b0d3f0"/><path id="Path" d="m28 0-2.86 3.05c-.5663757.60708315-1.3597411.95123705-2.19.95h-9.9c-.8302589.00123705-1.6236243-.34291685-2.19-.95l-2.86-3.05z" fill="#547580"/><path id="Path" d="m13.707 18.293c-.3904999-.3903819-1.0235001-.3903819-1.414 0l-1.793 1.793-1.793-1.793c-.39237889-.3789722-1.01608478-.3735524-1.40181858.0121814-.38573379.3857338-.39115363 1.0094397-.01218142 1.4018186l1.793 1.793-1.793 1.793c-.25995658.2510745-.3642126.6228779-.27269716.9725073.09151544.3496295.3645604.6226744.71418984.7141899.34962943.0915154.72143285-.0127406.97250732-.2726972l1.793-1.793 1.793 1.793c.3923789.3789722 1.0160848.3735524 1.4018186-.0121814s.3911536-1.0094397.0121814-1.4018186l-1.793-1.793 1.793-1.793c.3903819-.3904999.3903819-1.0235001 0-1.414z" fill="#c03a2b"/><path id="Path" d="m26.914 21.5 1.793-1.793c.3789722-.3923789.3735524-1.0160848-.0121814-1.4018186s-1.0094397-.3911536-1.4018186-.0121814l-1.793 1.793-1.793-1.793c-.3923789-.3789722-1.0160848-.3735524-1.4018186.0121814s-.3911536 1.0094397-.0121814 1.4018186l1.793 1.793-1.793 1.793c-.2599566.2510745-.3642126.6228779-.2726972.9725073.0915155.3496295.3645604.6226744.7141899.7141899.3496294.0915154.7214328-.0127406.9725073-.2726972l1.793-1.793 1.793 1.793c.3923789.3789722 1.0160848.3735524 1.4018186-.0121814s.3911536-1.0094397.0121814-1.4018186z" fill="#c03a2b"/><path id="Path" d="m27 31.33v3.17c0 1.9329966-1.5670034 3.5-3.5 3.5s-3.5-1.5670034-3.5-3.5v-5.41z" fill="#e64c3c"/><path id="Path" d="m21.93 12.37c-.2085866.5094805-.7864732.7584163-1.3.56l-3.6-1.44-.88-.35-2.66 1.99c-.3443695.2631045-.7666417.4038619-1.2.4-.1305747-.0000431-.2609549-.0100724-.39-.03-.5562562-.1112898-1.0394354-.4527848-1.33-.94l-2.14-3.56h-7.43v-2h7.43c.70338149.00079773 1.35538737.36849872 1.72.97l2.14 3.56 2.66-1.99c.5567166-.41992874 1.2923573-.51851976 1.94-.26l2.03.81 2.45.98c.5094805.2085866.7584163.7864732.56 1.3z" fill="#285680"/><path id="Path" d="m35 42.92v2.16l-4.11 1.64c-.6476427.2585198-1.3832834.1599287-1.94-.26l-2.66-2-2.14 3.57c-.3646126.6015013-1.0166185.9692023-1.72.97h-6.43c-.5522847 0-1-.4477153-1-1s.4477153-1 1-1h6.43l2.14-3.56c.2894468-.4892101.7741913-.8313776 1.3320854-.9402816.5578942-.108904 1.1357347.0258411 1.5879146.3702816l2.66 1.99z" fill="#285680"/><path id="Path" d="m29 34c-.3053371.0003-.5940804-.1389155-.784-.378-.127-.159-3.016-3.622-10.216-3.622s-10.1 3.475-10.218 3.623c-.34603359.4214034-.96587255.4879133-1.39343397.1495181s-.50521334-.9569371-.17456603-1.3905181c.14-.182 3.537-4.382 11.786-4.382s11.646 4.2 11.786 4.382c.338519.4334631.2634624 1.0589346-.168 1.4-.1752394.1407873-.3932116.2176772-.618.218z" fill="#c03a2b"/></g></g></svg>