<svg height="512" viewBox="0 0 52 58" width="512" xmlns="http://www.w3.org/2000/svg"><g id="Page-1" fill="none" fill-rule="evenodd"><g id="061---Laptop-Drop-Damage"><path id="Path" d="m32.19 44.87 6.51 6.66c.2871654.2863561.3745351.7170288.2216643 1.0926541s-.5161473.6228954-.9216643.6273459l-5.59-.25-1.65 4.37c-.1954908.4902862-.7383718.7442144-1.24.58l-5.11-1.95-5.11 1.95c-.5016282.1642144-1.0445092-.0897138-1.24-.58l-1.65-4.37-5.59.25c-.405517-.0044505-.7687935-.2517206-.9216643-.6273459-.15287075-.3756253-.06550114-.806298.2216643-1.0926541l7.27-7.42z" fill="#f0c419"/><path id="Path" d="m47.31 19.43-12.765 14.5-14.785 12.52-2.37-2.34-16.61-16.33c-.49859426-.4823053-.78011236-1.1463036-.78011236-1.84s.2815181-1.3576947.78011236-1.84l23.79-23.34c1.049921-1.00983841 2.710079-1.00983841 3.76 0z" fill="#b0d3f0"/><path id="Path" d="m31 22v2c0 .5522847-.4477153 1-1 1h-4v4c0 .5522847-.4477153 1-1 1h-2c-.5522847 0-1-.4477153-1-1v-4h-4c-.5522847 0-1-.4477153-1-1v-2c0-.5522847.4477153-1 1-1h4v-4c0-.5522847.4477153-1 1-1h2c.5522847 0 1 .4477153 1 1v4h4c.5522847 0 1 .4477153 1 1z" fill="#e64c3c"/><path id="Path" d="m17.41 44.09-.02.02" fill="#f0c419"/><path id="Path" d="m50.59 26.82-18.4 18.05-4.84 4.75c-1.8971931 1.8398604-4.9128069 1.8398604-6.81 0l-1.32-1.3c-.1821161-.1753154-.2850194-.417212-.2850194-.67s.1029033-.4946846.2850194-.67l.54-.53 27.55-27.02.6-.59c.3778581-.3699484.9821419-.3699484 1.36 0l1.32 1.3c.9014524.8774449 1.4099508 2.0820151 1.4099508 3.34s-.5084984 2.4625551-1.4099508 3.34z" fill="#547580"/><path id="Path" d="m38.578 28 .7.7c.4984803.4819578.7799553 1.1456271.7799553 1.839s-.281475 1.3570422-.7799553 1.839l-6.26 6.14c-1.0450062 1.0200575-2.7129938 1.0200575-3.758 0l-.7-.7" fill="#3f5c6c"/></g></g></svg>