<svg height="512" viewBox="0 0 58 58" width="512" xmlns="http://www.w3.org/2000/svg"><g id="Page-1" fill="none" fill-rule="evenodd"><g id="062---No-Power-Computer" transform="translate(-1)"><path id="Path" d="m59 2.18v41.82h-58v-41.82c-.04521019-1.152631.84774936-2.12595691 2-2.18h54c1.1522506.05404309 2.0452102 1.027369 2 2.18z" fill="#90bae1"/><path id="Path" d="m57.39.04c-9.36.38-56.39 4.14-56.39 41.96v-39.82c-.04521019-1.152631.84774936-2.12595691 2-2.18h54c.1311216-.00207169.2620289.01135469.39.04z" fill="#b0d3f0"/><path id="Path" d="m41 54-11 2-11-2 3-6 8-2 8 2z" fill="#3f5c6c"/><path id="Path" d="m59 42v3.82c.0452102 1.152631-.8477494 2.1259569-2 2.18h-54c-1.15225064-.0540431-2.04521019-1.027369-2-2.18v-3.82z" fill="#547580"/><path id="Path" d="m47 56c-.0032948 1.1032019-.8967981 1.9967052-2 2h-30c-1.1011688-.0081672-1.9918328-.8988312-2-2 .0032948-1.1032019.8967981-1.9967052 2-2h30c1.1011688.0081672 1.9918328.8988312 2 2z" fill="#547580"/><path id="Path" d="m42.814 18.161-10.814 19.298c-.2376501.4199501-.7281507.6273986-1.1950057.5054063-.466855-.1219922-.7931673-.5428792-.7949943-1.0254063v-10.929h-11.6c-.5002275.0042429-.964709-.2587435-1.2184337-.6898692-.2537246-.4311257-.2581339-.9648723-.0115663-1.4001308l10.851-19.378c.2346409-.41883521.7218777-.6271843 1.1868003-.50749196s.7909786.53742019.7941997 1.01749196v10.959h11.542c.5121611.0010803.9855408.2730031 1.2444985.7148753s.2648541.987762.0155015 1.4351247z" fill="#f3d55b"/><path id="Path" d="m15 37c-.4043959-.0000863-.7689341-.2437275-.923678-.6173454-.1547439-.373618-.0692299-.8036603.216678-1.0896546l30-30c.2510745-.25995658.6228779-.3642126.9725073-.27269716.3496295.09151544.6226744.3645604.7141899.71418984.0915154.34962943-.0127406.72143285-.2726972.97250732l-30 30c-.1874927.1875494-.4418052.2929434-.707.293z" fill="#2980ba"/></g></g></svg>