<svg height="512" viewBox="0 0 58 58" width="512" xmlns="http://www.w3.org/2000/svg"><g id="Page-1" fill="none" fill-rule="evenodd"><g id="063---Shiny-New-Phone" transform="translate(-1)"><path id="Path" d="m40 0h4c1.6568542 0 3 1.34314575 3 3v49c0 1.6568542-1.3431458 3-3 3h-28c-1.6568542 0-3-1.3431458-3-3v-49c0-1.65685425 1.3431458-3 3-3z" fill="#90bae1"/><path id="Path" d="m47 50v5c0 1.6568542-1.3431458 3-3 3h-28c-1.6568542 0-3-1.3431458-3-3v-5c0 1.6568542 1.3431458 3 3 3h28c1.6568542 0 3-1.3431458 3-3z" fill="#547580"/><path id="Path" d="m47 3v1s-33.14 1.95-33.98 46.26c-.0165896-.0856164-.0233001-.1728536-.02-.26v-47c0-1.65685425 1.3431458-3 3-3h4l2.86 3.05c.5663757.60708315 1.3597411.95123705 2.19.95h9.9c.8302589.00123705 1.6236243-.34291685 2.19-.95l2.86-3.05h4c1.6568542 0 3 1.34314575 3 3z" fill="#b0d3f0"/><path id="Path" d="m40 0-2.86 3.05c-.5663757.60708315-1.3597411.95123705-2.19.95h-9.9c-.8302589.00123705-1.6236243-.34291685-2.19-.95l-2.86-3.05z" fill="#547580"/><g fill="#f3d55b"><path id="Path" d="m13.886 7.585 3 7.023c.0974659.2285219.2794781.4105341.508.508l7.023 3c.3551596.1512529.5856765.4999744.5856765.886s-.2305169.7347471-.5856765.886l-7.023 3c-.2285219.0974659-.4105341.2794781-.508.508l-3 7.023c-.1512529.3551596-.4999744.5856765-.886.5856765s-.7347471-.2305169-.886-.5856765l-3-7.023c-.09746589-.2285219-.27947812-.4105341-.508-.508l-7.023-3c-.35515963-.1512529-.58567653-.4999744-.58567653-.886s.2305169-.7347471.58567653-.886l7.023-3c.22852188-.0974659.41053411-.2794781.508-.508l3-7.023c.1512529-.35515963.4999744-.58567653.886-.58567653s.7347471.2305169.886.58567653z"/><path id="Path" d="m47.886 24.585 3 7.023c.0974659.2285219.2794781.4105341.508.508l7.023 3c.3551596.1512529.5856765.4999744.5856765.886s-.2305169.7347471-.5856765.886l-7.023 3c-.2285219.0974659-.4105341.2794781-.508.508l-3 7.023c-.1512529.3551596-.4999744.5856765-.886.5856765s-.7347471-.2305169-.886-.5856765l-3-7.023c-.0974659-.2285219-.2794781-.4105341-.508-.508l-7.023-3c-.3551596-.1512529-.5856765-.4999744-.5856765-.886s.2305169-.7347471.5856765-.886l7.023-3c.2285219-.0974659.4105341-.2794781.508-.508l3-7.023c.1512529-.3551596.4999744-.5856765.886-.5856765s.7347471.2305169.886.5856765z"/><path id="Path" d="m36.517 8.341 1.749 4.1c.057143.1352342.1647658.242857.3.3l4.1 1.749c.2071892.0883067.341648.2917769.341648.517s-.1344588.4286933-.341648.517l-4.1 1.749c-.1352342.057143-.242857.1647658-.3.3l-1.749 4.1c-.0883067.2071892-.2917769.341648-.517.341648s-.4286933-.1344588-.517-.341648l-1.749-4.1c-.057143-.1352342-.1647658-.242857-.3-.3l-4.1-1.749c-.2071892-.0883067-.341648-.2917769-.341648-.517s.1344588-.4286933.341648-.517l4.1-1.749c.1352342-.057143.242857-.1647658.3-.3l1.749-4.1c.0883067-.20718922.2917769-.34164801.517-.34164801s.4286933.13445879.517.34164801z"/><path id="Path" d="m24.517 35.341 1.749 4.1c.057143.1352342.1647658.242857.3.3l4.1 1.749c.2071892.0883067.341648.2917769.341648.517s-.1344588.4286933-.341648.517l-4.1 1.749c-.1352342.057143-.242857.1647658-.3.3l-1.749 4.1c-.0883067.2071892-.2917769.341648-.517.341648s-.4286933-.1344588-.517-.341648l-1.749-4.1c-.057143-.1352342-.1647658-.242857-.3-.3l-4.1-1.749c-.2071892-.0883067-.341648-.2917769-.341648-.517s.1344588-.4286933.341648-.517l4.1-1.749c.1352342-.057143.242857-.1647658.3-.3l1.749-4.1c.0883067-.2071892.2917769-.341648.517-.341648s.4286933.1344588.517.341648z"/></g></g></g></svg>