<svg height="512" viewBox="0 0 58 58" width="512" xmlns="http://www.w3.org/2000/svg"><g id="Page-1" fill="none" fill-rule="evenodd"><g id="064---Cracked-Desktop-Computer"><path id="Rectangle" d="m18 42h8v14h-8z" fill="#3f5c6c"/><path id="Path" d="m30 44v9c-.0024107.3359451.0311132.6711847.1 1l1.71 2.85c.8961945.7444733 2.0249236 1.1513819 3.19 1.15h18c2.7614237 0 5-2.2385763 5-5v-48c0-1.32608245-.5267842-2.59785201-1.4644661-3.53553391-.9376819-.93768189-2.2094515-1.46446609-3.5355339-1.46446609h-18c-2.7614237 0-5 2.23857625-5 5z" fill="#3b97d3"/><g fill="#9fc9d3"><rect id="Rectangle" height="4" rx="2" width="20" x="34" y="6"/><path id="Path" d="m44 14h8c1.1045695 0 2 .8954305 2 2s-.8954305 2-2 2h-8"/><path id="Path" d="m44 22h8c1.1045695 0 2 .8954305 2 2s-.8954305 2-2 2h-8"/></g><path id="Path" d="m44 31c2.209139 0 4 1.790861 4 4s-1.790861 4-4 4" fill="#65ddb9"/><path id="Path" d="m43.72 43.02c.0928761-.0119951.1863619-.0186726.28-.02 1.1045695 0 2 .8954305 2 2s-.8954305 2-2 2-2-.8954305-2-2c-.0010404-.3591204.0957575-.7117416.28-1.02" fill="#65ddb9"/><path id="Path" d="m38 54h-2c-.5522847 0-1-.4477153-1-1s.4477153-1 1-1h2c.5522847 0 1 .4477153 1 1s-.4477153 1-1 1z" fill="#285680"/><path id="Path" d="m45 54h-2c-.5522847 0-1-.4477153-1-1s.4477153-1 1-1h2c.5522847 0 1 .4477153 1 1s-.4477153 1-1 1z" fill="#285680"/><path id="Path" d="m52 54h-2c-.5522847 0-1-.4477153-1-1s.4477153-1 1-1h2c.5522847 0 1 .4477153 1 1s-.4477153 1-1 1z" fill="#285680"/><path id="Path" d="m1 18c-.55228475 0-1-.4477153-1-1v-5c.0032948-1.1032019.89679813-1.9967052 2-2h40c1.1032019.0032948 1.9967052.8967981 2 2v30c-.0032948 1.1032019-.8967981 1.9967052-2 2h-40c-1.10320187-.0032948-1.9967052-.8967981-2-2v-10.91c.00094669-.6601501.38820221-1.2586359.99-1.53h.01z" fill="#547580"/><path id="Path" d="m4 18v-3c0-.5522847.44771525-1 1-1h34c.5522847 0 1 .4477153 1 1v24c0 .5522847-.4477153 1-1 1h-34c-.55228475 0-1-.4477153-1-1z" fill="#90bae1"/><rect id="Rectangle" fill="#547580" height="4" rx="2" width="20" x="12" y="54"/><circle id="Oval" cx="22" cy="42" fill="#ecf0f1" r="2"/><path id="Path" d="m24.62 24.46-9.28 5.71c-.7870402.4899657-1.8084721.369553-2.46-.29l-2.91-2.91c-.58754321-.5836783-1.47327138-.7465252-2.23-.41l-3.74 1.66-3 1.34v-11.56h8.04c.60612959.0035404 1.1786998.2788145 1.56.75l2.8 3.5c.3799324.4729114.9533767.7486057 1.56.75h9.25c.3534554-.0009134.6641627.233928.7597245.5742212s-.0474663.7025535-.3497245.8857788z" fill="#285680"/></g></g></svg>