<svg height="512" viewBox="0 0 58 58" width="512" xmlns="http://www.w3.org/2000/svg"><g id="Page-1" fill="none" fill-rule="evenodd"><g id="065---Repair-CPU" transform="translate(0 -1)"><g fill="#f0c419"><path id="Path" d="m47 46h5c1.1045695 0 2 .8954305 2 2s-.8954305 2-2 2h-5"/><path id="Path" d="m7 50h-5c-1.1045695 0-2-.8954305-2-2s.8954305-2 2-2h5"/><path id="Path" d="m7 42h-5c-1.1045695 0-2-.8954305-2-2s.8954305-2 2-2h5"/><path id="Path" d="m7 34h-5c-1.1045695 0-2-.8954305-2-2s.8954305-2 2-2h5"/><path id="Path" d="m7 26h-5c-1.1045695 0-2-.8954305-2-2s.8954305-2 2-2h5"/><path id="Path" d="m7 18h-5c-1.1045695 0-2-.8954305-2-2s.8954305-2 2-2h5"/><path id="Path" d="m47 14h5c1.1045695 0 2 .8954305 2 2s-.8954305 2-2 2h-5"/><path id="Path" d="m47 22h5c1.1045695 0 2 .8954305 2 2s-.8954305 2-2 2h-5"/><path id="Path" d="m47 30h5c1.1045695 0 2 .8954305 2 2s-.8954305 2-2 2h-5"/><path id="Path" d="m7 34h-5c-1.1045695 0-2-.8954305-2-2s.8954305-2 2-2h5"/><path id="Path" d="m7 26h-5c-1.1045695 0-2-.8954305-2-2s.8954305-2 2-2h5"/><path id="Path" d="m7 18h-5c-1.1045695 0-2-.8954305-2-2s.8954305-2 2-2h5"/><path id="Path" d="m47 22h5c1.1045695 0 2 .8954305 2 2s-.8954305 2-2 2h-5"/><path id="Path" d="m47 30h5c1.1045695 0 2 .8954305 2 2s-.8954305 2-2 2h-5"/><path id="Path" d="m47 38h5c1.1045695 0 2 .8954305 2 2s-.8954305 2-2 2h-5"/><path id="Path" d="m45 52v5c0 1.1045695-.8954305 2-2 2s-2-.8954305-2-2v-5"/><path id="Path" d="m37 52v5c0 1.1045695-.8954305 2-2 2s-2-.8954305-2-2v-5"/><path id="Path" d="m29 52v5c0 1.1045695-.8954305 2-2 2s-2-.8954305-2-2v-5"/><path id="Path" d="m21 52v5c0 1.1045695-.8954305 2-2 2s-2-.8954305-2-2v-5"/><path id="Path" d="m13 52v5c0 1.1045695-.8954305 2-2 2s-2-.8954305-2-2v-5"/><path id="Path" d="m9 12v-5c0-1.1045695.8954305-2 2-2s2 .8954305 2 2v5"/><path id="Path" d="m17 12v-5c0-1.1045695.8954305-2 2-2s2 .8954305 2 2v5"/><path id="Path" d="m25 12v-5c0-1.1045695.8954305-2 2-2s2 .8954305 2 2v5"/><path id="Path" d="m29 52v5c0 1.1045695-.8954305 2-2 2s-2-.8954305-2-2v-5"/><path id="Path" d="m21 52v5c0 1.1045695-.8954305 2-2 2s-2-.8954305-2-2v-5"/><path id="Path" d="m13 52v5c0 1.1045695-.8954305 2-2 2s-2-.8954305-2-2v-5"/><path id="Path" d="m9 12v-5c0-1.1045695.8954305-2 2-2s2 .8954305 2 2v5"/><path id="Path" d="m17 12v-5c0-1.1045695.8954305-2 2-2s2 .8954305 2 2v5"/><path id="Path" d="m25 12v-5c0-1.1045695.8954305-2 2-2s2 .8954305 2 2v5"/><path id="Path" d="m33 12v-5c0-1.1045695.8954305-2 2-2s2 .8954305 2 2v5"/></g><path id="Path" d="m48 21.24v29.76c-.0032948 1.1032019-.8967981 1.9967052-2 2h-38c-1.10320187-.0032948-1.9967052-.8967981-2-2v-38c.0032948-1.1032019.89679813-1.9967052 2-2h29.76z" fill="#24ae5f"/><path id="Path" d="m44 20v24c-.0032948 1.1032019-.8967981 1.9967052-2 2h-4.26c-.569921-.0013968-1.1128343.2427321-1.49.67l-1.5 1.66c-.3771657.4272679-.920079.6713968-1.49.67h-12.52c-.569921.0013968-1.1128343-.2427321-1.49-.67l-1.5-1.66c-.3771657-.4272679-.920079-.6713968-1.49-.67h-4.26c-1.1032019-.0032948-1.9967052-.8967981-2-2v-24c.0032948-1.1032019.8967981-1.9967052 2-2h4.26c.569921.0013968 1.1128343-.2427321 1.49-.67l1.5-1.66c.3771657-.4272679.920079-.6713968 1.49-.67h12.52c.569921-.0013968 1.1128343.2427321 1.49.67l1.5 1.66c.3771657.4272679.920079.6713968 1.49.67h.27l5.99-1c.0650037.9989436.0650037 2.0010564 0 3z" fill="#bdc3c7"/><path id="Path" d="m23 26c0 .5522847-.4477153 1-1 1h-3.17c-.7963551.0042135-1.5607228-.3130713-2.12-.88l-.83-.83c-.1880896-.1881353-.4439821-.2926547-.71-.29h-5.17v-2h5.17c.7963551-.0042135 1.5607228.3130713 2.12.88l.83.83c.1880896.1881353.4439821.2926547.71.29h3.17c.2652165 0 .5195704.1053568.7071068.2928932s.2928932.4418903.2928932.7071068z" fill="#7f8c8d"/><path id="Path" d="m44 37v2h-5.17c-.2660179-.0026547-.5219104.1018647-.71.29l-.83.83c-.5592772.5669287-1.3236449.8842135-2.12.88h-3.17c-.5522847 0-1-.4477153-1-1s.4477153-1 1-1h3.17c.2660179.0026547.5219104-.1018647.71-.29l.83-.83c.5592772-.5669287 1.3236449-.8842135 2.12-.88z" fill="#7f8c8d"/><path id="Path" d="m56.48 9.878-8.159 8.147c.5751775 1.1885583.3343568 2.6110062-.6 3.544-.4085625.4052222-1.0674375.4052222-1.476 0l-8.814-8.813c-.4052222-.4085625-.4052222-1.0674375 0-1.476.5853614-.5792779 1.3764696-.9029131 2.2-.9.4640309-.003591.9227329.0990269 1.341.3l8.149-8.16c2.0318556-2.03213165 5.3263682-2.03235546 7.3584999-.00049991 2.0321317 2.03185556 2.0323556 5.32636816.0005001 7.35849991z" fill="#e64c3c"/><path id="Path" d="m46.383 13.615c-.4043959-.0000863-.7689341-.2437275-.923678-.6173454-.1547439-.373618-.0692299-.8036603.216678-1.0896546l6.418-6.417c.3923789-.37897221 1.0160848-.37355237 1.4018186.01218142.3857338.3857338.3911536 1.00943969.0121814 1.40181858l-6.418 6.417c-.1870531.1882061-.4416514.2937185-.707.293z" fill="#c03a2b"/><path id="Path" d="m43.34 18.67-11.9 11.89-1.34 2.69c-.231908.4449873-.6051372.8002761-1.061 1.01l-3.89 1.66c-.3976738.1642188-.8550692.0735284-1.16-.23l-.68-.68c-.3067196-.3036692-.3942352-.7651152-.22-1.16l1.65-3.88c.2061142-.4605295.5621176-.8376816 1.01-1.07l2.7-1.35 9.561-9.55 2.33-2.33" fill="#ecf0f1"/></g></g></svg>