<svg height="512" viewBox="0 0 40 58" width="512" xmlns="http://www.w3.org/2000/svg"><g id="Page-1" fill="none" fill-rule="evenodd"><g id="066---Mobile-Signal-Error"><path id="Path" d="m30 0h4c1.6568542 0 3 1.34314575 3 3v49c0 1.6568542-1.3431458 3-3 3h-28c-1.65685425 0-3-1.3431458-3-3v-49c0-1.65685425 1.34314575-3 3-3z" fill="#90bae1"/><path id="Path" d="m37 50v5c0 1.6568542-1.3431458 3-3 3h-28c-1.65685425 0-3-1.3431458-3-3v-5c0 1.6568542 1.34314575 3 3 3h28c1.6568542 0 3-1.3431458 3-3z" fill="#547580"/><path id="Path" d="m37 3v1s-33.14 1.95-33.98 46.26c-.01658959-.0856164-.02330015-.1728536-.02-.26v-47c0-1.65685425 1.34314575-3 3-3h4l2.86 3.05c.5663757.60708315 1.3597411.95123705 2.19.95h9.9c.8302589.00123705 1.6236243-.34291685 2.19-.95l2.86-3.05h4c1.6568542 0 3 1.34314575 3 3z" fill="#b0d3f0"/><path id="Path" d="m30 0-2.86 3.05c-.5663757.60708315-1.3597411.95123705-2.19.95h-9.9c-.8302589.00123705-1.6236243-.34291685-2.19-.95l-2.86-3.05z" fill="#547580"/><circle id="Oval" cx="20" cy="28" fill="#f0c419" r="20"/><g fill="#3b97d3"><path id="Path" d="m34 24c-.2569148.0000514-.5039937-.0987802-.69-.276-2.919-2.787-7.41-4.498-12.31-4.693-.3572656-.0142906-.6797687-.2180946-.8460254-.534641-.1662568-.3165464-.1510089-.6977443.04-1 .1910088-.3022558.5287598-.4796496.8860254-.465359 5.385.214 10.347 2.125 13.612 5.243.2977998.2820796.3931388.7174141.2404948 1.0981416-.1526439.3807275-.5223114.6296284-.9324948.6278584z"/><path id="Path" d="m6 24c-.4089046.0000818-.77666316-.2487956-.92860244-.6284236-.15193929-.379628-.0574445-.813514.23860244-1.0955764 3.275-3.127 8.252-5.039 13.652-5.244.3572656-.0135761.6946354.164478.8850254.467091.19039.3026131.2048756.6838109.038 1-.1668756.3161892-.4897598.5193329-.8470254.532909-4.92.188-9.42 1.9-12.348 4.694-.18631933.1764901-.43336155.2745909-.69.274z"/><path id="Path" d="m30 29c-.2762133-.0001332-.5400701-.1145073-.729-.316-2.4465088-2.4199767-5.7685239-3.7464019-9.209-3.677-.021 0-.044-.008-.062 0-.5522847 0-1-.4477153-1-1s.4477153-1 1-1h.068c3.9959277-.0893791 7.8526858 1.4688741 10.665 4.309.2730939.2912481.3467743.7170302.1874293 1.0831106s-.5211754.6022963-.9204293.6008894z"/><path id="Path" d="m10 29c-.39852749-.0001921-.75889605-.2369997-.91721946-.6027289-.15832342-.3657293-.08437342-.7905525.18821946-1.0812711 2.8123811-2.8400255 6.669094-4.3982604 10.665-4.309h.064c.5522847 0 1 .4477153 1 1s-.4477153 1-1 1c-.0205909-.002502-.0414091-.002502-.062 0-3.4404761-.0694019-6.7624912 1.2570233-9.209 3.677-.1889299.2014927-.4527867.3158668-.729.316z"/><path id="Path" d="m26 34c-.3147573 0-.6111456-.1481942-.8-.4-1.2074482-1.6131512-3.1000543-2.5685195-5.115-2.582-.029 0-.059 0-.086 0-.5522847.0033137-1.0026863-.4417153-1.006-.994s.4417153-1.0026863.994-1.006h.1c2.6433854.0156709 5.1272375 1.2670321 6.713 3.382.2272632.3030176.2638192.7084296.0944272 1.0472136s-.5156551.5527864-.8944272.5527864z"/><path id="Path" d="m14 34c-.3787721 0-.7250352-.2140024-.8944272-.5527864s-.132836-.744196.0944272-1.0472136c1.6143454-2.1324258 4.1364316-3.3829155 6.811-3.377.5522847.0033137.9973137.4537153.994 1.006s-.4537153.9973137-1.006.994h-.086c-2.0132897.0132309-3.9047312.9665351-5.113 2.577-.1888544.2518058-.4852427.4-.8.4z"/></g><path id="Path" d="m22.842 17.84v.16l-.722 13c-.0645502 1.122228-.9934171 1.999202-2.1175 1.999202s-2.0529498-.876974-2.1175-1.999202l-.723-13c-.0546319-1.0307033.4538443-2.0100037 1.3283252-2.5582893s1.9774822-.5793561 2.8814413-.0811673c.903959.4981887 1.4667571 1.4473123 1.4702335 2.4794566z" fill="#fff"/><circle id="Oval" cx="20" cy="39" fill="#fff" r="2"/></g></g></svg>