<svg height="512" viewBox="0 0 58 52" width="512" xmlns="http://www.w3.org/2000/svg"><g id="Page-1" fill="none" fill-rule="evenodd"><g id="067---Cracked-GPS"><path id="Path" d="m33 0h-8c-3.8659932 0-7 3.13400675-7 7l11 2 11-2c0-3.86599325-3.1340068-7-7-7z" fill="#3f5c6c"/><rect id="Rectangle" fill="#547580" height="45" rx="3" width="58" y="7"/><path id="Path" d="m53.82 12.17c-.328082-.710256-1.0376393-1.1663999-1.82-1.17h-46c-1.10320187.0032948-1.9967052.8967981-2 2v1c0 .5522847.44771525 1 1 1v11.56h-.01c-.60179779.2713641-.98905331.8698499-.99 1.53v13.91c-.00240653.5311671.20753427 1.0412743.58312996 1.41687.3755957.3755957.88570296.5855365 1.41687004.58313h46c.758944-.0004027 1.45227-.4303423 1.79-1.11.140881-.2753418.2129374-.5807235.21-.89v-29c.0033952-.2867043-.0581419-.5704591-.18-.83z" fill="#4fba6f"/><path id="Path" d="m41.34 36.52 12.45 6.37c-.33773.6796577-1.031056 1.1095973-1.79 1.11h-10.9l-26.55-13.6-8.46-4.33 5.65-2.51c.7567286-.3365252 1.6424568-.1736783 2.23.41l2.91 2.91c.6515279.659553 1.6729598.7799657 2.46.29l1.71-1.05 11.07 5.67c.9427278.4824672 2.0980942.1498617 2.64-.76l12.4-20.03h4.84c.7823607.0036001 1.491918.459744 1.82 1.17l-13.29 21.55c-.2798377.4752324-.3515675 1.0447487-.1983096 1.5745289.1532578.5297801.5179693.9730402 1.0083096 1.2254711z" fill="#f3d55b"/><path id="Path" d="m41.1 44.0000012-35.1-.0000012c-.3743404.0004032-.74139269-.1034796-1.06-.3l9.61-13.3z" fill="#3b97d3"/><path id="Path" d="m28.62 21.46-7.57 4.66-1.71 1.05c-.7870402.4899657-1.8084721.369553-2.46-.29l-2.91-2.91c-.5875432-.5836783-1.4732714-.7465252-2.23-.41l-5.65 2.51-1.09.49v-11.56h8.04c.6061296.0035404 1.1786998.2788145 1.56.75l2.8 3.5c.3799324.4729114.9533767.7486057 1.56.75h9.25c.3534554-.0009134.6641627.233928.7597245.5742212s-.0474663.7025535-.3497245.8857788z" fill="#285680"/><path id="Path" d="m32 11-6.19 9h-6.85c-.6066233-.0013943-1.1800676-.2770886-1.56-.75l-2.8-3.5c-.3813002-.4711855-.9538704-.7464596-1.56-.75h-8.04c-.55228475 0-1-.4477153-1-1v-1c.0032948-1.1032019.89679813-1.9967052 2-2z" fill="#9bc8c2"/></g></g></svg>