<svg height="512" viewBox="0 0 60 58" width="512" xmlns="http://www.w3.org/2000/svg"><g id="Page-1" fill="none" fill-rule="evenodd"><g id="068---Wireless-Charging-Error"><path id="Path" d="m28 50h4v7c0 .5522847-.4477153 1-1 1h-2c-.5522847 0-1-.4477153-1-1z" fill="#33907c"/><path id="Path" d="m33 47.8v3.2c0 .5522847-.4477153 1-1 1h-4c-.5522847 0-1-.4477153-1-1v-3.2z" fill="#14a085"/><path id="Path" d="m41 4.807c9.2358665 5.02967879 13.8838444 15.6831284 11.2887553 25.8745175-2.5950891 10.191389-11.7721542 17.3244924-22.2887553 17.3244924s-19.6936662-7.1331034-22.28875532-17.3244924c-2.5950891-10.1913891 2.05288882-20.84483871 11.28875532-25.8745175z" fill="#65ddb9"/><rect id="Rectangle" fill="#90bae1" height="40" rx="3" width="22" x="19"/><path id="Path" d="m41 3v1s-22 3-22 30v-31c0-1.65685425 1.3431458-3 3-3h16c1.6568542 0 3 1.34314575 3 3z" fill="#b0d3f0"/><path id="Path" d="m41 33v4c0 1.6568542-1.3431458 3-3 3h-16c-1.6568542 0-3-1.3431458-3-3v-4c0 1.6568542 1.3431458 3 3 3h16c1.6568542 0 3-1.3431458 3-3z" fill="#547580"/><path id="Path" d="m37 0-1.45 2.89c-.33773.67965768-1.031056 1.10959727-1.79 1.11h-7.52c-.758944-.00040273-1.45227-.43034232-1.79-1.11l-1.45-2.89z" fill="#547580"/><path id="Path" d="m3 37c-.41599598.0003139-.7887375-.2569415-.936-.646-2.75200009-7.3191956-2.75200009-15.3888044 0-22.708.12647202-.3344006.42173758-.5759275.77457299-.6335998.35283542-.0576723.7096366.0772717.936.354s.28789903.6531992.16142701.9875998c-2.58133343 6.8626226-2.58133343 14.4293774 0 21.292.09408224.24823.08560435.5236822-.02356546.7656565s-.31007191.4306119-.55843454.5243435c-.11329326.0420761-.23314597.0637444-.354.064z" fill="#3b97d3"/><path id="Path" d="m57 37c-.120854-.0002556-.2407067-.0219239-.354-.064-.2483626-.0937316-.4492647-.2823692-.5584345-.5243435s-.1176477-.5174265-.0235655-.7656565c2.5813334-6.8626226 2.5813334-14.4293774 0-21.292-.1955088-.5169385.0650615-1.0944912.582-1.29.5169385-.1955087 1.0944912.0650615 1.29.582 2.7520001 7.3191956 2.7520001 15.3888044 0 22.708-.1472625.3890585-.520004.6463139-.936.646z" fill="#3b97d3"/><g fill="#fff"><path id="Path" d="m32.526 10.524v.143l-.642 11.555c-.0563822.998167-.8822419 1.7786938-1.882 1.7786938s-1.8256178-.7805268-1.882-1.7786938l-.642-11.555c-.0517134-.91784157.3992977-1.79131304 1.1775709-2.28059654.7782731-.48928351 1.7609168-.51711989 2.5656405-.0726796.8047238.44444029 1.3044595 1.29097895 1.3047886 2.21027614z"/><circle id="Oval" cx="30" cy="30" r="2"/></g></g></g></svg>