<svg height="512" viewBox="0 0 58 58" width="512" xmlns="http://www.w3.org/2000/svg"><g id="Page-1" fill="none" fill-rule="evenodd"><g id="069---Broken-Computer-Cable"><path id="Path" d="m48 27v25c-.0032948 1.1032019-.8967981 1.9967052-2 2h-3c-1.1032019-.0032948-1.9967052-.8967981-2-2v-22c0-3.3137085-2.6862915-6-6-6h-3.17c-.3352153-.0004179-.6376088.2013226-.7659467.510998s-.0572955.666178.1799467.903002c.1555958.1553218.2430316.366148.2430316.586s-.0874358.4306782-.2430316.586c-.2372422.236824-.3082846.5933266-.1799467.903002s.4307314.5114159.7659467.510998h3.17c1.1032019.0032948 1.9967052.8967981 2 2v23c0 2.7614237 2.2385763 5 5 5h4c3.3137085 0 6-2.6862915 6-6v-25z" fill="#f29c1f"/><path id="Path" d="m25 28h-4c-1.1032019.0032948-1.9967052.8967981-2 2v23c0 2.7614237-2.2385763 5-5 5h-4c-3.3137085 0-6-2.6862915-6-6v-22h4v22c.0032948 1.1032019.89679813 1.9967052 2 2h3c1.1032019-.0032948 1.9967052-.8967981 2-2v-22c0-3.3137085 2.6862915-6 6-6h4c.2198694-.0001187.4307355.0873224.586.243l1.171 1.171c.1555958.1553218.2430316.366148.2430316.586s-.0874358.4306782-.2430316.586l-1.171 1.171c-.1552645.1556776-.3661306.2431187-.586.243z" fill="#f29c1f"/><path id="Path" d="m46 0c1.1045695 0 2 .8954305 2 2v9h-4v-9c0-1.1045695.8954305-2 2-2z" fill="#bdc3c7"/><path id="Path" d="m54 0c1.1045695 0 2 .8954305 2 2v9h-4v-9c0-1.1045695.8954305-2 2-2z" fill="#bdc3c7"/><path id="Path" d="m8 1c0-.55228475.44771525-1 1-1h2c.5522847 0 1 .44771525 1 1v13.43c-.0338498 1.7974473-.5520624 3.5524605-1.5 5.08-.98055667 1.6342803-1.4989977 3.5041242-1.5 5.41v6.08c0 .5522847-.44771525 1-1 1h-4c-.55228475 0-1-.4477153-1-1v-6.43c-.0010454-.5230895-.04789096-1.0450829-.14-1.56-.24356763-1.2439611-.70390565-2.4354242-1.36-3.52-.98055667-1.6342803-1.4989977-3.5041242-1.5-5.41v-13.08c0-.26521649.10535684-.5195704.29289322-.70710678s.44189029-.29289322.70710678-.29289322h2c.55228475 0 1 .44771525 1 1z" fill="#e64c3c"/><path id="Path" d="m8 1v5c0 .55228475-.44771525 1-1 1h-2c-.55228475 0-1-.44771525-1-1v-5z" fill="#ecf0f1"/><rect id="Rectangle" fill="#f3d55b" height="4" rx="1" width="4" x="4" y="11"/><path id="Path" d="m6 24c0 .5522847-.44771525 1-1 1h-2v-.43c-.0010454-.5230895-.04789096-1.0450829-.14-1.56.03597207-.0087446.07304074-.0121145.11-.01h2.03c.55228475 0 1 .4477153 1 1z" fill="#802f34"/><path id="Path" d="m6 28c0 .5522847-.44771525 1-1 1h-2v-2h2c.55228475 0 1 .4477153 1 1z" fill="#802f34"/><path id="Path" d="m57 12v7c0 1.6568542-1.3431458 3-3 3h-1v6c0 .5522847-.4477153 1-1 1h-4c-.5522847 0-1-.4477153-1-1v-6h-1c-1.6568542 0-3-1.3431458-3-3v-7z" fill="#3b97d3"/><path id="Path" d="m50 25c0 .5522847-.4477153 1-1 1h-2v-2h2c.5522847 0 1 .4477153 1 1z" fill="#285680"/><rect id="Rectangle" fill="#2980ba" height="4" rx="1" width="16" x="42" y="10"/></g></g></svg>