<svg height="512" viewBox="0 0 34 58" width="512" xmlns="http://www.w3.org/2000/svg"><g id="Page-1" fill="none" fill-rule="evenodd"><g id="070---Broken-In-Half-Mobile" transform="translate(-1)"><path id="Path" d="m35 36v16c0 1.6568542-1.3431458 3-3 3h-28c-1.65685425 0-3-1.3431458-3-3v-18c.00197429-.2651121.10580423-.5193164.29-.71l3-3c.39300794-.3899779 1.02699206-.3899779 1.42 0l3.58 3.59c.39300794.3899779 1.0269921.3899779 1.42 0l1.58-1.59c.3930079-.3899779 1.0269921-.3899779 1.42 0l2.58 2.59c.3930079.3899779 1.0269921.3899779 1.42 0l3.58-3.59c.3930079-.3899779 1.0269921-.3899779 1.42 0l1.58 1.59c.3930079.3899779 1.0269921.3899779 1.42 0l2.58-2.59c.3930079-.3899779 1.0269921-.3899779 1.42 0l5 5c.1841958.1906836.2880257.4448879.29.71z" fill="#90bae1"/><path id="Path" d="m35 50v5c0 1.6568542-1.3431458 3-3 3h-28c-1.65685425 0-3-1.3431458-3-3v-5c0 1.6568542 1.34314575 3 3 3h28c1.6568542 0 3-1.3431458 3-3z" fill="#547580"/><path id="Path" d="m28 0h4c1.6568542 0 3 1.34314575 3 3v23c.0023626.4062651-.2413038.77358-.6165185.929371-.3752147.1557909-.807391.0690889-1.0934815-.219371l-3.58-3.59c-.3930079-.3899779-1.0269921-.3899779-1.42 0l-2.58 2.59c-.3930079.3899779-1.0269921.3899779-1.42 0l-1.58-1.59c-.3930079-.3899779-1.0269921-.3899779-1.42 0l-3.58 3.59c-.3930079.3899779-1.0269921.3899779-1.42 0l-2.58-2.59c-.3930079-.3899779-1.0269921-.3899779-1.42 0l-1.58 1.59c-.3930079.3899779-1.02699206.3899779-1.42 0l-3.58-3.59c-.39300794-.3899779-1.02699206-.3899779-1.42 0l-1.58 1.59c-.28609046.2884599-.71826679.3751619-1.09348151.219371-.37521471-.155791-.61888111-.5231059-.61651849-.929371v-21c0-1.65685425 1.34314575-3 3-3z" fill="#90bae1"/><path id="Path" d="m4.17 30.41c-2.05934505 6.4165463-3.12171207 13.1111449-3.15 19.85-.01658959-.0856164-.02330014-.1728536-.02-.26v-16c.00197429-.2651121.10580423-.5193164.29-.71z" fill="#b0d3f0"/><path id="Path" d="m35 3v1c-12.2240648 1.50211147-22.8526867 9.0999007-28.23 20.18l-1.06-1.06c-.39300794-.3899779-1.02699206-.3899779-1.42 0l-1.58 1.59c-.28609046.2884599-.71826679.3751619-1.09348151.219371-.37521471-.155791-.61888111-.5231059-.61651849-.929371v-21c0-1.65685425 1.34314575-3 3-3h4l2.86 3.05c.5663757.60708315 1.3597411.95123705 2.19.95h9.9c.8302589.00123705 1.6236243-.34291685 2.19-.95l2.86-3.05h4c1.6568542 0 3 1.34314575 3 3z" fill="#b0d3f0"/><path id="Path" d="m28 0-2.86 3.05c-.5663757.60708315-1.3597411.95123705-2.19.95h-9.9c-.8302589.00123705-1.6236243-.34291685-2.19-.95l-2.86-3.05z" fill="#547580"/></g></g></svg>