<svg height="512" viewBox="0 0 58 58" width="512" xmlns="http://www.w3.org/2000/svg"><g id="Page-1" fill="none" fill-rule="evenodd"><g id="071---Broken-Laptop-Security"><path id="Path" d="m35.43 8h16.57c2.209139 0 4 1.790861 4 4v38h-54v-38c0-2.209139 1.790861-4 4-4z" fill="#90bae1"/><path id="Path" d="m52.95 8.12c-11.41.71-50.95 5.65-50.95 39.88v-36c0-2.209139 1.790861-4 4-4h46c.3205339-.00142005.6398873.03891933.95.12z" fill="#b0d3f0"/><path id="Path" d="m52 58h-46c-3.3137085 0-6-2.6862915-6-6v-3c0-.5522847.44771525-1 1-1h56c.5522847 0 1 .4477153 1 1v3c0 3.3137085-2.6862915 6-6 6z" fill="#547580"/><path id="Path" d="m19 48h20v2c0 1.6568542-1.3431458 3-3 3h-14c-1.6568542 0-3-1.3431458-3-3z" fill="#3f5c6c"/><path id="Path" d="m15 53h-3c-.5522847 0-1-.4477153-1-1s.4477153-1 1-1h3c.5522847 0 1 .4477153 1 1s-.4477153 1-1 1z" fill="#3f5c6c"/><circle id="Oval" cx="4" cy="52" fill="#65ddb9" r="1"/><circle id="Oval" cx="8" cy="52" fill="#65ddb9" r="1"/><path id="Path" d="m40 8c0 1.1045695-.8954305 2-2 2s-2-.8954305-2-2c-.0557321-2.18563786-1.8143621-3.94426794-4-4h-6c-2.209139 0-4 1.790861-4 4v8h-4v-8c0-4.418278 3.581722-8 8-8h6c4.418278 0 8 3.581722 8 8z" fill="#95a5a5"/><g fill="#f0c419"><path id="Path" d="m45 17v24c0 1.6568542-1.3431458 3-3 3h-7.323c-.4088272-.0002588-.7763252-.2493495-.928-.629l-3.479-8.7c-.161143-.4022623-.0448626-.8625391.288-1.14l4.549-3.791c.2239426-.1863039.3555147-.4609974.3603179-.7522642.0048033-.2912668-.11764-.5701493-.3353179-.7637358l-7.339-6.523c-.2060343-.1829481-.3274527-.4428017-.3355921-.7182176-.0081395-.2754158.0977214-.5419862.2925921-.7367824l5.957-5.957c.1881457-.1860834.442378-.2900058.707-.289h7.586c1.6568542 0 3 1.3431458 3 3z"/><path id="Path" d="m25.27 34.675 3.181 7.954c.1230375.3079694.0853903.6569033-.1005061.9315411-.1858963.2746378-.4958566.439249-.8274939.4394589h-11.523c-1.6568542 0-3-1.3431458-3-3v-24c0-1.6568542 1.3431458-3 3-3h10.586c.4043959.0000863.7689341.2437275.923678.6173454.1547439.373618.0692299.8036603-.216678 1.0896546l-4.543 4.543c-.1948707.1947962-.3007316.4613666-.2925921.7367824.0081394.2754159.1295578.5352695.3355921.7182176l7.339 6.523c.2176779.1935865.3401212.472469.3353179.7637358-.0048032.2912668-.1363753.5659603-.3603179.7522642l-4.549 3.791c-.3328626.2774609-.449143.7377377-.288 1.14z"/></g></g></g></svg>