<svg height="512" viewBox="0 0 58 58" width="512" xmlns="http://www.w3.org/2000/svg"><g id="Page-1" fill="none" fill-rule="evenodd"><g id="072---Key-Scratched-Mobile"><path id="Path" d="m27 0h4c1.6568542 0 3 1.34314575 3 3v49c0 1.6568542-1.3431458 3-3 3h-28c-1.65685425 0-3-1.3431458-3-3v-49c0-1.65685425 1.34314575-3 3-3z" fill="#90bae1"/><path id="Path" d="m34 50v5c0 1.6568542-1.3431458 3-3 3h-28c-1.65685425 0-3-1.3431458-3-3v-5c0 1.6568542 1.34314575 3 3 3h28c1.6568542 0 3-1.3431458 3-3z" fill="#547580"/><path id="Path" d="m34 3v1s-32.77.96-33.97 46.41c-.01993328-.1357579-.02995976-.2727865-.03-.41v-47c0-1.65685425 1.34314575-3 3-3h4l2.86 3.05c.5663757.60708315 1.3597411.95123705 2.19.95h9.9c.8302589.00123705 1.6236243-.34291685 2.19-.95l2.86-3.05h4c1.6568542 0 3 1.34314575 3 3z" fill="#b0d3f0"/><path id="Path" d="m27 0-2.86 3.05c-.5663757.60708315-1.3597411.95123705-2.19.95h-9.9c-.8302589.00123705-1.6236243-.34291685-2.19-.95l-2.86-3.05z" fill="#547580"/><path id="Path" d="m17 46h-11c-.55228475 0-1-.4477153-1-1s.44771525-1 1-1h11c.5522847 0 1 .4477153 1 1s-.4477153 1-1 1z" fill="#285680"/><g fill="#3b97d3"><path id="Path" d="m9.232 25.641c.22900724.27438.58699864.4057436.9391223.3446075.3521236-.0611361.6448836-.3054839.768-.641s.057885-.7112275-.1711223-.9856075l-.49-.587 4.474-5.114c.2645788-.2634421.3603604-.6523374.2483899-1.0085204-.1119706-.356183-.4130417-.6203228-.7807665-.6849925-.3677249-.0646697-.7408498.0809029-.9676234.3775129l-4.27 4.874-3.214-3.857c-.22900724-.27438-.58699864-.4057436-.9391223-.3446075-.35212365.0611361-.64488361.3054839-.76800001.641-.12311641.3355161-.05788495.7112275.17112231.9856075l3.417 4.1-1.4 1.6c-.26457882.2634421-.36036036.6523374-.24838986 1.0085204.11197051.356183.41304166.6203228.78076649.6849925.36772482.0646697.74084981-.0809029.96762337-.3775129l1.196-1.357z"/><path id="Path" d="m21.99 14.858c-.0784244-.5467619-.5852381-.9264244-1.132-.848s-.9264244.5852381-.848 1.132l1 7c.0507317.3536929.2863027.6534536.6179756.7863651.3316729.1329116.7090588.0787815.99-.142.2809412-.2207814.4227561-.5746722.3720244-.9283651z"/><path id="Path" d="m10.757 9.97 4 1c.0795104.0196732.1610923.029745.243.03.5047125-.0005564.929899-.377126.9914367-.8780733.0615377-.50094719-.259865-.96922976-.7494367-1.0919267l-4-1c-.5339666-.12972141-1.072566.19570268-1.2060974.72872921-.13353136.53302654.1880381 1.07393623.7200974 1.21127079z"/><path id="Path" d="m15.515 28.143c-.4733224-.2843303-1.0875154-.1312297-1.372.342l-6 10c-.19180407.3065026-.20321654.6926712-.02984758 1.0099658.17336895.3172946.50451389.5162906.86605974.5204443.36154584.0041536.69717512-.1871822.87778784-.5004101l6-10c.2843303-.4733224.1312297-1.0875154-.342-1.372z"/></g><path id="Path" d="m36.39 29.51-3.95 3.94c-.2844927.2874438-.7110889.3813732-1.09.24l-1.96-.72c-.3748238-.1580752-.8080493-.0733416-1.0956954.2143046-.2876462.2876461-.3723798.7208716-.2143046 1.0956954l.72 1.96c.137482.3791756.0440235.8036329-.24 1.09l-2.01 2c-.2821312.2911873-.7091716.3891324-1.09.25l-1.96-.72c-.3748238-.1580752-.8080493-.0733416-1.0956954.2143046-.2876462.2876461-.3723798.7208716-.2143046 1.0956954l.72 1.95c.1415049.3820848.0477967.811581-.24 1.1l-2.47 2.47c-.1988417.1928121-.463102.3035158-.74.31h-4.41c-.5764642.0011169-1.0456006-.4635515-1.05-1.04v-4.42c.0045616-.2743684.1157446-.5361865.31-.73l16.19-16.19 5.5 1.38z" fill="#d1d4d1"/><path id="Shape" d="m55.09 7.13c-4.0492816-5.11916051-11.1765301-6.61674314-16.9436921-3.56022088-5.767162 3.05652227-8.5292346 9.79531888-6.5663079 16.02022088l-1.08 1.09c-.8101475.8125666-.8101475 2.1274334 0 2.94l5.89 5.89c.8165714.8004 2.1234286.8004 2.94 0l1.08-1.09c5.666622 1.7947637 11.8408204-.3214499 15.2150263-5.2149678 3.3742058-4.8935178 3.1570942-11.4167033-.5350263-16.0750322zm-4.56 8.21c-1.1855055 1.1874241-2.96973 1.5434533-4.5201809.9019697-1.550451-.6414837-2.5615608-2.1540545-2.5615608-3.8319697s1.0111098-3.19048604 2.5615608-3.83196966c1.5504509-.64148361 3.3346754-.28545443 4.5201809.90196966.7794564.7758232 1.2176571 1.8302483 1.2176571 2.93s-.4382007 2.1541768-1.2176571 2.93z" fill="#e64c3c" fill-rule="nonzero"/></g></g></svg>