<svg height="512" viewBox="0 0 58 58" width="512" xmlns="http://www.w3.org/2000/svg"><g id="Page-1" fill="none" fill-rule="evenodd"><g id="073---SD-Card-Error"><path id="Path" d="m15.29 50h-5.29c-.55228475 0-1 .4477153-1 1s-.44771525 1-1 1h-5c-1.65685425 0-3-1.3431458-3-3v-23c0-.5522847.44771525-1 1-1h2c.55228475 0 1-.4477153 1-1v-9c0-.5522847-.44771525-1-1-1l-3-2v-10c.0032948-1.10320187.89679813-1.9967052 2-2h31.17c.5329123.00024132 1.0438267.21252266 1.42.59l5.82 5.82c.3774773.37617334.5897587.88708775.59 1.42v4.17c.0042757.2613244-.0955878.513614-.2775613.7012155-.1819735.1876016-.4311053.2951009-.6924387.2987845-.2703754-.0081149-.5325051.0936485-.726581.2820716-.1940758.1884231-.3035408.4474313-.303419.7179284v4c-.0042757.2613244.0955878.513614.2775613.7012155.1819735.1876016.4311053.2951009.6924387.2987845.2703754-.0081149.5325051.0936485.726581.2820716.1940758.1884231.3035408.4474313.303419.7179284v7.55z" fill="#547580"/><path id="Path" d="m4 13v6h-3c-.55228475 0-1-.4477153-1-1v-6h3c.55228475 0 1 .4477153 1 1z" fill="#3f5c6c"/><path id="Path" d="m35 16v8.11c-1.1919124.2408716-2.2449952.9321811-2.94 1.93l-13.97 19.96h-7.09c-1.65685425 0-3-1.3431458-3-3v-27z" fill="#f0c419"/><path id="Path" d="m35 11v5h-27v-5c0-1.65685425 1.34314575-3 3-3h21c1.6568542 0 3 1.34314575 3 3z" fill="#f5efca"/><path id="Path" d="m53.21 58h-34.42c-1.759915.0271236-3.3874808-.9313581-4.2173045-2.4835916-.8298236-1.5522336-.7228047-3.4380238.2773045-4.8864084l.44-.63 2.8-4 13.97-19.96c.6950048-.9978189 1.7480876-1.6891284 2.94-1.93 1.8852307-.4121197 3.8334477.3490258 4.94 1.93l1.06 1.51 16.15 23.08c1.0001092 1.4483846 1.1071281 3.3341748.2773045 4.8864084-.8298237 1.5522335-2.4573895 2.5107152-4.2173045 2.4835916z" fill="#e64c3c"/><g fill="#fff"><path id="Path" d="m38.526 32.524v.143l-.642 11.555c-.0563822.998167-.8822419 1.7786938-1.882 1.7786938s-1.8256178-.7805268-1.882-1.7786938l-.642-11.555c-.0517134-.9178416.3992977-1.791313 1.1775709-2.2805965.7782731-.4892835 1.7609168-.5171199 2.5656405-.0726796.8047238.4444402 1.3044595 1.2909789 1.3047886 2.2102761z"/><circle id="Oval" cx="36" cy="52" r="2"/></g></g></g></svg>