<svg height="512" viewBox="0 0 34 58" width="512" xmlns="http://www.w3.org/2000/svg"><g id="Page-1" fill="none" fill-rule="evenodd"><g id="074---Mobile-Camera-Error" transform="translate(-1)"><path id="Path" d="m28 0h4c1.6568542 0 3 1.34314575 3 3v49c0 1.6568542-1.3431458 3-3 3h-28c-1.65685425 0-3-1.3431458-3-3v-49c0-1.65685425 1.34314575-3 3-3z" fill="#90bae1"/><path id="Path" d="m35 50v5c0 1.6568542-1.3431458 3-3 3h-28c-1.65685425 0-3-1.3431458-3-3v-5c0 1.6568542 1.34314575 3 3 3h28c1.6568542 0 3-1.3431458 3-3z" fill="#547580"/><path id="Path" d="m35 3v1s-33.14 1.95-33.98 46.26c-.01658959-.0856164-.02330014-.1728536-.02-.26v-47c0-1.65685425 1.34314575-3 3-3h4l2.86 3.05c.5663757.60708315 1.3597411.95123705 2.19.95h9.9c.8302589.00123705 1.6236243-.34291685 2.19-.95l2.86-3.05h4c1.6568542 0 3 1.34314575 3 3z" fill="#b0d3f0"/><path id="Path" d="m28 0-2.86 3.05c-.5663757.60708315-1.3597411.95123705-2.19.95h-9.9c-.8302589.00123705-1.6236243-.34291685-2.19-.95l-2.86-3.05z" fill="#547580"/><g fill="#3b97d3"><path id="Path" d="m5 15c-.55228475 0-1-.4477153-1-1v-4c0-1.65685425 1.34314575-3 3-3h4c.5522847 0 1 .44771525 1 1s-.4477153 1-1 1h-4c-.55228475 0-1 .44771525-1 1v4c0 .5522847-.44771525 1-1 1z"/><path id="Path" d="m31 15c-.5522847 0-1-.4477153-1-1v-4c0-.55228475-.4477153-1-1-1h-4c-.5522847 0-1-.44771525-1-1s.4477153-1 1-1h4c1.6568542 0 3 1.34314575 3 3v4c0 .5522847-.4477153 1-1 1z"/><path id="Path" d="m11 41h-4c-1.65685425 0-3-1.3431458-3-3v-4c0-.5522847.44771525-1 1-1s1 .4477153 1 1v4c0 .5522847.44771525 1 1 1h4c.5522847 0 1 .4477153 1 1s-.4477153 1-1 1z"/><path id="Path" d="m29 41h-4c-.5522847 0-1-.4477153-1-1s.4477153-1 1-1h4c.5522847 0 1-.4477153 1-1v-4c0-.5522847.4477153-1 1-1s1 .4477153 1 1v4c0 1.6568542-1.3431458 3-3 3z"/></g><circle id="Oval" cx="18" cy="46" fill="#285680" r="3"/><circle id="Oval" cx="9" cy="47" fill="#285680" r="2"/><circle id="Oval" cx="27" cy="47" fill="#285680" r="2"/><path id="Path" d="m24.529 32h-13.058c-1.2689833-.0245214-2.42797055-.7257793-3.03852951-1.8384957-.61055895-1.1127163-.57946113-2.4669863.08152951-3.5505043l6.529-10.911c.6149491-1.0497724 1.7403717-1.6948106 2.957-1.6948106s2.3420509.6450382 2.957 1.6948106l6.529 10.916c.6584052 1.0832528.6880915 2.4356802.0778533 3.5467802-.6102383 1.1111-1.7674621 1.8116527-3.0348533 1.8372198z" fill="#e64c3c"/><circle id="Oval" cx="18" cy="28" fill="#fff" r="1"/><path id="Path" d="m18 25c-.5522847 0-1-.4477153-1-1v-5c0-.5522847.4477153-1 1-1s1 .4477153 1 1v5c0 .5522847-.4477153 1-1 1z" fill="#fff"/></g></g></svg>