<svg height="512" viewBox="0 0 58 46" width="512" xmlns="http://www.w3.org/2000/svg"><g id="Page-1" fill="none" fill-rule="evenodd"><g id="075---Dead-Tablet"><rect id="Rectangle" fill="#547580" height="46" rx="5" width="58"/><rect id="Rectangle" fill="#90bae1" height="38" rx="1" width="50" x="4" y="4"/><path id="Path" d="m53.18 4.02c-6.43.2-48.52 2.82-49.16 37.17-.01212462-.0626394-.01881616-.126209-.02-.19v-36c0-.55228475.44771525-1 1-1h48c.0604477.00170764.1206517.00839697.18.02z" fill="#b0d3f0"/><circle id="Oval" cx="56" cy="23" fill="#ecf0f1" r="2"/><path id="Path" d="m22.707 13.293c-.3904999-.3903819-1.0235001-.3903819-1.414 0l-2.293 2.293-2.293-2.293c-.3923789-.3789722-1.0160848-.3735524-1.4018186.0121814s-.3911536 1.0094397-.0121814 1.4018186l2.293 2.293-2.293 2.293c-.2599566.2510745-.3642126.6228779-.2726972.9725073.0915155.3496295.3645604.6226744.7141899.7141899.3496294.0915154.7214328-.0127406.9725073-.2726972l2.293-2.293 2.293 2.293c.3923789.3789722 1.0160848.3735524 1.4018186-.0121814s.3911536-1.0094397.0121814-1.4018186l-2.293-2.293 2.293-2.293c.3903819-.3904999.3903819-1.0235001 0-1.414z" fill="#c03a2b"/><path id="Path" d="m40.414 17 2.293-2.293c.3789722-.3923789.3735524-1.0160848-.0121814-1.4018186s-1.0094397-.3911536-1.4018186-.0121814l-2.293 2.293-2.293-2.293c-.3923789-.3789722-1.0160848-.3735524-1.4018186.0121814s-.3911536 1.0094397-.0121814 1.4018186l2.293 2.293-2.293 2.293c-.2599566.2510745-.3642126.6228779-.2726972.9725073.0915155.3496295.3645604.6226744.7141899.7141899.3496294.0915154.7214328-.0127406.9725073-.2726972l2.293-2.293 2.293 2.293c.3923789.3789722 1.0160848.3735524 1.4018186-.0121814s.3911536-1.0094397.0121814-1.4018186z" fill="#c03a2b"/><path id="Path" d="m39 27.11v3.89c0 2.209139-1.790861 4-4 4s-4-1.790861-4-4v-5.93z" fill="#e64c3c"/><path id="Path" d="m11 4v5.33l-2.92 1.75c-.44649142.2701197-.75847147.7158988-.85934861 1.2278979-.10087714.511999.0186904 1.0428042.32934861 1.4621021l1.63 2.17-1.48 3.69c-.1984163.5135268.05051946 1.0914134.56 1.3.11758391.0472538.2432805.0710343.37.07.40980385.0003967.7783727-.249279.93-.63l1.51-3.77c.235268-.5979814.1444794-1.2751132-.24-1.79l-1.58-2.1 2.85-1.71c.5571615-.3315696.8989757-.9316434.9-1.58v-5.42z" fill="#285680"/><path id="Path" d="m50.45 32.23-1.63-2.17 1.48-3.69c.1984163-.5135268-.0505195-1.0914134-.56-1.3-.246631-.0983792-.5222628-.0946309-.7661274.0104184-.2438647.1050494-.4359375.3027739-.5338726.5495816l-1.51 3.77c-.2402964.5973614-.1491669 1.2770359.24 1.79l1.58 2.1-2.85 1.71c-.5571615.3315696-.8989757.9316434-.9 1.58v5.42h2v-5.33l2.92-1.75c.4464914-.2701197.7584715-.7158988.8593486-1.2278979.1008771-.511999-.0186904-1.0428042-.3293486-1.4621021z" fill="#285680"/><path id="Path" d="m43.781 29.375c-.176-.219-4.42-5.375-14.781-5.375s-14.6 5.156-14.781 5.375c-.3462825.430506-.2780059 1.0602174.1525 1.4065.430506.3462825 1.0602175.2780059 1.4065-.1525.037-.047 3.887-4.629 13.222-4.629 1.6791516-.0062653 3.3545394.159263 5 .494v3.506c0 .5522847.4477153 1 1 1s1-.4477153 1-1v-2.993c2.357007.6372448 4.5035734 1.8864761 6.222 3.621.2238269.2784885.5792233.4164123.9323149.3618168s.6502353-.293416.7795-.6265.071012-.7098283-.1528149-.9883168z" fill="#c03a2b"/></g></g></svg>