<svg height="512" viewBox="0 0 44 58" width="512" xmlns="http://www.w3.org/2000/svg"><g id="Page-1" fill="none" fill-rule="evenodd"><g id="076---Holding-Broken-Mobile"><path id="Path" d="m36 27c-.0527419-2.0072564.2035887-4.0106824.76-5.94.4758122-1.4768684 1.9992863-2.3472223 3.5131632-2.0070544s2.5185671 1.7785999 2.3168368 3.3170544c-.19 1.58-1.59 3.63-1.59 7.63 0 7 1 7 1 12 .035984 2.9433438-.4272448 5.8714913-1.37 8.66-.2014662.5608992-.0869824 1.1867439.3 1.64 1.28 1.54 2.73 3.28 2.74 3.29.351015.4418156.4215034 1.0443219.1819493 1.5552293s-.7478121.8420514-1.3119493.8547707h-23.71c-.5303401.0015621-1.0388166-.2112047-1.41-.59l-6.42-6.41z" fill="#fdd7ad"/><path id="Path" d="m30 0h3c1.6568542 0 3 1.34314575 3 3v42c0 1.6568542-1.3431458 3-3 3h-24c-.17446899-.0012931-.3484812-.018025-.52-.05l-2.48-5.95v-39c0-1.65685425 1.34314575-3 3-3z" fill="#90bae1"/><path id="Path" d="m36 3v1s-27.29 0-29.81 36.45l-.19-.45v-37c0-1.65685425 1.34314575-3 3-3h3l2.86 3.05c.5663757.60708315 1.3597411.95123705 2.19.95h7.9c.8302589.00123705 1.6236243-.34291685 2.19-.95l2.86-3.05h3c1.6568542 0 3 1.34314575 3 3z" fill="#b0d3f0"/><path id="Path" d="m30 0-2.86 3.05c-.5663757.60708315-1.3597411.95123705-2.19.95h-7.9c-.8302589.00123705-1.6236243-.34291685-2.19-.95l-2.86-3.05z" fill="#547580"/><path id="Path" d="m36 43v5c0 1.6568542-1.3431458 3-3 3h-24c-1.65685425 0-3-1.3431458-3-3v-1.01c.94509132.067904 1.86603392-.3182977 2.48-1.04.1715188.031975.34553101.0487069.52.05h24c1.6568542 0 3-1.3431458 3-3z" fill="#547580"/><path id="Path" d="m27 12c0 .5522847-.4477153 1-1 1h-2.59l1.3 1.29c.3899779.3930079.3899779 1.0269921 0 1.42-.3943361.3867403-1.0256639.3867403-1.42 0l-4.28-4.28c-.267438-.2759898-.6356929-.4312345-1.02-.43h-3.88c-.9944299.0012779-1.9414488-.4248806-2.6-1.17l-5.51-6.31v-.52c-.00009789-.65381073.21418038-1.28962003.61-1.81l6.41 7.32c.2757645.31275033.6730383.4913413 1.09.49h3.88c.915051-.00003585 1.7926783.3632443 2.44 1.01l.98.99h4.59c.5522847 0 1 .4477153 1 1z" fill="#285680"/><path id="Path" d="m31.71 26.71c-.3943361.3867403-1.0256639.3867403-1.42 0l-3.41-3.42c-.191743-.182565-.4452731-.2861196-.71-.29h-5.21c-.8331704.0015222-1.6453881-.2610481-2.32-.75l-12.64-9.02v-2.46l13.8 9.86c.3388148.2408958.7442763.370224 1.16.37h5.21c.7963551-.0042135 1.5607228.3130713 2.12.88l3.42 3.41c.3899779.3930079.3899779 1.0269921 0 1.42z" fill="#285680"/><path id="Path" d="m24.684 31.052-4.684 1.561v-3.373c.0029382-1.1386162-.6421338-2.1797306-1.663-2.684l-8.892-4.447c-.4932118-.2416824-1.08903579-.0403425-1.33455502.4509705-.24551923.4913131-.04882951 1.0886883.44055502 1.3380295l8.892 4.447c.3406063.1683039.5564217.5150809.557.895v4.677l-.986 5.919c-.0903105.5444915.2775908 1.0591952.822 1.15.0541434.0095203.1090264.0142054.164.014.4884397-.0007134.9048963-.354173.985-.836l.9-5.406 5.429-1.81c.5246705-.174522.8085219-.7413295.634-1.266-.174522-.5246705-.7413295-.808522-1.266-.634z" fill="#285680"/><g fill="#fdd7ad"><path id="Path" d="m11.57 25.96c-.9530106 1.332455-2.79517955 1.6609382-4.15.74l-.82-.57c-.18-.13-.39-.27-.6-.42-.88-.61-1.84-1.28-1.84-1.29-1.31402754-.9601024-1.64006364-2.7841422-.74-4.14.58290588-.8405525 1.55836643-1.3207211 2.58-1.27.56374238.0202093 1.10935258.2043962 1.57.53l3.26 2.27c1.3487177.9426804 1.6797691 2.7992521.74 4.15z"/><path id="Path" d="m10.59 32.56c-.95364361 1.3258479-2.79039872 1.6497202-4.14.73l-.45-.31-.37-.26-2.44-1.7c-1.31442811-.964317-1.64011437-2.7908008-.74-4.15.79184602-1.1372722 2.26422821-1.5769131 3.55-1.06.21189978.0826751.41329449.1900856.6.32l.82.57 2.44 1.71c.649227.4518811 1.0913722 1.144077 1.2284093 1.9231232.137037.7790462-.042357 1.5805731-.4984093 2.2268768z"/><path id="Path" d="m9.62 39.15c-.82220706 1.1414913-2.32559397 1.5609446-3.62 1.01-.19016415-.065177-.36898477-.1596483-.53-.28l.53.37 1.92 1.34c.64856532.4523986 1.09017978 1.1445375 1.22717403 1.9233405.13699425.7788029-.04192026 1.5800952-.49717403 2.2266595-.05051095.0747668-.10738926.1450283-.17.21-.61396608.7217023-1.53490868 1.107904-2.48 1.04-.53910638-.0280344-1.0592173-.2083396-1.5-.52 0 0-3.25-2.26-3.25-2.27-1.31356056-.960394-1.63952456-2.7840304-.74-4.14.93177118-1.3485262 2.77921348-1.6884914 4.13-.76l-2.42-1.69c-1.31442811-.964317-1.64011437-2.7908008-.74-4.15.94268037-1.3487177 2.79925211-1.6797691 4.15-.74l.37.26.45.31 2.44 1.71c.6490062.4520538 1.09097428 1.1442307 1.227997 1.9231957.1370228.778965-.0422112 1.5804135-.497997 2.2268043z"/></g></g></g></svg>