<svg height="512" viewBox="0 0 58 59" width="512" xmlns="http://www.w3.org/2000/svg"><g id="Page-1" fill="none" fill-rule="evenodd"><g id="077---Computer-Repairing-Mobile"><path id="Path" d="m45 59h-32c-2.7600532-.0033061-4.99669388-2.2399468-5-5v-15c0-.5522847.44771525-1 1-1s1 .4477153 1 1v15c0 1.6568542 1.3431458 3 3 3h32c1.6568542 0 3-1.3431458 3-3v-1c0-.5522847.4477153-1 1-1s1 .4477153 1 1v1c-.0033061 2.7600532-2.2399468 4.9966939-5 5z" fill="#2980ba"/><path id="Path" d="m19 43 2-4h8l2 4z" fill="#3f5c6c"/><rect id="Rectangle" fill="#547580" height="4" rx="2" width="22" x="14" y="43"/><path id="Path" d="m54 21h2c1.1032019.0032948 1.9967052.8967981 2 2v26c-.0032948 1.1032019-.8967981 1.9967052-2 2h-14c-1.1 0-2-1.9-2-3v-25c.0032948-1.1032019.8967981-1.9967052 2-2z" fill="#b0d3f0"/><path id="Path" d="m54 21-1.45 2.89c-.33773.6796577-1.031056 1.1095973-1.79 1.11h-3.52c-.758944-.0004027-1.45227-.4303423-1.79-1.11l-1.45-2.89z" fill="#547580"/><path id="Path" d="m50 3v18h-8c-1.1032019.0032948-1.9967052.8967981-2 2v16h-37c-1.65685425 0-3-1.3431458-3-3v-33c0-1.65685425 1.34314575-3 3-3h44c1.6568542 0 3 1.34314575 3 3z" fill="#547580"/><path id="Path" d="m46 5v16h-4c-1.1032019.0032948-1.9967052.8967981-2 2v10h-35c-.55228475 0-1-.4477153-1-1v-27c0-.55228475.44771525-1 1-1h40c.5522847 0 1 .44771525 1 1z" fill="#90bae1"/><path id="Path" d="m45.16 4.02c-5.86.18-40.43 2.37-41.14 28.16-.01160303-.0593483-.01829236-.1195523-.02-.18v-27c0-.55228475.44771525-1 1-1h40c.0541287-.00388431.108493.00291122.16.02z" fill="#b0d3f0"/><path id="Path" d="m33.222 18.384c-1.7090209 1.7117277-4.2702432 2.2473774-6.522 1.364l-8.54 8.54c-.9523472.945229-2.4897559.9423455-3.4385507-.0064493s-.9516783-2.4862035-.0064493-3.4385507l8.54-8.541c-.7700874-1.959199-.4715586-4.1773787.7890958-5.8632748 1.2606544-1.68589612 3.3039112-2.59942903 5.4009042-2.4147252.3497352.03162462.6491372.26377709.7668646.59461701.1177275.33083992.0322776.69993968-.2188646.94538299l-1.717 1.723c-.270466.2692964-.3989311.6498789-.347 1.028l.213 1.51c.0745239.5377353.4972647.9604761 1.035 1.035l1.51.213c.3781514.0522512.7588735-.076261 1.028-.347l1.723-1.717c.243017-.2499513.6085246-.337077.9381647-.2236294.32964.1134475.5641142.4070605.6018353.7536294.1661496 1.7960147-.477712 3.5725007-1.756 4.845z" fill="#2980ba"/><path id="Path" d="m49 38c-.5522847 0-1-.4477153-1-1v-6c0-.5522847.4477153-1 1-1s1 .4477153 1 1v6c0 .5522847-.4477153 1-1 1z" fill="#fff"/><circle id="Oval" cx="49" cy="41" fill="#fff" r="1"/><path id="Path" d="m58 47v4c-.0032948 1.1032019-.8967981 1.9967052-2 2h-14c-1.1032019-.0032948-1.9967052-.8967981-2-2v-4c.0032948 1.1032019.8967981 1.9967052 2 2h14c1.1032019-.0032948 1.9967052-.8967981 2-2z" fill="#547580"/></g></g></svg>