<svg height="512" viewBox="0 0 58 58" width="512" xmlns="http://www.w3.org/2000/svg"><g id="Page-1" fill="none" fill-rule="evenodd"><g id="078---Cracked-Fan"><path id="Path" d="m58 36v-33c0-1.65685425-1.3431458-3-3-3h-52c-1.65685425 0-3 1.34314575-3 3v8.39c.00058774.6880681.38687738 1.3177202 1 1.63v7.98c-.55228475 0-1 .4477153-1 1v33c0 1.6568542 1.34314575 3 3 3h52c1.6568542 0 3-1.3431458 3-3v-8.39c-.0005877-.6880681-.3868774-1.3177202-1-1.63v-7.98c.2652165 0 .5195704-.1053568.7071068-.2928932s.2928932-.4418903.2928932-.7071068z" fill="#3b97d3"/><path id="Path" d="m52 29c.0058436 3.6647916-.8723208 7.276929-2.56 10.53-.3575177.3033511-.8111282.4699112-1.28.47h-6.33c-.3686621.001126-.6922859.2455733-.7941772.5998772-.1018913.3543038.0424344.7333248.3541772.9301228l4.62 2.94c-7.7597017 8.542242-20.6496571 10.0083134-30.1294909 3.4268533-9.47983392-6.5814601-12.61168356-19.1708141-7.3205091-29.4268533.35751774-.3033511.81112815-.4699112 1.28-.47h6.33c.3686621-.001126.6922859-.2455733.7941772-.5998772.1018913-.3543038-.0424344-.7333248-.3541772-.9301228l-4.62-2.94c6.3898236-7.0320566 16.4468922-9.40947805 25.3090673-5.98288845 8.8621752 3.42658965 14.7038875 11.95132775 14.7009327 21.45288845z" fill="#2980ba"/><g fill="#285680"><path id="Path" d="m16.17 18h-6.33c-.52814504-.0004215-1.03501707.2080791-1.41.58l-1.84 1.83c-.3711834.3787953-.87965994.5915621-1.41.59l-4.18.0000085v-7.9800085l3.78 1.92c.53605848.2385604 1.1636012.1233785 1.58-.29l2.07-2.06c.46042988-.4664476 1.18181644-.5535115 1.74-.21l6.44 4.09c.3117428.196798.4560685.575819.3541772.9301228-.1018913.3543039-.4255151.5987512-.7941772.5998772z"/><path id="Path" d="m57 36.9999915v7.9800085l-3.78-1.92c-.5360585-.2385604-1.1636012-.1233785-1.58.29l-2.07 2.06c-.4604299.4664476-1.1818164.5535115-1.74.21l-6.44-4.09c-.3117428-.196798-.4560685-.575819-.3541772-.9301228.1018913-.3543039.4255151-.5987512.7941772-.5998772h6.33c.528145.0004215 1.0350171-.2080791 1.41-.58l1.84-1.83c.3711834-.3787953.8796599-.5915621 1.41-.59z"/><circle id="Oval" cx="6" cy="6" r="2"/><circle id="Oval" cx="52" cy="52" r="2"/><circle id="Oval" cx="6" cy="52" r="2"/><circle id="Oval" cx="52" cy="6" r="2"/></g><path id="Path" d="m48 29c.0008176.8797719-.0593264 1.7585431-.18 2.63-.0982537.7690499-.632123 1.4120312-1.37 1.65-1.7700084.5132479-3.6074317.75599-5.45.72-1.7943186.0148402-3.5838872-.1866122-5.33-.6-1.0120326 1.5438504-2.5281853 2.6889167-4.29 3.24.4497913 2.8127802 1.4232968 5.5162082 2.87 7.97.3268835.5544056.368058 1.2319462.110715 1.8218555-.257343.5899094-.7819821 1.0206185-1.410715 1.1581445-2.1638763.4537522-4.3897224.5315554-6.58.23-.7690499-.0982537-1.4120312-.632123-1.65-1.37-.5132479-1.7700084-.75599-3.6074317-.72-5.45-.0148402-1.7943186.1866122-3.5838872.6-5.33-1.5438504-1.0120326-2.6889167-2.5281853-3.24-4.29-2.8127802.4497913-5.5162082 1.4232968-7.97 2.87-.5544056.3268835-1.2319462.368058-1.8218555.110715-.5899094-.257343-1.0206185-.7819821-1.1581445-1.410715-.45375223-2.1638763-.53155536-4.3897224-.23-6.58.0982537-.7690499.632123-1.4120312 1.37-1.65 1.7700084-.5132479 3.6074317-.75599 5.45-.72 1.7943186-.0148402 3.5838872.1866122 5.33.6 1.0120326-1.5438504 2.5281853-2.6889167 4.29-3.24-.4497913-2.8127802-1.4232968-5.5162082-2.87-7.97-.3268835-.5544056-.368058-1.2319462-.110715-1.8218555.257343-.5899094.7819821-1.0206185 1.410715-1.1581445 2.1638763-.45375223 4.3897224-.53155536 6.58-.23.7690499.0982537 1.4120312.632123 1.65 1.37.5132479 1.7700084.75599 3.6074317.72 5.45.0148402 1.7943186-.1866122 3.5838872-.6 5.33 1.5438504 1.0120326 2.6889167 2.5281853 3.24 4.29 2.8127802-.4497913 5.5162082-1.4232968 7.97-2.87.5544056-.3268835 1.2319462-.368058 1.8218555-.110715.5899094.257343 1.0206185.7819821 1.1581445 1.410715.2739715 1.2987769.4113853 2.6226418.41 3.95z" fill="#bdc3c7"/><circle id="Oval" cx="29" cy="29" fill="#7f8c8d" r="3"/></g></g></svg>