<svg height="512" viewBox="0 0 58 51" width="512" xmlns="http://www.w3.org/2000/svg"><g id="Page-1" fill="none" fill-rule="evenodd"><g id="079---Broken-DSLR"><path id="Path" d="m22 8v5h-10v-5c.0032948-1.10320187.8967981-1.9967052 2-2h6c1.1032019.0032948 1.9967052.89679813 2 2z" fill="#bdc3c7"/><path id="Rectangle" d="m16 6h2v7h-2z" fill="#95a5a5"/><path id="Path" d="m11.34 11h10.66l4.86-8.92c.7030006-1.28168049 2.0481815-2.07882476 3.51-2.08h9.26c1.4618185.00117524 2.8069994.79831951 3.51 2.08l4.86 8.92h1c4.9705627 0 9 4.0294373 9 9v23c0 2.7614237-2.2385763 5-5 5h-40v-25z" fill="#2980ba"/><path id="Path" d="m40.668 9h-11.344c-.3526996-.0001269-.67925-.18604196-.8593832-.48927304-.1801332-.30323107-.1872073-.67892975-.0186168-.98872696l1.639-3.01c.1756329-.32186683.5133332-.52180073.88-.521l8.071.009c.3661631.00013177.7029741.20037703.878.522l1.632 3c.1685905.30979721.1615164.68549589-.0186168.98872696-.1801332.30323108-.5066836.48914614-.8593832.48927304z" fill="#b0d3f0"/><path id="Path" d="m51.42 24.64c1.9199995-1.8255254 2.0827709-4.8317847.3711009-6.8539436-1.7116701-2.022159-4.7035239-2.3581647-6.8211009-.7660564z" fill="#3b97d3"/><path id="Path" d="m17 16.66c-.0015088 1.500608-.5985521 2.9392667-1.66 4l-2.34 2.34h-13v-5c0-3.8659932 3.13400675-7 7-7h4.34c1.5015321-.0013282 2.9419471.594565 4.0036911 1.6563089 1.0617439 1.061744 1.6576371 2.502159 1.6563089 4.0036911z" fill="#3b97d3"/><path id="Path" d="m13 23v25h-10c-1.65685425 0-3-1.3431458-3-3v-22z" fill="#84b5cb"/><path id="Path" d="m53 32c0 9.9411255-8.0588745 18-18 18s-18-8.0588745-18-18 8.0588745-18 18-18c4.7752799-.0045164 9.356275 1.8904564 12.7329093 5.2670907s5.2716071 7.9576294 5.2670907 12.7329093z" fill="#90bae1"/><path id="Path" d="m50.37 22.63c-7.0893554-4.3217772-16.2150183-3.2337577-22.0895536 2.6336569-5.8745352 5.8674146-6.973622 14.9917512-2.6604464 22.0863431-6.3740152-3.8856951-9.6881312-11.3024764-8.3304446-18.6430066 1.3576866-7.3405301 7.1053839-13.0812605 14.4475554-14.4300431 7.3421714-1.3487826 14.7549277 1.9743264 18.6328892 8.3530497z" fill="#b0d3f0"/><path id="Shape" d="m35 51c-3.0280832.0095808-6.0133478-.7151179-8.7-2.112-7.7959422-4.0154051-11.8311-12.8446267-9.7652554-21.3670958 2.0658446-8.522469 9.6959799-14.5240261 18.4652554-14.5240261s16.3994108 6.0015571 18.4652554 14.5240261c2.0658446 8.5224691-1.9693132 17.3516907-9.7652554 21.3670958-2.68661 1.3969947-5.6719027 2.1217002-8.7 2.112zm0-36c-7.8441583.0029077-14.6679159 5.3725243-16.5154428 12.9960059-1.8475268 7.6234816 1.7609079 15.5213073 8.7334428 19.1149941 4.8817701 2.5179821 10.6802299 2.5179821 15.562 0 6.9722041-3.5935153 10.5806706-11.4907948 8.73368-19.1140229-1.8469906-7.6232282-8.6698947-12.9931475-16.51368-12.9969771z" fill="#285680" fill-rule="nonzero"/><ellipse id="Oval" cx="8.5" cy="17" fill="#65ddb9" rx="2.5" ry="2"/><path id="Path" d="m35 24-3 3-4-1 1 5-2 2 3 2-1 3 4-2 3 4 1-3h3l-2-3 3-2-2-2 2-4-4 1z" fill="#285680"/><path id="Shape" d="m48.888 31.168c-.2206502-.1472282-.4907558-.2007572-.7508787-.1488077-.2601229.0519496-.488948.2051208-.6361213.4258077l-.909 1.366-5.051-1.685-1.324-1.326 1.605-3.211 2.3-2.3 1.486.99c.297245.1982824.6776931.2229246.9980332.0646441s.5319049-.4754371.555-.832-.1457882-.6983617-.4430332-.8966441l-1.487-.99c-.7937391-.5260571-1.8479346-.4215986-2.523.25l-2.22 2.225-3.047.761-1.441-2.161v-3.7c0-.5522847-.4477153-1-1-1s-1 .4477153-1 1v3.586l-2.307 2.307-3.181-.8-2.8-2.8c-.3923789-.3789722-1.0160848-.3735524-1.4018186.0121814s-.3911536 1.0094397-.0121814 1.4018186l2.786 2.786.835 4.178-1.333 1.329h-5.586c-.5522847 0-1 .4477153-1 1s.4477153 1 1 1h5.7l2.113 1.408-.684 2.052-3.833 3.833c-.2599566.2510745-.3642126.6228779-.2726972.9725073.0915155.3496295.3645604.6226744.7141899.7141899.3496294.0915154.7214328-.0127406.9725073-.2726972l3.885-3.885 3.105-1.554 2.3 3.065v3.667c0 .5522847.4477153 1 1 1s1-.4477153 1-1v-3.839l.721-2.161h1.927l4.727 3.781c.2790244.223291.655978.2807626.9888658.1507659.3328879-.1299968.5711366-.4277123.625-.781.0538635-.3532878-.0848414-.7084749-.3638658-.9317659l-4.88-3.9-1.358-2.038 1.761-1.181 4.811 1.6c.8566474.286954 1.7993044-.0360085 2.3-.788l.909-1.364c.3012473-.4588827.176275-1.0748175-.28-1.38zm-11.443 2c-.2206869.1471733-.3738581.3759984-.4258077.6361213-.0519495.2601229.0015795.5302285.1488077.7508787l.964 1.445h-1.132c-.4302393.0003267-.8120445.2758064-.948.684l-.4 1.189-1.852-2.473c-.2883628-.3884941-.8134915-.5148281-1.247-.3l-1.841.921.236-.71c.1426566-.4275053-.0182769-.8976116-.393-1.148l-1.986-1.323 1.138-1.138c.2351986-.2358182.3375549-.5732566.273-.9l-.69-3.45 2.468.616c.3405678.0849609.7007466-.0148568.949-.263l2.138-2.138 1.323 1.986c.2344613.3512301.6642855.5173168 1.074.415l1.891-.473-1.033 2.058c-.1921654.3850479-.1164429.8498553.188 1.154l1.138 1.138z" fill="#4482c3" fill-rule="nonzero"/></g></g></svg>