<svg height="512" viewBox="0 0 58 58" width="512" xmlns="http://www.w3.org/2000/svg"><g id="Page-1" fill="none" fill-rule="evenodd"><g id="080---Broken-Headphones" transform="translate(0 -1)"><path id="Path" d="m5 44v-20.6h4v15.819z" fill="#bdc3c7"/><path id="Path" d="m53 44v-20.6h-4v15.819z" fill="#bdc3c7"/><path id="Path" d="m36.679 32.144-1.541 1.53c-.4260699.4242431-1.1149301.4242431-1.541 0l-4.6-4.6-4.6 4.6c-.2000825.2084806-.4765412.3263363-.7655.3263363s-.5654175-.1178557-.7655-.3263363l-1.541-1.53c-.42315-.4265207-.42315-1.1144793 0-1.541l4.591-4.613-4.594-4.59c-.42315-.4265207-.42315-1.1144793 0-1.541l1.531-1.542c.4265207-.42315 1.1144793-.42315 1.541 0l4.6 4.6 4.6-4.6c.2027768-.2031049.4779982-.3172356.765-.3172356s.5622232.1141307.765.3172356l1.541 1.542c.4242431.4260699.4242431 1.1149301 0 1.541l-4.6 4.6 4.6 4.6c.2085313.2018395.3274197.4788682.3300511.7690708s-.1112141.5693416-.3160511.7749292z" fill="#e64c3c"/><path id="Path" d="m54 26.013c-.0071371.5511198-.458862.9925579-1.01.987h-4c-.5511152-.0054977-.9938854-.4558711-.99-1.007-.0646047-9.3895773-6.9550005-17.33468183-16.241-18.727-.2032935-.02717601-.3852602-.13999535-.5-.31l-.929-1.39c-.1936684-.28894617-.1555228-.67459448.091-.92l1.155-1.146c.2466857-.24482267.2852588-.630135.092-.919l-.646-.885c-.1051371-.1381646-.1180486-.32561641-.0328478-.4768913.0852008-.1512749.2521958-.23740002.4248478-.2191087 12.7505715 1.46564799 22.4248456 12.1794804 22.586 25.013z" fill="#3b97d3"/><path id="Path" d="m25.332 5.566.491.737c.1354236.20661172.1574986.46759207.0587031.69401517-.0987954.22642309-.3051321.38774033-.5487031.42898483-8.8640672 1.7683467-15.2677479 9.5185001-15.333 18.557.0029317.2676717-.10093842.525474-.28862021.7163464s-.44369673.2990731-.71137979.3006536h-3.99c-.55113801.0055579-1.00286286-.4358802-1.01-.987.05285392-12.3619314 9.1191983-22.83541522 21.346-24.659.2831757-.03947285.5640012.08637427.723.324l.6.9c.1932588.288865.1546857.67417733-.092.919l-1.153 1.149c-.2468426.24515228-.2854096.63082249-.092.92z" fill="#3b97d3"/><path id="Path" d="m5 44h-2c-1.65685425 0-3 1.3431458-3 3v2c0 1.6568542 1.34314575 3 3 3h2z" fill="#2980ba"/><path id="Path" d="m13 37v22h-2c-1.85651543 0-3.63699282-.7374979-4.94974747-2.0502525-1.31275465-1.3127547-2.05025253-3.0932321-2.05025253-4.9497475v-8c0-3.8659932 3.13400675-7 7-7z" fill="#3b97d3"/><path id="Path" d="m54 44v8c0 1.8565154-.7374979 3.6369928-2.0502525 4.9497475-1.3127547 1.3127546-3.0932321 2.0502525-4.9497475 2.0502525h-2v-22h2c3.8659932 0 7 3.1340068 7 7z" fill="#3b97d3"/><path id="Path" d="m53 44h2c1.6568542 0 3 1.3431458 3 3v2c0 1.6568542-1.3431458 3-3 3h-2z" fill="#2980ba"/><g fill="#3f5c6c"><path id="Path" d="m46 37v22h-2c-1.1032019-.0032948-1.9967052-.8967981-2-2v-18c.0032948-1.1032019.8967981-1.9967052 2-2z"/><path id="Path" d="m16 39v18c-.0032948 1.1032019-.8967981 1.9967052-2 2h-2v-22h2c1.1032019.0032948 1.9967052.8967981 2 2z"/></g></g></g></svg>