<svg height="512" viewBox="0 0 58 59" width="512" xmlns="http://www.w3.org/2000/svg"><g id="Page-1" fill="none" fill-rule="evenodd"><g id="081---Broken-TV" transform="translate(0 -1)"><path id="Path" d="m27.119 13.944c-.3882019.0001311-.7414024-.2244202-.906-.576l-5.119-10.944c-.2341687-.50036998-.01837-1.09583127.482-1.33s1.0958313-.01836998 1.33.482l5.118 10.945c.1444954.3095303.1209945.6714044-.0623214.9596459-.183316.2882415-.5010827.4629683-.8426786.4633541z" fill="#7f8c8d"/><path id="Path" d="m31.265 13.124c-.3420527.0001156-.6604346-.1746078-.8440481-.4632011-.1836135-.2885934-.2069823-.6510147-.0619519-.9607989l4.735-10.124c.2341687-.50036998.82963-.71616873 1.33-.482s.7161687.82963002.482 1.33l-4.735 10.124c-.1645976.3515798-.5177981.5761311-.906.576z" fill="#7f8c8d"/><path id="Path" d="m3 53h10v5c0 1.1045695-.8954305 2-2 2h-6c-1.1045695 0-2-.8954305-2-2z" fill="#464f5d"/><path id="Path" d="m45 53h10v5c0 1.1045695-.8954305 2-2 2h-6c-1.1045695 0-2-.8954305-2-2z" fill="#464f5d"/><rect id="Rectangle" fill="#f29c1f" height="40" rx="3" width="58" y="15"/><rect id="Rectangle" fill="#90bae1" height="32" rx="2" width="38" x="4" y="19"/><path id="Path" d="m40.46 19.06c-6.97.4-35.32 3.69-36.42 30.32-.02864713-.1245837-.04207853-.252182-.04-.38v-28c.0032948-1.1032019.89679813-1.9967052 2-2h34c.1553098-.0003955.3099879.0197799.46.06z" fill="#b0d3f0"/><circle id="Oval" cx="50" cy="30" fill="#f9eab0" r="3"/><circle id="Oval" cx="50" cy="40" fill="#f9eab0" r="3"/><g fill="#d25627"><path id="Path" d="m54 20h-8c-.5522847 0-1-.4477153-1-1s.4477153-1 1-1h8c.5522847 0 1 .4477153 1 1s-.4477153 1-1 1z"/><path id="Path" d="m54 24h-8c-.5522847 0-1-.4477153-1-1s.4477153-1 1-1h8c.5522847 0 1 .4477153 1 1s-.4477153 1-1 1z"/><path id="Path" d="m54 48h-8c-.5522847 0-1-.4477153-1-1s.4477153-1 1-1h8c.5522847 0 1 .4477153 1 1s-.4477153 1-1 1z"/><path id="Path" d="m54 52h-8c-.5522847 0-1-.4477153-1-1s.4477153-1 1-1h8c.5522847 0 1 .4477153 1 1s-.4477153 1-1 1z"/></g><path id="Path" d="m19 15c2.3008711-3.2184093 6.0447499-5.09034866 10-5 3.9552501-.09034866 7.6991289 1.7815907 10 5" fill="#bdc3c7"/><path id="Path" d="m24 27-3 3-4-1 1 5-2 2 3 2-1 3 4-2 3 4 1-3h3l-2-3 3-2-2-2 2-4-4 1z" fill="#285680"/><path id="Shape" d="m37.168 33.445-1.576 2.366-5.051-1.685-1.324-1.326 1.605-3.211 2.305-2.3 1.486.99c.4413004.2944565.9815116.4015145 1.5017574.2976154.5202457-.1038992.977896-.4102417 1.2722426-.8516154l1.445-2.168c.1982824-.297245.2229246-.6776931.0646441-.9980332s-.4754371-.5319049-.832-.555-.6983617.1457882-.8966441.4430332l-1.445 2.168-1.486-.99c-.7939522-.5266086-1.8487817-.4221287-2.524.25l-2.224 2.225-3.048.762-1.441-2.162v-3.7c0-.5522847-.4477153-1-1-1s-1 .4477153-1 1v3.586l-2.307 2.307-3.181-.8-2-2c-.7461061-.7435345-1.826695-1.0427921-2.849-.789l-2.9.725c-.53205934.1373346-.85362876.6782442-.72009737 1.2112708.13353139.5330265.67213082.8584506 1.20609737.7287292l2.9-.725c.3411931-.0857148.702329.0141577.951.263l1.985 1.985.836 4.178-1.335 1.33h-4.757c-.796304-.0019768-1.56034349.3145127-2.122.879l-1.414 1.414c-.25995658.2510745-.3642126.6228779-.27269716.9725073.09151544.3496295.3645604.6226744.71418984.7141899.34962943.0915154.72143285-.0127406.97250732-.2726972l1.414-1.414c.1877377-.1877946.4424587-.2932088.708-.293h4.871l2.113 1.408-.684 2.052-4.833 4.833c-.2599566.2510745-.3642126.6228779-.2726972.9725073.0915155.3496295.3645604.6226744.7141899.7141899.3496294.0915154.7214328-.0127406.9725073-.2726972l4.885-4.885 3.105-1.554 2.3 3.065v3.667c0 .5522847.4477153 1 1 1s1-.4477153 1-1v-3.837l.721-2.163h1.928l4.726 3.781c.2790244.223291.655978.2807627.9888659.1507659.3328879-.1299967.5711365-.4277123.625-.781.0538634-.3532878-.0848414-.7084749-.3638659-.9317659l-4.879-3.9-1.359-2.039 1.761-1.18 4.811 1.6c.2029258.0669377.4153203.1007047.629.1.6697166-.0005707 1.2951579-.3346643 1.668-.891l1.576-2.364c.1982824-.297245.2229246-.6776931.0646441-.9980332-.1582805-.32034-.4754371-.5319049-.832-.555s-.6983617.1457882-.8966441.4430332zm-10.723 2.723c-.2206869.1471733-.3738581.3759984-.4258077.6361213-.0519495.2601229.0015795.5302285.1488077.7508787l.963 1.445h-1.131c-.4306074-.0001037-.8129281.2754572-.949.684l-.4 1.189-1.851-2.473c-.2883628-.3884941-.8134915-.5148281-1.247-.3l-1.841.921.237-.71c.1424585-.4277311-.0189048-.8978962-.394-1.148l-1.985-1.318 1.137-1.138c.2351986-.2358182.3375549-.5732566.273-.9l-.689-3.45 2.466.616c.3408949.0865821.7021654-.0134328.95-.263l2.138-2.138 1.323 1.986c.234603.3516387.6649701.5177804 1.075.415l1.89-.473-1.028 2.056c-.1921654.3850479-.1164429.8498553.188 1.154l1.137 1.138z" fill="#4482c3" fill-rule="nonzero"/></g></g></svg>