<svg height="512" viewBox="0 0 58 58" width="512" xmlns="http://www.w3.org/2000/svg"><g id="Page-1" fill="none" fill-rule="evenodd"><g id="082---Repair-VR-Headset" transform="translate(0 -1)"><path id="Path" d="m3 36h3v14h-3c-1.65685425 0-3-1.3431458-3-3v-8c0-1.6568542 1.34314575-3 3-3z" fill="#464f5d"/><path id="Path" d="m55 36h3v14h-3c-1.6568542 0-3-1.3431458-3-3v-8c0-1.6568542 1.3431458-3 3-3z" fill="#464f5d" transform="matrix(-1 0 0 -1 110 86)"/><g fill="#2980ba"><path id="Path" d="m47 16 3.57-.22c.2853456.7052897.4313685 1.4591756.43 2.22l.0000095 10.41c-.6322771-.2699128-1.3125396-.4093666-2.0000095-.41h-2z"/><path id="Path" d="m42.58 15.67-.513.33h-11.337l-.73-3.98v-.02h7.579c.0182747.3194168.2001403.6067719.481.76z"/><path id="Path" d="m27 12v.02l-.47 3.98h-13.53c-1.1032019.0032948-1.9967052.8967981-2 2v10h-2c-.68746986.0006334-1.36773241.1400872-2 .41v-10.41c0-3.3137085 2.6862915-6 6-6z"/></g><path id="Path" d="m54 32v22c0 2.7614237-2.2385763 5-5 5h-40c-2.76142375 0-5-2.2385763-5-5v-22c.00455814-1.9885659 1.18046044-3.7876964 3-4.59.63226759-.2699128 1.31253014-.4093666 2-.41h40c.6874699.0006334 1.3677324.1400872 2 .41 1.8195396.8023036 2.9954419 2.6014341 3 4.59z" fill="#3b97d3"/><path id="Path" d="m31.22 31h17.78c.5522847 0 1 .4477153 1 1v22c0 .5522847-.4477153 1-1 1h-14.04c-.569921.0013968-1.1128343-.2427321-1.49-.67-1.1041672-1.3607957-2.7221119-2.2041538-4.47-2.33-1.7478881.1258462-3.3658328.9692043-4.47 2.33-.3771657.4272679-.920079.6713968-1.49.67h-14.04c-.55228475 0-1-.4477153-1-1v-22c0-.5522847.44771525-1 1-1z" fill="#9fc9d3"/><path id="Path" d="m33.47 22.53-4.47 4.47h-5l1.29-11 .47-3.98v-.02c.1530193-1.1429733 1.1268326-1.9971956 2.28-2h1.92c1.1531674.0028044 2.1269807.8570267 2.28 2v.02l.47 3.98z" fill="#285680"/><path id="Path" d="m43.34 18.67-8.34 8.33-3.56 3.56-1.34 2.69c-.2312214.4451489-.6042066.8005405-1.06 1.01l-3.89 1.66c-.3976738.1642188-.8550692.0735284-1.16-.23l-.68-.68c-.306193-.3039491-.3936427-.7650476-.22-1.16l1.65-3.88c.2061142-.4605295.5621176-.8376816 1.01-1.07l2.7-1.35.55-.55 4.47-4.47 4.54-4.53 2-2 3.99-4z" fill="#ecf0f1"/><path id="Path" d="m56.48 9.88-5.91 5.9-2.25 2.25c.5698188 1.1879984.3294597 2.6061166-.6 3.54-.1956544.1840413-.4515514.290665-.72.3-.2831636.0051317-.5566889-.1028388-.76-.3l-2.9-2.9-2.67-2.67-.33-.33-2.91-2.91c-.1983741-.1951314-.3100962-.4617401-.3100962-.74s.1117221-.5448686.3100962-.74c.5846197-.5803984 1.3762132-.9042321 2.2-.9.4639225-.005604.9227532.0971193 1.34.3l8.15-8.16c1.3147374-1.31473737 3.2310088-1.82820076 5.0269735-1.34697349 1.7959646.48122728 3.1987727 1.88403536 3.68 3.68.4812273 1.79596465-.0322361 3.71223612-1.3469735 5.02697349z" fill="#e64c3c"/><path id="Path" d="m46.383 13.615c-.4043959-.0000863-.7689341-.2437275-.923678-.6173454-.1547439-.373618-.0692299-.8036603.216678-1.0896546l6.418-6.417c.3923789-.37897221 1.0160848-.37355237 1.4018186.01218142.3857338.3857338.3911536 1.00943969.0121814 1.40181858l-6.418 6.417c-.1870531.1882061-.4416514.2937185-.707.293z" fill="#c03a2b"/></g></g></svg>