<svg height="512" viewBox="0 0 42 58" width="512" xmlns="http://www.w3.org/2000/svg"><g id="Page-1" fill="none" fill-rule="evenodd"><g id="083---Cracked-Blender"><path id="Path" d="m30.28 33.35 7.62-2.54c2.4482792-.8173518 4.0994746-3.1088888 4.1-5.69v-10.12c0-2.209139-1.790861-4-4-4h-4l-.91 4h3.91c.5522847 0 1 .4477153 1 1v8.4c-.0024109 1.2887148-.8276036 2.4319085-2.05 2.84l-4.64 1.55-2.31 2.21z" fill="#90bae1"/><path id="Path" d="m27 8h6.98c.4909507.00014967.9553127.22306728 1.2624811.60605575s.4239573.88467034.3175189 1.36394425l-6.56 29.03-9 2-9-2-5.68-25.16c-3.36-.02-5.33-2.4-5.32-4.86.01089134-.5444587.45543239-.98010892 1-.98h11.91l7.09-2z" fill="#b0d3f0"/><path id="Path" d="m32 58h-24c-.90414089.0001037-1.76010711-.4075678-2.32982789-1.1096283-.56972077-.7020606-.79242514-1.6236228-.60617211-2.5083717l2.737-13c.29227337-1.3883723 1.51719721-2.3821627 2.936-2.382h18.526c1.419178-.0006358 2.6446494.9932603 2.937 2.382l2.737 13c.1862892.8849203-.0365389 1.8066584-.6064871 2.5087601-.5699482.7021016-1.4261968 1.1096451-2.3305129 1.1092399z" fill="#e64c3c"/><circle id="Oval" cx="20" cy="49" fill="#ecf0f1" r="5"/><path id="Path" d="m20 48c-.5522847 0-1-.4477153-1-1v-3c0-.5522847.4477153-1 1-1s1 .4477153 1 1v3c0 .5522847-.4477153 1-1 1z" fill="#bdc3c7"/><path id="Path" d="m14.44 7.99 3 6.75c.3365252.7567286.1736783 1.6424568-.41 2.23l-2.91 2.91c-.659553.6515279-.7799657 1.6729598-.29 2.46l5.71 9.28c.1832253.3022582.5454856.4452863.8857788.3497245s.5751346-.4062691.5742212-.7597245v-9.25c.0013943-.6066233.2770886-1.1800676.75-1.56l3.5-2.8c.4711855-.3813002.7464596-.9538704.75-1.56v-8.04" fill="#285680"/><path id="Path" d="m26 4-6 2-6-2 .621-2.485c.2226204-.89062096 1.0229774-1.51532 1.941-1.515h6.876c.9180226-.00032 1.7183796.62437904 1.941 1.515z" fill="#c03a2b"/><path id="Path" d="m33 8h-26l.621-2.485c.22262043-.89062096 1.02297743-1.51532 1.941-1.515h20.876c.9180226-.00032 1.7183796.62437904 1.941 1.515z" fill="#e64c3c"/></g></g></svg>