<svg height="512" viewBox="0 0 30 58" width="512" xmlns="http://www.w3.org/2000/svg"><g id="Page-1" fill="none" fill-rule="evenodd"><g id="084---Broken-USB-Stick"><path id="Path" d="m25 2v12h-20v-12c.0032948-1.10320187.89679813-1.9967052 2-2h16c1.1032019.0032948 1.9967052.89679813 2 2z" fill="#bdc3c7"/><path id="Path" d="m30 39.41v3.16c.0897341 8.1109011-6.1761126 14.877313-14.27 15.41-4.0996826.1997546-8.10213543-1.2892016-11.07448288-4.1198287-2.97234745-2.8306272-4.65490797-6.7556252-4.65551712-10.8601713v-5.11c.00206033-.2621467.10606812-.5132.29-.7l1.24-1.24c.39300794-.3899779 1.02699206-.3899779 1.42 0l3.58 3.58c.39300794.3899779 1.02699206.3899779 1.42 0l1.58-1.58c.39300794-.3899779 1.0269921-.3899779 1.42 0l2.58 2.58c.3930079.3899779 1.0269921.3899779 1.42 0l3.58-3.58c.3930079-.3899779 1.0269921-.3899779 1.42 0l1.58 1.58c.3930079.3899779 1.0269921.3899779 1.42 0l2.58-2.58c.3930079-.3899779 1.0269921-.3899779 1.42 0l2.76 2.76c.1839319.1868.2879397.4378533.29.7z" fill="#e64c3c"/><path id="Path" d="m30 15v16.01c-.0010955.3618825-.2188335.6879114-.5526864.8275622-.3338529.1396509-.7188783.0657583-.9773136-.1875622l-1.52-1.52c-.3930079-.3899779-1.0269921-.3899779-1.42 0l-2.58 2.58c-.3930079.3899779-1.0269921.3899779-1.42 0l-1.58-1.58c-.3930079-.3899779-1.0269921-.3899779-1.42 0l-3.58 3.58c-.3930079.3899779-1.0269921.3899779-1.42 0l-2.58-2.58c-.3930079-.3899779-1.02699206-.3899779-1.42 0l-1.58 1.58c-.39300794.3899779-1.02699206.3899779-1.42 0l-3.58-3.58c-.39300794-.3899779-1.02699206-.3899779-1.42 0-.16302345.1669137-.38668406.2607069-.62.26-.24042276.0026715-.47191869-.0909689-.64287044-.2600421-.17095176-.1690732-.2671444-.3995203-.26712956-.6399579v-14.49z" fill="#e64c3c"/><path id="Path" d="m30 14v3h-30v-3c.0032948-1.1032019.89679813-1.9967052 2-2h26c1.1032019.0032948 1.9967052.8967981 2 2z" fill="#f29c1f"/><g fill="#7f8c8d"><rect id="Rectangle" height="4" rx="1" width="4" x="9" y="4"/><rect id="Rectangle" height="4" rx="1" width="4" x="17" y="4"/></g></g></g></svg>