<svg height="512" viewBox="0 0 58 58" width="512" xmlns="http://www.w3.org/2000/svg"><g id="Page-1" fill="none" fill-rule="evenodd"><g id="085---Repair-Printer"><path id="Path" d="m50 28v-11c0-1.1045695-.8954305-2-2-2h-38c-1.1045695 0-2 .8954305-2 2v11z" fill="#285680"/><path id="Path" d="m15 0h28c1.1045695 0 2 .8954305 2 2v26h-32v-26c0-1.1045695.8954305-2 2-2z" fill="#ecf0f1"/><path id="Path" d="m36.329 13.749c-1.5585763 1.5720991-3.8904171 2.0916749-5.969 1.33l-6.2 6.209c-.6120448.6368625-1.5204903.8932235-2.3751736.6702681-.8546834-.2229554-1.5221391-.8904111-1.7450945-1.7450945-.2229554-.8546833.0334056-1.7631288.6702681-2.3751736l6.209-6.2c-.6621985-1.83048416-.3444834-3.87233314.8425933-5.41506705 1.1870767-1.54273392 3.0793577-2.37301256 5.0184067-2.20193295.3268604.03419682.604721.25375536.7135745.56384901.1088536.31009366.0291938.65515414-.2045745.88615099l-1.609 1.619c-.2507644.25244829-.3691425.60758273-.32.96l.2 1.42c.0727422.50251728.4674827.8972578.97.97l1.419.2c.3524173.0491425.7075517-.0692356.96-.32l1.62-1.62c.2307657-.23015262.5725086-.30869217.8806008-.20238017.3080922.10631201.5286761.37889119.5683992.70238017.1546989 1.6861752-.4497483 3.3536282-1.649 4.549z" fill="#2980ba"/><path id="Path" d="m58 32v16c0 1.6568542-1.3431458 3-3 3h-52c-1.65685425 0-3-1.3431458-3-3v-16z" fill="#2980ba"/><path id="Path" d="m58 29v5h-58v-5c0-1.6568542 1.34314575-3 3-3h52c1.6568542 0 3 1.3431458 3 3z" fill="#3b97d3"/><path id="Path" d="m49 51v-8c0-1.6568542-1.3431458-3-3-3h-34c-1.6568542 0-3 1.3431458-3 3v8z" fill="#285680"/><g fill="#65ddb9"><circle id="Oval" cx="44" cy="30" r="1"/><circle id="Oval" cx="48" cy="30" r="1"/><circle id="Oval" cx="52" cy="30" r="1"/></g><path id="Path" d="m13 40h32v16c0 1.1045695-.8954305 2-2 2h-28c-1.1045695 0-2-.8954305-2-2z" fill="#ecf0f1"/><path id="Path" d="m38 45h-18c-.5522847 0-1-.4477153-1-1s.4477153-1 1-1h18c.5522847 0 1 .4477153 1 1s-.4477153 1-1 1z" fill="#95a5a5"/><path id="Path" d="m38 50h-18c-.5522847 0-1-.4477153-1-1s.4477153-1 1-1h18c.5522847 0 1 .4477153 1 1s-.4477153 1-1 1z" fill="#95a5a5"/><path id="Path" d="m38 55h-18c-.5522847 0-1-.4477153-1-1s.4477153-1 1-1h18c.5522847 0 1 .4477153 1 1s-.4477153 1-1 1z" fill="#95a5a5"/></g></g></svg>