<svg height="512" viewBox="0 0 32 58" width="512" xmlns="http://www.w3.org/2000/svg"><g id="Page-1" fill="none" fill-rule="evenodd"><g id="086---Broken-Mobile"><path id="Path" d="m32 46v5c0 1.6568542-1.3431458 3-3 3h-12c-1.1032019-.0032948-1.9967052-.8967981-2-2v-3z" fill="#547580"/><path id="Path" d="m32 3v43c0 1.6568542-1.3431458 3-3 3h-14v-5c-.0032948-1.1032019-.8967981-1.9967052-2-2h-2.17c-.5329123-.0002413-1.04382666-.2125227-1.42-.59l-1.82-1.82c-.37617334-.3774773-.88708775-.5897587-1.42-.59h-2.17c-1.10320187-.0032948-1.9967052-.8967981-2-2v-34c0-1.65685425 1.34314575-3 3-3h24c1.6568542 0 3 1.34314575 3 3z" fill="#90bae1"/><path id="Path" d="m32 3v1s-27.17 1.81-29.8 33.87c-.13297359-.2706581-.20143023-.5684445-.2-.87v-34c0-.79564947.31607052-1.55871121.87867966-2.12132034.56260913-.56260914 1.32567087-.87867966 2.12132034-.87867966h24c1.6568542 0 3 1.34314575 3 3z" fill="#b0d3f0"/><path id="Path" d="m11 53v4c0 .5522847-.4477153 1-1 1h-7c-1.65685425 0-3-1.3431458-3-3v-5z" fill="#547580"/><path id="Path" d="m11 48.69v4.31h-8c-1.65685425 0-3-1.3431458-3-3v-5.62c-.00333003-.3115698.17192167-.5975668.4510389-.7360601.27911723-.1384932.61286758-.1050545.8589611.0860601 1.05460238.8217952 2.35301393 1.268674 3.69 1.27h1.53c.27644708.0031329.53245677.1461971.68.38.70022352 1.1606231 1.80977997 2.0168724 3.11 2.4.4022471.1206082.678324.490064.68.91z" fill="#90bae1"/><path id="Path" d="m19.842 13.84v.16l-.722 13c-.0645502 1.122228-.9934171 1.999202-2.1175 1.999202s-2.0529498-.876974-2.1175-1.999202l-.723-13c-.0546319-1.0307033.4538443-2.0100037 1.3283252-2.5582893s1.9774822-.5793561 2.8814413-.0811673c.903959.4981887 1.4667571 1.4473123 1.4702335 2.4794566z" fill="#e64c3c"/><circle id="Oval" cx="17" cy="35" fill="#e64c3c" r="2"/><path id="Path" d="m26 0-2.861 3.052c-.5672653.60498515-1.3596648.94815313-2.189.948h-7.9c-.8293352.00015313-1.6217347-.34301485-2.189-.948l-2.861-3.052z" fill="#547580"/></g></g></svg>