<svg height="512" viewBox="0 0 60 58" width="512" xmlns="http://www.w3.org/2000/svg"><g id="Page-1" fill="none" fill-rule="evenodd"><g id="087---Drone-Error"><path id="Path" d="m21 8c1.44-2.932 4.927-5 9-5s7.56 2.068 9 5l-9 2z" fill="#65ddb9"/><path id="Path" d="m16 11v14c0 1.1045695.8954305 2 2 2s2-.8954305 2-2v-14z" fill="#2980ba"/><path id="Path" d="m40 11v14c0 1.1045695.8954305 2 2 2s2-.8954305 2-2v-14z" fill="#2980ba"/><path id="Path" d="m9 0c1.1045695 0 2 .8954305 2 2v2h-4v-2c0-1.1045695.8954305-2 2-2z" fill="#bdc3c7"/><path id="Path" d="m49 0h4v2c0 1.1045695-.8954305 2-2 2s-2-.8954305-2-2z" fill="#bdc3c7" transform="matrix(-1 0 0 -1 102 4)"/><path id="Path" d="m47 8v-4h8v9c0 2.209139-1.790861 4-4 4s-4-1.790861-4-4h-7l-1.12 4.06c-.4775351 1.7375963-2.0579792 2.9413542-3.86 2.94h-10.04c-1.8020208.0013542-3.3824649-1.2024037-3.86-2.94l-1.12-4.06h-7c0 2.209139-1.790861 4-4 4s-4-1.790861-4-4v-9h8v4z" fill="#3b97d3"/><circle id="Oval" cx="30" cy="14" fill="#65ddb9" r="2"/><path id="Path" d="m47.214 58h-34.428c-1.7593025.0281358-3.38653514-.9301918-4.21511674-2.4824126-.8285816-1.5522207-.71928527-3.4375144.28311674-4.8835874l17.2-24.6c.9084066-1.2764704 2.3782903-2.0345209 3.945-2.0345209s3.0365934.7580505 3.945 2.0345209l17.2 24.6c1.0021789 1.4457766 1.1116406 3.3306118.2835616 4.8826806-.8280791 1.5520687-2.4546178 2.5106913-4.2135616 2.4833194z" fill="#e64c3c"/><path id="Path" d="m32.526 32.524v.143l-.642 11.555c-.0563822.998167-.8822419 1.7786938-1.882 1.7786938s-1.8256178-.7805268-1.882-1.7786938l-.642-11.555c-.0517134-.9178416.3992977-1.791313 1.1775709-2.2805965.7782731-.4892835 1.7609168-.5171199 2.5656405-.0726796.8047238.4444402 1.3044595 1.2909789 1.3047886 2.2102761z" fill="#fff"/><circle id="Oval" cx="30" cy="52" fill="#fff" r="2"/><g fill="#7f8c8d"><path id="Path" d="m17 5h-16c-.55228475 0-1-.44771525-1-1s.44771525-1 1-1h16c.5522847 0 1 .44771525 1 1s-.4477153 1-1 1z"/><path id="Path" d="m59 5h-16c-.5522847 0-1-.44771525-1-1s.4477153-1 1-1h16c.5522847 0 1 .44771525 1 1s-.4477153 1-1 1z"/></g></g></g></svg>