<svg height="512" viewBox="0 0 30 58" width="512" xmlns="http://www.w3.org/2000/svg"><g id="Page-1" fill="none" fill-rule="evenodd"><g id="088---Mobile-Screen-Protector"><path id="Path" d="m30 7v43c0 1.6568542-1.3431458 3-3 3h-24c-1.65685425 0-3-1.3431458-3-3v-43c0-1.65685425 1.34314575-3 3-3h3l2.86 3.05c.56637574.60708315 1.3597411.95123705 2.19.95h7.9c.8302589.00123705 1.6236243-.34291685 2.19-.95l2.86-3.05h3c1.6568542 0 3 1.34314575 3 3z" fill="#90bae1"/><path id="Path" d="m30 50v5c0 1.6568542-1.3431458 3-3 3h-24c-1.65685425 0-3-1.3431458-3-3v-5c0 1.6568542 1.34314575 3 3 3h24c1.6568542 0 3-1.3431458 3-3z" fill="#547580"/><path id="Path" d="m27.188 53c-7.2084743-.1547451-14.3229851-1.6685719-20.97-4.462-.7393355-.3111866-1.2195502-1.0358456-1.218-1.838v-44.7c.0000687-.65814363.32392687-1.27412712.86606658-1.64727265.5421397-.37314553 1.23315857-.45568463 1.84793342-.22072735 6.1462373 2.4302225 12.677983 3.74022936 19.286 3.868z" fill="#b0d3f0"/><path id="Path" d="m24 4-2.86 3.05c-.5663757.60708315-1.3597411.95123705-2.19.95h-7.9c-.8302589.00123705-1.62362426-.34291685-2.19-.95l-2.86-3.05z" fill="#95a5a5"/><g fill="#fff"><path id="Path" d="m9 15c-.4043959-.0000863-.76893405-.2437275-.92367798-.6173454-.15474393-.373618-.06922994-.8036603.21667798-1.0896546l2-2c.3923789-.3789722 1.0160848-.3735524 1.4018186.0121814s.3911536 1.0094397.0121814 1.4018186l-2 2c-.18749273.1875494-.44180519.2929434-.707.293z"/><path id="Path" d="m9 21c-.4043959-.0000863-.76893405-.2437275-.92367798-.6173454-.15474393-.373618-.06922994-.8036603.21667798-1.0896546l8-8c.3923789-.3789722 1.0160848-.3735524 1.4018186.0121814s.3911536 1.0094397.0121814 1.4018186l-8 8c-.18749273.1875494-.44180519.2929434-.707.293z"/></g></g></g></svg>