<svg height="512" viewBox="0 0 48 58" width="512" xmlns="http://www.w3.org/2000/svg"><g id="Page-1" fill="none" fill-rule="evenodd"><g id="089---Computer-Shield"><path id="Path" d="m48 11.711v21.989c-.0082547 5.095267-2.4787446 9.8723422-6.632 12.824l-15.026 10.727c-1.4015409.9989781-3.2824591.9989781-4.684 0l-15.026-10.728c-4.15296832-2.951453-6.62342226-7.7280861-6.632-12.823v-21.989c.00057702-1.3336989.99935902-2.45582449 2.324-2.611 6.644-.76 8.726-4.767 9.378-7.2.3283825-1.13822712 1.377461-1.91623228 2.562-1.9h19.472c1.185277-.0171407 2.235422.76104788 2.564 1.9.651 2.434 2.729 6.434 9.355 7.2 1.3303042.15048015 2.3377752 1.2722314 2.345 2.611z" fill="#bdc3c7"/><path id="Path" d="m25.143 53.172c-.6941129.4938816-1.6248871.4938816-2.319 0l-13.867-9.9c-3.09906012-2.2047642-4.94470203-5.768711-4.957-9.572v-19.192c.00622701-.9172086.63229514-1.7139852 1.522-1.937 4.06453755-.9200025 7.4756304-3.66703773 9.241-7.442.327129-.69357015 1.027171-1.13412052 1.794-1.129h14.886c.766829-.00512052 1.466871.43542985 1.794 1.129 1.7651224 3.77496198 5.1763947 6.5217727 9.241 7.441.8897049.2230148 1.515773 1.0197914 1.522 1.937v19.193c-.013586 3.8018758-1.8590847 7.3640569-4.957 9.568 0 0-10.371 7.391-13.9 9.904z" fill="#4fba6f"/><path id="Path" d="m38 31v3c-.0032948 1.1032019-.8967981 1.9967052-2 2h-24c-1.1032019-.0032948-1.9967052-.8967981-2-2v-3z" fill="#547580"/><path id="Path" d="m38 16v15h-28v-15c.0032948-1.1032019.8967981-1.9967052 2-2h24c1.1032019.0032948 1.9967052.8967981 2 2z" fill="#b0d3f0"/><path id="Path" d="m28 40h-8l1-4h6z" fill="#3f5c6c"/><path id="Path" d="m31 42c-.0081672 1.1011688-.8988312 1.9918328-2 2h-10c-1.1032019-.0032948-1.9967052-.8967981-2-2 .0081672-1.1011688.8988312-1.9918328 2-2h10c1.1032019.0032948 1.9967052.8967981 2 2z" fill="#547580"/><g fill="#fff"><path id="Path" d="m14 20c-.4043959-.0000863-.7689341-.2437275-.923678-.6173454-.1547439-.373618-.0692299-.8036603.216678-1.0896546l1-1c.3923789-.3789722 1.0160848-.3735524 1.4018186.0121814s.3911536 1.0094397.0121814 1.4018186l-1 1c-.1874927.1875494-.4418052.2929434-.707.293z"/><path id="Path" d="m14 25c-.4043959-.0000863-.7689341-.2437275-.923678-.6173454-.1547439-.373618-.0692299-.8036603.216678-1.0896546l6-6c.3923789-.3789722 1.0160848-.3735524 1.4018186.0121814s.3911536 1.0094397.0121814 1.4018186l-6 6c-.1874927.1875494-.4418052.2929434-.707.293z"/></g></g></g></svg>