<svg height="512" viewBox="0 0 38 58" width="512" xmlns="http://www.w3.org/2000/svg"><g id="Page-1" fill="none" fill-rule="evenodd"><g id="090---Mobile-Doctor"><path id="Path" d="m29 0h4c1.6568542 0 3 1.34314575 3 3v49c0 1.6568542-1.3431458 3-3 3h-28c-1.65685425 0-3-1.3431458-3-3v-49c0-1.65685425 1.34314575-3 3-3z" fill="#90bae1"/><path id="Path" d="m36 50v5c0 1.6568542-1.3431458 3-3 3h-28c-1.65685425 0-3-1.3431458-3-3v-5c0 1.6568542 1.34314575 3 3 3h28c1.6568542 0 3-1.3431458 3-3z" fill="#547580"/><path id="Path" d="m36 3v1s-33.14 1.95-33.98 46.26c-.01658959-.0856164-.02330015-.1728536-.02-.26v-47c0-1.65685425 1.34314575-3 3-3h4l2.86 3.05c.5663757.60708315 1.3597411.95123705 2.19.95h9.9c.8302589.00123705 1.6236243-.34291685 2.19-.95l2.86-3.05h4c1.6568542 0 3 1.34314575 3 3z" fill="#b0d3f0"/><g fill="#547580"><path id="Path" d="m29 0-2.86 3.05c-.5663757.60708315-1.3597411.95123705-2.19.95h-9.9c-.8302589.00123705-1.6236243-.34291685-2.19-.95l-2.86-3.05z"/><path id="Path" d="m3 25h-2v-9c0-1.6568542 1.34314575-3 3-3h3v2h-3c-.55228475 0-1 .4477153-1 1z"/><path id="Path" d="m21 26h-2v-10c0-.5522847-.4477153-1-1-1h-3v-2h3c1.6568542 0 3 1.3431458 3 3z"/></g><path id="Path" d="m25 47h-7c-4.4162219-.0049599-7.9950401-3.5837781-8-8v-3h2v3c.0033074 3.3123376 2.6876624 5.9966926 6 6h7c3.3123376-.0033074 5.9966926-2.6876624 6-6v-9h2v9c-.0049599 4.4162219-3.5837781 7.9950401-8 8z" fill="#c03a2b"/><path id="Path" d="m22 24c-.0047941 5.3027254-3.7868261 9.8495684-9 10.82v2.18c0 1.1045695-.8954305 2-2 2s-2-.8954305-2-2v-2.18c-5.21317389-.9704316-8.99520594-5.5172746-9-10.82 0-1.1045695.8954305-2 2-2s2 .8954305 2 2c.00000008 3.8659932 3.13400681 6.9999999 7 6.9999999 3.8659932 0 6.9999999-3.1340067 7-6.9999999 0-1.1045695.8954305-2 2-2s2 .8954305 2 2z" fill="#e64c3c"/><circle id="Oval" cx="32" cy="26" fill="#ecf0f1" r="6"/><circle id="Oval" cx="32" cy="26" fill="#bdc3c7" r="2"/><path id="Path" d="m6 12h1c1.1045695 0 2 .8954305 2 2s-.8954305 2-2 2h-1c-.55228475 0-1-.4477153-1-1v-2c0-.5522847.44771525-1 1-1z" fill="#f0c419"/><path id="Path" d="m14 12h1c1.1045695 0 2 .8954305 2 2s-.8954305 2-2 2h-1c-.5522847 0-1-.4477153-1-1v-2c0-.5522847.4477153-1 1-1z" fill="#f0c419" transform="matrix(-1 0 0 -1 30 28)"/></g></g></svg>