<svg height="512" viewBox="0 0 58 58" width="512" xmlns="http://www.w3.org/2000/svg"><g id="Page-1" fill="none" fill-rule="evenodd"><g id="091---Smoking-Laptop" transform="translate(0 -1)"><path id="Path" d="m35.43 9h16.57c2.209139 0 4 1.790861 4 4v38h-54v-38c0-2.209139 1.790861-4 4-4z" fill="#90bae1"/><path id="Path" d="m52.95 9.12c-11.41.71-50.95 5.65-50.95 39.88v-36c0-2.209139 1.790861-4 4-4h46c.3205339-.00142005.6398873.03891933.95.12z" fill="#b0d3f0"/><path id="Path" d="m52 59h-46c-3.3137085 0-6-2.6862915-6-6v-3c0-.5522847.44771525-1 1-1h56c.5522847 0 1 .4477153 1 1v3c0 3.3137085-2.6862915 6-6 6z" fill="#547580"/><path id="Path" d="m19 49h20v2c0 1.6568542-1.3431458 3-3 3h-14c-1.6568542 0-3-1.3431458-3-3z" fill="#3f5c6c"/><path id="Path" d="m15 54h-3c-.5522847 0-1-.4477153-1-1s.4477153-1 1-1h3c.5522847 0 1 .4477153 1 1s-.4477153 1-1 1z" fill="#3f5c6c"/><circle id="Oval" cx="4" cy="53" fill="#65ddb9" r="1"/><circle id="Oval" cx="8" cy="53" fill="#65ddb9" r="1"/><path id="Path" d="m49 25c.0049894 3.4799638-2.5544415 6.4318408-6 6.92v.08c.0004887 3.1026354-2.0434139 5.8346247-5.02 6.71.0169473.095682.0236518.1928974.02.29 0 2.7614237-2.2385763 5-5 5-.0435732.0016501-.0871918-.0017052-.13-.01.0844228.3300933.1280814.6692873.13 1.01 0 2.209139-1.790861 4-4 4s-4-1.790861-4-4c.0019186-.3407127.0455772-.6799067.13-1.01-.0428082.0082948-.0864268.0116501-.13.01-2.7614237 0-5-2.2385763-5-5-.0036518-.0971026.0030527-.194318.02-.29-2.9765861-.8753753-5.0204887-3.6073646-5.02-6.71v-.08c-2.7669467-.3941864-5.03255372-2.3997836-5.75946164-5.0984837s.22483888-5.5709071 2.41946164-7.3015163c-1.0764344-1.2594536-1.66542996-2.8632245-1.66-4.52 0-3.8659932 3.1340068-7 7-7 .3350794-.00399817.669818.02278092 1 .08v-.08c-.0000352-1.74166991.9062415-3.35786163 2.3922759-4.26622056 1.4860344-.90835892 3.3376731-.97798092 4.8877241-.18377944.5939026-1.537163 2.0720952-2.55073037 3.72-2.55073037s3.1260974 1.01356737 3.72 2.55073037c1.550051-.79420148 3.4016897-.72457948 4.8877241.18377944 1.4860344.90835893 2.3923111 2.52455065 2.3922759 4.26622056v.08c.330182-.05721908.6649206-.08399817 1-.08 3.8659932 0 7 3.1340068 7 7 .00543 1.6567755-.5835656 3.2605464-1.66 4.52 1.6836675 1.3192358 2.6650606 3.3410532 2.66 5.48z" fill="#ecf0f1"/><g fill="#95a5a5"><path id="Path" d="m24 34c-.5522847 0-1-.4477153-1-1 0-1.6568542-1.3431458-3-3-3-.5522847 0-1-.4477153-1-1s.4477153-1 1-1c2.7600532.0033061 4.9966939 2.2399468 5 5 0 .5522847-.4477153 1-1 1z"/><path id="Path" d="m29 39c-.5522847 0-1-.4477153-1-1 .0033061-2.7600532 2.2399468-4.9966939 5-5 .5522847 0 1 .4477153 1 1s-.4477153 1-1 1c-1.6568542 0-3 1.3431458-3 3 0 .5522847-.4477153 1-1 1z"/><path id="Path" d="m29 17c-.5522847 0-1-.4477153-1-1 .0033061-2.7600532 2.2399468-4.9966939 5-5 .5522847 0 1 .4477153 1 1s-.4477153 1-1 1c-1.6568542 0-3 1.3431458-3 3 0 .5522847-.4477153 1-1 1z"/><path id="Path" d="m22 22c-.5522847 0-1-.4477153-1-1 0-1.6568542-1.3431458-3-3-3-.5522847 0-1-.4477153-1-1s.4477153-1 1-1c2.7600532.0033061 4.9966939 2.2399468 5 5 0 .5522847-.4477153 1-1 1z"/><path id="Path" d="m36 26c-.5522847 0-1-.4477153-1-1 .0033061-2.7600532 2.2399468-4.9966939 5-5 .5522847 0 1 .4477153 1 1s-.4477153 1-1 1c-1.6568542 0-3 1.3431458-3 3 0 .5522847-.4477153 1-1 1z"/></g></g></g></svg>