<svg height="512" viewBox="0 0 58 38" width="512" xmlns="http://www.w3.org/2000/svg"><g id="Page-1" fill="none" fill-rule="evenodd"><g id="092---Projector-Error"><path id="Path" d="m5 33h8v3c0 1.1045695-.8954305 2-2 2h-4c-1.1045695 0-2-.8954305-2-2z" fill="#547580"/><path id="Path" d="m45 33h8v3c0 1.1045695-.8954305 2-2 2h-4c-1.1045695 0-2-.8954305-2-2z" fill="#547580"/><path id="Path" d="m58 10v20c0 2.209139-1.790861 4-4 4h-50c-2.209139 0-4-1.790861-4-4v-20c0-2.209139 1.790861-4 4-4h5.06c3.2213273-3.80529592 7.9542978-5.99979916 12.94-5.99979916s9.7186727 2.19450324 12.94 5.99979916h19.06c2.209139 0 4 1.790861 4 4z" fill="#3b97d3"/><circle id="Oval" cx="22" cy="17" fill="#f3d55b" r="13"/><path id="Shape" d="m22 31c-7.7319865 0-14-6.2680135-14-14s6.2680135-14 14-14 14 6.2680135 14 14c-.0082673 7.7285595-6.2714405 13.9917327-14 14zm0-26c-6.627417 0-12 5.372583-12 12s5.372583 12 12 12 12-5.372583 12-12c-.0071648-6.624447-5.375553-11.99283515-12-12z" fill="#bdc3c7" fill-rule="nonzero"/><circle id="Oval" cx="5" cy="11" fill="#65ddb9" r="1"/><g fill="#2980ba"><rect id="Rectangle" height="4" rx="2" width="14" x="39" y="10"/><rect id="Rectangle" height="4" rx="2" width="14" x="39" y="18"/><rect id="Rectangle" height="4" rx="2" width="14" x="39" y="26"/></g><circle id="Oval" cx="22" cy="24" fill="#464f5d" r="2"/><path id="Path" d="m24.491 10.5c.0014961.0727827-.0015097.1455883-.009.218l-.5 5.473c-.0922615 1.0258285-.9520309 1.8117418-1.982 1.8117418s-1.8897385-.7859133-1.982-1.8117418l-.5-5.473c-.0861641-.91599514.339383-1.80494507 1.1069037-2.31227476.7675206-.50732969 1.7521319-.55049182 2.5611024-.11227032.8089705.43822149 1.3106731 1.28652383 1.3049939 2.20654508z" fill="#464f5d"/></g></g></svg>