<svg height="512" viewBox="0 0 58 58" width="512" xmlns="http://www.w3.org/2000/svg"><g id="Page-1" fill="none" fill-rule="evenodd"><g id="093---Web-Cam-Settings" transform="translate(0 -1)"><path id="Path" d="m45.35 29.4c.4355277-1.7668566.6538078-3.5802604.65-5.4 0-.65-.03-1.3-.09-1.94-1.0022273-11.9079699-10.9599286-21.06279332-22.91-21.06279332s-21.90777272 9.15482342-22.91 21.06279332c-.06.64-.09 1.29-.09 1.94-.00216581 9.4412183 5.7680134 17.9239766 14.55 21.39-3.3087966 1.0588017-5.55295456 4.1359264-5.55 7.61.00816722 1.1011688.89883122 1.9918328 2 2h21.81z" fill="#285680"/><path id="Path" d="m45.91 22.06c-2.4212318 1.3283306-5.1489241 1.9973222-7.91 1.94 0-8.2842712-6.7157288-15-15-15s-15 6.7157288-15 15c-2.76107588.0573222-5.48876817-.6116694-7.91-1.94 1.00222728-11.9079699 10.9599286-21.06279332 22.91-21.06279332s21.9077727 9.15482342 22.91 21.06279332z" fill="#3b97d3"/><path id="Path" d="m46 24c.0038078 1.8197396-.2144723 3.6331434-.65 5.4-.1721281-.1727493-.3977436-.2820318-.64-.31-.56-.05-1.13-.09-1.71-.09s-1.15.04-1.71.09c-.4996702.0635538-.8960513.4517621-.97.95l-.19 1.15c-1.4758658.323194-2.8815748.9091884-4.15 1.73l-.61-.44c1.7184332-2.4935354 2.635878-5.4516842 2.63-8.48 2.7610759.0573222 5.4887682-.6116694 7.91-1.94.06.64.09 1.29.09 1.94z" fill="#2980ba"/><path id="Path" d="m31.92 36.98c-.8208116 1.2684252-1.406806 2.6741342-1.73 4.15l-1.15.19c-.4982379.0739487-.8864462.4703298-.95.97-.05.56-.09 1.13-.09 1.71s.04 1.15.09 1.71c.0279682.2422564.1372507.4678719.31.64-1.7668566.4355277-3.5802604.6538078-5.4.65-12.7025492 0-23-10.2974508-23-23 0-.65.03-1.3.09-1.94 2.42123183 1.3283306 5.14892412 1.9973222 7.91 1.94.00109019 5.5659595 3.0840737 10.6737007 8.008446 13.2680144 4.9243723 2.5943136 10.8804025 2.2486082 15.471554-.8980144z" fill="#2980ba"/><path id="Path" d="m38 24c.005878 3.0283158-.9115668 5.9864646-2.63 8.48l-.35-.25c-.4066047-.2988169-.9623579-.2906441-1.36.02-.8749925.7283271-1.6816729 1.5350075-2.41 2.41-.3106441.3976421-.3188169.9533953-.02 1.36l.25.35c-5.6892503 3.8992226-13.3042501 3.4162387-18.4552735-1.1705318-5.15102339-4.5867706-6.51031832-12.0950202-3.29430866-18.19656s10.17835006-9.22360813 16.87352606-7.5664644c6.6951759 1.6571437 11.3974072 7.6663463 11.3960561 14.5635562z" fill="#84b5cb"/><circle id="Oval" cx="23" cy="24" fill="#b0d3f0" r="10"/><path id="Path" d="m21.51 19.22s0-.01.01 0c.480148-.1442975.9786406-.2183978 1.48-.22 2.7614237 0 5 2.2385763 5 5s-2.2385763 5-5 5-5-2.2385763-5-5c.0016022-.5013594.0757025-.999852.22-1.48-.01-.01 0-.01 0-.01" fill="#285680"/><circle id="Oval" cx="20.5" cy="21.5" fill="#fff" r="2.5"/><circle id="Oval" cx="23" cy="5" fill="#65ddb9" r="1"/><g fill-rule="nonzero"><path id="Shape" d="m57.91 42.29c-.0635538-.4996702-.4517621-.8960513-.95-.97l-1.15-.19c-.323194-1.4758658-.9091884-2.8815748-1.73-4.15l.69-.96c.2988169-.4066047.2906441-.9623579-.02-1.36-.7283271-.8749925-1.5350075-1.6816729-2.41-2.41-.3976421-.3106441-.9533953-.3188169-1.36-.02l-.96.69c-1.2684252-.8208116-2.6741342-1.406806-4.15-1.73l-.19-1.15c-.0395908-.2428502-.1551206-.466908-.33-.64-.1721281-.1727493-.3977436-.2820318-.64-.31-.56-.05-1.13-.09-1.71-.09s-1.15.04-1.71.09c-.4996702.0635538-.8960513.4517621-.97.95l-.19 1.15c-1.4758658.323194-2.8815748.9091884-4.15 1.73l-.96-.69c-.4066047-.2988169-.9623579-.2906441-1.36.02-.8749925.7283271-1.6816729 1.5350075-2.41 2.41-.3106441.3976421-.3188169.9533953-.02 1.36l.69.96c-.8208116 1.2684252-1.406806 2.6741342-1.73 4.15l-1.15.19c-.4982379.0739487-.8864462.4703298-.95.97-.05.56-.09 1.13-.09 1.71s.04 1.15.09 1.71c.0279682.2422564.1372507.4678719.31.64.173092.1748794.3971498.2904092.64.33l1.15.19c.323194 1.4758658.9091884 2.8815748 1.73 4.15l-.69.96c-.2988169.4066047-.2906441.9623579.02 1.36.3563872.4438238.7404872.8646638 1.15 1.26.13.14.27.27.41.4.2688016.2660022.5525984.5164112.85.75.3976421.3106441.9533953.3188169 1.36.02l.96-.69c1.2684252.8208116 2.6741342 1.406806 4.15 1.73l.19 1.15c.0739487.4982379.4703298.8864462.97.95.56.05 1.13.09 1.71.09s1.15-.04 1.71-.09c.4996702-.0635538.8960513-.4517621.97-.95l.19-1.15c1.4758658-.323194 2.8815748-.9091884 4.15-1.73l.96.69c.4066047.2988169.9623579.2906441 1.36-.02.8749925-.7283271 1.6816729-1.5350075 2.41-2.41.3106441-.3976421.3188169-.9533953.02-1.36l-.69-.96c.8208116-1.2684252 1.406806-2.6741342 1.73-4.15l1.15-.19c.4982379-.0739487.8864462-.4703298.95-.97.05-.56.09-1.13.09-1.71s-.04-1.15-.09-1.71zm-14.91 5.71c-2.209139 0-4-1.790861-4-4s1.790861-4 4-4 4 1.790861 4 4-1.790861 4-4 4z" fill="#bdc3c7"/><path id="Shape" d="m43 36c-4.418278 0-8 3.581722-8 8s3.581722 8 8 8 8-3.581722 8-8-3.581722-8-8-8zm0 12c-2.209139 0-4-1.790861-4-4s1.790861-4 4-4 4 1.790861 4 4-1.790861 4-4 4z" fill="#7f8c8d"/></g></g></g></svg>