<svg height="512" viewBox="0 0 58 58" width="512" xmlns="http://www.w3.org/2000/svg"><g id="Page-1" fill="none" fill-rule="evenodd"><g id="094---Controller-Repair" transform="translate(0 -1)"><path id="Path" d="m19.45 23c-2.0926844.0007302-3.9840351 1.2472129-4.81 3.17l-2.88 6.73c-1.0681981 2.4909802-3.51964748 4.1042936-6.23 4.1-1.61712078-.0312196-3.14267343-.7565467-4.18769206-1.9910467-1.04501864-1.2345001-1.50851326-2.8588716-1.27230794-4.4589533 0-.01 3.67-22.03 3.67-22.03.72197313-4.49862428 4.70895362-7.73643134 9.26-7.52h32c4.5510464-.21643134 8.5380269 3.02137572 9.26 7.52 0 0 3.67 22.02 3.67 22.03.2362053 1.6000817-.2272893 3.2244532-1.2723079 4.4589533-1.0450187 1.2345-2.5705713 1.9598271-4.1876921 1.9910467-2.7103525.0042936-5.1618019-1.6090198-6.23-4.1l-2.88-6.73c-.8259649-1.9227871-2.7173156-3.1692698-4.81-3.17z" fill="#3f5c6c"/><path id="Path" d="m39 25.99c-.0020476 3.9743517-2.3574458 7.5702596-6 9.16v19.85c0 2.209139-1.790861 4-4 4s-4-1.790861-4-4v-19.85c-3.1773985-1.3724017-5.414985-4.2953642-5.910455-7.720836-.4954701-3.4254718.8221644-6.8626716 3.480455-9.079164.4435831-.3617605 1.0552696-.4372223 1.5734734-.1941144.5182038.243108.8511778.7617439.8565266 1.3341144l.01 3.51v.49c-.0042581.6309826.2883293 1.2272682.79 1.61l2 1.5c.7088429.5400952 1.6911571.5400952 2.4 0l2-1.5c.5016707-.3827318.7942581-.9790174.79-1.61v-.49l.01-3.51c-.0001359-.570279.3265312-1.0901885.8403844-1.3375203.5138532-.2473319 1.1239808-.1783277 1.5696156.1775203 2.273506 1.8945276 3.5886224 4.7005976 3.59 7.66z" fill="#4482c3"/><path id="Path" d="m29 54c-.5522847 0-1-.4477153-1-1v-16c0-.5522847.4477153-1 1-1s1 .4477153 1 1v16c0 .5522847-.4477153 1-1 1z" fill="#285680"/><g fill="#65ddb9"><path id="Path" d="m14 18c-.5522847 0-1-.4477153-1-1v-10c0-.55228475.4477153-1 1-1s1 .44771525 1 1v10c0 .5522847-.4477153 1-1 1z"/><path id="Path" d="m19 13h-10c-.55228475 0-1-.4477153-1-1s.44771525-1 1-1h10c.5522847 0 1 .4477153 1 1s-.4477153 1-1 1z"/><path id="Path" d="m44 18c-.5522847 0-1-.4477153-1-1v-2c0-.5522847.4477153-1 1-1s1 .4477153 1 1v2c0 .5522847-.4477153 1-1 1z"/><path id="Path" d="m44 10c-.5522847 0-1-.44771525-1-1v-2c0-.55228475.4477153-1 1-1s1 .44771525 1 1v2c0 .55228475-.4477153 1-1 1z"/><path id="Path" d="m49 13h-2c-.5522847 0-1-.4477153-1-1s.4477153-1 1-1h2c.5522847 0 1 .4477153 1 1s-.4477153 1-1 1z"/><path id="Path" d="m41 13h-2c-.5522847 0-1-.4477153-1-1s.4477153-1 1-1h2c.5522847 0 1 .4477153 1 1s-.4477153 1-1 1z"/></g></g></g></svg>