<svg height="512" viewBox="0 0 46 58" width="512" xmlns="http://www.w3.org/2000/svg"><g id="Page-1" fill="none" fill-rule="evenodd"><g id="095---Broken-Macintosh"><path id="Path" d="m42 50v5c0 1.6568542-1.3431458 3-3 3h-32c-1.65685425 0-3-1.3431458-3-3v-5z" fill="#b19046"/><rect id="Rectangle" fill="#f9eab0" height="52" rx="3" width="46"/><path id="Path" d="m35 42h-9c-.5522847 0-1-.4477153-1-1s.4477153-1 1-1h9c.5522847 0 1 .4477153 1 1s-.4477153 1-1 1z" fill="#b19046"/><rect id="Rectangle" fill="#65ddb9" height="4" rx="1" width="4" x="5" y="39"/><rect id="Rectangle" fill="#547580" height="28" rx="3" width="36" x="5" y="5"/><path id="Path" d="m23 12-3 2-4-1 1 5-2 2 3 2-1 3 4-2 2 3 2-2h3l-2-3 3-2-2-2 2-4-4 1z" fill="#35495e"/><path id="Shape" d="m36.888 18.168c-.2206502-.1472282-.4907558-.2007572-.7508787-.1488077-.2601229.0519496-.488948.2051208-.6361213.4258077l-.909 1.366-5.051-1.685-1.324-1.326 1.605-3.211 2.3-2.3 1.486.99c.297245.1982824.6776931.2229246.9980331.0646441.3203401-.1582805.5319049-.4754371.555-.832s-.1457881-.6983617-.4430331-.8966441l-1.486-.99c-.7939522-.52660864-1.8487817-.4221287-2.524.25l-2.219 2.225-3.182.8-1.307-1.314v-2.586c0-.55228475-.4477153-1-1-1s-1 .44771525-1 1v2.465l-2.187 1.458-3.3-.826-2.8-2.8c-.3923789-.37897221-1.0160848-.37355237-1.4018186.01218142-.3857338.3857338-.3911536 1.00943968-.0121814 1.40181858l2.786 2.786.836 4.178-1.335 1.325h-5.586c-.55228475 0-1 .4477153-1 1s.44771525 1 1 1h5.7l2.113 1.408-.684 2.052-3.833 3.833c-.2599566.2510745-.3642126.6228779-.2726972.9725073.0915155.3496295.3645604.6226744.7141899.7141899.3496294.0915154.7214328-.0127406.9725073-.2726972l3.885-3.885 3.066-1.533 1.339 2.011v2.7c0 .5522847.4477153 1 1 1s1-.4477153 1-1v-2.586l1.414-1.414h2.235l4.726 3.781c.2790244.223291.655978.2807626.9888659.1507659s.5711365-.4277123.625-.781c.0538634-.3532878-.0848415-.7084749-.3638659-.9317659l-4.879-3.9-1.359-2.039 1.761-1.18 4.811 1.6c.2029258.0669377.4153203.1007047.629.1.6697166-.0005707 1.2951579-.3346643 1.668-.891l.91-1.364c.2996139-.4577666.1757432-1.0713273-.278-1.377zm-11.443 2c-.2206869.1471733-.3738581.3759984-.4258077.6361213-.0519495.2601229.0015795.5302285.1488077.7508787l.963 1.445h-1.131c-.2651948.0000566-.5195073.1054506-.707.293l-1.138 1.138-1.323-1.986c-.2796427-.4195797-.8279193-.5653296-1.279-.34l-1.841.921.237-.71c.1424585-.4277311-.0189048-.8978962-.394-1.148l-1.985-1.323 1.137-1.138c.2351986-.2358182.3375549-.5732566.273-.9l-.689-3.45 2.466.616c.2741839.0691797.5648393.0190416.8-.138l2.318-1.545 1.42 1.42c.2484623.2484925.6091195.3483376.95.263l1.89-.473-1.035 2.053c-.1921654.3850479-.1164429.8498553.188 1.154l1.137 1.138z" fill="#bdc3c7" fill-rule="nonzero"/><rect id="Rectangle" fill="#e4c05c" height="4" rx="1" width="6" x="35" y="39"/></g></g></svg>