<svg height="512" viewBox="0 0 58 58" width="512" xmlns="http://www.w3.org/2000/svg"><g id="Page-1" fill="none" fill-rule="evenodd"><g id="096---Configure-Computer" transform="translate(-1)"><path id="Path" d="m59 2.18v41.82h-58v-41.82c-.04521019-1.152631.84774936-2.12595691 2-2.18h54c1.1522506.05404309 2.0452102 1.027369 2 2.18z" fill="#90bae1"/><path id="Path" d="m57.39.04c-9.36.38-56.39 4.14-56.39 41.96v-39.82c-.04521019-1.152631.84774936-2.12595691 2-2.18h54c.1311216-.00207169.2620289.01135469.39.04z" fill="#b0d3f0"/><path id="Path" d="m41 54-11 2-11-2 3-6 8-2 8 2z" fill="#3f5c6c"/><path id="Path" d="m59 42v3.82c.0452102 1.152631-.8477494 2.1259569-2 2.18h-54c-1.15225064-.0540431-2.04521019-1.027369-2-2.18v-3.82z" fill="#547580"/><path id="Path" d="m47 56c-.0032948 1.1032019-.8967981 1.9967052-2 2h-30c-1.1011688-.0081672-1.9918328-.8988312-2-2 .0032948-1.1032019.8967981-1.9967052 2-2h30c1.1011688.0081672 1.9918328.8988312 2 2z" fill="#547580"/><g fill="#d1d4d1"><path id="Path" d="m23 29c0 .349-.023.692-.056 1.024-.037184.30009-.2691367.5389849-.568.585l-.692.112c-.1944335.8854891-.5448973 1.7293109-1.035 2.492l.41.574c.1796216.2433596.1751242.5765769-.011.815-.432033.530172-.9172314 1.0147002-1.448 1.446-.2384231.1861242-.5716404.1906216-.815.011l-.574-.41c-.7626891.4901027-1.6065109.8405665-2.492 1.035l-.112.692c-.0460151.2988633-.28491.530816-.585.568-.332.033-.675.056-1.024.056s-.692-.023-1.024-.056c-.30009-.037184-.5389849-.2691367-.585-.568l-.112-.692c-.8854891-.1944335-1.7293109-.5448973-2.492-1.035l-.574.41c-.24335959.1796216-.57657686.1751242-.815-.011-.52947452-.4321373-1.01332905-.9173321-1.444-1.448-.18612418-.2384231-.19062159-.5716404-.011-.815l.41-.574c-.49010275-.7626891-.84056646-1.6065109-1.035-2.492l-.692-.112c-.29886332-.0460151-.53081598-.28491-.568-.585-.033-.33-.056-.673-.056-1.022s.023-.692.056-1.024c.03718402-.30009.26913668-.5389849.568-.585l.692-.112c.19443354-.8854891.54489725-1.7293109 1.035-2.492l-.41-.574c-.17978675-.2436742-.17528987-.5772606.011-.816.21375406-.2660894.44280772-.5195175.686-.759.23959586-.2434411.49337175-.4725073.76-.686.23842314-.1861242.57164041-.1906216.815-.011l.574.41c.7626891-.4901027 1.6065109-.8405665 2.492-1.035l.112-.692c.0460151-.2988633.28491-.530816.585-.568.6806249-.074669 1.3673751-.074669 2.048 0 .30009.037184.5389849.2691367.585.568l.112.692c.8854891.1944335 1.7293109.5448973 2.492 1.035l.574-.41c.2433596-.1796216.5765769-.1751242.815.011.2666282.2134927.5204041.4425589.76.686.2431923.2394825.4722459.4929106.686.759.1862899.2387394.1907867.5723258.011.816l-.41.574c.4901027.7626891.8405665 1.6065109 1.035 2.492l.692.112c.2988633.0460151.530816.28491.568.585.033.332.056.675.056 1.024z"/><path id="Path" d="m55 29c0 .349-.023.692-.056 1.024-.037184.30009-.2691367.5389849-.568.585l-.692.112c-.1944335.8854891-.5448973 1.7293109-1.035 2.492l.41.574c.1796216.2433596.1751242.5765769-.011.815-.432033.530172-.9172314 1.0147002-1.448 1.446-.2384231.1861242-.5716404.1906216-.815.011l-.574-.41c-.7626891.4901027-1.6065109.8405665-2.492 1.035l-.112.692c-.0460151.2988633-.28491.530816-.585.568-.332.033-.675.056-1.024.056s-.692-.023-1.024-.056c-.30009-.037184-.5389849-.2691367-.585-.568l-.112-.692c-.8854891-.1944335-1.7293109-.5448973-2.492-1.035l-.574.41c-.2433596.1796216-.5765769.1751242-.815-.011-.5294745-.4321373-1.013329-.9173321-1.444-1.448-.1861242-.2384231-.1906216-.5716404-.011-.815l.41-.574c-.4901027-.7626891-.8405665-1.6065109-1.035-2.492l-.692-.112c-.2988633-.0460151-.530816-.28491-.568-.585-.033-.33-.056-.673-.056-1.022s.023-.692.056-1.024c.037184-.30009.2691367-.5389849.568-.585l.692-.112c.1944335-.8854891.5448973-1.7293109 1.035-2.492l-.41-.574c-.1797867-.2436742-.1752899-.5772606.011-.816.2137541-.2660894.4428077-.5195175.686-.759.2395959-.2434411.4933718-.4725073.76-.686.2384231-.1861242.5716404-.1906216.815-.011l.574.41c.7626891-.4901027 1.6065109-.8405665 2.492-1.035l.112-.692c.0460151-.2988633.28491-.530816.585-.568.6806249-.074669 1.3673751-.074669 2.048 0 .30009.037184.5389849.2691367.585.568l.112.692c.8854891.1944335 1.7293109.5448973 2.492 1.035l.574-.41c.2433596-.1796216.5765769-.1751242.815.011.2666282.2134927.5204041.4425589.76.686.2431923.2394825.4722459.4929106.686.759.1862899.2387394.1907867.5723258.011.816l-.41.574c.4901027.7626891.8405665 1.6065109 1.035 2.492l.692.112c.2988633.0460151.530816.28491.568.585.033.332.056.675.056 1.024z"/><path id="Path" d="m39 13c0 .349-.023.692-.056 1.024-.037184.30009-.2691367.5389849-.568.585l-.692.112c-.1944335.8854891-.5448973 1.7293109-1.035 2.492l.41.574c.1796216.2433596.1751242.5765769-.011.815-.432033.530172-.9172314 1.0147002-1.448 1.446-.2384231.1861242-.5716404.1906216-.815.011l-.574-.41c-.7626891.4901027-1.6065109.8405665-2.492 1.035l-.112.692c-.0460151.2988633-.28491.530816-.585.568-.332.033-.675.056-1.024.056s-.692-.023-1.024-.056c-.30009-.037184-.5389849-.2691367-.585-.568l-.112-.692c-.8854891-.1944335-1.7293109-.5448973-2.492-1.035l-.574.41c-.2433596.1796216-.5765769.1751242-.815-.011-.5294745-.4321373-1.013329-.9173321-1.444-1.448-.1861242-.2384231-.1906216-.5716404-.011-.815l.41-.574c-.4901027-.7626891-.8405665-1.6065109-1.035-2.492l-.692-.112c-.2988633-.0460151-.530816-.28491-.568-.585-.033-.33-.056-.673-.056-1.022s.023-.692.056-1.024c.037184-.30009.2691367-.5389849.568-.585l.692-.112c.1944335-.8854891.5448973-1.72931091 1.035-2.492l-.41-.574c-.1797867-.24367421-.1752899-.57726065.011-.816.2137541-.26608935.4428077-.51951752.686-.759.2395959-.24344114.4933718-.47250727.76-.686.2384231-.18612418.5716404-.19062159.815-.011l.574.41c.7626891-.49010275 1.6065109-.84056646 2.492-1.035l.112-.692c.0460151-.29886332.28491-.53081598.585-.568.6806249-.07466895 1.3673751-.07466895 2.048 0 .30009.03718402.5389849.26913668.585.568l.112.692c.8854891.19443354 1.7293109.54489725 2.492 1.035l.574-.41c.2433596-.17962159.5765769-.17512418.815.011.2666282.21349273.5204041.44255886.76.686.2431923.23948248.4722459.49291065.686.759.1862899.23873935.1907867.57232579.011.816l-.41.574c.4901027.76268909.8405665 1.6065109 1.035 2.492l.692.112c.2988633.0460151.530816.28491.568.585.033.332.056.675.056 1.024z"/></g><circle id="Oval" cx="14" cy="29" fill="#7f8c8d" r="4"/><circle id="Oval" cx="46" cy="29" fill="#7f8c8d" r="4"/><circle id="Oval" cx="30" cy="13" fill="#7f8c8d" r="4"/></g></g></svg>