<svg height="512" viewBox="0 0 58 58" width="512" xmlns="http://www.w3.org/2000/svg"><g id="Page-1" fill="none" fill-rule="evenodd"><g id="097---Repair-Printer"><path id="Path" d="m38.49 43.42 6.05 6.05c1.9523266 1.955088 1.950088 5.1226734-.005 7.075s-5.1226734 1.950088-7.075-.005l-9.21-9.21 3.75-5.33z" fill="#e64c3c"/><path id="Path" d="m41 54c-.2651948-.0000566-.5195073-.1054506-.707-.293l-12.5-12.5c-.3789722-.3923789-.3735524-1.0160848.0121814-1.4018186s1.0094397-.3911536 1.4018186-.0121814l12.5 12.5c.2859079.2859943.3714219.7160366.216678 1.0896546-.1547439.3736179-.5192821.6172591-.923678.6173454z" fill="#c03a2b"/><path id="Path" d="m13.27 29h-11.27c-1.10320187-.0032948-1.9967052-.8967981-2-2v-21c0-3.3137085 2.6862915-6 6-6h46c3.3137085 0 6 2.6862915 6 6v21c-.0032948 1.1032019-.8967981 1.9967052-2 2h-20.57" fill="#ecf0f1"/><path id="Rectangle" d="m7 24h44v5h-44z" fill="#bdc3c7"/><path id="Path" d="m51 22v2h-44v-2c0-1.6568542 1.34314575-3 3-3h38c1.6568542 0 3 1.3431458 3 3z" fill="#7f8c8d"/><path id="Path" d="m33.83 10.634-2.83-1.634 2.83-1.634c.4742136-.27800577.6351286-.88664704.3602745-1.3626943-.274854-.47604727-.8824145-.64099599-1.3602745-.3693057l-2.83 1.634v-3.268c0-.55228475-.4477153-1-1-1s-1 .44771525-1 1v3.268l-2.83-1.634c-.47786-.27169029-1.0854205-.10674157-1.3602745.3693057-.2748541.47604726-.1139391 1.08468853.3602745 1.3626943l2.83 1.634-2.83 1.634c-.3119508.1773616-.5049532.5082732-.5057421.8671183s.1907567.6906021.5019247.8693336c.3111679.1787314.694247.1770325 1.0038174-.0044519l2.83-1.634v3.268c0 .5522847.4477153 1 1 1s1-.4477153 1-1v-3.268l2.83 1.634c.3095704.1814844.6926495.1831833 1.0038174.0044519.311168-.1787315.5027136-.5104885.5019247-.8693336s-.1937913-.6897567-.5057421-.8671183z" fill="#67b9cc"/><g fill="#65ddb9"><circle id="Oval" cx="41" cy="15" r="1"/><circle id="Oval" cx="46" cy="15" r="1"/><circle id="Oval" cx="51" cy="15" r="1"/></g><path id="Path" d="m28 38-3.4 1.82-6.93-7.02-2.8-1.4c-.4679506-.237283-.8390601-.6295987-1.05-1.11l-1.73-4.04c-.1820754-.4152061-.0907571-.8995902.23-1.22l.71-.71c.3204098-.3207571.8047939-.4120754 1.22-.23l4.04 1.73c.4804013.2109399.872717.5820494 1.11 1.05l1.41 2.81 5.61 5.68z" fill="#7f8c8d"/><path id="Path" d="m51 12h-10c-.5522847 0-1-.4477153-1-1s.4477153-1 1-1h10c.5522847 0 1 .4477153 1 1s-.4477153 1-1 1z" fill="#7f8c8d"/><path id="Path" d="m43.12 40.81c-2.7655395 2.7743702-6.9140312 3.6425678-10.56 2.21l-4.31 4.31-9.52 9.51c-.9949847.996771-2.4461594 1.3870074-3.8068808 1.0237109-1.3607213-.3632965-2.4242633-1.4249325-2.79-2.785s.0218961-2.8119399 1.0168808-3.8087109l13.83-13.83c-.2610737-.6711282-.4488311-1.3685128-.56-2.08-.4702062-2.9896431.462763-6.0292384 2.5292573-8.2402701 2.0664943-2.2110318 5.0361784-3.3470543 8.0507427-3.0797299.5616637.0574988 1.0403004.4326411 1.2303309.9642994s.0576313 1.125203-.3403309 1.5257006l-2.78 2.79c-.4399546.4369735-.647576 1.0561301-.56 1.67l.34 2.44c.1222644.8721993.8078007 1.5577356 1.68 1.68l2.44.34c.6134251.0827967 1.2305002-.1241267 1.67-.56l2.78-2.78c.3966568-.399951.9871875-.5376637 1.5198439-.3544299s.913493.6550968.9801561 1.2144299c.2678045 2.905826-.7732921 5.7798392-2.84 7.84z" fill="#4482c3"/><path id="Path" d="m17.338 53.662c-.4043959-.0000863-.7689341-.2437275-.923678-.6173454-.1547439-.373618-.0692299-.8036603.216678-1.0896546l10.451-10.455c.2533013-.2533013.622496-.3522268.968512-.259512.3460161.0927147.6162853.3629839.709.709.0927148.346016-.0062107.7152107-.259512.968512l-10.455 10.451c-.1874927.1875494-.4418052.2929434-.707.293z" fill="#285680"/></g></g></svg>