<svg height="512" viewBox="0 0 58 58" width="512" xmlns="http://www.w3.org/2000/svg"><g id="Page-1" fill="none" fill-rule="evenodd"><g id="098---Router-Error"><path id="Path" d="m4 52h10v4c0 1.1045695-.8954305 2-2 2h-6c-1.1045695 0-2-.8954305-2-2z" fill="#464f5d"/><path id="Path" d="m44 52h10v4c0 1.1045695-.8954305 2-2 2h-6c-1.1045695 0-2-.8954305-2-2z" fill="#464f5d"/><path id="Rectangle" d="m3 18h4v22h-4z" fill="#2980ba"/><path id="Rectangle" d="m51 18h4v22h-4z" fill="#2980ba"/><path id="Path" d="m7 16v4h-4v-4c.0032948-1.1032019.89679813-1.9967052 2-2 1.10116878.0081672 1.99183278.8988312 2 2z" fill="#84b5cb"/><path id="Path" d="m55 16v4h-4v-4c.0032948-1.1032019.8967981-1.9967052 2-2 1.1011688.0081672 1.9918328.8988312 2 2z" fill="#84b5cb"/><rect id="Rectangle" fill="#3b97d3" height="16" rx="3" width="58" y="38"/><circle id="Oval" cx="7" cy="46" fill="#9fc9d3" r="3"/><rect id="Rectangle" fill="#65ddb9" height="4" rx="1" width="4" x="26" y="44"/><rect id="Rectangle" fill="#65ddb9" height="4" rx="1" width="4" x="34" y="44"/><rect id="Rectangle" fill="#65ddb9" height="4" rx="1" width="4" x="42" y="44"/><rect id="Rectangle" fill="#65ddb9" height="4" rx="1" width="4" x="50" y="44"/><circle id="Oval" cx="29.001" cy="31" fill="#e64c3c" r="3"/><path id="Path" d="m29 0c-.837388.01817904-1.6310715.37738069-2.1973989.99448879-.5663274.61710811-.8562207 1.43864394-.8026011 2.27451121l.809 18.551c.0287064 1.1961484.9947223 2.1573143 2.191 2.18 1.1953231-.023762 2.1598597-.984772 2.188-2.18l.812-18.551c.0539093-.83593863-.2358848-1.65763809-.802273-2.27481236-.5663881-.61717427-1.3602431-.97629112-2.197727-.99418764z" fill="#e64c3c"/><g fill="#3b97d3"><path id="Path" d="m31.841 2.12c5.2697471.34562117 10.3530974 2.08493451 14.73 5.04.9029856.63788889 1.1178889 1.88701443.48 2.79-.6378889.9029856-1.8870144 1.1178889-2.79.48-3.7011095-2.45405134-7.9638297-3.93000529-12.39-4.29"/><path id="Path" d="m26.161 2.12c-5.2697471.34562117-10.3530974 2.08493451-14.73 5.04-.5305762.36794535-.8450059.9743454-.84 1.62.0037186.47427218.1695669.93300153.47 1.3.6696105.7899531 1.8299767.9414935 2.68.35 3.7011095-2.45405134 7.9638297-3.93000529 12.39-4.29"/><path id="Path" d="m31.7 10.16c3.6684789.4079748 7.1583418 1.8004646 10.1 4.03.4242438.3354085.6861231.8351755.720452 1.3749006.0343288.5397251-.1621218 1.0686438-.540452 1.4550994-.7163486.7583778-1.8833751.8695232-2.73.26-2.2731758-1.6701786-4.9327034-2.736742-7.73-3.1"/><path id="Path" d="m26.481 14.18c-2.7972966.363258-5.4568242 1.4298214-7.73 3.1-.8466249.6095232-2.0136514.4983778-2.73-.26-.3474-.3634977-.5408774-.8471913-.54-1.35-.0047449-.5788041.261686-1.1264677.72-1.48 2.9416582-2.2295354 6.4315211-3.6220252 10.1-4.03"/><path id="Path" d="m31.351 18.19c1.8333692.2737898 3.5902227.924098 5.16 1.91.4953138.3256503.8206511.8542423.8882311 1.4431538s-.1295609 1.17746-.5382311 1.6068462c-.6461096.6957899-1.6954777.8343065-2.5.33-.9876439-.6125905-2.0788903-1.0396-3.22-1.26"/><path id="Path" d="m26.651 18.19c-1.8333692.2737898-3.5902227.924098-5.16 1.91-.5647657.3624311-.9044492.9889584-.9 1.66.0012529.5161578.1977385 1.0127305.55 1.39.6461096.6957899 1.6954777.8343065 2.5.33.9876439-.6125905 2.0788903-1.0396 3.22-1.26"/></g></g></g></svg>