<svg height="512" viewBox="0 0 58 46" width="512" xmlns="http://www.w3.org/2000/svg"><g id="Page-1" fill="none" fill-rule="evenodd"><g id="099---Broken-Tablet"><rect id="Rectangle" fill="#547580" height="46" rx="5" width="58"/><rect id="Rectangle" fill="#90bae1" height="38" rx="1" width="50" x="4" y="4"/><path id="Path" d="m53.18 4.02c-6.43.2-48.52 2.82-49.16 37.17-.01212462-.0626394-.01881616-.126209-.02-.19v-36c0-.55228475.44771525-1 1-1h48c.0604477.00170764.1206517.00839697.18.02z" fill="#b0d3f0"/><circle id="Oval" cx="56" cy="23" fill="#ecf0f1" r="2"/><path id="Path" d="m33 28-3 3-2-4-5 2 2-5-2-3 3-1-2-4h4l1-3 4 4 4-2-1 4 3 2-3 2 2 6z" fill="#35495e"/><path id="Shape" d="m49.707 17.293c-.3904999-.3903819-1.0235001-.3903819-1.414 0l-2.707 2.707h-6.286l-2.162-1.441.761-3.047 4.805-4.8c.3789722-.3923789.3735524-1.01608478-.0121814-1.40181858-.3857338-.38573379-1.0094397-.39115363-1.4018186-.01218142l-4.885 4.885-3.205 1.6-3.2-3.2v-3.583c0-.55228475-.4477153-1-1-1s-1 .44771525-1 1v3.839l-.721 2.161h-2.979l-5.748-3.832c-.4595009-.306518-1.080482-.1825009-1.387.277s-.1825009 1.080482.277 1.387l5.779 3.853 1.366 2.731-1.546.515-6.65-2.85c-.2702241-.1160546-.5778341-.1072762-.841.024l-4 2c-.3197527.1596977-.5300187.4778505-.5515927.8346134-.0215741.3567628.1488213.6979349.447.895.2981786.1970651.67884.2200843.9985927.0603866l3.588-1.795 6.3 2.7 1.543 2.315-1.729 4.321-3.146 3.15-3.293-3.293c-.2548212-.2546158-.6268918-.3525017-.9740209-.2562494-.347129.0962522-.6156631.3717655-.7029791.7212494l-.811 3.242h-3.219c-.55228475 0-1 .4477153-1 1s.44771525 1 1 1h4c.4589705-.0001268.8589292-.3126718.97-.758l.572-2.286 2.751 2.751c.3904999.3903819 1.0235001.3903819 1.414 0l3.855-3.854 3.955-1.582 1.483 2.965v3.764c0 .5522847.4477153 1 1 1s1-.4477153 1-1v-3.586l2.329-2.328 4.178.835 2.786 2.786c.1874927.1875494.4418052.2929434.707.293.1074618-.0000152.2141998-.0175797.316-.052l3-1c.5246705-.174522.8085219-.7413295.634-1.266-.174522-.5246705-.7413295-.808522-1.266-.634l-2.413.8-2.4-2.4-1.681-5.04 2.11-1.408h6.7c.2651948-.0000566.5195073-.1054506.707-.293l3-3c.3903819-.3904999.3903819-1.0235001 0-1.414zm-14.262 4.875c-.3747231.2503884-.5356566.7204947-.393 1.148l1.455 4.366-3.307-.662c-.3267434-.0645549-.6641818.0378014-.9.273l-2.019 2.019-1.381-2.759c-.2323405-.4655587-.7828681-.6751592-1.266-.482l-2.834 1.134 1.134-2.834c.1212186-.3062969.0838161-.6526442-.1-.926l-1.273-1.911 1.757-.586c.2749124-.0915401.4966043-.2978216.6076796-.5654384.1110753-.2676167.1006125-.5702549-.0286796-.8295616l-1.279-2.553h2.382c.4302393-.0003267.8120445-.2758064.948-.684l.49-1.464 2.855 2.855c.3041447.3044429.7689521.3801654 1.154.188l2.053-1.028-.473 1.891c-.1023168.4097145.0637699.8395387.415 1.074l1.758 1.168z" fill="#4482c3" fill-rule="nonzero"/></g></g></svg>