<svg height="512" viewBox="0 0 58 58" width="512" xmlns="http://www.w3.org/2000/svg"><g id="Page-1" fill="none" fill-rule="evenodd"><g id="100---Repair-SD-Card" transform="translate(0 -1)"><path id="Path" d="m39 13v12c-.0042757.2613244.0955878.513614.2775613.7012155.1819735.1876016.4311053.2951009.6924387.2987845.2703754-.0081149.5325051.0936485.726581.2820716.1940758.1884231.3035408.4474313.303419.7179284v29c0 1.6568542-1.3431458 3-3 3h-5c-.5522847 0-1-.4477153-1-1s-.4477153-1-1-1h-21c-.55228475 0-1 .4477153-1 1s-.44771525 1-1 1h-5c-1.65685425 0-3-1.3431458-3-3v-23c0-.5522847.44771525-1 1-1h2c.55228475 0 1-.4477153 1-1v-11c0-.5522847-.44771525-1-1-1h-3v-10c.0032948-1.10320187.89679813-1.9967052 2-2h31.17c.5329123.00024132 1.0438267.21252266 1.42.59l3.31 3.31z" fill="#547580"/><path id="Path" d="m4 20v6h-3c-.55228475 0-1-.4477153-1-1v-6h3c.55228475 0 1 .4477153 1 1z" fill="#3f5c6c"/><path id="Path" d="m35 18v5h-27v-5c0-1.6568542 1.34314575-3 3-3h21c1.6568542 0 3 1.3431458 3 3z" fill="#f5efca"/><path id="Path" d="m35 23v27c0 1.6568542-1.3431458 3-3 3h-21c-1.65685425 0-3-1.3431458-3-3v-27z" fill="#f0c419"/><path id="Path" d="m56.48 9.878-8.159 8.147c.5751775 1.1885583.3343568 2.6110062-.6 3.544-.4085625.4052222-1.0674375.4052222-1.476 0l-8.814-8.813c-.4052222-.4085625-.4052222-1.0674375 0-1.476.5853614-.5792779 1.3764696-.9029131 2.2-.9.4640309-.003591.9227329.0990269 1.341.3l8.149-8.16c2.0318556-2.03213165 5.3263682-2.03235546 7.3584999-.00049991 2.0321317 2.03185556 2.0323556 5.32636816.0005001 7.35849991z" fill="#e64c3c"/><path id="Path" d="m46.383 13.615c-.4043959-.0000863-.7689341-.2437275-.923678-.6173454-.1547439-.373618-.0692299-.8036603.216678-1.0896546l6.418-6.417c.3923789-.37897221 1.0160848-.37355237 1.4018186.01218142.3857338.3857338.3911536 1.00943969.0121814 1.40181858l-6.418 6.417c-.1870531.1882061-.4416514.2937185-.707.293z" fill="#c03a2b"/><path id="Path" d="m43.34 18.67-11.9 11.89-1.34 2.69c-.231908.4449873-.6051372.8002761-1.061 1.01l-3.89 1.66c-.3976738.1642188-.8550692.0735284-1.16-.23l-.68-.68c-.3067196-.3036692-.3942352-.7651152-.22-1.16l1.65-3.88c.2061142-.4605295.5621176-.8376816 1.01-1.07l2.7-1.35 9.561-9.55 2.33-2.33" fill="#95a5a5"/></g></g></svg>